<svg xmlns="http://www.w3.org/2000/svg" width="200" height="200" fill="none"><path stroke="var(--steel-90, #001729)" stroke-linecap="round" d="M63 177h59.5M53 181h59.5"/><path fill="var(--unique-white, #ffffff)" stroke="var(--unique-black, #111111)" stroke-linecap="round" stroke-linejoin="round" stroke-miterlimit="10" d="M149.918 19.295H30.398V95.93h119.52V19.295Z"/><path fill="var(--unique-white, #ffffff)" stroke="var(--unique-black, #111111)" stroke-linecap="round" stroke-linejoin="round" stroke-miterlimit="10" d="M91.967 56.523h-8.715v8.715h8.715v-8.715ZM109.715 56.523H101v8.715h8.715v-8.715ZM128.715 56.523H120v8.715h8.715v-8.715Z"/><path fill="var(--brand-sapphire-60, #1952b6)" d="M136.999 51.231h-53a6.536 6.536 0 0 1-6.537-6.536v-1.743a6.536 6.536 0 0 1 6.536-6.537H137v14.816ZM73.041 68.413H41.417V53.535H73.04a6.536 6.536 0 0 1 6.537 6.536v1.743c0 3.673-2.926 6.6-6.537 6.6Z"/><path fill="var(--brand-sapphire-10, #d5e8fd)" d="m56.642 36.305-14.286-.625-.667 15.238 14.286.625.667-15.238Z"/><path fill="var(--unique-white, #ffffff)" stroke="var(--unique-black, #111111)" stroke-linecap="round" stroke-linejoin="round" stroke-miterlimit="10" d="M53.743 39.403h-8.716v8.716h8.716v-8.716ZM77.337 30.937H46.086c-.81 0-1.494-.685-1.494-1.494 0-.81.684-1.494 1.494-1.494h31.25c.81 0 1.495.684 1.495 1.494 0 .81-.685 1.494-1.494 1.494ZM72.855 39.403h-8.716v8.716h8.716v-8.716ZM91.966 39.403h-8.715v8.716h8.715v-8.716ZM109.584 39.403h-8.715v8.716h8.715v-8.716ZM128.715 39.403H120v8.716h8.715v-8.716ZM53.743 56.523h-8.715v8.715h8.715v-8.715ZM72.855 56.523h-8.716v8.715h8.716v-8.715Z"/><path stroke="var(--unique-black, #111111)" stroke-linecap="round" stroke-linejoin="round" stroke-miterlimit="10" d="m45.028 39.403 8.778 8.716M64.14 39.403l8.715 8.716M38.74 15v8.093M49.136 15v8.093M59.533 15v8.093M69.93 15v8.093M80.325 15v8.093M101.118 15v8.093M90.722 15v8.093M111.452 15v8.093M122 15v8.093M132.547 15v8.093M143.094 15v8.093"/><path stroke="var(--steel-90, #001729)" stroke-linecap="round" stroke-linejoin="round" stroke-miterlimit="10" d="m19.731 37.47 1.494 1.68M15.871 42.325 15 43.695"/><path fill="var(--brand-sapphire-10, #d5e8fd)" d="M186.149 140.63 182.015 123 132 134.727l4.133 17.63 50.016-11.727ZM37.554 177.273l7.593-11.62-11.62-7.593-7.593 11.62 11.62 7.593Z"/><path fill="var(--unique-black, #111111)" d="m163.897 150.641 1.744-8.897-8.897-1.744-1.744 8.897 8.897 1.744Z"/><path stroke="var(--steel-90, #001729)" stroke-linecap="round" d="M93 125h59.5M171 154h17M165 159h10"/><path fill="var(--unique-white, #ffffff)" stroke="var(--unique-black, #111111)" stroke-linecap="round" stroke-linejoin="round" stroke-miterlimit="10" d="M81.414 106.121c-5.434 1.767-10.371.457-15.92-1.604-4.644-1.719-8.636-4.812-8.942-9.848-.171-2.645-3.05-4.5-5.522-4.186-2.794.407-4.357 2.878-4.185 5.523.495 8.121 6.567 14.927 13.83 17.974 8.23 3.394 17.38 2.001 25.597-.675 6.018-1.871.458-8.891-4.858-7.184Z"/><path stroke="var(--unique-black, #111111)" stroke-linecap="round" stroke-linejoin="round" stroke-miterlimit="10" d="m77.5 93.13.747-7.242 4.89 5.397 9.663 27.626-5.638 1.845L77.5 93.13Z"/><path fill="var(--unique-black, #111111)" d="m77.987 90.222 3.028-1.04-2.842-2.987-.186 4.027ZM77.5 93.13l5.637-1.845 9.663 27.626-5.638 1.845L77.5 93.13ZM54.25 78.91c-1.494 1.182-3.362 3.361-7.222 2.863-3.86-.498-12.264 1.183-8.902 4.856s.872 5.416 9.65 6.785c8.777 1.37 9.898-13.82 9.898-13.82l-3.424-.685Z"/><path fill="var(--unique-white, #ffffff)" stroke="var(--unique-black, #111111)" stroke-linecap="round" stroke-linejoin="round" stroke-miterlimit="10" d="M60.164 83.454s-.56 2.428-2.863 2.179l-4.67 7.657a68.955 68.955 0 0 1-3.672-1.992l4.669-7.72c-.436-.871-.56-1.992-.125-3.486.934-3.3 5.167-2.739 6.35-.622 1.183 2.116 1.183 3.61 1.183 3.61l-.872.374Z"/><path fill="var(--unique-black, #111111)" d="M60.35 78.536c-.186 1.494-3.361 2.49-4.482 2.365-1.68-.124-1.68 1.432-.31 1.495.622 0-.997 1.245-1.37 1.307h-.498c-.498-.872-.25-1.93-.187-3.61.062-1.993 4.482-3.798 4.731-2.678 1.37-.871 2.179-.311 2.117 1.12Z"/><path fill="var(--unique-black, #111111)" d="M55.744 82.458s-.25 7.844-8.155 7.657l5.291-7.844 2.864.187Z"/><path fill="var(--unique-white, #ffffff)" stroke="var(--unique-black, #111111)" stroke-linecap="round" stroke-linejoin="round" stroke-miterlimit="10" d="M17.832 164.944 7 170.048l7.595 14.256s4.17-2.116 2.49-6.349l5.291-3.424-4.544-9.587Z"/><path stroke="var(--unique-black, #111111)" stroke-linecap="round" stroke-linejoin="round" stroke-miterlimit="10" d="m17.147 177.955.623-3.299M15.59 176.149l3.238.498"/><path fill="var(--unique-white, #ffffff)" stroke="var(--unique-black, #111111)" stroke-linecap="round" stroke-linejoin="round" stroke-miterlimit="10" d="m83.633 171.542-1.37 11.891 16.124.996s.373-4.669-4.046-5.479l-.125-6.287-10.583-1.121Z"/><path stroke="var(--unique-black, #111111)" stroke-linecap="round" stroke-linejoin="round" stroke-miterlimit="10" d="m94.34 179.013-2.49-2.304"/><path fill="var(--unique-black, #111111)" d="m78.902 173.97 15.937-.311c.81-14.879-3.549-31.874-11.828-44.324-7.969-11.953-19.236-20.917-32.372-26.458-2.988-4.109-11.143-3.05-11.019 3.424.312 12.824.872 26.333-4.108 38.473-3.798 9.275-13.323 13.882-22.163 18.426 1.681 3.673 6.101 9.401 8.093 12.949 11.081-5.54 19.921-14.505 24.777-25.897 4.545-10.646 5.603-22.038 5.603-33.492 19.92 10.645 30.753 32.122 27.08 57.21Z"/><path stroke="var(--unique-black, #111111)" stroke-linecap="round" stroke-linejoin="round" stroke-miterlimit="10" d="m91.975 179.386 2.117-2.552"/><path fill="var(--unique-black, #111111)" d="M50.142 90.053c-5.354-.125-8.591.871-11.268 19.858l16.497 1.868s.996-5.727 1.68-10.583c1.806-1.556.997-10.956-6.91-11.143Z"/><path fill="var(--unique-black, #111111)" d="m51.823 88.247 4.544 2.18-1.307 1.804-6.225-2.676 2.988-1.308Z"/><path stroke="var(--unique-white, #ffffff)" stroke-linecap="round" stroke-linejoin="round" stroke-miterlimit="10" d="m40.244 110.222 9.276.872"/><path fill="var(--unique-white, #ffffff)" stroke="var(--unique-black, #111111)" stroke-linecap="round" stroke-linejoin="round" stroke-miterlimit="10" d="M85.439 109.849c-.872-2.739-3.548-3.735-6.163-3.175-5.603 1.246-12.077 1.806-17.369-.809-4.42-2.179-7.657-6.225-7.47-11.268.124-2.677-2.615-4.793-5.105-4.73-2.801.124-4.607 2.427-4.731 5.104-.312 8.093 5.042 15.501 12.015 19.236 7.844 4.233 17.12 3.673 25.586 1.805 2.614-.56 3.984-3.797 3.237-6.163Z"/><path fill="var(--unique-white, #ffffff)" d="M78.654 106.799c3.86-.934 7.47-3.113 8.155-2.054.809 1.307-2.802 1.431-1.93 2.614.871 1.183 5.54-1.867 6.225-.311.685 1.556-4.233 2.988-4.233 2.988s4.109-1.805 4.482-.436c.374 1.308-4.295 2.802-4.295 2.802s4.108-1.806 4.357-.685c.25 1.245-3.299 2.801-9.587 4.295"/><path stroke="var(--unique-black, #111111)" stroke-linecap="round" stroke-linejoin="round" stroke-miterlimit="10" d="M78.654 106.799c3.86-.934 7.47-3.113 8.155-2.054.809 1.307-2.802 1.431-1.93 2.614.871 1.183 5.54-1.867 6.225-.311.685 1.556-4.233 2.988-4.233 2.988s4.109-1.805 4.482-.436c.374 1.308-4.295 2.802-4.295 2.802s4.108-1.806 4.357-.685c.25 1.245-3.299 2.801-9.587 4.295M79.276 106.675l1.93 9.525"/><path fill="var(--unique-black, #111111)" d="M100.582 148.421 98.422 145 95 147.161l2.161 3.421 3.421-2.161Z"/><path stroke="var(--steel-90, #001729)" stroke-linecap="round" stroke-linejoin="round" stroke-miterlimit="10" d="m154 111.183 1.369-1.183M96.708 153.924l.684 2.055M55.682 149.068l-2.178 2.055"/><path fill="var(--unique-white, #ffffff)" stroke="var(--unique-black, #111111)" stroke-linecap="round" stroke-linejoin="round" stroke-miterlimit="10" d="M96.66 56.4 85 70.18l16.871 14.275 11.661-13.782-16.871-14.275Z"/><path stroke="var(--unique-black, #111111)" stroke-linecap="round" stroke-linejoin="round" stroke-miterlimit="10" d="m91.426 71.084 6.35-7.47M94.29 73.512l6.35-7.47"/><path fill="var(--unique-white, #ffffff)" d="M102.632 69.714c.311-.373.684-.81.996-1.183Z"/><path stroke="var(--unique-black, #111111)" stroke-linecap="round" stroke-linejoin="round" stroke-miterlimit="10" d="M102.632 69.714c.311-.373.684-.81.996-1.183"/><path fill="var(--unique-white, #ffffff)" d="M97.278 76.002c1.245-1.494 2.49-2.926 3.735-4.42Z"/><path stroke="var(--unique-black, #111111)" stroke-linecap="round" stroke-linejoin="round" stroke-miterlimit="10" d="M97.278 76.002c1.245-1.494 2.49-2.926 3.735-4.42"/><path fill="var(--unique-white, #ffffff)" stroke="var(--unique-black, #111111)" stroke-linecap="round" stroke-linejoin="round" stroke-miterlimit="10" d="M114.212 38.899s1.245 2.116 3.362 1.245l6.661 5.914c.996-.996 1.992-1.992 2.926-2.989l-6.724-5.976c.187-.934-.062-2.054-.871-3.362-1.868-2.925-5.727-1.12-6.225 1.308-.561 2.365-.063 3.797-.063 3.797l.934.063Z"/><path fill="var(--unique-black, #111111)" d="M112.531 34.23c.623 1.37 3.922 1.37 4.981.996 1.556-.56 1.992.934.747 1.37-.623.186 1.307.87 1.68.809a.898.898 0 0 0 .436-.125c.249-.996-.311-1.93-.871-3.486-.623-1.868-5.416-2.303-5.354-1.183-1.494-.436-2.054.311-1.619 1.619Z"/><path fill="var(--unique-black, #111111)" d="M116.329 32.798c-.809-.436-2.054.498-1.619 1.618.561 1.37.374 2.802-.311 4.047-.311.187-.498.498-.56.934-.125 2.365 2.863 2.925 4.108 1.183.561-.872.623-1.93.436-2.864-.249-1.37-.685-2.677-.996-3.984-.124-.623-.56-.934-1.058-.934Z"/><path fill="var(--unique-black, #111111)" stroke="var(--unique-black, #111111)" stroke-linecap="round" stroke-linejoin="round" stroke-miterlimit="10" d="m181.134 103.455 11.828.872-2.054 16.061s-4.607-.498-4.545-5.043l-6.101-1.307.872-10.583Z"/><path stroke="var(--unique-white, #ffffff)" stroke-linecap="round" stroke-linejoin="round" stroke-miterlimit="10" d="m186.363 115.346.872-1.93M184.682 114.848l.872-1.93"/><path fill="var(--unique-black, #111111)" stroke="var(--unique-black, #111111)" stroke-linecap="round" stroke-linejoin="round" stroke-miterlimit="10" d="m120.25 131.096 2.303 11.641-15.999 2.303s-.747-4.544 3.611-5.727l-.436-6.225 10.521-1.992Z"/><path fill="var(--unique-white, #ffffff)" stroke="var(--unique-black, #111111)" stroke-linecap="round" stroke-linejoin="round" stroke-miterlimit="10" d="M121.37 132.901c-4.606-21.602.685-52.417 14.568-69.662 1.93-2.427 2.365-5.789 0-8.217-2.055-2.054-6.226-2.428-8.218 0-16.248 20.295-22.909 49.554-18.551 79.186 3.922-.373 8.404-.622 12.201-1.307Z"/><path fill="var(--unique-white, #ffffff)" stroke="var(--unique-black, #111111)" stroke-linecap="round" stroke-linejoin="round" stroke-miterlimit="10" d="M183.748 103.082c-21.166-1.245-35.235-27.08-42.83-46.005-1.183-2.926-3.859-4.919-7.159-4.047-2.739.747-5.229 4.233-4.046 7.16 5.353 13.321 10.832 26.893 20.481 37.725 8.155 9.151 19.547 16.434 31.874 17.244.498-3.922 1.058-8.28 1.68-12.077Z"/><path stroke="var(--unique-white, #ffffff)" stroke-linecap="round" stroke-linejoin="round" stroke-miterlimit="10" d="m110.227 139.313 2.117.311M110.103 137.196l2.117.312"/><path fill="var(--unique-black, #111111)" stroke="var(--unique-black, #111111)" stroke-linecap="round" stroke-linejoin="round" stroke-miterlimit="10" d="M150.506 45.871c-7.346-3.05-15.315-2.864-23.096-2.179l.56 9.525c5.852-.623 11.953-.996 17.493.934 4.918 1.68 9.712 5.54 10.397 10.956h.062a648.034 648.034 0 0 1 9.276-2.178c-1.495-7.782-7.409-14.07-14.692-17.058Z"/><path fill="var(--unique-white, #ffffff)" d="M155.922 65.107c-.187 2.74-.622 5.479.747 5.79 1.37.311 1.307-5.043 2.615-1.868 1.307 3.175.311 4.171 1.805 4.358 1.556.187.498-4.544.498-4.544s.872 4.357 1.93 4.046c1.058-.311.311-4.793.311-4.793s.685 4.295 1.619 3.735c.934-.623.373-5.416-.249-8.903"/><path stroke="var(--unique-black, #111111)" stroke-linecap="round" stroke-linejoin="round" stroke-miterlimit="10" d="M155.922 65.107c-.187 2.74-.622 5.479.747 5.79 1.37.311 1.307-5.043 2.615-1.868 1.307 3.175.311 4.171 1.805 4.358 1.556.187.498-4.544.498-4.544s.872 4.357 1.93 4.046c1.058-.311.311-4.793.311-4.793s.685 4.295 1.619 3.735c.934-.623.373-5.416-.249-8.903"/><path fill="var(--unique-black, #111111)" d="M124.982 43.319c-8.84 4.046-7.221 7.159-3.798 21.29l20.669-7.906c-2.615-3.797-5.666-18.49-16.871-13.384Z"/><path fill="var(--unique-black, #111111)" stroke="var(--unique-black, #111111)" stroke-linecap="round" stroke-linejoin="round" stroke-miterlimit="10" d="M126.103 49.42c-1.619 6.66-3.237 14.069-7.595 19.547-3.237 4.046-8.529 7.284-13.82 6.1v.063c-.374 3.175-.747 6.35-1.121 9.463 7.844 1.245 15.688-2.242 21.042-8.094 6.163-6.785 8.653-15.874 10.77-24.59 1.431-5.976-7.844-8.528-9.276-2.49Z"/><path fill="var(--unique-white, #ffffff)" d="M104.625 75.068c-2.303-.623-4.918-2.428-5.665-1.245-.747 1.183 4.296 2.926.872 3.112-3.424.187-4.171-.684-4.732.25-.747 1.369 4.11 1.991 4.11 1.991s-4.359-.684-4.483.436c-.125 1.12 4.358 1.93 4.358 1.93s-4.296-.871-4.047.25c.25 1.12 4.98 2.178 8.467 2.738"/><path stroke="var(--unique-black, #111111)" stroke-linecap="round" stroke-linejoin="round" stroke-miterlimit="10" d="M104.625 75.068c-2.303-.623-4.918-2.428-5.665-1.245-.747 1.183 4.296 2.926.872 3.112-3.424.187-4.171-.684-4.732.25-.747 1.369 4.11 1.991 4.11 1.991s-4.359-.684-4.483.436c-.125 1.12 4.358 1.93 4.358 1.93s-4.296-.871-4.047.25c.25 1.12 4.98 2.178 8.467 2.738"/><path fill="var(--unique-black, #111111)" d="M158.598 68.095c1.308-1.618 1.743-2.926 1.743-2.926Z"/><path stroke="var(--unique-black, #111111)" stroke-linecap="round" stroke-linejoin="round" stroke-miterlimit="10" d="M158.598 68.095c1.308-1.618 1.743-2.926 1.743-2.926"/><path stroke="var(--unique-white, #ffffff)" stroke-linecap="round" stroke-linejoin="round" stroke-miterlimit="10" d="M124.235 48.735c-1.37 3.05.373 9.587-2.366 14.505M133.822 52.906c0 3.548-.249 5.416-.249 5.416M133.448 44.066c1.868 1.618 5.79 8.84 5.79 8.84"/><path stroke="var(--steel-90, #001729)" stroke-linecap="round" stroke-linejoin="round" stroke-miterlimit="10" d="m102.385 134.956 1.68 1.307M152.809 108l-.809 2.739M127 135l1.556 1.556"/></svg>
