<svg xmlns="http://www.w3.org/2000/svg" width="200" height="200" fill="none"><g clip-path="url(#a)"><path fill="var(--unique-black)" d="m128.572 184.579 46.956-8.865 1.066 5.641-46.957 8.865z"/><path fill="var(--brand-sapphire-10)" d="M85.154 52.885c1.27-2.99 5.274-3.537 7.298-.996l85.781 107.693c2.071 2.601.521 6.467-2.773 6.917L35.896 185.548c-3.294.449-5.824-2.86-4.525-5.921L85.154 52.885Z"/><mask id="b" fill="#fff"><path d="M9.764 160.44c2.94-4.957 4.41-7.435 6.72-8.901.307-.195.624-.375.948-.54 2.44-1.239 5.321-1.239 11.084-1.239h100.11c5.763 0 8.645 0 11.084 1.239.325.165.641.345.949.54 2.31 1.466 3.78 3.944 6.72 8.901 4.104 6.919 6.156 10.379 4.947 13.081a5.706 5.706 0 0 1-.549.964c-1.707 2.418-5.73 2.418-13.774 2.418H19.14c-8.045 0-12.067 0-13.775-2.418a5.742 5.742 0 0 1-.548-.964c-1.209-2.702.843-6.162 4.947-13.081Z"/></mask><path fill="var(--unique-white)" stroke="var(--unique-black)" stroke-width="2" d="M9.764 160.44c2.94-4.957 4.41-7.435 6.72-8.901.307-.195.624-.375.948-.54 2.44-1.239 5.321-1.239 11.084-1.239h100.11c5.763 0 8.645 0 11.084 1.239.325.165.641.345.949.54 2.31 1.466 3.78 3.944 6.72 8.901 4.104 6.919 6.156 10.379 4.947 13.081a5.706 5.706 0 0 1-.549.964c-1.707 2.418-5.73 2.418-13.774 2.418H19.14c-8.045 0-12.067 0-13.775-2.418a5.742 5.742 0 0 1-.548-.964c-1.209-2.702.843-6.162 4.947-13.081Z" mask="url(#b)"/><path stroke="var(--unique-black)" stroke-linecap="round" d="M22.857 156.071h21.429M27.857 159.286h21.429"/><path fill="var(--unique-white)" stroke="var(--unique-black)" stroke-linecap="round" stroke-linejoin="round" stroke-miterlimit="10" d="M119.551 159.918c2.911 9.121 7.957 24.065 7.957 24.065s-5.628 2.329-4.367 7.666h21.154c.194-.388-8.539-29.693-12.032-36.777-3.106 1.456-12.712 5.046-12.712 5.046Z"/><mask id="c" fill="#fff"><path d="M161.401 140.511c8.637 4.172 25.888 16.637 25.888 16.637s-1.164 6.502 5.628 9.122l7.084-18.534c-.097-.389-23.968-9.51-33.478-15.914-1.261 3.202-5.122 8.689-5.122 8.689Z"/></mask><path fill="var(--unique-white)" stroke="var(--unique-black)" stroke-width="2" d="M161.401 140.511c8.637 4.172 25.888 16.637 25.888 16.637s-1.164 6.502 5.628 9.122l7.084-18.534c-.097-.389-23.968-9.51-33.478-15.914-1.261 3.202-5.122 8.689-5.122 8.689Z" mask="url(#c)"/><mask id="d" fill="#fff"><path d="M182.878 157.304c2.232-4.561 6.211-11.645 8.54-16.108-21.931-12.033-53.721-41.344-57.409-65.99-6.986-1.844-13.876-3.882-20.571-6.405-.194.485-.389.97-.486 1.552-6.21 30.955.175 79.03 9.393 109.208 6.941 0 16.227 0 20.513-.989-6.016-19.602-19.523-58.245-18.552-78.72 6.695 21.737 39.068 46.972 58.572 57.452Z"/></mask><path fill="var(--brand-sapphire-60)" stroke="var(--unique-black)" stroke-width="2" d="M182.878 157.304c2.232-4.561 6.211-11.645 8.54-16.108-21.931-12.033-53.721-41.344-57.409-65.99-6.986-1.844-13.876-3.882-20.571-6.405-.194.485-.389.97-.486 1.552-6.21 30.955.175 79.03 9.393 109.208 6.941 0 16.227 0 20.513-.989-6.016-19.602-19.523-58.245-18.552-78.72 6.695 21.737 39.068 46.972 58.572 57.452Z" mask="url(#d)"/><path stroke="var(--unique-black)" stroke-linecap="round" stroke-linejoin="round" stroke-miterlimit="10" d="M127.507 184.08h3.202M187.289 157.148l1.164-2.038M121.588 86.655c.291 3.785 2.329 11.354 2.329 11.354"/><path fill="var(--unique-white)" d="M77.992 30.788c-8.277-.248-10.44 2.2-12.83 4.612-1.188 1.255-2.899 4.941-2.736 7.37"/><path stroke="var(--unique-black)" stroke-linecap="round" stroke-linejoin="round" stroke-miterlimit="10" d="M77.992 30.788c-8.277-.248-10.44 2.2-12.83 4.612-1.188 1.255-2.899 4.941-2.736 7.37"/><path fill="var(--unique-white)" d="m64.742 38.363 5.439-5.471 7.043-1.622 1.213 2.06-1.213 6.817L71.5 42l-5.778-1.708-.98-1.929Z"/><mask id="e" fill="#fff"><path d="M46.853 15.937a11.428 11.428 0 0 1 9.798 5.664l37.73 64.603a11.428 11.428 0 0 1 .12 11.317l-7.292 13.118c-2.15 3.869-7.696 3.928-9.928.105L26.875 24.439c-2.233-3.823.543-8.623 4.97-8.596l15.008.094Z"/></mask><path fill="var(--unique-white)" stroke="var(--unique-black)" stroke-width="2" d="M46.853 15.937a11.428 11.428 0 0 1 9.798 5.664l37.73 64.603a11.428 11.428 0 0 1 .12 11.317l-7.292 13.118c-2.15 3.869-7.696 3.928-9.928.105L26.875 24.439c-2.233-3.823.543-8.623 4.97-8.596l15.008.094Z" mask="url(#e)"/><path stroke="var(--unique-black)" stroke-linecap="round" d="m59.04 44.58 6.485 11.103"/><path fill="var(--unique-white)" d="M67.784 38.654c-.368 3.487-3.008 4.867-1.832 6.85 1.19 2.08 4.509-4.001 8.395-3.595"/><path stroke="var(--unique-black)" stroke-linecap="round" stroke-linejoin="round" stroke-miterlimit="10" d="M67.784 38.654c-.368 3.487-3.008 4.867-1.832 6.85 1.19 2.08 4.509-4.001 8.395-3.595"/><path fill="var(--unique-white)" stroke="var(--unique-black)" stroke-linecap="round" stroke-linejoin="round" stroke-miterlimit="10" d="M143.57 57.5c2.858 4.285-5.801 28.66-5.926 30.715-2.102-.706-30.145-10-30.145-10l10.548-24.267C102.036 44.71 88.214 43.57 72.5 42.14l5.504-11.35c18.082 1.821 31.889 6.37 49.403 17.334 2.601 1.629 14.021 6.874 16.163 9.374Z"/><path fill="var(--unique-white)" d="M85.497 75.89c-2.607-4.192-4.339-7.97-4.957-4.614-.46 2.802.783 4.268-2.303 1.741-2.972-2.517-3.94-3.166-4.4-1.727-.46 1.439 3.058 4.229 3.058 4.229s-4.14-3.523-4.91-2.45c-.882 1.062 3.323 5.158 3.323 5.158s-4.44-4.002-5.474-2.497c-1.023 1.392 3.933 4.642 8.59 8.775"/><path stroke="var(--unique-black)" stroke-linecap="round" stroke-linejoin="round" stroke-miterlimit="10" d="M85.497 75.89c-2.607-4.192-4.339-7.97-4.957-4.614-.46 2.802.783 4.268-2.303 1.741-2.972-2.517-3.94-3.166-4.4-1.727-.46 1.439 3.058 4.229 3.058 4.229s-4.14-3.523-4.91-2.45c-.882 1.062 3.323 5.158 3.323 5.158s-4.44-4.002-5.474-2.497c-1.023 1.392 3.933 4.642 8.59 8.775"/><path fill="var(--unique-white)" d="M138.385 69.584c-2.63 4.326-6.557 9.227-10.136 12.68-5.45 5.456-12.047 8.318-19.765 9.61-2.078.397-4.024.577-6.064.522-3.525.05-6.891-.456-10.22-1.413-4.89-1.313-9.582-3.632-13.88-6.6.479-.302.967-.716 1.352-1.252 1.917-2.567 3.72-5.145 5.523-7.722 6.124 4.255 13.43 6.563 21.251 5.392 5.875-.99 10.442-4.02 14.529-8.113 3.834-3.772 6.604-8.428 9.525-13.525"/><path stroke="var(--unique-black)" stroke-linecap="round" stroke-linejoin="round" stroke-miterlimit="10" d="M138.385 69.584c-2.63 4.326-6.557 9.227-10.136 12.68-5.45 5.456-12.047 8.318-19.765 9.61-2.078.397-4.024.577-6.064.522-3.525.05-6.891-.456-10.22-1.413-4.89-1.313-9.582-3.632-13.88-6.6.479-.302.967-.716 1.352-1.252 1.917-2.567 3.72-5.145 5.523-7.722 6.124 4.255 13.43 6.563 21.251 5.392 5.875-.99 10.442-4.02 14.529-8.113 3.834-3.772 6.604-8.428 9.525-13.525"/><path fill="var(--unique-white)" stroke="var(--unique-black)" stroke-linecap="round" stroke-linejoin="round" stroke-miterlimit="10" d="m135.01 52.158 1.069-3.924 1.282-4.543c1.369-.236 2.743-1.093 4.166-2.861 3.057-3.948-1.294-8.25-4.817-7.868-3.44.426-5.273 1.776-5.273 1.776l.485 1.288s-2.3 2.67-.045 5.175l-1.496 5.369-.728 2.643c-.577-.295-1.278-.55-1.855-.844-.141 1.903.628 3.856 2.854 4.993 2.143 1.096 4.135.657 5.552-.49-.329-.168-.782-.503-1.194-.714Z"/><mask id="f" fill="#fff"><path d="M137.345 31.519c-1.587 1.477.071 5.963 1.178 7.256 1.557 1.835-.276 3.185-1.464 1.643-.573-.709-.516 2.231-.272 2.772.122.166.245.333.45.542 1.409-.112 2.907-1.01 4.29-2.902.879-1.11 3.132-3.078 1.284-4.75-.106-2.03-.837-3.65-2.292-3.043-.269-2.32-1.59-2.788-3.174-1.518Z"/></mask><path fill="var(--unique-black)" stroke="var(--unique-black)" stroke-width="2" d="M137.345 31.519c-1.587 1.477.071 5.963 1.178 7.256 1.557 1.835-.276 3.185-1.464 1.643-.573-.709-.516 2.231-.272 2.772.122.166.245.333.45.542 1.409-.112 2.907-1.01 4.29-2.902.879-1.11 3.132-3.078 1.284-4.75-.106-2.03-.837-3.65-2.292-3.043-.269-2.32-1.59-2.788-3.174-1.518Z" mask="url(#f)"/><mask id="g" fill="#fff"><path d="M141.197 35.983c.136-1.282-1.716-2.54-2.927-1.392-1.544 1.394-3.66 1.872-5.686 1.565a1.604 1.604 0 0 0-1.529-.262c-3.197.966-2.532 5.36.401 6.131 1.445.427 2.858-.099 4.147-.791 1.665-1.021 3.332-2.248 4.915-3.311.709-.573.881-1.317.679-1.94Z"/></mask><path fill="var(--unique-black)" stroke="var(--unique-black)" stroke-width="2" d="M141.197 35.983c.136-1.282-1.716-2.54-2.927-1.392-1.544 1.394-3.66 1.872-5.686 1.565a1.604 1.604 0 0 0-1.529-.262c-3.197.966-2.532 5.36.401 6.131 1.445.427 2.858-.099 4.147-.791 1.665-1.021 3.332-2.248 4.915-3.311.709-.573.881-1.317.679-1.94Z" mask="url(#g)"/><path fill="var(--unique-white)" stroke="var(--unique-black)" stroke-linecap="round" stroke-linejoin="round" stroke-miterlimit="10" d="M28.229 54.48 8.183 70.79l13.16 16.175 20.046-16.31L28.23 54.48Z"/><path stroke="var(--unique-black)" stroke-linecap="round" stroke-linejoin="round" stroke-miterlimit="10" d="m23.053 63.231 4.202-3.448M24.205 64.667l4.202-3.448M31.247 68.511a1.176 1.176 0 1 0-.767-2.224 1.176 1.176 0 0 0 .767 2.224ZM22.023 82.435l.313-6.745 2.352.697 1.056-8.962"/><mask id="h" fill="#fff"><path d="m24.665 67.798 1.183-1.162 1.115 1.047-2.298.115Z"/></mask><path fill="var(--unique-black)" stroke="var(--unique-black)" stroke-width="2" d="m24.665 67.798 1.183-1.162 1.115 1.047-2.298.115Z" mask="url(#h)"/><path fill="var(--unique-black)" d="M28.572 109.011a5.72 5.72 0 0 0-5.715 5.714 5.72 5.72 0 0 0 5.715 5.715 5.72 5.72 0 0 0 5.714-5.715c0-3.741-2.563-5.714-5.714-5.714Zm0 7.636a1.946 1.946 0 1 1 0-3.895c1.076 0 1.922.666 1.922 1.948a1.924 1.924 0 0 1-1.922 1.947Z"/><path stroke="var(--unique-white)" stroke-linecap="round" stroke-linejoin="round" stroke-miterlimit="10" d="M28.572 112.778v-3.767M26.624 114.725h-3.767M27.087 113.47l-2.588-2.563"/><path stroke="var(--steel-90)" stroke-linecap="round" stroke-linejoin="round" stroke-miterlimit="10" d="M16.387 105.714a2.857 2.857 0 1 0 0-5.714 2.857 2.857 0 0 0 0 5.714ZM11.108 137.964 8.828 135M9.5 141.042l-2.785-.063"/><path fill="var(--brand-sapphire-60)" stroke="var(--brand-sapphire-60)" stroke-linecap="round" stroke-linejoin="round" stroke-miterlimit="10" d="m13.269 38.48.882-6.061 3.236 3.31-4.118 2.751Z"/><path stroke="var(--steel-90)" stroke-linecap="round" stroke-linejoin="round" stroke-miterlimit="10" d="m172.857 114.891.608-4.177 2.229 2.282-2.837 1.895ZM81.2 8.018a.714.714 0 0 1 1.038.692l-.607 7.653a.714.714 0 0 1-1.093.548l-6.427-4.043a.714.714 0 0 1 .054-1.24l7.034-3.61Z"/><path fill="var(--unique-white)" stroke="var(--unique-black)" stroke-linecap="round" stroke-linejoin="round" stroke-miterlimit="10" d="M174.34 21.774 163.004 13.3l-11.822 15.815 11.336 8.474 11.822-15.815Z"/><path stroke="var(--unique-black)" stroke-linecap="round" stroke-linejoin="round" stroke-miterlimit="10" d="m163.385 18.075 3.267 2.45"/><path fill="var(--unique-white)" d="M162.062 19.872c.325.25 2.597 2.074 2.937 2.31Z"/><path stroke="var(--unique-black)" stroke-linecap="round" stroke-linejoin="round" stroke-miterlimit="10" d="M162.062 19.872c.325.25 2.597 2.074 2.937 2.31"/><path fill="var(--unique-white)" d="M160.714 21.668c.768.573 1.523 1.13 2.291 1.703Z"/><path stroke="var(--unique-black)" stroke-linecap="round" stroke-linejoin="round" stroke-miterlimit="10" d="M160.714 21.668c.768.573 1.523 1.13 2.291 1.703"/><path fill="var(--unique-white)" d="m158.624 29.282 2.747-.374 1.592 2.559 3.775-1.754"/><path stroke="var(--unique-black)" stroke-linecap="round" stroke-linejoin="round" stroke-miterlimit="10" d="m158.624 29.282 2.747-.374 1.592 2.559 3.775-1.754"/><path fill="var(--unique-black)" d="m72.209 166.33 36.789 16.095-2.301 5.26-36.789-16.094z"/><path stroke="var(--steel-90)" stroke-linecap="round" stroke-linejoin="round" d="m179.535 126.913 6.129-3.472M175.714 126.072l3.214-3.215"/><path fill="var(--brand-sapphire-60)" stroke="var(--brand-sapphire-60)" stroke-linecap="round" stroke-linejoin="round" stroke-miterlimit="10" d="M177.434 78.313a.714.714 0 0 1-1.222.106l-5.562-7.71a.714.714 0 0 1 .439-1.118l10.305-2.057a.715.715 0 0 1 .783 1.013l-4.743 9.766Z"/><path stroke="var(--steel-90)" stroke-linecap="round" stroke-linejoin="round" stroke-miterlimit="10" d="M159.286 62.143a4.285 4.285 0 1 0 0-8.57 4.285 4.285 0 0 0 0 8.57Z"/><path fill="var(--brand-sapphire-60)" stroke="var(--brand-sapphire-60)" stroke-linecap="round" stroke-linejoin="round" stroke-miterlimit="10" d="M74.103 147.975c.47.224.55.858.151 1.192l-11.223 9.403a.714.714 0 0 1-1.164-.436l-2.53-15.964a.715.715 0 0 1 1.014-.757l13.752 6.562Z"/></g><defs><clipPath id="a"><path fill="var(--unique-white)" d="M0 0h200v200H0z"/></clipPath></defs></svg>
