<svg xmlns="http://www.w3.org/2000/svg" width="200" height="200" fill="none"><g clip-path="url(#a)"><path fill="var(--unique-black, #111111)" d="m37.438 166.866 67.537-4.53.384 5.728-67.537 4.53z"/><path fill="var(--brand-sapphire-10, #d5e8fd)" d="m25.295 151.125 71.862-1.212.097 5.74-71.862 1.212zM95.564 44.936c26.941-.534 46.733 18.193 49.374 48.905 2.641 30.711-17.5 45.357-41.786 45.357-23.575 0-46.863 3.449-65.088-7.5-18.224-10.949-23.558-50.202 0-55.783 33.2-7.866 30.56-30.445 57.5-30.979Z"/><path fill="var(--unique-white, #ffffff)" stroke="var(--unique-black, #111111)" d="M100.209 36.595c-7.248 13.38-21.881 17.52-30.826 17.97-8.944.45-3.193 14.653 8.806 11.523 11.998-3.13 24.965-14.474 27.199-27l-5.179-2.493Z"/><path fill="var(--unique-black, #111111)" d="m103.719 177.055 47.553 4.717-.567 5.713-47.553-4.717z"/><path fill="var(--unique-white, #ffffff)" stroke="var(--unique-black, #111111)" d="M135.959 87.534 103.183 98.97l1.318 3.777 32.776-11.438z"/><mask id="b" fill="var(--unique-white, #ffffff)"><path fill-rule="evenodd" d="m105.479 98.397 28.325-9.885-14.59-41.813-28.326 9.885 14.591 41.813ZM64.43 30.857l26.458 25.727 28.325-9.885 4.113-36.437c.236-2.091-1.793-3.711-3.78-3.018L65.481 26.11c-2.005.7-2.573 3.265-1.05 4.746Z" clip-rule="evenodd"/></mask><path fill="var(--unique-white, #ffffff)" fill-rule="evenodd" d="m105.479 98.397 28.325-9.885-14.59-41.813-28.326 9.885 14.591 41.813ZM64.43 30.857l26.458 25.727 28.325-9.885 4.113-36.437c.236-2.091-1.793-3.711-3.78-3.018L65.481 26.11c-2.005.7-2.573 3.265-1.05 4.746Z" clip-rule="evenodd"/><path fill="var(--unique-black, #111111)" d="m133.804 88.513.33.944.944-.33-.329-.944-.945.33Zm-28.325 9.884-.944.33.33.943.944-.33-.33-.943Zm13.735-51.698.944-.33-.33-.943-.944.33.33.943Zm-28.326 9.885-.329-.945-.944.33.33.944.944-.33Zm0 0-.697.717.443.43.584-.203-.33-.944ZM64.43 30.856l-.697.717.697-.717ZM119.213 46.7l.33.945.593-.207.071-.625-.994-.112Zm4.113-36.437-.994-.112.994.112Zm10.149 77.306-28.325 9.884.659 1.889 28.325-9.884-.659-1.889Zm-15.206-40.54 14.591 41.814 1.889-.659-14.591-41.813-1.889.659Zm-27.051 10.5 28.325-9.884-.659-1.889-28.325 9.884.659 1.889Zm15.206 40.54L91.833 56.253l-1.889.659 14.591 41.813 1.889-.659ZM91.585 55.866 65.128 30.139l-1.395 1.434 26.458 25.728 1.394-1.434Zm27.299-10.112L90.559 55.64l.659 1.889 28.325-9.884-.659-1.889Zm3.448-35.605-4.113 36.437 1.988.225 4.113-36.438-1.988-.224Zm-2.457-1.962a1.857 1.857 0 0 1 2.457 1.962l1.988.224c.318-2.823-2.421-5.01-5.104-4.074l.659 1.888ZM65.811 27.054l54.064-18.866-.659-1.888-54.064 18.866.659 1.888Zm-.683 3.085c-.99-.962-.621-2.63.683-3.085l-.66-1.888c-2.707.945-3.473 4.408-1.418 6.407l1.395-1.434Z" mask="url(#b)"/><path fill="var(--brand-sapphire-60, #1952b6)" d="m83.924 41.328-1.964-4.104-4.544-.217 3.296-3.135-1.198-4.389 4 2.165 3.804-2.495-.823 4.474 3.548 2.846-4.509.6-1.61 4.255ZM106.492 84.632l.887-4.462-3.508-2.896 4.517-.536 1.671-4.231 1.906 4.13 4.54.282-3.34 3.089 1.136 4.405-3.97-2.222-3.839 2.44ZM104.075 34.935l-1.585-4.264-4.506-.626 3.566-2.825-.797-4.48 3.789 2.519 4.013-2.142-1.224 4.382 3.277 3.155-4.545.19-1.988 4.091ZM101.177 51.048l-1.272-4.367-4.448-.952 3.76-2.56-.47-4.524 3.597 2.786 4.158-1.845-1.538 4.281 3.04 3.384-4.547-.14-2.28 3.937Z"/><path stroke="var(--unique-black, #111111)" stroke-linecap="round" d="m108.867 50.627 10-3.572M124.201 73.813l-3.177-9.105M125.378 77.186l-.471-1.35M102.143 16.428 85 22.857"/><path fill="var(--unique-white, #ffffff)" stroke="var(--unique-black, #111111)" stroke-linecap="round" stroke-linejoin="round" stroke-miterlimit="10" d="m93.305 182.6-21.366-4.761s1.808-8.398 2.348-12.539c.54-4.14 15.426.533 15.426.533l-1.21 9.836c.099-.029 6.047 1.347 4.802 6.931Z"/><path stroke="var(--unique-black, #111111)" stroke-linecap="round" d="m83.556 172.887 5.645.887M83.888 170.77l5.645.887"/><path fill="var(--unique-black, #111111)" d="m72.639 176.228 20.996 4.832-.32 1.393-20.996-4.832z"/><path fill="var(--unique-white, #ffffff)" stroke="var(--unique-black, #111111)" d="m67.653 59.285.918-11.428h-3.443l-2.985 9.905 5.51 1.523Z"/><path fill="var(--unique-white, #ffffff)" stroke="var(--unique-black, #111111)" stroke-linecap="round" stroke-linejoin="round" stroke-miterlimit="10" d="M71.677 45.278c0 3.827-2.99 4.975-5.357 4.975s-3.929-2.439-3.929-4.975c0-3.444 2.633-5.74 5-5.74s4.286 1.914 4.286 5.74Z"/><path fill="var(--unique-white, #ffffff)" d="m63.391 192.328-21.49-6.203s2.58-8.194 3.502-12.266c.923-4.073 15.311 1.964 15.311 1.964l-1.946 9.342c.1-.019 6.073 2.142 4.623 7.163ZM680.296 3124.91h22.142v1.43h-22.142v-1.43ZM-593.99-2762.95h71.428v71.43h-71.428v-71.43Z"/><path stroke="var(--unique-black, #111111)" stroke-linecap="round" stroke-linejoin="round" stroke-miterlimit="10" d="m63.391 192.328-21.49-6.203s2.58-8.194 3.502-12.266c.923-4.073 15.311 1.964 15.311 1.964l-1.946 9.342c.1-.019 6.073 2.142 4.623 7.163ZM680.296 3124.91h22.142v1.43h-22.142v-1.43ZM-593.99-2762.95h71.428v71.43h-71.428v-71.43Z"/><path fill="var(--unique-black, #111111)" d="m42.123 184.912 21.26 6.189-.399 1.372-21.26-6.189z"/><path stroke="var(--unique-black, #111111)" stroke-linecap="round" d="m54.475 182.258 5.538 1.408M55.002 180.181l5.538 1.407"/><path fill="var(--brand-sapphire-60, #1952b6)" stroke="var(--unique-black, #111111)" d="M74.224 166.698c7.5-50-6.429-62.142-16.071-85l15.714 2.5c11.428 30 21.071 42.5 15.357 85l-15-2.5Z"/><path stroke="var(--unique-black, #111111)" stroke-linecap="round" d="M78.572 167.143 80 156.429"/><path fill="var(--brand-sapphire-60, #1952b6)" d="M44.938 175.984c11.429-52.857 9.643-67.143 9.643-93.929h10c7.998 34.286 6.072 65.715-4.286 96.429l-15.357-2.5Z"/><path stroke="var(--unique-black, #111111)" stroke-linecap="round" d="M64.581 82.055h-10c0 26.786 1.786 41.072-9.643 93.929l15.357 2.5c9.077-26.918 11.68-54.384 6.8-83.841"/><path fill="var(--unique-black, #111111)" d="M68.517 39.417c3.427-3.427 7.576 3.969-2.612 5.655-1.068.375-.553 1.76.292 1.956.81.118-.642 1.989-1.118 2.198-.16.07-.372.223-.53.293-1.01-.788-2.899-2.341-3.067-4.447-.902-6.556 6.674-8.721 7.035-5.655Z"/><path fill="var(--unique-black, #111111)" d="M59 37.77c2.48.954 1.786 2.142 4.286 3.57l-.895 1.786c-2.36-1.551-5.534.715-6.605 7.858-1.071 7.142-7.567 1.428-16.562 12.5-8.996 11.071-14.51-2.5-9.152-9.643 5.357-7.143 20.043-4.127 20.987-10.334.945-6.208 5.462-6.693 7.941-5.738Z"/><path fill="var(--unique-white, #ffffff)" stroke="var(--unique-black, #111111)" stroke-linecap="round" stroke-linejoin="round" stroke-miterlimit="10" d="M114.558 57.182c-.379-.566-1.92 1.814-1.92 1.814s1.472-2.413.998-2.768c-.315-.236-1.329.602-1.893 1.101.545-.55 1.451-1.526.959-1.932-.669-.577-3.267 1.894-3.405 1.359-.138-.536 1.649-2.243.581-2.498-1.498-.333-2.322 3.543-4.12 4.902a6.2 6.2 0 0 1-.836.54c1.09 1.888 2.161 3.724 3.251 5.613 1.089-.632 2.14-1.367 3.084-2.238a.86.86 0 0 0 .279-.337c3.092-3.003 3.381-5.042 3.022-5.556Z"/><path fill="var(--unique-white, #ffffff)" fill-rule="evenodd" d="M52.31 85.243c1.404-8.344 4.374-25.441 5.022-27.081.466-1.18 1.844-2.089 3.404-2.258 1.145-.244 2.501.002 4.005.918 8.618 5.25 24.908 10.694 40.268 2.92l3.218 5.586C99.76 73.81 84.855 76.793 72.49 74.805c.535 1.891 1.024 3.73 1.47 5.413.62 2.334 1.16 4.365 1.634 5.812l-23.284-.787Z" clip-rule="evenodd"/><path fill="var(--unique-black, #111111)" d="m57.332 58.162.465.184-.465-.184ZM52.31 85.243l-.493-.083-.095.563.572.02.016-.5Zm8.426-29.34.054.498.025-.003.025-.005-.104-.49Zm4.005.919-.26.427.26-.427Zm40.268 2.92.433-.25-.236-.41-.423.214.226.446Zm3.218 5.586.354.353.27-.271-.191-.332-.433.25ZM72.49 74.805l.079-.494-.774-.124.213.754.482-.136Zm1.47 5.413.484-.128-.483.128Zm1.634 5.812-.017.5.714.024-.222-.68-.475.156ZM56.867 57.978c-.098.247-.223.733-.367 1.365a97.538 97.538 0 0 0-.52 2.471 442.915 442.915 0 0 0-1.368 7.286 1443.9 1443.9 0 0 0-2.795 16.06l.986.166c.702-4.17 1.795-10.529 2.793-16.048.5-2.76.975-5.309 1.365-7.269.196-.98.37-1.81.514-2.444.148-.65.257-1.057.322-1.22l-.93-.367Zm3.815-2.572c-1.69.184-3.263 1.174-3.815 2.572l.93.368c.38-.962 1.563-1.79 2.993-1.945l-.108-.995Zm4.319.989c-1.584-.965-3.07-1.257-4.369-.98l.208.978c.99-.21 2.217-.011 3.64.856l.52-.854Zm39.782 2.9c-15.14 7.663-31.235 2.307-39.782-2.9l-.52.854c8.689 5.293 25.174 10.824 40.754 2.939l-.452-.892Zm3.877 5.783-3.218-5.586-.866.5 3.218 5.585.866-.499Zm-36.25 10.22c12.467 2.005 27.555-.985 36.171-9.617l-.708-.707c-8.318 8.334-23.04 11.309-35.304 9.337l-.159.988Zm2.034 4.792c-.447-1.682-.937-3.526-1.474-5.421l-.962.272a337.68 337.68 0 0 1 1.47 5.406l.966-.257Zm1.625 5.785c-.468-1.43-1.004-3.446-1.625-5.785l-.967.257c.619 2.327 1.162 4.375 1.641 5.839l.95-.311Zm-23.776-.132 23.284.787.033-1-23.283-.787-.033 1Z"/><mask id="c" width="58" height="32" x="51" y="55" maskUnits="userSpaceOnUse" style="mask-type:alpha"><path fill="var(--unique-white, #ffffff)" fill-rule="evenodd" d="M52.31 85.243c1.404-8.344 4.374-25.441 5.022-27.081.466-1.18 1.844-2.089 3.404-2.258 1.145-.244 2.501.002 4.005.918 8.618 5.25 24.908 10.694 40.268 2.92l3.218 5.586C99.76 73.81 84.855 76.793 72.49 74.805c.535 1.891 1.024 3.73 1.47 5.413.62 2.334 1.16 4.365 1.634 5.812l-23.284-.787Z" clip-rule="evenodd"/><path fill="#001F3D" d="m57.332 58.162.465.184-.465-.184ZM52.31 85.243l-.493-.083-.095.563.572.02.016-.5Zm8.426-29.34.054.498.025-.003.025-.005-.104-.49Zm4.005.919-.26.427.26-.427Zm40.268 2.92.433-.25-.236-.41-.423.214.226.446Zm3.218 5.586.354.353.27-.271-.191-.332-.433.25ZM72.49 74.805l.079-.494-.774-.124.213.754.482-.136Zm1.47 5.413.484-.128-.483.128Zm1.634 5.812-.017.5.714.024-.222-.68-.475.156ZM56.867 57.978c-.098.247-.223.733-.367 1.365a97.538 97.538 0 0 0-.52 2.471 442.915 442.915 0 0 0-1.368 7.286 1443.9 1443.9 0 0 0-2.795 16.06l.986.166c.702-4.17 1.795-10.529 2.793-16.048.5-2.76.975-5.309 1.365-7.269.196-.98.37-1.81.514-2.444.148-.65.257-1.057.322-1.22l-.93-.367Zm3.815-2.572c-1.69.184-3.263 1.174-3.815 2.572l.93.368c.38-.962 1.563-1.79 2.993-1.945l-.108-.995Zm4.319.989c-1.584-.965-3.07-1.257-4.369-.98l.208.978c.99-.21 2.217-.011 3.64.856l.52-.854Zm39.782 2.9c-15.14 7.663-31.235 2.307-39.782-2.9l-.52.854c8.689 5.293 25.174 10.824 40.754 2.939l-.452-.892Zm3.877 5.783-3.218-5.586-.866.5 3.218 5.585.866-.499Zm-36.25 10.22c12.467 2.005 27.555-.985 36.171-9.617l-.708-.707c-8.318 8.334-23.04 11.309-35.304 9.337l-.159.988Zm2.034 4.792c-.447-1.682-.937-3.526-1.474-5.421l-.962.272a337.68 337.68 0 0 1 1.47 5.406l.966-.257Zm1.625 5.785c-.468-1.43-1.004-3.446-1.625-5.785l-.967.257c.619 2.327 1.162 4.375 1.641 5.839l.95-.311Zm-23.776-.132 23.284.787.033-1-23.283-.787-.033 1Z"/></mask><g fill="var(--unique-black, #111111)" fill-rule="evenodd" clip-rule="evenodd" mask="url(#c)"><path d="M111.485 28.206 32.437 43.601l.136.701 79.048-15.395-.136-.7Zm1.601 8.072L34.038 51.673l.136.701 79.048-15.395-.136-.7ZM35.64 59.745l79.048-15.395.136.701-79.048 15.395-.136-.7Zm80.649-7.323L37.241 67.817l.136.701 79.048-15.395-.136-.7ZM38.842 75.89l79.048-15.395.137.701-79.048 15.395-.137-.701Zm80.649-7.323L40.443 83.962l.137.7 79.048-15.394-.137-.701ZM42.045 92.034l79.048-15.395.137.7-79.048 15.396-.137-.701Zm80.649-7.323-79.048 15.395.136.701 79.048-15.395-.136-.7Z"/><path d="M59.352 112.789 45.024 33.541l.703-.127 14.328 79.248-.703.127Zm-8.434 1.525L36.589 35.066l.703-.127 14.328 79.248-.702.127Zm2.54-82.298 14.33 79.248.702-.127-14.328-79.248-.703.127Zm22.764 77.723L61.894 30.491l.703-.128 14.328 79.249-.703.127Zm-5.894-80.773 14.329 79.248.703-.127L71.03 28.839l-.703.127Zm22.763 77.723L78.763 27.441l.703-.127 14.328 79.248-.703.127Zm-5.893-80.773 14.328 79.248.703-.127-14.328-79.248-.703.127Zm22.763 77.723L95.632 24.391l.703-.127 14.329 79.248-.703.127Zm-5.894-80.773 14.328 79.248.703-.127-14.328-79.248-.703.127Z"/></g><path stroke="var(--steel-90, #001729)" stroke-linejoin="round" d="m89.252 87.055 7.206 2.529-2.529 7.206-7.206-2.529zM90.41 102.055l4.398 1.543-1.543 4.398-4.398-1.543zM25.295 127.897l11.377-2.984 2.984 11.377-11.377 2.984zM145.989 61.665l-2.351 9.655-9.656-2.35 2.35-9.656z"/><path fill="var(--unique-black, #111111)" stroke="var(--unique-black, #111111)" stroke-linejoin="round" d="m39.581 89.912 4.734 2.873-2.873 4.733-4.734-2.873z"/><path stroke="var(--steel-90, #001729)" stroke-linecap="round" d="M127.795 46.341h12.857"/><path stroke="var(--steel-90, #001729)" d="m127.081 42.412 10.714-2.5"/><path fill="var(--unique-white, #ffffff)" stroke="var(--unique-black, #111111)" d="m112.477 118.553 33.926-7.357-.848-3.91-33.925 7.358z"/><mask id="d" fill="var(--unique-white, #ffffff)"><path fill-rule="evenodd" d="m144.052 111.485-29.319 6.359 4.339 20.005.169-.037-4.685 30.431c-.305 1.981 1.471 3.652 3.429 3.227l46.223-10.025c1.984-.43 2.899-2.734 1.75-4.408l-17.585-25.626-4.321-19.926Z" clip-rule="evenodd"/></mask><path fill="var(--unique-white, #ffffff)" fill-rule="evenodd" d="m144.052 111.485-29.319 6.359 4.339 20.005.169-.037-4.685 30.431c-.305 1.981 1.471 3.652 3.429 3.227l46.223-10.025c1.984-.43 2.899-2.734 1.75-4.408l-17.585-25.626-4.321-19.926Z" clip-rule="evenodd"/><path fill="var(--unique-black, #111111)" d="m114.733 117.844-.211-.978-.978.212.212.978.977-.212Zm29.319-6.359.977-.212-.212-.977-.977.212.212.977Zm-24.98 26.364-.977.212.212.977.977-.212-.212-.977Zm.169-.037.988.152.222-1.437-1.422.308.212.977Zm-4.685 30.431-.989-.152.989.152Zm51.402-11.206.825-.566-.825.566Zm-17.585-25.626-.977.212.042.192.111.162.824-.566Zm-33.428-12.59 29.319-6.358-.424-1.955-29.318 6.358.423 1.955Zm5.104 18.816-4.338-20.005-1.955.424 4.339 20.005 1.954-.424Zm-1.02-.802-.169.037.424 1.954.169-.036-.424-1.955Zm-3.485 31.56 4.685-30.431-1.976-.304-4.686 30.431 1.977.304Zm2.229 2.098a1.858 1.858 0 0 1-2.229-2.098l-1.977-.304c-.411 2.674 1.986 4.93 4.63 4.356l-.424-1.954Zm46.223-10.025-46.223 10.025.424 1.954 46.223-10.024-.424-1.955Zm1.138-2.866a1.857 1.857 0 0 1-1.138 2.866l.424 1.955c2.679-.581 3.914-3.692 2.363-5.952l-1.649 1.131Zm-17.585-25.625 17.585 25.625 1.649-1.131-17.585-25.625-1.649 1.131Zm-4.474-20.28 4.321 19.926 1.955-.424-4.322-19.926-1.954.424Z" mask="url(#d)"/><path stroke="var(--unique-black, #111111)" stroke-linecap="round" d="m121.009 167.055 27.858-6.428m8.571-2.143-5.357 1.26"/><path fill="var(--unique-white, #ffffff)" d="M191.244 114.145c-16.219 4.778-39.912 1.099-54.33 3.498-14.34 2.463-13.395 13.351-2.436 10.751 10.959-2.601 20.245 10.216 33.864 10.18"/><path stroke="var(--unique-black, #111111)" stroke-linecap="round" stroke-linejoin="round" stroke-miterlimit="10" d="M191.244 114.145c-16.219 4.778-39.912 1.099-54.33 3.498-14.34 2.463-13.395 13.351-2.436 10.751 10.959-2.601 20.245 10.216 33.864 10.18"/><path fill="var(--unique-white, #ffffff)" stroke="var(--unique-black, #111111)" d="M123.528 127.974c-2.065-3.73-6.271-3.591-11.09-2.348-6.195 2.238-2.153 8.565 1.797 8.565 3.56 0 11.358-2.487 9.293-6.217Z"/><path fill="var(--unique-white, #ffffff)" stroke="var(--unique-black, #111111)" d="M124.894 135.647c-2.421-4.274-7.35-4.114-12.997-2.69-7.26 2.564-2.523 9.812 2.106 9.812 4.172 0 13.311-2.849 10.891-7.122Z"/><path fill="var(--unique-white, #ffffff)" stroke="var(--unique-black, #111111)" d="M122.801 143.74c-2.118-3.704-6.431-3.566-11.372-2.332-6.353 2.223-2.208 8.504 1.843 8.504 3.65 0 11.647-2.469 9.529-6.172Z"/><path fill="var(--unique-white, #ffffff)" stroke="var(--unique-black, #111111)" d="M121.406 151.357c-1.916-3.419-5.818-3.291-10.289-2.152-5.748 2.052-1.998 7.85 1.667 7.85 3.303 0 10.538-2.279 8.622-5.698Z"/><path stroke="var(--steel-90, #001729)" stroke-linecap="round" stroke-linejoin="round" stroke-miterlimit="10" d="M162.5 152.5c5.238.714 16.867-.302 23.152-11.159"/><path fill="var(--brand-sapphire-60, #1952b6)" d="m130.645 142.014 3.551-2.843-.818-4.475 3.801 2.499 4.003-2.161-1.202 4.387 3.292 3.139-4.544.213-1.968 4.101-1.606-4.256-4.509-.604Z"/></g><defs><clipPath id="a"><path fill="var(--unique-white, #ffffff)" d="M0 0h200v200H0z"/></clipPath></defs></svg>
