<svg xmlns="http://www.w3.org/2000/svg" width="200" height="200" fill="none"><path fill="var(--brand-sapphire-10)" d="M102.976 179.756 170.789 165l2.14 9.834-67.813 14.756z"/><path fill="var(--unique-white)" stroke="var(--unique-black)" stroke-linecap="round" stroke-linejoin="round" stroke-miterlimit="10" d="m120.878 118.448 34.183-29.192-20.593-24.113-34.183 29.192 20.593 24.113Z"/><path stroke="var(--unique-black)" stroke-linecap="round" stroke-linejoin="round" stroke-miterlimit="10" d="m143.482 85.486-10.803-12.65M140.401 88.118l-10.804-12.65"/><path fill="var(--unique-white)" stroke="var(--unique-black)" stroke-linecap="round" stroke-linejoin="round" stroke-miterlimit="10" d="m152.428 135.022 27.168 6.149 4.337-19.165-27.167-6.149-4.338 19.165Z"/><path stroke="var(--unique-black)" stroke-linecap="round" stroke-linejoin="round" stroke-miterlimit="10" d="m177.175 134.024 2.276-10.054M174.725 133.47l2.276-10.055"/><path fill="var(--unique-white)" stroke="var(--unique-black)" stroke-linecap="round" stroke-linejoin="round" stroke-miterlimit="10" d="M113.643 143.714V17.286L23.5 13.357 16 24.43V156h90.357l7.286-12.286Z"/><path stroke="var(--steel-90)" stroke-linecap="round" stroke-linejoin="round" stroke-miterlimit="10" d="m27 187 32 5M94.571 184.05l25.953-.672"/><path stroke="var(--unique-black)" stroke-linecap="round" stroke-linejoin="round" stroke-miterlimit="10" d="M21 151.571h70.714"/><path fill="var(--unique-white)" stroke="var(--unique-black)" stroke-linecap="round" stroke-linejoin="round" stroke-miterlimit="10" d="M120.786 13H23.143V144.57h97.643V13Z"/><path fill="var(--brand-sapphire-60)" d="M50.929 65.143 49.072 84.57l-14.786-4.214L45 95l-10.214 10.714 11.286.786-2.429 12.571L61 103l7.358 9.143-1.072-10.572L78.5 95.428l-7.571-4.071 3.143-14.072L62 82.428 50.93 65.143Z"/><path stroke="var(--unique-black)" stroke-linecap="round" stroke-linejoin="round" stroke-miterlimit="10" d="m29.572 80.143.643 10.142M64.286 127.071l11.857-3.928M66.357 130.643h2.929M109.001 29.214l1.214 1.215M52.716 35.429 51.144 37M28.001 65.286l1.5 1.857M42.144 93.857l-1.928 1M106.215 35.429l-1.928 1.857"/><path stroke="var(--steel-90)" stroke-linecap="round" stroke-linejoin="round" stroke-miterlimit="10" d="m79.716 166.357 1.571 1.858M77.786 170.143l-2.5 1.571M153.43 146.143l-2.143 2.143"/><mask id="a" fill="#fff"><path d="M52.893 48.865H33.607V68.15h19.286V48.865Z"/></mask><path fill="var(--unique-white)" stroke="var(--unique-black)" stroke-width="1.429" d="M52.893 48.865H33.607V68.15h19.286V48.865Z" mask="url(#a)"/><path fill="var(--unique-black)" d="M42.748 53.722h1.286v9h-1.479v-7.418l-1.813.514-.36-1.26 2.366-.836Z"/><path stroke="var(--unique-black)" stroke-linecap="round" stroke-linejoin="round" stroke-miterlimit="10" d="M80.82 48.865H61.536v19.286h19.286V48.865Z"/><path fill="var(--unique-black)" d="M68.174 62.723v-1.157l3.137-3.202c.763-.763 1.144-1.423 1.144-1.98 0-.437-.132-.776-.398-1.016-.257-.248-.587-.373-.99-.373-.754 0-1.312.373-1.672 1.12l-1.247-.734c.283-.6.682-1.054 1.196-1.363a3.261 3.261 0 0 1 1.71-.462c.788 0 1.466.248 2.031.745.566.497.849 1.174.849 2.032 0 .917-.51 1.894-1.53 2.931l-2.031 2.031H74.1v1.428h-5.927Z"/><path stroke="var(--unique-black)" stroke-linecap="round" stroke-linejoin="round" stroke-miterlimit="10" d="M108.75 48.865H89.464V68.15h19.286V48.865Z"/><path fill="var(--unique-black)" d="M99.858 57.399c.651.154 1.178.459 1.581.913.412.446.617 1.007.617 1.684 0 .9-.304 1.607-.913 2.122-.608.514-1.354.771-2.237.771a3.632 3.632 0 0 1-1.851-.476c-.54-.317-.93-.78-1.17-1.388l1.26-.733c.266.771.853 1.157 1.761 1.157.515 0 .922-.129 1.222-.386.3-.265.45-.621.45-1.067 0-.446-.15-.797-.45-1.054-.3-.257-.707-.386-1.222-.386h-.334l-.591-.887 1.941-2.559h-3.767v-1.388h5.528v1.26l-1.825 2.417Z"/><path stroke="var(--unique-black)" stroke-linecap="round" stroke-linejoin="round" stroke-miterlimit="10" d="M69.571 77.286h-25v25h25v-25Z"/><path fill="var(--unique-white)" d="M59.69 91.354v1.376h-1.03v1.62h-1.49v-1.62h-4.424v-1.376l3.099-6.004h1.607l-3.099 6.004h2.816v-2.34h1.492v2.34h1.028Z"/><path stroke="var(--unique-black)" stroke-linecap="round" stroke-linejoin="round" stroke-miterlimit="10" d="M94.57 80.143H75.286v19.285h19.286V80.143Z"/><path fill="var(--unique-black)" d="M84.783 88.744c.857 0 1.581.257 2.173.771.591.506.887 1.209.887 2.109 0 .9-.305 1.607-.913 2.121-.609.514-1.354.772-2.237.772-.712 0-1.342-.163-1.89-.489a2.75 2.75 0 0 1-1.17-1.44l1.273-.733c.24.814.835 1.222 1.787 1.222.505 0 .908-.129 1.208-.386.309-.266.463-.622.463-1.067 0-.446-.15-.797-.45-1.055-.3-.257-.698-.385-1.195-.385h-2.623l.347-4.835h5.014v1.389h-3.651l-.155 2.006h1.132Z"/><path fill="var(--unique-white)" stroke="var(--unique-black)" stroke-linecap="round" stroke-linejoin="round" stroke-miterlimit="10" d="M97.858 93.007s-.643 2.357 1.428 3.285l.429 8.858h4.143l-.429-8.929c.786-.5 1.429-1.428 1.786-3 .786-3.357-3.214-4.857-5.286-3.571-2.071 1.285-2.786 2.571-2.786 2.571l.715.786Z"/><path fill="var(--unique-black)" stroke="var(--unique-black)" stroke-width="1.429" d="M100.072 88.578c-.572 1.429.571 2.572 1.571 3 1.5.715.357 2.357-.785 2.357-.643 0 1 1.715 2.071 2.143l.429.215c1.5-.858 2.142-2.5 2.142-3.5-.071-2-4.071-6.358-5.428-4.215Z" /><path fill="var(--unique-white)" stroke="var(--unique-black)" stroke-linecap="round" stroke-linejoin="round" stroke-miterlimit="10" d="m134 174.578 4.643.215s.357 4.285 5.928 4.071l-.285-14.786-10.857.429.571 10.071Z"/><path stroke="var(--unique-black)" stroke-linecap="round" stroke-linejoin="round" stroke-miterlimit="10" d="M138.643 174.793v-1.286"/><path fill="var(--unique-white)" stroke="var(--unique-black)" stroke-linecap="round" stroke-linejoin="round" stroke-miterlimit="10" d="m53.857 175.293-1.071 3.071s-4.215-1.071-5.786 4.214l14 4.715 2.572-8.929-9.715-3.071Z"/><path fill="var(--unique-white)" stroke="var(--unique-black)" d="M135.571 164.15c-9.214-.572-18.928-2.143-23.071-11.5-4.929-11.072-1.572-24.143-2.643-35.857-.286-3-2.357-5.572-5.572-5.572-1.285 0-2.714.572-3.714 1.5-.571.143-1.143.357-1.714.786C78.428 126.436 60 153.078 53.143 176.293c3.642.857 6.857 1.564 10.428 2.707 5.357-18.286 20.214-40.636 35.429-51.993-.143 11.214-1 22.5 4.571 32.786 6.5 12 19.286 14.785 31.786 15.643l.214-11.286Z"/><path fill="var(--unique-black)" fill-rule="evenodd" d="M97.358 114.483c-.334.224-.667.451-1 .681v3.336h-4v-.375c-.57.449-1.136.908-1.7 1.375h.7v4h-4v-1.13c-.335.304-.668.612-1 .922v.208h-.222c-.35.33-.7.664-1.048 1h1.27v4.143h-4v-1.405c-.335.348-.668.698-1 1.052v.353h-.33c-.308.331-.615.665-.92 1h1.25v4h-4v-.867c-.523.616-1.04 1.239-1.553 1.867h.553v4h-3.684c-.444.59-.882 1.184-1.316 1.781v3.219h-2.265c-.227.333-.452.666-.676 1h2.94v4h-4v-2.391c-.336.52-.67 1.041-1 1.565v.826h-.515c-.206.333-.41.666-.612 1h1.128v4h-3.462a129.7 129.7 0 0 0-1.538 2.828v2.172h-1.12c-.168.333-.334.667-.498 1h1.618v4h-3.496c-.15.334-.296.667-.441 1h3.937v4h-4v-3.856c-.345.794-.678 1.587-1 2.379v1.477h-.588c-.13.334-.258.667-.384 1h.972v4H53.97c-.11.334-.217.667-.323 1h2.71v2.404c.335.079.668.159 1 .24v-2.644h4v3.688c.331.095.664.192 1 .293v-3.981h2.64c.12-.332.243-.666.369-1h-3.01v-4h4v1.474c.338-.821.69-1.646 1.056-2.474h-.055v-4h1.928c.164-.333.33-.666.5-1h-2.428v-4h4v1.004c.363-.669.735-1.337 1.114-2.004h-.114v-4h2.488c.207-.334.416-.667.626-1h-3.114v-4h4v2.62c.33-.507.663-1.011 1-1.513v-1.107h.752a134 134 0 0 1 .694-1h-1.446v-4h4v.494c.38-.502.762-1 1.147-1.494h-.147v-4h3.419c.523-.61 1.05-1.211 1.58-1.803v-3.197h3c.33-.337.663-.671.996-1h-3.995v-4h4v3.995c.332-.328.666-.652 1-.971v-3.024h3.345a68.68 68.68 0 0 1 1.655-1.366V124.5h3.214a.5.5 0 1 0 0-1h-3.214v-4h5.214a.5.5 0 1 0 0-1h-5.214v-4.017Zm-5 5.017h4v4h-4v-4Zm0 5h4v4.143h-4V124.5Zm-1 4.143V124.5h-4v4.143h4Zm-9 1h4v4h-4v-4Zm0 5h4v4h-4v-4Zm-1 9v-4h-4v4h4Zm0-5v-4h-4v4h4Zm-9 1h4v4h-4v-4Zm0 5h4v4h-4v-4Zm-1 14v-4h-4v4h4Zm0-5v-4h-4v4h4Zm-9 1h4v4h-4v-4Zm0 5h4v4h-4v-4Zm0 5h4v4h-4v-4Zm-1 5v4h-4v-4h4Z" clip-rule="evenodd"/><path stroke="var(--unique-black)" stroke-linecap="round" stroke-linejoin="round" stroke-miterlimit="10" d="m52.714 178.364 2 .929"/><path fill="var(--unique-black)" stroke="var(--unique-black)" stroke-linecap="round" stroke-linejoin="round" stroke-miterlimit="10" d="M101.929 101.435c-7.715-.357-10.143 2.929-10.357 9.358-.215 6.428-.215 7.071-.215 7.071l20.5.857s-.214-6.857-.785-9.714c-.5-3-.715-7.143-9.143-7.572Z"/><path fill="var(--unique-black)" stroke="var(--unique-black)" stroke-linecap="round" stroke-linejoin="round" stroke-miterlimit="10" d="M132.643 130.364c-4.5-12.214-13.714-22.214-25.714-27.714-4.714-2.143-7.643 5.357-2.929 7.571 9.715 4.429 17.357 12.857 21.072 22.786 2.5-.786 5.071-1.714 7.571-2.643Z"/><path fill="var(--unique-white)" d="M132.286 138.15c-.071-1.214-.428-2.643-.428-2.643s.357 1.357.857 2.5c.571-.214 1.143-.428 1.714-.714-.143-1.714-.714-4.286-1.786-6.929l-7.571 2.643c.5 4.143-.286 6.214.714 6.429 1.072.214 1.072-3.857 1.857-2.786.5.643.643 2 1.072 2.857"/><path stroke="var(--unique-black)" stroke-linecap="round" stroke-linejoin="round" stroke-miterlimit="10" d="M132.286 138.15c-.071-1.214-.428-2.643-.428-2.643s.357 1.357.857 2.5c.571-.214 1.143-.428 1.714-.714-.143-1.714-.714-4.286-1.786-6.929l-7.571 2.643c.5 4.143-.286 6.214.714 6.429 1.072.214 1.072-3.857 1.857-2.786.5.643.643 2 1.072 2.857M128.715 133.364l1.643 2.572"/><path fill="var(--unique-white)" stroke="var(--unique-black)" stroke-linecap="round" stroke-linejoin="round" stroke-miterlimit="10" d="M132.786 138.221c-.928-1.928 1.286-2.714 1.786-2.071.5.643-1.143 3.357-1.786 2.071Z"/><path fill="var(--unique-white)" stroke="var(--unique-black)" stroke-linecap="round" stroke-linejoin="round" stroke-miterlimit="10" d="M130.5 139.007c-.571-2.357 2.072-2.643 2.429-1.786.357.857-2.071 3.357-2.429 1.786Z"/><path fill="var(--unique-white)" d="M129.715 137.864c1.214-1.428 1.928.714 1.357 1.572-.572.857-2.072 1-2.357.071"/><path stroke="var(--unique-black)" stroke-linecap="round" stroke-linejoin="round" stroke-miterlimit="10" d="M129.715 137.864c1.214-1.428 1.928.714 1.357 1.572-.572.857-2.072 1-2.357.071"/><path stroke="var(--unique-white)" stroke-linecap="round" stroke-linejoin="round" stroke-miterlimit="10" stroke-width=".714" d="M108.928 103.292c1.072 2.5 2.786 9.5 2.786 9.5"/><path fill="var(--unique-black)" stroke="var(--unique-black)" stroke-linecap="round" stroke-linejoin="round" stroke-miterlimit="10" d="M97.132 102.642c-4.544 3.616-9.148 6.089-15.15 6.421-5.078.227-10.698-2.361-11.612-7.792l-.008-.071c-2.552.942-5.008 2.088-7.472 3.163 2.175 7.012 8.419 11.9 15.774 12.705 8.949.909 17.024-3.258 23.801-8.714 4.001-3.337-1.253-8.987-5.333-5.712Z"/><path fill="var(--unique-white)" d="M70.292 101.209c-1.632-3.551-4.793-8.507-5.45-7.353-.658 1.154 1.686 5.27 1.686 5.27s-1.91-2.224-2.713-1.7c-1.14.707.36 3.122.36 3.122s-.834-1.63-1.953-1.356c-1.048.264-.45 1.705.597 5.179"/><path stroke="var(--unique-black)" stroke-linecap="round" stroke-linejoin="round" stroke-miterlimit="10" d="M70.292 101.209c-1.632-3.551-4.793-8.507-5.45-7.353-.658 1.154 1.686 5.27 1.686 5.27s-1.91-2.224-2.713-1.7c-1.14.707.36 3.122.36 3.122s-.834-1.63-1.953-1.356c-1.048.264-.45 1.705.597 5.179"/><path fill="var(--unique-white)" d="M70.243 100.783c1.212-2.585-1.105-3.971-2.257-3.982Z"/><path stroke="var(--unique-black)" stroke-linecap="round" stroke-linejoin="round" stroke-miterlimit="10" d="M70.243 100.783c1.212-2.585-1.105-3.971-2.257-3.982"/><path fill="var(--brand-sapphire-10)" d="M31.429 24.286h80v22.143h-80z"/><path stroke="var(--unique-black)" stroke-linejoin="round" d="m54.536 130.937-11.184 7.504-1.671-11.52 12.855 4.016Z"/><path stroke="var(--steel-90)" stroke-linejoin="round" d="m136.072 40.39-4.494-6.945 7.092-.908-2.598 7.853Z"/><path fill="var(--unique-black)" stroke="var(--unique-black)" stroke-linejoin="round" stroke-width=".714" d="m131.11 48.05 16.694.817-6.872 12.708-9.822-13.524Z"/></svg>
