<svg xmlns="http://www.w3.org/2000/svg" width="200" height="200" fill="none"><path fill="var(--brand-sapphire-10, #d5e8fd)" d="m181.264 146 15.417 2.27-3.264 22.173L178 168.174z"/><path fill="var(--unique-white, #ffffff)" d="m176.271 136.165 20.716 5.01-5.77 23.935-20.716-5.009 2.989-12.246"/><path stroke="var(--unique-black, #111111)" stroke-linecap="round" stroke-linejoin="round" stroke-miterlimit="10" d="m176.271 136.165 20.716 5.01-5.77 23.935-20.716-5.009 2.989-12.246"/><path fill="var(--unique-white, #ffffff)" d="m51 94-7.5-.5-5 11 2 .5 4 .5H47l1 .5 2.5-.5 3-1 .5-.5 1-1 .5-1v-3.5L55 97l-1.5-2-2.5-1ZM161.5 141.5l-6 2 1 13 3.5-.5 6.5-2.5 6-3.5 4-3 2-.5V145h2l1-1.5 2.5-.5-1-2-5.5-3.5h-7l-9 4Z"/><path fill="var(--brand-sapphire-10, #d5e8fd)" d="m43.744 131 10.907 10.258-15.745 16.74L28 147.737zM150 37v27h-36V37z"/><path stroke="var(--unique-black, #111111)" stroke-linecap="round" stroke-linejoin="round" stroke-miterlimit="10" d="M39.218 100.259c-5.561-.487-10.775-2.018-15.293-4.453C15.513 91.353 9.117 84.046 5.71 75.21A41.856 41.856 0 0 1 3 60.39c0-2.714.278-5.428.765-8.002 2.572-12.733 11.192-23.24 22.662-28.458 5.075-2.297 10.636-3.55 16.545-3.55 22.107 0 39.764 14.334 39.972 40.01.14 17.673-11.4 32.702-27.39 37.99"/><path fill="var(--unique-black, #111111)" d="M42.972 20.38c-5.91 0-11.47 1.253-16.545 3.55 5.354-.977 18.676-1.13 29.127 6.07 13.065 9 29.128 41.76 0 68.38 15.99-5.288 27.529-20.317 27.39-37.99-.209-25.676-17.866-40.01-39.972-40.01Z"/><path stroke="var(--steel-90, #001729)" stroke-linecap="round" stroke-linejoin="round" stroke-miterlimit="10" d="M100.619 43h5.909l-2.711 3.549L100.619 43ZM140.035 44.649h-29.128M126 50.603h-15"/><path fill="var(--unique-white, #ffffff)" d="m55.625 101.442 4.449-1.74 7.647 19.831-17.102 6.541-7.646-19.761 5.909-2.296"/><path stroke="var(--unique-black, #111111)" stroke-linecap="round" stroke-linejoin="round" stroke-miterlimit="10" d="m55.625 101.442 4.449-1.74 7.647 19.831-17.102 6.541-7.646-19.761 5.909-2.296"/><path fill="var(--brand-sapphire-60, #1952b6)" d="M24.62 78.898c-2.364 2.365-7.091 2.783-9.385 0-6.257-7.585-10.428-16.77-11.47-26.51 2.572-12.734 11.192-23.24 22.662-28.459-11.47 12.525-13.278 31.798-1.807 45.575 2.294 2.714 2.71 6.61 0 9.394Z"/><path fill="var(--brand-sapphire-60, #1952b6)" stroke="var(--unique-black, #111111)" stroke-linecap="round" stroke-linejoin="round" stroke-miterlimit="10" d="M29.347 87.943c-2.155 3.618-3.963 6.123-5.423 7.793C15.513 91.283 9.117 83.977 5.711 75.14c12.096-15.307 13.834-15.586 18.7-9.323l.139.139c1.668 2.087 3.406 3.966 4.797 5.914 2.92 4.245 4.38 8.698 0 16.073Z"/><path fill="var(--brand-sapphire-60, #1952b6)" d="M42.486 96.78c.626-1.392 1.043-2.087 2.225-3.27-6.535-.418-14.53-2.644-14.738-9.672-.209-8.14-12.86-8.14-12.652 0 .208 7.167 4.24 13.22 10.219 17.047 4.24 2.714 9.176 3.827 14.181 4.314-.347-2.783-.417-5.705.765-8.419Z"/><path stroke="var(--unique-black, #111111)" stroke-linecap="round" stroke-linejoin="round" stroke-miterlimit="10" d="M49.716 93.927c-6.048-.14-19.535-1.113-19.743-10.02-.209-8.14-12.86-8.14-12.652 0 .208 7.167 4.24 13.22 10.219 17.048 6.535 4.174 14.668 4.522 22.176 4.731 8.133.139 8.133-11.62 0-11.759Z"/><path stroke="var(--unique-black, #111111)" stroke-linecap="round" stroke-linejoin="round" stroke-miterlimit="10" stroke-width=".695" d="M54.094 99.424c1.113 2.784-.556 6.193-2.502 6.61"/><path fill="var(--unique-black, #111111)" d="m50.828 109.304-.556 2.088-1.182-1.809-1.808-12.733 1.738-.279 1.808 12.733Z"/><path fill="var(--unique-white, #ffffff)" d="M44.502 97.824c.904 6.471 3.128 10.437 4.866 8.906.904-.835-1.39-4.384-1.46-5.288"/><path stroke="var(--unique-black, #111111)" stroke-linecap="round" stroke-linejoin="round" stroke-miterlimit="10" stroke-width=".695" d="M44.502 97.824c.904 6.471 3.128 10.437 4.866 8.906.904-.835-1.39-4.384-1.46-5.288"/><path stroke="var(--unique-black, #111111)" stroke-linecap="round" stroke-linejoin="round" stroke-miterlimit="10" d="M50.272 111.392H59.1M51.662 113.619h8.898"/><path fill="var(--unique-white, #ffffff)" stroke="var(--unique-black, #111111)" stroke-linecap="round" stroke-linejoin="round" stroke-miterlimit="10" d="M39.983 59.624c-.834-3.2-6.048-5.497-8.48-1.53-1.113 1.808-1.391 3.34-1.043 4.592l-5.423 4.035c-.208-.209-.347-.417-.556-.696-.278 2.575-.626 9.324-.626 9.324l5.423-3.41c-.209-.347-.487-.625-.695-.973l5.909-4.384c2.92 1.113 4.518-1.809 4.518-1.809l1.321-.07c-.07.07.487-1.878-.348-5.079Z"/><path fill="var(--unique-black, #111111)" d="M41.373 58.163c-.765 1.879-5.561 2.227-7.021 1.81-1.112-.349-1.6 1.112-.904 1.808.556.626-1.738 1.253-2.294 1.183-.209-.07-.417-.07-.626-.209-.347-1.322-.07-2.852 1.043-4.731 1.112-1.879 3.823-2.435 6.187-2.575 2.364-.139 4.31.14 3.615 2.714Z"/><path fill="var(--brand-sapphire-60, #1952b6)" d="M191.078 125.937c-1.252 4.592-3.337 8.836-6.048 12.594-8.273-5.845-18.77-12.038-28.363-7.237-.487.209-3.562-.139-4.048 0-3.059.835-3.738.418-5.476-2.505-1.321-2.226-1.251-5.566.139-7.653a4.563 4.563 0 0 1 2.294-1.81c.626-.208 1.251-.417 1.808-.556 3.892-1.183 7.507-1.809 10.983-1.948 10.636-.557 19.673 3.2 28.711 9.115Z"/><path fill="var(--brand-sapphire-60, #1952b6)" d="M139.119 133.799c1.39 8.558 6 14.701 6 14.701l21.489-9.552 4.171-1.392-1.251-3.757c1.46-2.435-.417-5.845-3.198-9.532l-27.211 9.532Z"/><path fill="var(--brand-sapphire-60, #1952b6)" d="M159.308 156.273c-8.481 2.088-17.726 1.461-24.47-4.453-6.048-5.288-6.395-13.985-2.85-20.804 2.92-5.428 8.273-8.698 13.973-10.785 1.39-.487 2.85-.974 4.241-1.322a4.33 4.33 0 0 1 1.32-.209c2.503-.209 4.519.904 5.77 2.574 2.433 3.201 2.225 8.559-2.016 10.577-.417.208-.834.348-1.32.487-3.407.904-7.786 2.087-9.663 5.357-1.252 2.157-1.113 3.619 1.321 4.732 3.406 1.531 7.09 1.531 10.775.696-.139 4.453 1.181 8.697 2.919 13.15Z"/><path stroke="var(--unique-black, #111111)" stroke-linecap="round" stroke-linejoin="round" stroke-miterlimit="10" d="M165.357 139.436c-5.84 3.409-13.486 5.914-19.882 2.922-2.433-1.113-2.572-2.505-1.321-4.731 1.877-3.271 6.326-4.454 9.663-5.358m-3.684-13.429c-7.091 1.879-14.599 5.288-18.214 12.107-3.615 6.749-3.198 15.516 2.85 20.804 11.401 9.95 31.283 4.732 41.502-4.662"/><path fill="var(--unique-white, #ffffff)" d="M174.533 137.07c4.866-1.044 9.524.139 9.246 4.105Z"/><path stroke="var(--unique-black, #111111)" stroke-linecap="round" stroke-linejoin="round" stroke-miterlimit="10" d="M174.533 137.07c4.866-1.044 9.524.139 9.246 4.105"/><path fill="var(--unique-white, #ffffff)" stroke="var(--unique-black, #111111)" stroke-linecap="round" stroke-linejoin="round" stroke-miterlimit="10" d="m185.794 144.375.418 2.296-2.155-1.044-8.968-12.315 1.738-1.183 8.967 12.246Z"/><path fill="var(--unique-white, #ffffff)" d="M165.356 139.435s7.161-4.592 13.904-.974c6.743 3.618 6.187 6.262 2.294 4.592-2.225-.974-3.545-1.67-3.545-1.67"/><path stroke="var(--unique-black, #111111)" stroke-linecap="round" stroke-linejoin="round" stroke-miterlimit="10" d="M165.356 139.435s7.161-4.592 13.904-.974c6.743 3.618 6.187 6.262 2.294 4.592-2.225-.974-3.545-1.67-3.545-1.67"/><path fill="var(--unique-white, #ffffff)" d="M181.554 143.053c.139.557-1.251 2.923-3.128 1.879Z"/><path stroke="var(--unique-black, #111111)" stroke-linecap="round" stroke-linejoin="round" stroke-miterlimit="10" d="M181.554 143.053c.139.557-1.251 2.923-3.128 1.879"/><path fill="var(--unique-white, #ffffff)" stroke="var(--unique-black, #111111)" stroke-linecap="round" stroke-linejoin="round" stroke-miterlimit="10" d="m156.111 117.518-2.642-6.75c.974-.904 1.53-2.296 1.669-4.383.208-4.662-5.423-5.636-7.856-3.479-2.433 2.226-3.058 4.105-3.058 4.105l1.042.765s-.347 3.271 2.712 4.036l2.78 7.028c-.139 0-.347.069-.486.139-1.391.348-2.851.835-4.241 1.322.487.348.904.626 1.39.835 3.685 2.018 7.091 1.67 9.941.208 2.086-1.113 3.893-2.783 5.214-4.522-2.155 0-4.24.278-6.465.696Z"/><path fill="var(--unique-white, #ffffff)" d="M179.26 145.419s-.764 2.436-3.545 1.114Z"/><path stroke="var(--unique-black, #111111)" stroke-linecap="round" stroke-linejoin="round" stroke-miterlimit="10" d="M179.26 145.419s-.764 2.436-3.545 1.114"/><path fill="var(--unique-black, #111111)" d="M172.586 97.2c-3.823 2.853-5.492-.626-9.246 2.644-2.85 2.435-9.037-.835-10.288.765-.348.487-.973.627-1.46.209-.069 0-.069-.069-.139-.069-1.877-1.462-3.684-2.366-4.519.208-.417 2.018 3.337 4.941 4.867 5.428 1.112.347.695 1.809-.278 2.017-.209.07-.278.209-.209.487-.556 5.219 4.866 7.863 11.818 8.489 6.952.626 5.7-5.705 5.492-9.254-.209-3.549 6.534-4.036 9.245-8.002 2.712-4.035-1.459-5.775-5.283-2.922Z"/><path stroke="var(--unique-black, #111111)" stroke-linecap="round" stroke-linejoin="round" stroke-miterlimit="10" d="m186.212 147.159 5.353 1.252M177.522 149.385l13.139 2.853M174.672 159.822l-.765 2.853M176.618 160.101l-.834 2.852M186.977 162.814l-.765 2.853M185.238 162.188l-.764 2.853M133.619 150.669c-12.867-6.673-21.096-20.092-21.096-35.518 0-22.126 17.936-40.008 39.973-40.008 22.106 0 39.763 14.333 39.972 40.008 0 3.758-.487 7.376-1.391 10.785-1.226 4.5-3.253 8.666-5.885 12.367"/><path stroke="var(--steel-90, #001729)" stroke-linecap="round" stroke-linejoin="round" stroke-miterlimit="10" d="m42.78 129.429-6.481-3.048-12.27 26.136 6.48 3.048 12.27-26.136Z"/><path fill="var(--unique-black, #111111)" d="m98.468 160.033-13.552 5.865 11.487 26.489 13.551-5.865-11.486-26.489Z"/><path stroke="var(--steel-90, #001729)" stroke-linecap="round" stroke-linejoin="round" stroke-miterlimit="10" d="m71.74 140.512-35.8 26.579M74.8 145.313l-35.871 26.58M50.885 135.154l-1.668 2.784M104.136 104.4l1.877 1.252M110.045 92.571l-1.043 2.366M82.705 124l-2.086 2.714M119.916 106.696l1.668-2.088M122.001 65.853l1.529 2.713M87.313 49.223l2.085 2.087"/><path stroke="var(--steel-90, #001729)" stroke-linecap="round" d="M51.62 74c19.5-7 60.499-11.5 91.499 18.5"/><path stroke="var(--steel-90, #001729)" stroke-linecap="round" d="M143.119 86v6.5h-6M75.62 108.244 77.425 102l5.763 1.668"/><path stroke="var(--steel-90, #001729)" stroke-linecap="round" d="M131.119 119.5c-23 4.5-41.5 1-53.5-17"/><path stroke="var(--unique-black, #111111)" stroke-linecap="round" stroke-linejoin="round" stroke-miterlimit="10" d="m140.217 35.352-6.516 3.25 1.937-7.02L153.787 8.62l4.578 3.771-18.148 22.96Z"/><path fill="var(--unique-black, #111111)" d="m137.5 36.5-2.5-2-1 4 3.5-2ZM140.217 35.352l-4.579-3.77L153.787 8.62l4.578 3.771-18.148 22.96Z"/><path fill="var(--unique-white, #ffffff)" d="M52.427 100.676c1.877 6.61-.834 8.767-1.738 7.793-.417-.417-.14-2.157-.278-3.687-.14-1.74-.626-3.34-.626-3.34"/><path stroke="var(--unique-black, #111111)" stroke-linecap="round" stroke-linejoin="round" stroke-miterlimit="10" stroke-width=".695" d="M52.427 100.676c1.877 6.61-.834 8.767-1.738 7.793-.417-.417-.14-2.157-.278-3.687-.14-1.74-.626-3.34-.626-3.34"/></svg>
