<svg xmlns="http://www.w3.org/2000/svg" width="200" height="200" fill="none"><g clip-path="url(#a)"><circle cx="108.214" cy="70.357" r="70.357" fill="var(--brand-sapphire-10, #d5e8fd)"/><path stroke="var(--steel-90, #001729)" stroke-linecap="round" stroke-linejoin="round" stroke-miterlimit="10" d="m13.768 160.943 4.806-5.758M3.054 154.157l11.143-3.519"/><path fill="var(--unique-black, #111111)" stroke="var(--unique-black, #111111)" stroke-linejoin="round" d="m26.262 79.835 4.425.997-3.424 3.427-1-4.424Z"/><path stroke="var(--steel-90, #001729)" stroke-linecap="round" stroke-linejoin="round" d="M44.943 86.34a3.156 3.156 0 1 1 2.91-5.6 3.156 3.156 0 0 1-2.91 5.6v0Z"/><path fill="var(--unique-white, #ffffff)" stroke="var(--unique-black, #111111)" stroke-linecap="round" stroke-linejoin="round" d="m152.896 148.644 24.382.642.462-18.484-24.388-.596-.456 18.438Z"/><path stroke="var(--unique-black, #111111)" stroke-linecap="round" stroke-linejoin="round" d="m172.727 144.489.258-10.555M169.351 141.724l.102-7.934"/><path fill="var(--unique-white, #ffffff)" stroke="var(--unique-black, #111111)" stroke-linecap="round" stroke-linejoin="round" d="m150.105 159.81 12.002-21.228-16.081-9.093-12.011 21.226 16.09 9.095Z"/><path stroke="var(--unique-black, #111111)" stroke-linecap="round" stroke-linejoin="round" d="m156.167 141.5-9.205-5.224M154.291 144.828l-9.169-5.216"/><path stroke="var(--steel-90, #001729)" stroke-linecap="round" stroke-linejoin="round" stroke-miterlimit="10" d="m160.656 161.869-.016 1.714M186.615 131.1l1.69-.282M183.765 126.362l3.584-4.219M169.371 159.307l2.425 2.536"/><mask id="b" fill="#fff"><path d="M125.509 144.167c.383.199.817.28 1.246.232a2.176 2.176 0 0 0 1.857-1.56 2.185 2.185 0 0 0-4.034-1.616 2.182 2.182 0 0 0 .931 2.944Z"/></mask><path stroke="var(--steel-90, #001729)" stroke-width="2" d="M125.509 144.167c.383.199.817.28 1.246.232a2.176 2.176 0 0 0 1.857-1.56 2.185 2.185 0 0 0-4.034-1.616 2.182 2.182 0 0 0 .931 2.944Z" mask="url(#b)"/><path fill="var(--unique-black, #111111)" d="m125.955 126.977 2.022-3.165 3.157 2.021-2.014 3.166-3.165-2.022Z"/><mask id="c" fill="#fff"><path d="m102.323 134.132 5.912 6.055-6.048 5.894-5.92-6.037 6.056-5.912Z"/></mask><path stroke="var(--steel-90, #001729)" stroke-width="2" d="m102.323 134.132 5.912 6.055-6.048 5.894-5.92-6.037 6.056-5.912Z" mask="url(#c)"/><path stroke="var(--steel-90, #001729)" stroke-linecap="round" stroke-linejoin="round" stroke-miterlimit="10" d="m55.76 29.886 1.206-1.219M47.722 25.651l.028-3.508"/><path fill="var(--unique-white, #ffffff)" stroke="var(--unique-black, #111111)" stroke-linecap="round" stroke-linejoin="round" stroke-miterlimit="10" d="m50.099 35.014-22.425 16.49L40.98 69.6l22.425-16.49-13.306-18.095Z"/><path stroke="var(--unique-black, #111111)" stroke-linecap="round" stroke-linejoin="round" stroke-miterlimit="10" d="m44.07 44.156 4.703-3.489M44.728 45.044l4.702-3.489M52.607 50.267a1.267 1.267 0 1 0-.708-2.432 1.267 1.267 0 0 0 .708 2.432ZM40.858 64.165l.692-7.239 2.494.874 1.607-9.586"/><path fill="var(--unique-black, #111111)" d="m44.471 48.557 1.334-1.188 1.145 1.187-2.479.002Z"/><circle cx="138.214" cy="61.072" r="52.5" fill="var(--unique-white, #ffffff)"/><path stroke="var(--unique-black, #111111)" d="M176.429 24.912c-9.583-10.066-23.113-16.34-38.108-16.34-29.054 0-52.607 23.552-52.607 52.606 0 29.054 23.553 52.606 52.607 52.606 29.053 0 52.606-23.552 52.606-52.606a52.486 52.486 0 0 0-3.412-18.678"/><circle cx="138.343" cy="61.072" r="40.229" fill="var(--brand-sapphire-60, #1952b6)"/><circle cx="138.214" cy="61.072" r="26.071" fill="var(--unique-white, #ffffff)"/><mask id="d" fill="#fff"><path d="m171.183 119.422.378-5.113-5.103-.372-.387 5.108 5.112.377Z"/></mask><path stroke="var(--steel-90, #001729)" stroke-width="2" d="m171.183 119.422.378-5.113-5.103-.372-.387 5.108 5.112.377Z" mask="url(#d)"/><mask id="e" fill="#fff"><path d="m72.037 44.492.307-4.158-4.15-.303-.314 4.154 4.157.306Z"/></mask><path stroke="var(--steel-90, #001729)" stroke-width="2" d="m72.037 44.492.307-4.158-4.15-.303-.314 4.154 4.157.306Z" mask="url(#e)"/><path fill="var(--unique-black, #111111)" d="M115.293 168.308a4.358 4.358 0 0 1-2.331-4.24 4.364 4.364 0 0 1 3.026-3.777 4.355 4.355 0 1 1-.695 8.017Z"/><path stroke="var(--unique-black, #111111)" d="M148.214 68.573c1.57-2.09 2.5-4.687 2.5-7.502 0-6.903-5.596-12.5-12.5-12.5-6.903 0-12.5 5.597-12.5 12.5 0 6.904 5.597 12.5 12.5 12.5 2.204 0 4.274-.57 6.072-1.57"/><path fill="var(--brand-sapphire-60, #1952b6)" fill-rule="evenodd" d="m74.353 91.732-11.088 8.222 6.52 2.612-.001.001.606 6.997 11.088-8.222-.606-6.998-6.52-2.612Z" clip-rule="evenodd"/><path fill="var(--unique-black, #111111)" stroke="var(--unique-black, #111111)" d="M106.317 80.682c.953-.647 3.556-4.1 4.962-6.017a.577.577 0 0 0-.609-.908c-2.086.533-5.728 1.565-7.279 2.618l-7.219 4.904a.566.566 0 0 0-.027.02L78.188 95.072l-2.834 2.635c-.527.49.086 1.327.713.973l3.379-1.913 19.618-11.16a.554.554 0 0 0 .04-.025l7.213-4.9Z"/><path stroke="var(--unique-black, #111111)" stroke-linecap="round" d="M138.571 13.214v35m0 61.072V73.571M90.357 60.714h35.357m60.715 0h-35.715"/><path stroke="var(--unique-white, #ffffff)" d="M138.571 20.714V36.43M138.571 85.714v16.429M164.286 60.714h14.285M98.115 60.714H112.4"/><path fill="var(--unique-white, #ffffff)" d="M56.61 139.591c-1.692-8.04-.314-13.737 2.307-16.11 2.62-2.373 6.415-2.393 7.244.129"/><path stroke="var(--unique-black, #111111)" stroke-linecap="round" stroke-linejoin="round" stroke-miterlimit="10" d="M56.61 139.591c-1.692-8.04-.314-13.737 2.307-16.11 2.62-2.373 6.415-2.393 7.244.129"/><path fill="var(--unique-white, #ffffff)" d="M67.222 121.018c-1.103.454-2.302 1.105-3.432 1.808-.068-.052-.129-.044-.197-.096-2.048 1.623-3.967 3.289-5.726 5.24-1.321 2.933-2.445 5.963-3.637 8.94-2.251 7.406-5.897 15.368-12.829 18.932-1.166.892-2.469 1.679-3.78 2.406l7.351 28.133c12.488-2.78 18.527-8.276 24.073-21.698 4.082-9.734 5.421-22.101 6.917-18.26 1.496 3.841 5.885.495 3.24-5.518-.869-1.905-1.776-3.191-2.732-3.92l.478.364c-.002-5.94-2.164-10.182-9.221-8.009-.189-.036-.37-.011-.55.013 1.063-.755 3.524-2.494 4.966-4.525 1.397-1.903 2.932-3.701 2.104-5.305-.462-1.163-4.88.595-7.025 1.495Z"/><path stroke="var(--unique-black, #111111)" stroke-linecap="round" stroke-linejoin="round" stroke-miterlimit="10" d="M39.87 157.211c9.119-5.512 13.577-16.093 15.343-23.005 1.722-6.785 7.26-11.142 12.016-13.128 2.205-.908 6.563-2.657 7.154-1.451.828 1.604-.253 3.586-2.105 5.305-2.396 2.22-5.526 4.906-5.526 4.906"/><path fill="var(--unique-white, #ffffff)" d="M65.408 129.407c6.72-6.966 11.63 1.316 11.62 7.625Z"/><path stroke="var(--unique-black, #111111)" stroke-linecap="round" stroke-linejoin="round" stroke-miterlimit="10" d="M65.408 129.407c6.72-6.966 11.63 1.316 11.62 7.625"/><path stroke="var(--unique-black, #111111)" stroke-linecap="round" stroke-linejoin="round" stroke-miterlimit="10" d="M46.473 186.591c12.223-4.105 16.631-9.308 22.572-21.907 4.081-9.735 5.421-22.102 6.917-18.261 1.564 3.893 5.884.496 3.24-5.518-2.646-6.014-5.865-8.092-9.523-4.784M61.677 132.174l1.066-1.185M66.798 139.753l1.061-1.673M64.268 136.419l1.122-1.682"/><path fill="var(--unique-white, #ffffff)" d="M74.699 146.593a62.58 62.58 0 0 1 1.128-2.54Z"/><path stroke="var(--unique-black, #111111)" stroke-linecap="round" stroke-linejoin="round" stroke-miterlimit="10" d="M74.699 146.593a62.58 62.58 0 0 1 1.128-2.54"/><path fill="var(--unique-white, #ffffff)" d="M35.198 154.697c-3.861 3.195-13.762 11.333-19.327 15.432l34.146 19.735 10.546-7.639a2.234 2.234 0 0 0 .363-3.304c-6.827-7.603-18.594-19.833-22.678-24.06a2.24 2.24 0 0 0-3.05-.164Z"/><path fill="var(--brand-sapphire-60, #1952b6)" d="M35.202 154.671c-5.295 4.313-22.244 18.081-28.134 22.419 10.98 8.828 24.084 14.936 37.921 17.591l15.719-12.437a2.236 2.236 0 0 0 .286-3.248c-6.824-7.606-18.675-19.923-22.76-24.15a2.236 2.236 0 0 0-3.032-.175Z"/><path stroke="var(--unique-black, #111111)" stroke-linecap="round" d="M7.068 177.09c5.89-4.338 22.839-18.106 28.134-22.419a2.236 2.236 0 0 1 3.032.175c4.088 4.231 15.957 16.565 22.778 24.17.856.953.73 2.426-.265 3.232L45.343 194.73"/><mask id="f" fill="#fff"><path d="M38.963 164.315a2.404 2.404 0 1 0-4.489-1.72 2.404 2.404 0 0 0 4.49 1.72Z"/></mask><path fill="var(--unique-white, #ffffff)" stroke="var(--unique-black, #111111)" stroke-width="2" d="M38.963 164.315a2.404 2.404 0 1 0-4.489-1.72 2.404 2.404 0 0 0 4.49 1.72Z" mask="url(#f)"/><mask id="g" fill="#fff"><path d="M32.325 169.024a2.404 2.404 0 1 0-4.49-1.72 2.404 2.404 0 0 0 4.49 1.72Z"/></mask><path fill="var(--unique-white, #ffffff)" stroke="var(--unique-black, #111111)" stroke-width="2" d="M32.325 169.024a2.404 2.404 0 1 0-4.49-1.72 2.404 2.404 0 0 0 4.49 1.72Z" mask="url(#g)"/></g><defs><clipPath id="a"><path fill="var(--unique-white, #ffffff)" d="M0 0h200v200H0z"/></clipPath></defs></svg>
