<svg xmlns="http://www.w3.org/2000/svg" width="200" height="200" fill="none"><path fill="var(--brand-sapphire-60, #1952b6)" d="m146.06 142.62-20.51 8.47-3.64-17.09-9 18.55-16.2-4.56 5.21 11.77L88 164.01l25.38 8.89-5.27 12.25 10-6.7 12.14 8 .06-9.78 15.88-4.34-11.59-9.39 11.46-20.32Z"/><path fill="var(--unique-white, #ffffff)" fill-rule="evenodd" d="m125.23 171.031-12.995-3.316c-2.241-.571-3.02-3.357-1.4-5.008l9.353-9.53c1.613-1.644 4.399-.933 5.027 1.282l3.643 12.847c.631 2.225-1.387 4.297-3.628 3.725Zm-12.501-5.253a1 1 0 0 1-.466-1.67l9.352-9.531a1 1 0 0 1 1.676.428l3.643 12.847a1 1 0 0 1-1.209 1.241l-12.996-3.315Zm6.692-3.147 1.375-5.387 1.937.495-1.374 5.386-1.938-.494Zm1.41 2.786a1.061 1.061 0 0 0-.758-1.296 1.061 1.061 0 0 0-1.287.774 1.062 1.062 0 0 0 .758 1.297 1.062 1.062 0 0 0 1.287-.775Z" clip-rule="evenodd"/><circle cx="62" cy="64" r="11" fill="var(--brand-sapphire-10, #d5e8fd)"/><path fill="var(--unique-black, #111111)" d="m152.369 44.1 1.76-4.1 4.09 1.76-1.75 4.1-4.1-1.76Z"/><path stroke="var(--steel-90, #001729)" stroke-linecap="round" stroke-linejoin="round" d="m128.88 130.83 3-3.35M128.51 121.53l-2.61 8.55"/><path fill="var(--brand-sapphire-10, #d5e8fd)" d="m160.254 87.41-8.96 14.818 9.899 5.985 8.959-14.818-9.898-5.985Z"/><path fill="var(--steel-90, #001729)" fill-rule="evenodd" d="M180.5 62.5a4.5 4.5 0 1 1-9 0 4.5 4.5 0 0 1 9 0Zm1 0a5.5 5.5 0 1 1-11 0 5.5 5.5 0 0 1 11 0Zm-7.209 2.416L176 63.207l1.709 1.71.707-.708-1.709-1.709 1.709-1.709-.707-.707L176 61.793l-1.709-1.71-.707.708 1.709 1.709-1.709 1.709.707.707Z" clip-rule="evenodd"/><path fill="var(--brand-sapphire-60, #1952b6)" d="M185.8 17.11a1.9 1.9 0 1 0 0-3.799 1.9 1.9 0 0 0 0 3.8Z"/><path stroke="var(--steel-90, #001729)" stroke-linecap="round" stroke-linejoin="round" d="M83.21 17 81 19.86"/><path fill="var(--brand-sapphire-60, #1952b6)" d="m157.07 87.65-57.43 21-1.39-3.9 57.44-21 1.38 3.9Z"/><path fill="var(--brand-sapphire-10, #d5e8fd)" d="m147.58 67.31-45.9 21.38L100 85l45.9-21.38 1.68 3.69ZM140.529 47.23l-49.74 9.2-.76-4 49.79-9.28.71 4.08Z"/><path fill="var(--steel-90, #001729)" fill-rule="evenodd" d="M93.5 37a3 3 0 1 1-6 0 3 3 0 0 1 6 0Zm1 0a4 4 0 1 1-8 0 4 4 0 0 1 8 0Zm-5.146 1.853 1.146-1.146 1.146 1.146.708-.707L91.207 37l1.147-1.147-.708-.707-1.146 1.147-1.146-1.147-.708.707L89.793 37l-1.147 1.146.708.707Z" clip-rule="evenodd"/><path fill="var(--brand-sapphire-60, #1952b6)" d="M166.16 87.37a3.781 3.781 0 0 0 .735-6.944 3.783 3.783 0 0 0-5.416 2.19 3.777 3.777 0 0 0 1.801 4.445c.882.48 1.917.591 2.88.309Z"/><path stroke="var(--steel-90, #001729)" stroke-linecap="round" stroke-linejoin="round" d="m143.549 154-1.31 3.36M94.73 99.93l2.29 1M139 48.23l-1.46 3.12M141.579 56.09l2.29-.08M37 145.05l-.16 2.73"/><path fill="var(--unique-black, #111111)" stroke="var(--unique-black, #111111)" stroke-linecap="round" stroke-linejoin="round" d="M42.74 89.62c-.11.1-.3.23-.42.34-3 2.61-6.14 5.69-7.29 9.6a10.858 10.858 0 0 0-.37 2.27A30.53 30.53 0 0 1 25 99v-.39c1.17-5.85 4.61-10.59 8.8-14.58.81-.76 1.63-1.53 2.47-2.22.286-.244.594-.462.92-.65a4.59 4.59 0 0 1 4.59.14c2.75 1.76 4.08 5.76.96 8.32Z"/><path fill="var(--unique-black, #111111)" stroke="var(--unique-black, #111111)" stroke-linecap="round" stroke-linejoin="round" d="M73.14 58.38c1 7.76-3.07 14.83-9.17 19.38-6.59 4.93-14.82 6.84-21.27 11.94-.12.11-.26.15-.38.26-4 2.69-8.64-1.54-7.76-5.37A4.51 4.51 0 0 1 36.32 82c.3-.24.67-.5 1-.74 1.42-1 2.87-1.89 4.33-2.76 4.21-2.36 8.68-4.13 12.9-6.49 4.22-2.36 9.38-6.57 8.69-12.17v-.82c3.26-.59 6.4-1.29 9.61-2 .131.445.228.9.29 1.36v0Z"/><path fill="var(--unique-white, #ffffff)" d="M63.23 59.89c-.66-4.27-2-6.91-1.53-8 .47-1.09 1.35 2.05 2.64 2.12 1.29.07-.92-4.87.47-5.72 1.39-.85 2.12 3.91 2.12 3.91s-1-4.24.18-4.44c1.18-.2 1.82 4.24 1.82 4.24s-.53-4.31.15-4.29c.68.02 2.37 1.46 4.06 10.71"/><path stroke="var(--unique-black, #111111)" stroke-linecap="round" stroke-linejoin="round" d="M63.23 59.89c-.66-4.27-2-6.91-1.53-8 .47-1.09 1.35 2.05 2.64 2.12 1.29.07-.92-4.87.47-5.72 1.39-.85 2.12 3.91 2.12 3.91s-1-4.24.18-4.44c1.18-.2 1.82 4.24 1.82 4.24s-.53-4.31.15-4.29c.68.02 2.37 1.46 4.06 10.71"/><path fill="var(--unique-black, #111111)" d="M64.34 54.06a5.92 5.92 0 0 1 3.14 1.82l-3.14-1.82Z"/><path stroke="var(--unique-black, #111111)" stroke-linecap="round" stroke-linejoin="round" d="M64.34 54.06a5.92 5.92 0 0 1 3.14 1.82"/><path fill="var(--unique-black, #111111)" stroke="var(--unique-black, #111111)" stroke-linecap="round" stroke-linejoin="round" d="M122.81 76s8.61 1.93 10.4 2.66L137.39 59s-6.18-.48-7.26 4.16l-7.82-.74.5 13.58Z"/><path stroke="var(--unique-white, #ffffff)" stroke-linecap="round" stroke-linejoin="round" stroke-width=".71" d="m130.19 63.18-.1 2.93M128.549 62.92l-.39 3"/><path fill="var(--unique-black, #111111)" stroke="var(--unique-black, #111111)" stroke-linecap="round" stroke-linejoin="round" d="M93.7 162.76s-1.12 7-1.6 9l20 1.68s-.33-6.15-5-6.63l-.3-7.8-13.1 3.75Z"/><path stroke="var(--unique-white, #ffffff)" stroke-linecap="round" stroke-linejoin="round" stroke-width=".71" d="m107.08 166.69-2.9.26M107.18 165l-3 .06"/><path fill="var(--unique-white, #ffffff)" stroke="var(--unique-black, #111111)" stroke-linecap="round" stroke-linejoin="round" d="M91.54 163.25c-2-26.75-22.2-42.35-41.47-45.81-6-1.06-5.9-5.84-3.52-9.9a9.232 9.232 0 0 1 .64-4.65c12.16-31.43 48.19-47.36 79-41.2l-3.29 16.08c-23.46-4.53-50 4.12-61.44 26.49 23.09 6 46.63 25.74 46.86 56.78-5.14.78-11.89 1.13-16.78 2.21Z"/><path stroke="var(--unique-black, #111111)" stroke-linecap="round" stroke-linejoin="round" d="m91.16 160.45 16.43-3.14M122.44 61.38 119.52 77"/><path fill="var(--unique-white, #ffffff)" stroke="var(--unique-black, #111111)" stroke-linecap="round" stroke-linejoin="round" d="m38.42 121.07-26.11 3 2.3 19.79 26.11-3.05-2.3-19.74Z"/><path fill="var(--unique-white, #ffffff)" d="m17.89 128.5 1.32 11.3Z"/><path stroke="var(--unique-black, #111111)" stroke-linecap="round" stroke-linejoin="round" d="m17.89 128.5 1.32 11.3"/><path fill="var(--unique-white, #ffffff)" d="m21.91 130.94 1.09 8.48Z"/><path stroke="var(--unique-black, #111111)" stroke-linecap="round" stroke-linejoin="round" d="m21.91 130.94 1.09 8.48"/><path fill="var(--unique-white, #ffffff)" stroke="var(--unique-black, #111111)" stroke-linecap="round" stroke-linejoin="round" d="m37.36 109.45-7.84 25.08 19 5.94 7.85-25.08-19.01-5.94Z"/><path stroke="var(--unique-black, #111111)" stroke-linecap="round" stroke-linejoin="round" d="M35.12 130.11 46 133.53M36.34 126.18l10.84 3.42"/><path fill="var(--unique-white, #ffffff)" stroke="var(--unique-black, #111111)" stroke-linecap="round" stroke-linejoin="round" d="M67.08 96.34 46.46 112a1.796 1.796 0 0 1-2.47-.31L33 97.32a1.79 1.79 0 0 1 .31-2.47L54 79.16a1.8 1.8 0 0 1 2.48.31l11 14.4a1.7 1.7 0 0 1-.4 2.47v0Z"/><path stroke="var(--unique-black, #111111)" stroke-linecap="round" stroke-linejoin="round" d="m49.91 93-2.33 1.78 1.87 2.44 2.32-1.78L49.91 93ZM47.34 111.46c-5.62 15.28-1.38 9 4.22 9.25s2.12 16.49 2.92 29.29c.89 13.36 16.24-8.3 21.9-2.75 5.86 5.71-19.26 27.34-41.12 34M33.42 97.13l23.21-17.72"/><path fill="var(--unique-black, #111111)" d="m36.25 101.66 1.57 2.34a1.253 1.253 0 0 1-1.435.195 1.256 1.256 0 0 1-.395-.325c-.99-1.01.26-2.21.26-2.21Z"/><path fill="var(--unique-black, #111111)" stroke="var(--unique-black, #111111)" stroke-linecap="round" stroke-linejoin="round" d="M60.44 101.88a61.569 61.569 0 0 0-4.86-4.37c-3.48 6.38-10.08 15-17.73 10.82-2.93-1.59-3.56-5-3-8-3-1.57-6-3.21-8.89-4.89-.4 1.05-.704 2.135-.91 3.24-1.36 6.73 1.09 14.27 7.16 17.91 6.07 3.64 13.62 3.27 19.72-.32 4.82-2.84 8.28-7 11.07-11.68-.83-.92-1.71-1.85-2.56-2.71Z"/><path fill="var(--unique-white, #ffffff)" d="M55.58 97.51c3.32-5.9 5.29-8.56 4.31-4.33-.57 2.63.67 1.29 2.72-1.62 2.05-2.91 1.21 1.58.54 3.34 0 0 2-3.79 3-3.26 1 .53-1.06 4.48-1.06 4.48s2.1-3.75 2.8-2.62c.58 1-3.69 8.69-4.9 11.13"/><path stroke="var(--unique-black, #111111)" stroke-linecap="round" stroke-linejoin="round" d="M55.58 97.51c3.32-5.9 5.29-8.56 4.31-4.33-.57 2.63.67 1.29 2.72-1.62 2.05-2.91 1.21 1.58.54 3.34 0 0 2-3.79 3-3.26 1 .53-1.06 4.48-1.06 4.48s2.1-3.75 2.8-2.62c.58 1-3.69 8.69-4.9 11.13"/><path fill="var(--unique-white, #ffffff)" stroke="var(--unique-black, #111111)" stroke-linecap="round" stroke-linejoin="round" d="m39.74 70.11.48-.89a9.27 9.27 0 0 0-3.58-1.77c-2.51-.67-6 2.08-4.2 5.19a4.92 4.92 0 0 0 2.74 2.47l.76 7.36-1.89 1.68c.204.177.425.334.66.47a4.63 4.63 0 0 0 3.85.43A4.54 4.54 0 0 0 42 81.44a5.431 5.431 0 0 0-.26-2.9 13.26 13.26 0 0 0-1.64 1l-.7-5.67a3 3 0 0 0 .34-3.76v0Z"/><path fill="var(--unique-black, #111111)" d="M36.17 67.37c1 1.28-.61 3.23-1.48 4.08-.63.64.16 1.52.91 1.3.75-.22.19 1.65-.09 2l-.35.33c-1-.22-1.93-1-2.83-2.52-1.75-2.94 1.45-9.99 3.84-5.19Z"/><path fill="var(--unique-black, #111111)" d="M36.41 69.68 35.07 69a.87.87 0 0 0-1.09.32.81.81 0 0 0 .39 1.08l1.33.72a.88.88 0 0 0 1.1-.32.8.8 0 0 0-.39-1.12Z"/><path fill="var(--brand-sapphire-10, #d5e8fd)" d="m163.779 32.6-44.45-.47v-3.6l44.45.48v3.59ZM9.666 170.458l29.903-2.41 1.61 19.983-29.903 2.41z"/><path fill="var(--unique-white, #ffffff)" stroke="var(--unique-black, #111111)" stroke-linecap="round" stroke-linejoin="round" stroke-miterlimit="10" d="M30.723 155 3 163.482l6.449 21.023 27.723-8.482L30.723 155Z"/><path stroke="var(--unique-black, #111111)" stroke-linecap="round" stroke-linejoin="round" stroke-miterlimit="10" d="m19.72 162.576 3.658 12.024M14.373 163.756l2.524 7.391M22.7 161.59l3.656 12.024"/><path fill="var(--steel-90, #001729)" fill-rule="evenodd" d="m119.095 28.807 1.125 5.743c.297 1.513-1.158 2.778-2.615 2.275l-5.556-1.92c-1.457-.503-1.821-2.396-.654-3.404l4.43-3.824c1.163-1.003 2.975-.377 3.27 1.13Zm-.981.192 1.125 5.743a1 1 0 0 1-1.308 1.138l-5.555-1.92a1 1 0 0 1-.327-1.702l4.43-3.823a1 1 0 0 1 1.635.564Zm-2.559 3.316.932-2.934.953.303-.932 2.934-.953-.303ZM115.5 34a.5.5 0 1 0 0-1 .5.5 0 0 0 0 1Z" clip-rule="evenodd"/></svg>
