<svg xmlns="http://www.w3.org/2000/svg" width="200" height="200" fill="none"><g clip-path="url(#a)"><path fill="var(--brand-sapphire-10)" d="M111.318 31.705c2.338-2.254 6.237-1.19 7.104 1.941l31.461 113.531c.888 3.204-2.052 6.154-5.259 5.278L28.356 120.697c-3.207-.876-4.239-4.911-1.846-7.219l84.808-81.773Z"/><path stroke="var(--steel-90)" stroke-linecap="round" stroke-linejoin="round" stroke-miterlimit="10" d="M28.416 125.364a.714.714 0 0 1 .066 1.246l-10.564 6.641a.715.715 0 0 1-1.092-.549l-.972-12.302a.715.715 0 0 1 1.027-.698l11.535 5.662Z"/><mask id="b" fill="#fff"><path d="M48.044 152.62c1.963-3.31 2.945-4.965 4.431-6.018a8.5 8.5 0 0 1 1.47-.837c1.665-.742 3.589-.742 7.437-.742h71.2c3.848 0 5.772 0 7.437.742.516.229 1.008.51 1.47.837 1.486 1.053 2.468 2.708 4.431 6.018 2.732 4.606 4.098 6.909 3.492 8.757a4.29 4.29 0 0 1-.847 1.487c-1.281 1.464-3.959 1.464-9.314 1.464H54.713c-5.355 0-8.033 0-9.314-1.464a4.275 4.275 0 0 1-.847-1.487c-.606-1.848.76-4.151 3.492-8.757Z"/></mask><path fill="var(--unique-white)" stroke="var(--unique-black)" stroke-width="2" d="M48.044 152.62c1.963-3.31 2.945-4.965 4.431-6.018a8.5 8.5 0 0 1 1.47-.837c1.665-.742 3.589-.742 7.437-.742h71.2c3.848 0 5.772 0 7.437.742.516.229 1.008.51 1.47.837 1.486 1.053 2.468 2.708 4.431 6.018 2.732 4.606 4.098 6.909 3.492 8.757a4.29 4.29 0 0 1-.847 1.487c-1.281 1.464-3.959 1.464-9.314 1.464H54.713c-5.355 0-8.033 0-9.314-1.464a4.275 4.275 0 0 1-.847-1.487c-.606-1.848.76-4.151 3.492-8.757Z" mask="url(#b)"/><path stroke="var(--unique-black)" stroke-linecap="round" d="M57.356 149.512h15.24M60.913 151.799h15.24"/><path fill="var(--unique-black)" d="m11.429 162.651 50.17-3.365.286 4.255-50.17 3.365zM122.857 169.08l50.17-3.365.286 4.255-50.17 3.365z"/><path fill="var(--unique-white)" stroke="var(--unique-black)" d="m56.837 74.066.72-8.95h-2.698l-2.338 7.757 4.316 1.193Z"/><path fill="var(--unique-white)" stroke="var(--unique-black)" stroke-linecap="round" stroke-linejoin="round" stroke-miterlimit="10" d="M59.989 63.096c0 2.997-2.342 3.896-4.196 3.896-1.854 0-3.077-1.91-3.077-3.896 0-2.698 2.063-4.496 3.916-4.496 1.854 0 3.357 1.499 3.357 4.496Z"/><path fill="var(--unique-black)" d="M57.513 58.506c2.684-2.684 5.934 3.108-2.046 4.428-.836.294-.433 1.379.229 1.533.634.092-.503 1.557-.876 1.721-.124.055-.29.175-.415.23-.791-.618-2.27-1.834-2.402-3.483-.706-5.136 5.227-6.83 5.51-4.43Z"/><path fill="var(--unique-black)" d="M50.06 57.215c1.942.748 1.399 1.678 3.357 2.797l-.7 1.399c-1.85-1.216-4.335.56-5.174 6.153-.84 5.595-5.926 1.12-12.972 9.79-7.045 8.672-11.364-1.957-7.168-7.552 4.196-5.594 15.698-3.232 16.438-8.094.74-4.862 4.278-5.241 6.22-4.493Z"/><path fill="var(--unique-white)" stroke="var(--unique-black)" stroke-linecap="round" stroke-linejoin="round" stroke-miterlimit="10" d="m53.282 178.593-16.496-4.672s1.786-6.487 2.392-9.7c.606-3.214 12.04 1.101 12.04 1.101l-1.384 7.637c.078-.018 4.669 1.322 3.448 5.634ZM76.928 170.648l-16.735-3.729s1.416-6.578 1.839-9.821c.423-3.242 12.082.417 12.082.417l-.947 7.704c.076-.022 4.735 1.056 3.76 5.429Z"/><path stroke="var(--unique-black)" stroke-linecap="round" d="m69.291 163.04 4.422.695M69.552 161.383l4.422.694"/><path fill="var(--unique-black)" d="m60.741 165.657 16.444 3.784-.25 1.09-16.445-3.783zM36.84 172.458l16.652 4.847-.313 1.074-16.652-4.847z"/><path stroke="var(--unique-black)" stroke-linecap="round" d="m46.514 170.38 4.338 1.103M46.928 168.753l4.338 1.103"/><path fill="var(--brand-sapphire-60)" stroke="var(--unique-black)" d="M61.983 158.194c5.875-39.161-5.034-48.672-12.587-66.574l12.308 1.959c8.95 23.496 16.503 33.286 12.028 66.573l-11.748-1.958Z"/><path stroke="var(--unique-black)" stroke-linecap="round" d="m65.388 158.542 1.119-8.392"/><path fill="var(--brand-sapphire-60)" d="M39.046 165.467C47.997 124.068 46.6 112.879 46.6 91.9h7.832c6.264 26.853 4.755 51.469-3.357 75.525l-12.028-1.958Z"/><path stroke="var(--unique-black)" stroke-linecap="round" d="M54.43 91.9H46.6c0 20.979 1.398 32.168-7.553 73.567l12.028 1.958c7.11-21.083 9.147-42.595 5.326-65.666"/><path fill="var(--unique-white)" stroke="var(--unique-black)" stroke-linecap="round" stroke-linejoin="round" stroke-miterlimit="10" d="m76.114 77.248-.08.078c-2.282 1.745-6.123 4.941-9.321 4.13-3.976-1.007-6.88-1.898-6.23-5.646.74-4.38-5.956-6.302-6.697-1.843-1.215 7.024 3.15 10.348 9.392 13.568 6.713 3.465 12.48-1.195 17.684-5.151l.12-.117c-1.555-1.764-3.07-3.568-4.868-5.02Z"/><mask id="c" fill="#fff"><path d="M55.038 70.567c-8.95.152-9.23 2.38-11.748 21.961h20.42s-.504-12.506-.951-15.583c-.616-3.692-1.12-6.49-7.72-6.377Z"/></mask><path fill="var(--unique-white)" stroke="var(--unique-black)" stroke-width="2" d="M55.038 70.567c-8.95.152-9.23 2.38-11.748 21.961h20.42s-.504-12.506-.951-15.583c-.616-3.692-1.12-6.49-7.72-6.377Z" mask="url(#c)"/><path stroke="var(--unique-black)" stroke-linecap="round" d="m56.717 70.99 5.874 7.272M62.565 81.197 45.27 92.145M61.435 74.31 44.84 84.675M54.2 74.626l8.67 10.07M51.962 78.542l8.67 10.07M44.467 86.497l4.88 5.604"/><path fill="var(--unique-white)" stroke="var(--unique-black)" stroke-linecap="round" stroke-linejoin="round" stroke-miterlimit="10" d="M72.52 95.148c.102.121 2.965-3.609 4.427-5.5-4.156-3.126-9.81-.208-15.135-.968-5.323-.76-11.24-6.18-7.101-11.592 2.863-3.73-3.051-7.914-5.91-4.24-4.639 5.987-2.904 14.175 2.621 18.941 2.712 2.323 6.188 3.646 9.739 4.134 1.996.292 4.138.204 6.128-.066.562-.006 4.983-1.068 5.232-.709Z"/><path fill="var(--unique-white)" stroke="var(--unique-black)" stroke-linecap="round" stroke-linejoin="round" stroke-miterlimit="10" d="M79.087 92.088c-.786-1.25-1.714-2.176-2.672-2.768-1.462 1.273-2.575 3.026-3.825 4.43l-1.305 1.4c.628-.113 1.074-.073 1.18-.007 1.43.971 2.423 1.791 3.106 1.684.628-.112-.052-1.297-.584-2.243 1.287.677.883 2.045 2.017 1.923.796-.097.439-2.376.028-3.424.405.486.493 2.628 1.36 2.369.632-.168 1.238-2.529.695-3.364Z"/><path fill="var(--unique-white)" d="m83.434 72.127-.585-.42-6.462 5.617 4.86 4.545 1.995-2.587 2.512-3.137-.029-1.474-.265-.944-.494-.922-2.583 1.104 1.051-1.782Z"/><path stroke="var(--unique-black)" stroke-linecap="round" stroke-linejoin="round" stroke-miterlimit="10" d="M76.034 77.326c4.37-3.771 5.862-5.608 6.733-5.674 1.901-.13-1.031 2.793-1.031 2.793s.562 2.027-.284 3.003"/><path stroke="var(--unique-black)" stroke-linecap="round" stroke-linejoin="round" stroke-miterlimit="10" d="M82.456 73.903c2.597-1.662 2.983-1.023 3.09-.27.107.753-2.484 2.02-2.484 2.02"/><path stroke="var(--unique-black)" stroke-linecap="round" stroke-linejoin="round" stroke-miterlimit="10" d="M84.036 76.656c1.48-1.045 2.327-2.1 1.549-2.983"/><path stroke="var(--unique-black)" stroke-linecap="round" stroke-linejoin="round" stroke-miterlimit="10" d="M85.928 74.509c.506.522-.07 1.938-1.392 3.065-1.162.971-.55 2.326-3.672 4.731M62.312 75.994c.391 1.007.56 6.266.56 6.266"/><path stroke="var(--steel-90)" stroke-linecap="round" stroke-linejoin="round" stroke-miterlimit="10" d="m12.386 58.911-2.477-1.647M151.55 60.822l-.235-2.965M15.703 56.422l-1.417-7.136M158.909 63.844l2.621-2.415"/><path stroke="var(--steel-90)" stroke-linecap="round" stroke-linejoin="round" d="m193.464 140.484 4.036-1.913M190.448 137.344l.733-4.487"/><path fill="var(--unique-black)" stroke="var(--unique-black)" stroke-linecap="round" stroke-linejoin="round" stroke-miterlimit="10" d="M173.01 80.043a.071.071 0 0 1-.014-.13l3.376-1.983a.071.071 0 0 1 .107.07l-.358 2.938a.072.072 0 0 1-.093.06l-3.018-.955Z"/><path stroke="var(--steel-90)" stroke-linecap="round" stroke-linejoin="round" stroke-miterlimit="10" d="M175.42 96.951a.714.714 0 0 1 1.209-.304l5.265 5.587a.715.715 0 0 1-.328 1.178l-7.311 2.049a.715.715 0 0 1-.883-.873l2.048-7.637ZM130.068 40.523a.714.714 0 0 1 1.21-.305l3.35 3.556a.714.714 0 0 1-.327 1.178l-4.653 1.303a.715.715 0 0 1-.883-.873l1.303-4.86ZM43.964 33.571l-7.535 4.517 4.517 7.535 7.535-4.517-4.517-7.535Z"/><path fill="var(--unique-black)" stroke="var(--unique-black)" stroke-linecap="round" stroke-linejoin="round" stroke-miterlimit="10" d="m21.1 28.847-.824 3.328 3.328.825.824-3.329-3.328-.824Z"/><path stroke="var(--steel-90)" stroke-linecap="round" stroke-linejoin="round" stroke-miterlimit="10" d="m50.061 45.403 1.175-1.962"/><path fill="var(--unique-white)" stroke="var(--unique-black)" stroke-linecap="round" stroke-linejoin="round" stroke-miterlimit="10" d="M137.547 155.89c2.051 6.426 5.606 16.953 5.606 16.953s-3.965 1.641-3.076 5.4h14.902c.136-.273-6.016-20.917-8.477-25.907-2.187 1.025-8.955 3.554-8.955 3.554Z"/><path fill="var(--unique-black)" d="m140.198 177.129 14.526-.044-.002 1.119-14.526.044.002-1.119Z"/><mask id="d" fill="#fff"><path d="M167.029 142.722c6.084 2.94 18.237 11.721 18.237 11.721s-.82 4.58 3.965 6.425l4.99-13.056c-.069-.274-16.885-6.699-23.584-11.211-.888 2.256-3.608 6.121-3.608 6.121Z"/></mask><path fill="var(--unique-white)" stroke="var(--unique-black)" stroke-width="2" d="M167.029 142.722c6.084 2.94 18.237 11.721 18.237 11.721s-.82 4.58 3.965 6.425l4.99-13.056c-.069-.274-16.885-6.699-23.584-11.211-.888 2.256-3.608 6.121-3.608 6.121Z" /><path fill="var(--unique-black)" d="m188.187 160.151 4.768-12.458 1.043.405-4.768 12.458-1.043-.405Z"/><path fill="var(--unique-white)" stroke="var(--unique-black)" stroke-width="2" d="M182.159 154.552c1.572-3.213 4.374-8.203 6.015-11.347-15.449-8.477-37.844-29.628-40.442-46.991-4.921-1.299-9.775-2.734-14.492-4.512-.136.342-.273.684-.341 1.094-4.375 21.806.122 55.673 6.616 76.932 4.89 0 11.432 0 14.451-.697-4.238-13.808-13.753-41.031-13.07-55.454 4.717 15.312 27.523 33.593 41.263 40.975Z"/><path stroke="var(--unique-black)" stroke-linecap="round" stroke-linejoin="round" stroke-miterlimit="10" d="M142.701 172.89h3.013M185.266 154.442l.82-1.435M138.982 104.28c.205 2.666 1.641 7.998 1.641 7.998"/><path stroke="var(--unique-black)" d="M134.212 103.567v40.961M147.461 104.747v20.264M153.89 111.976v20.249M159.667 119.527v18.493M166.58 127.099v16.858M173.51 133.31v15.459M179.939 138.343v14.665M140.624 118.572v50.68M147.052 148.022v21.598"/><path fill="var(--unique-white)" d="m111.235 76.783.77 2.427 3.466 4.202 1.376-1.596-.179-.37s-3.171-3.36-4.875-5.031l-.558.368ZM107.099 77.913c-1.863.38.437 1.767 1.536 3.41 1.099 1.643.1 2.216 3.642 5.66"/><path stroke="var(--unique-black)" stroke-linecap="round" stroke-linejoin="round" stroke-miterlimit="10" d="M107.099 77.913c-1.863.38.437 1.767 1.536 3.41 1.099 1.643.1 2.216 3.642 5.66"/><path fill="var(--unique-white)" d="M109.539 80.366c-1.436-1.193-3.734-3.233-1.325-3.543Z"/><path stroke="var(--unique-black)" stroke-linecap="round" stroke-linejoin="round" stroke-miterlimit="10" d="M109.539 80.366c-1.436-1.193-3.734-3.233-1.325-3.543"/><path fill="var(--brand-sapphire-60)" stroke="var(--unique-black)" stroke-linecap="round" stroke-linejoin="round" stroke-miterlimit="10" d="M135.913 80.727c-.181 3.55-.871 11.3-6.223 10.423-4.882-.789-8.976-5.807-12.172-9.172-.115-.135-.307-.25-.421-.385-1.578 1.857-3.175 3.638-4.916 5.332.048.029.048.029.067.106 4.986 5.164 11.828 12.558 19.726 11.704 8.733-.938 10.464-10.413 10.865-17.685.271-4.671-6.704-5.024-6.926-.323Z"/><path fill="var(--unique-white)" d="M111.091 77.252c-2.288-2.164-2.606-1.311-2.837-.928-.386.747 2.535 2.836 2.535 2.836"/><path stroke="var(--unique-black)" stroke-linecap="round" stroke-linejoin="round" stroke-miterlimit="10" d="M111.091 77.252c-2.288-2.164-2.606-1.311-2.837-.928-.386.747 2.535 2.836 2.535 2.836"/><path stroke="var(--unique-black)" stroke-linecap="round" stroke-linejoin="round" stroke-miterlimit="10" d="M117.518 81.978c-2.844-2.435-4.927-5.835-5.906-5.589-1.266.318.273 1.93.575 4.137"/><path fill="var(--brand-sapphire-60)" stroke="var(--unique-black)" stroke-linecap="round" stroke-linejoin="round" stroke-miterlimit="10" d="M154.674 84.773c2.013 3.019-4.161 19.654-4.249 21.101-1.481-.497-21.236-7.045-21.236-7.045l-2.486-2.588c3.451-1.136 7.208-17.758 11.539-19.35 4.33-1.592 14.922 6.12 16.432 7.882Z"/><mask id="f" fill="#fff"><path d="M96.33 64.76a8.572 8.572 0 0 1 7.86 3.202l32.56 41.444a8.57 8.57 0 0 1 1.251 8.395l-3.628 9.354c-1.201 3.096-5.314 3.709-7.366 1.098L83.573 72.968c-2.052-2.611-.483-6.463 2.81-6.897l9.946-1.311Z"/></mask><path fill="var(--unique-white)" stroke="var(--unique-black)" stroke-width="2" d="M96.33 64.76a8.572 8.572 0 0 1 7.86 3.202l32.56 41.444a8.57 8.57 0 0 1 1.251 8.395l-3.628 9.354c-1.201 3.096-5.314 3.709-7.366 1.098L83.573 72.968c-2.052-2.611-.483-6.463 2.81-6.897l9.946-1.311Z" mask="url(#f)"/><path stroke="var(--unique-black)" stroke-linecap="round" d="m107.955 83.721 5.65 7.191"/><path fill="var(--unique-white)" d="M113.128 93.796c-1.5-3.137-2.419-5.917-3.113-3.615-.539 1.926.217 3.05-1.747 1.04-1.885-1.994-2.513-2.523-2.947-1.552-.434.972 1.813 3.199 1.813 3.199s-2.624-2.788-3.247-2.097c-.701.675 1.925 3.87 1.925 3.87s-2.798-3.147-3.638-2.174c-.825.895 2.392 3.556 5.331 6.812"/><path stroke="var(--unique-black)" stroke-linecap="round" stroke-linejoin="round" stroke-miterlimit="10" d="M113.128 93.796c-1.5-3.137-2.419-5.917-3.113-3.615-.539 1.926.217 3.05-1.747 1.04-1.885-1.994-2.513-2.523-2.947-1.552-.434.972 1.813 3.199 1.813 3.199s-2.624-2.788-3.247-2.097c-.701.675 1.925 3.87 1.925 3.87s-2.798-3.147-3.638-2.174c-.825.895 2.392 3.556 5.331 6.812"/><path fill="var(--brand-sapphire-60)" d="M150.647 93.495c-2.177 2.825-5.308 5.95-8.082 8.089-4.24 3.397-9.082 4.888-14.586 5.193-1.486.116-2.862.091-4.286-.106-2.472-.24-4.79-.856-7.046-1.784-3.321-1.3-6.427-3.289-9.206-5.7a3.396 3.396 0 0 0 1.045-.772c1.541-1.649 3.004-3.313 4.467-4.977 3.957 3.455 8.893 5.64 14.46 5.428 4.191-.237 7.624-2.004 10.804-4.551 2.977-2.343 5.278-5.388 7.72-8.73"/><path stroke="var(--unique-black)" stroke-linecap="round" stroke-linejoin="round" stroke-miterlimit="10" d="M150.647 93.495c-2.177 2.825-5.308 5.95-8.082 8.089-4.24 3.397-9.082 4.888-14.586 5.193-1.486.116-2.862.091-4.286-.106-2.472-.24-4.79-.856-7.046-1.784-3.321-1.3-6.427-3.289-9.206-5.7a3.396 3.396 0 0 0 1.045-.772c1.541-1.649 3.004-3.313 4.467-4.977 3.957 3.455 8.893 5.64 14.46 5.428 4.191-.237 7.624-2.004 10.804-4.551 2.977-2.343 5.278-5.388 7.72-8.73"/><path fill="var(--brand-sapphire-60)" d="m149.202 89.3-2.664-5.33h-8.744l-5.256 6.543s-4.991 5.897-5.753 6.108l1.437 1.97-2.136 5.334 23.116-14.626Z"/><path stroke="var(--unique-white)" stroke-linecap="round" stroke-linejoin="round" stroke-miterlimit="10" d="M140.994 88.76c-1.844 4.277-6.508 9.007-12.15 9.916"/><path fill="var(--unique-white)" stroke="var(--unique-black)" stroke-linecap="round" stroke-linejoin="round" stroke-miterlimit="10" d="m148.31 80.284.745-2.767.893-3.203c.964-.17 1.93-.776 2.928-2.025 2.145-2.788-.929-5.81-3.41-5.532-2.422.307-3.711 1.263-3.711 1.263l.345.906s-1.615 1.886-.021 3.645l-1.042 3.786-.507 1.864c-.407-.207-.902-.385-1.309-.591-.095 1.341.451 2.715 2.022 3.511 1.512.767 2.914.454 3.91-.357-.233-.118-.552-.353-.843-.5Z"/><mask id="g" fill="#fff"><path d="M149.909 65.739c-1.114 1.044.064 4.2.846 5.109 1.101 1.29-.188 2.245-1.027 1.16-.406-.498-.359 1.574-.186 1.954.086.117.173.234.318.38.992-.081 2.046-.717 3.016-2.053.617-.784 2.2-2.175.894-3.349-.079-1.43-.598-2.57-1.621-2.138-.195-1.635-1.126-1.96-2.24-1.063Z"/></mask><path fill="var(--unique-black)" stroke="var(--unique-black)" stroke-width="2" d="M149.909 65.739c-1.114 1.044.064 4.2.846 5.109 1.101 1.29-.188 2.245-1.027 1.16-.406-.498-.359 1.574-.186 1.954.086.117.173.234.318.38.992-.081 2.046-.717 3.016-2.053.617-.784 2.2-2.175.894-3.349-.079-1.43-.598-2.57-1.621-2.138-.195-1.635-1.126-1.96-2.24-1.063Z" mask="url(#g)"/><mask id="h" fill="#fff"><path d="M152.634 68.875c.093-.903-1.215-1.786-2.065-.974-1.085.986-2.574 1.327-4.002 1.115a1.131 1.131 0 0 0-1.078-.181c-2.25.687-1.772 3.781.296 4.318 1.019.297 2.013-.076 2.92-.567 1.17-.722 2.342-1.59 3.455-2.343.498-.405.617-.93.474-1.368Z"/></mask><path fill="var(--unique-black)" stroke="var(--unique-black)" stroke-width="2" d="M152.634 68.875c.093-.903-1.215-1.786-2.065-.974-1.085.986-2.574 1.327-4.002 1.115a1.131 1.131 0 0 0-1.078-.181c-2.25.687-1.772 3.781.296 4.318 1.019.297 2.013-.076 2.92-.567 1.17-.722 2.342-1.59 3.455-2.343.498-.405.617-.93.474-1.368Z" /></g><defs><clipPath id="a"><path fill="var(--unique-white)" d="M0 0h200v200H0z"/></clipPath></defs></svg>
