<svg xmlns="http://www.w3.org/2000/svg" width="200" height="200" fill="none"><path fill="var(--brand-sapphire-10, #d5e8fd)" d="M92 91.66c0 21.263-13 34.695-38 38.5-25 3.804-38-17.237-38-38.5s15-40.5 38-36 38 14.737 38 36Z"/><path fill="var(--unique-white, #ffffff)" stroke="var(--unique-black, #111111)" d="M74.5 72.133c-6.8 5.6-15.333 6.834-18.5 6.5l23.5 5s-2.5-7.5-5-11.5Z"/><path stroke="var(--steel-90, #001729)" stroke-linecap="round" d="M15 161.755c57.31 13.743 73.378-22.105 173 1.542"/><circle cx="117.763" cy="58.585" r="49.983" fill="var(--unique-white, #ffffff)" transform="rotate(-10.957 117.763 58.585)"/><path fill="var(--brand-sapphire-10, #d5e8fd)" d="M89.735 33.556C85.269 48.057 74.57 51.492 68.436 52.68c.603-3.147.578-9.336 4.211-15.816 3.717-6.629 9.742-13.856 11.999-15.505 3.185-.769 8.661.595 5.089 12.197ZM122.681 55.815c.668-7.29 6.261-7.577 4.055-18.968-3.054-15.774 13.022-25.5 24.248-15.604 10.122 8.922 13.625 19.79 15.511 26.089 2.573 8.593-5.158 13.271-11.971 10.954-6.812-2.318-9.608 6.223-16.253 9.965-4.918 2.77-16.904 1.91-15.59-12.436Z"/><path stroke="var(--unique-black, #111111)" stroke-linecap="round" stroke-linejoin="round" stroke-miterlimit="10" d="m68.71 68.183 98.137-19.034M108.278 9.594l19.002 98.144M108.262 9.513s-15.17 11.306-16.538 35.476m27.423 58.314c-8.639-5.764-21.674-18.034-26.175-41.282-.29-1.503-.53-2.971-.723-4.406M127.264 107.657S149 88.447 142.044 52.52c-4.641-23.973-18.129-35.101-26.592-39.853M70.244 43.238l73.608-14.25M89.045 88.692l76.236-14.76"/><circle cx="117.763" cy="58.585" r="49.983" stroke="var(--unique-black, #111111)" stroke-linecap="round" stroke-linejoin="round" stroke-miterlimit="10" transform="rotate(-10.957 117.763 58.585)"/><circle cx="87" cy="137" r="6" fill="var(--brand-sapphire-60, #1952b6)"/><path stroke="var(--steel-90, #001729)" stroke-linecap="round" stroke-linejoin="round" stroke-miterlimit="10" d="M181.17 78.89 178 73.905l4.449.384-1.279 4.603ZM187.547 43l5.272 13.178-13.966-1.427L187.547 43Z"/><path fill="var(--unique-white, #ffffff)" d="M54.035 132.447C50.06 124.688 41.148 114.061 40 108.5c0-8 5.47-5.402 10.892-5.867 3.143 11 10.025 16.623 16.524 29.814 5.2 10.553 4.205 30.521 3.058 39.186l-15.583 3.5c1.147-9.829 3.12-34.926-.855-42.686Z"/><path fill="var(--unique-black, #111111)" d="M40 108.5h-.5c0 .034.004.068.01.101l.49-.101Zm14.892 66.633-.497-.058a.502.502 0 0 0 .606.546l-.11-.488Zm15.582-3.5.11.488.34-.077.046-.345-.496-.066Zm-3.058-39.186.448-.221-.448.221Zm-16.524-29.814.48-.137-.113-.396-.41.035.043.498Zm-11.382 5.968c.303 1.468 1.107 3.23 2.171 5.139 1.07 1.917 2.424 4.023 3.86 6.186 2.882 4.342 6.078 8.902 8.05 12.749l.89-.456c-2.005-3.912-5.253-8.545-8.108-12.846-1.433-2.16-2.77-4.238-3.819-6.12-1.053-1.89-1.794-3.542-2.064-4.854l-.98.202Zm14.08 24.074c.95 1.852 1.565 4.795 1.92 8.383.354 3.571.444 7.722.375 11.948-.14 8.452-.918 17.166-1.49 22.069l.993.116c.575-4.926 1.357-13.675 1.497-22.169.07-4.246-.02-8.439-.38-12.063-.357-3.608-.985-6.711-2.025-8.74l-.89.456Zm1.411 42.946 15.583-3.5-.22-.976-15.582 3.5.22.976Zm15.969-3.922c.577-4.357 1.114-11.543.855-18.968-.259-7.409-1.312-15.129-3.96-20.505l-.898.442c2.55 5.177 3.6 12.718 3.858 20.098.257 7.363-.276 14.493-.846 18.801l.99.132Zm-3.106-39.473c-3.267-6.631-6.634-11.366-9.551-15.783-2.92-4.42-5.39-8.523-6.94-13.947l-.962.274c1.593 5.576 4.135 9.784 7.067 14.224 2.935 4.443 6.257 9.114 9.49 15.674l.896-.442ZM50.85 102.135c-1.317.113-2.639.04-3.926-.014-1.266-.053-2.518-.089-3.608.129-1.113.223-2.1.717-2.79 1.744-.678 1.007-1.025 2.46-1.025 4.506h1c0-1.955.336-3.177.854-3.948.504-.749 1.224-1.135 2.156-1.321.955-.191 2.087-.164 3.371-.111 1.264.053 2.659.131 4.053.011l-.085-.996Z"/><path fill="var(--unique-white, #ffffff)" stroke="var(--unique-black, #111111)" stroke-linecap="round" stroke-linejoin="round" stroke-miterlimit="10" d="M50.831 66.84c-.146-4.615 5.417-5.254 7.744-2.943 2.328 2.311 2.85 4.297 2.85 4.297l-1.018.708s.21 3.286-2.762 3.829l-3.548 9.024-7.463 3.034L52.3 71.311c-.875-.906-1.436-2.385-1.468-4.471Z"/><path fill="var(--unique-black, #111111)" d="M58.827 63.1c.22 2.024-3.04 3.378-4.585 3.73-1.21.332-.851 1.806.052 2.036.87.168-.987 2.038-1.49 2.23-.203.108-.438.154-.673.201-.999-.893-1.525-2.357-1.475-4.527.198-4.314 5.602-5.388 8.171-3.67Z"/><path fill="var(--unique-white, #ffffff)" stroke="var(--unique-black, #111111)" stroke-linecap="round" stroke-linejoin="round" stroke-miterlimit="10" d="M55 174.633s-.625 10.789-1 13l22-.065s-1.5-6.435-5.875-7.024l.375-8.911-15.5 3Z"/><path stroke="var(--unique-black, #111111)" stroke-linecap="round" stroke-linejoin="round" stroke-miterlimit="10" d="m70 177.633-3 1M67 180.633l3-1"/><path fill="var(--unique-white, #ffffff)" stroke="var(--unique-black, #111111)" stroke-linecap="round" stroke-linejoin="round" stroke-miterlimit="10" d="M33.633 174.926S32.426 187.145 32 189.633l25-.073s-.71-7.756-6.676-7.902l-1.207-10.025-15.483 3.293Z"/><path stroke="var(--unique-black, #111111)" stroke-linecap="round" stroke-linejoin="round" stroke-miterlimit="10" d="m50 179.633-5 1M45 183.633l5-2"/><path fill="var(--brand-sapphire-60, #1952b6)" d="M38.361 144.087c0-10.864-9.94-24.047-4.97-39.954l11.109-1.5s-1 3.5-1 7 .978 8.226 5.566 22.814c4.587 14.588.434 32.186.434 43.186L33.5 178c0-6 4.861-25.223 4.861-33.913Z"/><path fill="var(--unique-black, #111111)" d="m33.392 104.133-.067-.495-.316.042-.095.304.478.149ZM33.5 178H33v.579l.573-.085L33.5 178Zm16-2.367.073.495.427-.063v-.432h-.5Zm-.434-43.186-.477.15.477-.15ZM44.5 102.633l.48.137.21-.735-.757.103.067.495Zm-11.586 1.351c-2.528 8.091-1.256 15.477.617 22.152.468 1.669.975 3.297 1.47 4.879.496 1.584.979 3.121 1.404 4.619.85 3 1.456 5.807 1.456 8.453h1c0-2.787-.636-5.701-1.494-8.726-.43-1.513-.917-3.064-1.411-4.645a169.518 169.518 0 0 1-1.462-4.85c-1.854-6.608-3.067-13.768-.625-21.584l-.955-.298Zm4.947 40.103c0 4.289-1.204 11.216-2.422 17.875-.607 3.317-1.216 6.561-1.673 9.349-.455 2.778-.766 5.143-.766 6.689h1c0-1.454.297-3.742.753-6.527.455-2.776 1.061-6.006 1.67-9.331 1.212-6.625 2.438-13.654 2.438-18.055h-1Zm-4.288 34.407 16-2.366-.146-.99-16 2.367.146.989ZM50 175.633c0-2.724.257-5.865.575-9.291.317-3.418.694-7.117.927-10.926.466-7.615.362-15.736-1.96-23.119l-.953.3c2.266 7.205 2.379 15.178 1.915 22.758-.232 3.789-.606 7.464-.925 10.895-.317 3.423-.579 6.607-.579 9.383h1Zm-.457-43.336C44.95 117.692 44 113.042 44 109.633h-1c0 3.591 1.007 8.394 5.589 22.964l.954-.3Zm-5.11-30.159-11.108 1.5.133.991 11.109-1.5-.134-.991Zm.067.495-.48-.137-.001.001v.002l-.003.009a32.076 32.076 0 0 0-.507 2.219c-.253 1.329-.509 3.113-.509 4.906h1c0-1.707.244-3.423.491-4.719a30.923 30.923 0 0 1 .45-1.995c.012-.05.023-.087.03-.112l.008-.028.001-.007v-.002l-.48-.137Z"/><path fill="var(--unique-white, #ffffff)" stroke="var(--unique-black, #111111)" stroke-linecap="round" stroke-linejoin="round" stroke-miterlimit="10" d="M123.65 67.442c-.584-.763-2.629 2.744-2.629 2.744s1.943-3.547 1.237-4.004c-.47-.304-1.867.977-2.641 1.734.743-.828 1.976-2.292 1.239-2.82-1.003-.75-4.559 2.987-4.796 2.243-.236-.744 2.209-3.324.656-3.583-2.177-.328-2.229 5.654-4.716 7.744-.367.328-1.102.743-1.5 1 1.702 2.563 2.856 4.468 4.557 7.031 1.52-.995 3.149-2.21 4.443-3.53.183-.165 1.419-1.297 1.5-1.5 4.229-4.536 3.204-6.368 2.65-7.06Z"/><path fill="var(--unique-black, #111111)" d="M53.027 77.78c-13.661-.727-14.222 1.02-16.604 10.116C34.041 96.919 33 105.633 33 105.633l18.608-.5s9.055-11.925 10.246-16.946c1.191-5.021 1.892-9.824-8.827-10.406Z"/><path fill="var(--unique-black, #111111)" d="M95 79.633c-11.5 3.5-28-.5-38.5-1.5l-11.5 21c5.667.5 22.765 3.282 43-2.5 10.5-3 27.5-16 31-19.5l-8-5.5s-7 4.5-16 8Z"/><path stroke="var(--unique-white, #ffffff)" stroke-linecap="round" d="m55.467 100.581-5.933-.895"/><path fill="var(--unique-black, #111111)" d="m105.148 131.315 54.841.414c-.847 6.408-.852 12.268-.103 17.624l-54.84-.414.102-17.624Z"/><path fill="var(--unique-white, #ffffff)" d="m102.757 148.435 59.269.484c-.866 5.067-.844 9.673-.157 13.823l-59.181-.53.069-13.777ZM164.663 179.653 96 179.081c.984-6.142.992-11.777.159-16.864l68.662.572-.158 16.864ZM169.517 131.86l-67.321-.591c1.04-5.383.969-10.301.099-14.806l67.321.591-.099 14.806Z"/><path stroke="var(--unique-black, #111111)" stroke-linecap="round" stroke-linejoin="round" stroke-miterlimit="10" d="m102.757 148.435 59.269.484c-.866 5.067-.844 9.673-.157 13.823l-59.181-.53.069-13.777ZM164.663 179.653 96 179.081c.984-6.142.992-11.777.159-16.864l68.662.572-.158 16.864ZM169.517 131.86l-67.321-.591c1.04-5.383.969-10.301.099-14.806l67.321.591-.099 14.806Z"/><path stroke="var(--unique-black, #111111)" stroke-linecap="round" stroke-linejoin="round" stroke-miterlimit="10" d="m157.825 121.666-27.899-.239-.039 4.5 27.9.239.038-4.5Z"/><path fill="var(--unique-white, #ffffff)" d="m117.848 134.466-6.8-.058-.093 10.799 6.8.059.093-10.8Z"/><path stroke="var(--unique-black, #111111)" stroke-linecap="round" stroke-linejoin="round" stroke-miterlimit="10" d="m114.389 151.756 37.263.4m-23.241 4.272 22.053.173m-45.27 2.623 11.229.15"/><path fill="var(--brand-sapphire-60, #1952b6)" d="m151.358 165.777-27.7-.237-.085 9.9 27.7.237.085-9.9Z"/><path stroke="var(--steel-90, #001729)" stroke-linecap="round" stroke-linejoin="round" d="m157.351 107.678 8.58-4.86M152 106.5l4.5-4.5M95.5 111.5H85M90.5 116.5l-6.5 2M63.553 25.86c-11.81 1.326-35.002 13.456-13.227 15.477"/><path stroke="var(--steel-90, #001729)" stroke-linecap="round" stroke-linejoin="round" d="M54.29 35.185c-2.27-1.163 4.25-3.991 7.41-4.135"/><path stroke="var(--steel-90, #001729)" stroke-linecap="round" stroke-linejoin="round" stroke-miterlimit="10" d="M19.5 104a7.5 7.5 0 1 0 0-15 7.5 7.5 0 0 0 0 15Z"/></svg>
