<svg xmlns="http://www.w3.org/2000/svg" width="200" height="200" fill="none"><path fill="var(--unique-white)" stroke="var(--unique-black)" stroke-linecap="round" stroke-linejoin="round" stroke-miterlimit="10" d="M172.917 88.995H56.546v82.283h116.371V88.995Z"/><path fill="var(--brand-sapphire-10)" fill-rule="evenodd" d="M119.026 61.869h18.356v96.57h-18.356v-96.57Zm-21.43 51.54h18.356v45.029H97.596v-45.029Zm61.306-32.46h-18.355v77.399h18.355v-77.4Zm3.074 43.129h18.356v34.36h-18.356v-34.36Z" clip-rule="evenodd"/><path stroke="var(--unique-black)" stroke-linecap="round" stroke-linejoin="round" stroke-miterlimit="10" d="M172.917 88.995H56.546v82.283h116.371V88.995Z"/><path stroke="var(--unique-black)" stroke-linecap="round" stroke-linejoin="round" stroke-miterlimit="10" d="M65.316 95.325a1.808 1.808 0 1 0 0-3.617 1.808 1.808 0 0 0 0 3.617ZM71.917 95.325a1.808 1.808 0 1 0 0-3.617 1.808 1.808 0 0 0 0 3.617ZM96.692 163.05h75.321"/><path stroke="var(--steel-90)" stroke-linecap="round" stroke-linejoin="round" stroke-miterlimit="10" d="M178.523 137.551h10.399M178.523 143.7h10.399M178.523 149.849h7.596"/><path stroke="var(--unique-black)" stroke-linecap="round" stroke-linejoin="round" stroke-miterlimit="10" d="M132.861 163.05c-3.165 0-4.611 1.446-4.611 1.446"/><path fill="var(--unique-white)" stroke="var(--unique-black)" stroke-linecap="round" stroke-linejoin="round" stroke-miterlimit="10" d="M79.27 63.687 28.535 45.532l-13.487 37.69 50.735 18.155 13.487-37.69Z"/><path fill="var(--brand-sapphire-10)" d="M45.24 86.417 22.006 78.17l18.29-14.073 4.944 22.32Z"/><path fill="var(--unique-white)" stroke="var(--unique-black)" stroke-linecap="round" stroke-linejoin="round" stroke-miterlimit="10" d="M50.151 88.176 34.366 82.59l12.428-9.583 3.357 15.17Z"/><circle cx="63.474" cy="69.233" r="4.146" fill="var(--unique-white)" stroke="var(--unique-black)" stroke-linecap="round" stroke-linejoin="round" stroke-miterlimit="10"/><path stroke="var(--steel-90)" stroke-linecap="round" stroke-linejoin="round" stroke-miterlimit="10" d="M75.393 37.102 67.101 20M71.247 40.211l-5.183-5.7"/><path fill="var(--unique-white)" d="M51.844 103.463c3.797-2.984 7.414-2.261 8.861-1.085 1.537 1.175.995 2.531.995 2.531"/><path stroke="var(--unique-black)" stroke-linecap="round" stroke-linejoin="round" stroke-miterlimit="10" d="M51.844 103.463c3.797-2.984 7.414-2.261 8.861-1.085 1.537 1.175.995 2.531.995 2.531"/><path fill="var(--unique-black)" d="M73.364 134.296c1.537-1.356 4.25-5.606 4.34-8.771.814-6.058-6.782-2.622-7.415 1.447-.361.362-.723.633-1.085 1.085-.723 1.628-1.447 2.622-1.989 4.431-.09.271-.09.904-.18 1.446.18.543.27 1.176.451 1.718.271.362.452.724.633 1.085 1.718 3.346 3.798 5.064 5.968 5.697.271-.181.542-.452.814-.723.542-.633 1.718-4.612.271-4.341-1.627.181-3.346-1.808-1.808-3.074Z"/><path stroke="var(--unique-black)" stroke-linecap="round" stroke-linejoin="round" stroke-miterlimit="10" d="M68.12 136.647c1.718 3.165 3.617 4.973 5.696 5.606L68.3 156.359l7.415 3.888 7.324-19.44c4.25-3.346 1.447-8.952 1.447-8.952l.995-1.899s-2.351-2.532-7.777-4.159c-5.244-1.809-13.382 3.888-9.584 10.85Z"/><path fill="var(--unique-black)" stroke="var(--unique-black)" stroke-linecap="round" stroke-linejoin="round" stroke-miterlimit="10" d="m71.013 149.306-2.803 7.053 7.415 3.888 2.984-7.957a94.651 94.651 0 0 0-7.596-2.984Z"/><path fill="var(--unique-black)" d="M99 185H57.123c-.123-.33-.123-.661-.123-.991V157.58c.741-1.487 1.853-2.313 3.335-2.478C70.712 153.946 90.105 162.535 99 185ZM76.71 133.844c-.814-.633-1.538-1.265-2.352-1.898-.361-.272-.813-.362-1.175 0-.271.271-.362.904 0 1.175.814.633 1.537 1.266 2.35 1.899.362.271.815.362 1.176 0 .272-.271.362-.814 0-1.176Z"/><path fill="var(--unique-black)" stroke="var(--unique-black)" stroke-linecap="round" stroke-linejoin="round" stroke-miterlimit="10" d="M49.222 167.571c2.441.09 4.882.181 7.324.452l.18 16.977H98.5l-7.052-13.722c-4.792-8.861-13.201-15.281-22.695-17.993-3.979-1.085-7.957-1.447-12.026-1.628-7.144-.362-14.287-.181-21.159-2.08-3.978-1.085-8.228-3.255-9.946-7.233-1.628-3.798.452-7.144 2.984-9.947 6.33-6.962 15.1-11.031 24.233-12.659-.995-5.244-2.17-10.579-2.803-15.914-21.792 3.436-54.976 26.765-35.807 50.907 8.409 10.67 22.243 12.388 34.993 12.84Z"/><path fill="var(--unique-white)" d="M49.855 103.915c5.334-1.176 12.206 0 12.658 1.989.453 1.989.181 2.622.181 2.622s.814 2.08.09 3.707c-.813 1.628 1.176 3.798-.813 4.974-1.266.813-9.313 2.712-9.313 2.712"/><path stroke="var(--unique-black)" stroke-linecap="round" stroke-linejoin="round" stroke-miterlimit="10" d="M49.855 103.915c5.334-1.176 12.206 0 12.658 1.989.453 1.989.181 2.622.181 2.622s.814 2.08.09 3.707c-.813 1.628 1.176 3.798-.813 4.974-1.266.813-9.313 2.712-9.313 2.712"/><path fill="var(--unique-black)" stroke="var(--unique-black)" stroke-linecap="round" stroke-linejoin="round" stroke-miterlimit="10" d="M102.03 56.263c0 5.877-4.702 10.58-10.58 10.58a10.535 10.535 0 0 1-10.579-10.58c0-7.505 4.702-10.58 10.58-10.58 5.786 0 10.579 4.703 10.579 10.58Z"/><path fill="var(--unique-white)" stroke="var(--unique-black)" stroke-linecap="round" stroke-linejoin="round" stroke-miterlimit="10" d="M102.03 56.263c0 5.877-4.702 10.58-10.58 10.58-1.085 0-2.08-.181-3.074-.453V45.955c.995-.18 1.99-.271 3.074-.271 5.787 0 10.58 4.702 10.58 10.58Z"/><path stroke="var(--unique-black)" stroke-linecap="round" stroke-linejoin="round" stroke-miterlimit="10" d="M179.249 25.7H88.376v75.592h90.873V25.701Z"/><path fill="var(--unique-black)" d="M156.643 52.465c.814-1.356.633-3.436-.543-4.52-1.537-1.357-3.617-1.357-5.154 0-3.888 3.435-2.079 10.217 2.984 11.211 1.809.362 3.979-.542 4.431-2.531.452-1.538-.181-3.436-1.718-4.16Z"/><path fill="var(--unique-white)" stroke="var(--unique-black)" stroke-linecap="round" stroke-linejoin="round" stroke-miterlimit="10" d="M179.248 66.752v34.541h-16.727c-10.037-28.121-4.522-28.121 13.111-34.541.994-.362 2.079.09 3.616 0Z"/><path fill="var(--unique-black)" d="M184.041 63.225c2.803-3.526 7.505-6.42 7.957-11.212v-.723c-.452-3.165-3.436-3.255-6.601-2.623-13.563 2.623-9.494.453-22.876-3.797l-8.771 4.25s12.297 13.834 20.616 17.722h.09c3.075 1.447 6.692.271 8.59-2.441.362-.362.633-.814.995-1.176Z"/><path fill="var(--unique-black)" d="M163.606 50.024c-2.261.904-10.851 4.069-12.117 4.16-1.175-4.883 1.989-8.59 6.33-9.857 4.702-1.446 9.403.814 10.941 5.426-1.357.452-3.075.542-5.154.27Z"/><path fill="var(--unique-white)" stroke="var(--unique-black)" stroke-linecap="round" stroke-linejoin="round" stroke-miterlimit="10" d="m175.18 67.114-6.42-10.128c.09-.361.994-1.175 1.085-1.537 5.244-1.266 2.532-7.233-.995-6.148-.09 0-.181.09-.181.09-1.718-4.16-6.42-6.42-10.85-5.064-4.702 1.447-8.138 5.607-5.968 11.122 1.356 3.527 5.064 8.048 9.404 8.229l4.34 6.781c5.606 9.675 10.217-.723 9.585-3.346Z"/><path fill="var(--unique-black)" d="M161.797 49.03c-1.718 1.084-7.595 4.882-11.031 3.978-5.154-4.43-.271-9.042 6.962-8.59 2.17.09 3.075-.633 4.883-.09 2.261.723 5.244 2.983 6.058 5.515-2.712 2.08-4.702-.633-6.872-.814Z"/><path stroke="var(--unique-black)" stroke-linecap="round" stroke-linejoin="round" stroke-miterlimit="10" d="M161.255 63.768c1.899.18 2.984-.633 3.707-1.266M159.175 56.172s-.09 2.984.814 4.793l1.989-.995"/><path fill="var(--unique-white)" d="M164.329 86.283c-.181 4.34 0 12.206 3.436 15.009Z"/><path stroke="var(--unique-black)" stroke-linecap="round" stroke-linejoin="round" stroke-miterlimit="10" d="M164.329 86.283c-.181 4.34 0 12.206 3.436 15.009M162.52 72.087v29.206M169.935 74.709v26.583M176.536 65.576v35.716M179.249 82.756h-21.158M179.249 76.065h-20.616M179.249 89.447h-20.526M179.249 96.139h-18.536M179.249 69.464h-3.979"/><path fill="var(--brand-sapphire-60)" d="m143.622 39.806 12.116-4.883-13.654 19.26 13.744 17.632-15.281.452-4.43 23.962-11.484-20.526-26.222 1.357 15.01-16.457-8.228-11.574 9.223.633 2.984-12.026 5.967 5.968"/><path stroke="var(--unique-black)" stroke-linecap="round" stroke-linejoin="round" stroke-miterlimit="10" d="m143.622 39.806 12.116-4.883-13.654 19.26 13.744 17.632-15.281.452-4.43 23.962-11.484-20.526-26.222 1.357 15.01-16.457-8.228-11.574 9.223.633 2.984-12.026 5.967 5.968"/><path stroke="var(--steel-90)" stroke-linecap="round" stroke-linejoin="round" stroke-miterlimit="10" d="M112.336 37.636v4.16M99.405 36.099l3.798 3.617M113.421 79.953l-2.893 3.436M148.686 74.528l2.531 2.26M163.243 37.636l4.521-3.798"/><path fill="var(--unique-white)" stroke="var(--unique-black)" stroke-linecap="round" stroke-linejoin="round" stroke-miterlimit="10" d="M161.344 25.7c-3.617 1.357-6.782 3.256-9.585 5.516-6.6 5.245-11.031 12.478-13.292 18.446a149.872 149.872 0 0 0-5.877-1.99c-.995-.27-1.899-.632-2.893-.903a632.007 632.007 0 0 0-6.601-1.9c-.091 0-.091 0-.181-.09 1.628-4.611 3.888-9.042 6.782-12.93.18-.18.271-.452.452-.633 1.446-1.899 2.984-3.797 4.611-5.515h26.584v0Z"/><path stroke="var(--unique-black)" stroke-linecap="round" stroke-linejoin="round" stroke-miterlimit="10" d="M129.607 46.769v-14.92M136.389 25.7V48.94M143.17 25.7V40.44M149.951 25.7v6.963M156.732 27.87V25.7M151.669 31.216h-21.61M145.069 37.907h-19.17M140.548 44.599h-17.451"/><path fill="var(--unique-white)" d="m120.998 50.576 2.073-5.7L138.1 49.54l-4.146 9.846-3.628-1.554-2.073 2.073-5.182.518-2.073-9.847Z"/><path fill="var(--unique-white)" d="M138.378 49.662c.09 4.34 1.175 12.478-1.99 13.834-3.164 1.357.995-4.52-5.425-5.244"/><path stroke="var(--unique-black)" stroke-linecap="round" stroke-linejoin="round" stroke-miterlimit="10" d="M138.378 49.662c.09 4.34 1.175 12.478-1.99 13.834-3.164 1.357.995-4.52-5.425-5.244"/><path fill="var(--unique-white)" d="M122.915 44.78c-2.17 7.595-5.063 11.483-3.797 13.472 1.265 1.99 3.345 0 3.345 0"/><path stroke="var(--unique-black)" stroke-linecap="round" stroke-linejoin="round" stroke-miterlimit="10" d="M122.915 44.78c-2.17 7.595-5.063 11.483-3.797 13.472 1.265 1.99 3.345 0 3.345 0"/><path fill="var(--unique-white)" d="M122.915 53.46c-4.069 6.51.362 7.866.814 8.409Z"/><path stroke="var(--unique-black)" stroke-linecap="round" stroke-linejoin="round" stroke-miterlimit="10" d="M122.915 53.46c-4.069 6.51.362 7.866.814 8.409"/><path fill="var(--unique-white)" d="M130.962 58.252c-3.436-.452-4.43 8.5-7.052 8.5-2.713 0-1.99-2.17 1.808-12.298"/><path stroke="var(--unique-black)" stroke-linecap="round" stroke-linejoin="round" stroke-miterlimit="10" d="M130.962 58.252c-3.436-.452-4.43 8.5-7.052 8.5-2.713 0-1.99-2.17 1.808-12.298"/><path fill="var(--unique-black)" d="M137 171h-21l-3.5 14.5h21L137 171Z"/><path stroke="var(--unique-black)" stroke-linecap="round" stroke-linejoin="round" stroke-miterlimit="10" d="M119.75 171.278c1.628-4.159 3.888-8.228 9.947-8.228h11.754s1.357 2.713-2.622 2.893c-3.978.181-4.883 3.708-4.973 5.335"/><path stroke="var(--unique-black)" stroke-linecap="round" stroke-linejoin="round" stroke-miterlimit="10" d="M141.09 165.31c3.255-.271 4.792-.18 5.154-1.718"/><circle cx="31.5" cy="24.5" r="10.5" stroke="var(--steel-90)" stroke-linecap="round" stroke-linejoin="round" stroke-miterlimit="10"/><path stroke="var(--steel-90)" stroke-linecap="round" stroke-linejoin="round" stroke-miterlimit="10" d="M42.5 40a7.5 7.5 0 1 0-5.59-2.5"/><circle cx="62" cy="48" r="4" stroke="var(--steel-90)" stroke-linecap="round" stroke-linejoin="round" stroke-miterlimit="10"/></svg>
