<svg xmlns="http://www.w3.org/2000/svg" width="200" height="200" fill="none"><path fill="var(--brand-sapphire-60)" d="m48.06 53.39 1.75-8.9-8.9-1.75-1.74 8.9 8.89 1.75Z"/><path fill="var(--unique-black)" d="m83.71 28-2.16-3.42-3.42 2.16 2.16 3.42L83.71 28Z"/><path stroke="var(--steel-90)" stroke-linecap="round" stroke-linejoin="round" d="m87.38 179.29-2.76-1.17M29.11 165.53l-2.95.52M153.29 149.29h5.91l-2.71 3.55-3.2-3.55Z"/><path fill="var(--unique-black)" stroke="var(--unique-black)" stroke-linecap="round" stroke-linejoin="round" d="m146 133.86 31.38-24.67 5.28 6.71-31.37 24.68-5.29-6.72Z"/><path fill="var(--brand-sapphire-10)" d="M117.79 59.07H16.15v98.51h101.64V59.07Z"/><path fill="var(--unique-white)" stroke="var(--unique-black)" stroke-miterlimit="10" d="M142.51 103.39c22.831 0 41.34-18.509 41.34-41.34 0-22.831-18.509-41.34-41.34-41.34-22.832 0-41.34 18.508-41.34 41.34 0 22.831 18.508 41.34 41.34 41.34Z"/><path stroke="var(--steel-90)" stroke-linecap="round" stroke-linejoin="round" d="m62.41 67.27 5.1-11.92 11.92 5.11-5.11 11.91-11.91-5.1ZM132.631 167.24a7.5 7.5 0 1 0 0-15 7.5 7.5 0 0 0 0 15Z"/><path fill="var(--unique-white)" stroke="var(--unique-black)" stroke-linecap="round" stroke-linejoin="round" d="M26.14 117.35c1.43 2.64 3 4.14 4.74 4.67l-4.59 11.73 6.17 3.25 6.09-16.18c3.54-2.78 1.21-7.45 1.21-7.45l.83-1.58a15.309 15.309 0 0 0-6.47-3.46c-4.37-1.51-11.12 3.23-7.98 9.02Z"/><path fill="var(--unique-black)" d="M30.501 115.4c1.28-1.13 3.54-4.67 3.62-7.3.67-5-5.65-2.18-6.17 1.2-.32.282-.624.583-.91.9a28.108 28.108 0 0 0-1.65 3.69c-.08.23-.08.75-.15 1.2.15.46.22 1 .37 1.43.204.287.382.591.53.91 1.43 2.78 3.16 4.21 5 4.74.24-.18.465-.381.67-.6.45-.53 1.43-3.84.23-3.62-1.2.22-2.81-1.5-1.54-2.55Z"/><path fill="var(--unique-black)" d="M33.29 115c-.68-.53-1.28-1-2-1.58a.706.706 0 0 0-.77-.155.71.71 0 0 0-.229 1.155c.68.52 1.28 1 2 1.58a.705.705 0 0 0 1 0 .707.707 0 0 0 0-1Z"/><path fill="var(--unique-black)" stroke="var(--unique-black)" stroke-linecap="round" stroke-linejoin="round" d="M16.66 157.58h34.76l-7.55-16.77c-3.28-6.54-8.34-8.24-16.24-10.49-5-1.67-11-.48-11-.48l.03 27.74Z"/><path fill="var(--unique-white)" d="M84.911 138.94c3.37-5 4.47-9 6-9.55 1.53-.55-.57 3.37.68 4.66s3.67-5.82 5.89-5.38c2.22.44-1.54 6-1.54 6s3-5.29 4.39-4.36c1.39.93-2.08 5.95-2.08 5.95s3.55-4.89 4.22-4.22c.67.67 1 3.73-6 14.75"/><path stroke="var(--unique-black)" stroke-linecap="round" stroke-linejoin="round" d="M84.911 138.94c3.37-5 4.47-9 6-9.55 1.53-.55-.57 3.37.68 4.66s3.67-5.82 5.89-5.38c2.22.44-1.54 6-1.54 6s3-5.29 4.39-4.36c1.39.93-2.08 5.95-2.08 5.95s3.55-4.89 4.22-4.22c.67.67 1 3.73-6 14.75"/><path fill="var(--unique-black)" stroke="var(--unique-black)" stroke-linecap="round" stroke-linejoin="round" d="M61.9 165.79a40.024 40.024 0 0 1-8.21-.87c-19.85-4.18-24.21-23.87-24.39-24.7 0 0 13.78-1.19 14.57.59a18.052 18.052 0 0 0 12.71 10.41c17 3.59 27.81-11.56 28.26-12.21L96.38 147c-.59.8-13.18 18.79-34.48 18.79Z"/><path stroke="var(--steel-90)" stroke-linecap="round" stroke-linejoin="round" d="M59.12 116.55 61 117.8M65 104.72l-1 2.36M74.9 118.84l1.67-2.08"/><path fill="var(--brand-sapphire-60)" stroke="var(--unique-black)" stroke-miterlimit="10" d="M135 64.51s7.07-3.16 15.28 3.53c5.22 4.25 11.18 13.17 17.06 27.07 0 0-9.37 11.85-31.54 7.73-10.55-2-15.89-6.18-15.89-6.18s1.25-14.31 1.63-17.87a6.778 6.778 0 0 1 1.76-3.55L135 64.51Z"/><path fill="var(--unique-white)" stroke="var(--unique-black)" stroke-linecap="round" stroke-linejoin="round" d="m130.56 67.58-5.8-4.46a6.334 6.334 0 0 0-.84-4.66c-2.25-4.14-7.63-2.05-8.61 1.08a11.339 11.339 0 0 0-.51 5.15l1.3.12s1.41 3 4.45 2.07l6.07 4.63a1.29 1.29 0 0 0-.35.38c-1 1-2 2.2-3 3.35.545.06 1.095.06 1.64 0a10.24 10.24 0 0 0 8.7-5c1.23-2 1.12-3.53 1.36-5.73a23.313 23.313 0 0 0-4.41 3.07Z"/><path fill="var(--unique-black)" d="M134.22 41.43c-1.82 4.46-5.07 2.32-6.62 7.1-1.19 3.59-8.25 4-8.5 6a.988.988 0 0 1-.366.726.996.996 0 0 1-.784.214h-.15c-2.39-.29-4.42-.13-3.8 2.53.69 2 5.45 2.53 7 2.16 1.14-.28 1.54 1.2.81 1.89-.14.17-.13.32.07.53 2.24 4.8 8.31 4.26 14.65 1.18s1.95-7.9-.07-10.86c-2.02-2.96 3.55-6.89 3.82-11.74.27-4.85-4.28-4.16-6.06.27Z"/><path fill="var(--unique-white)" stroke="var(--unique-black)" stroke-miterlimit="10" d="M118.88 110.5c7.13-7 9.12-17.16 4.2-24.43-5.66-8.38-18.33-9.72-28.3-3-9.97 6.72-13.46 19-7.8 27.36 5.26 7.79 16.57 9.5 26.14 4.3l9.11 14.8-10.62 4.84 3.76 5.67 7.7-4.77.88 1.11-7.33 5 2.46 3.36 8.29-6.87 1.54 2.51 6.08-3.73-16.11-26.15Zm-7.72-3.16c-6.46 4.37-14.45 3.84-17.84-1.17-3.39-5.01-.89-12.63 5.57-17 6.46-4.37 14.46-3.84 17.84 1.18 3.38 5.02.9 12.65-5.57 16.99Z"/><path fill="var(--brand-sapphire-60)" stroke="var(--unique-black)" stroke-miterlimit="10" d="M129.45 125.57c10.86-5.57 21.41-13.29 26.11-24.92 4.2-10.31 3.36-23.15-4.25-31.64-2.54-2.79-6.56-3.66-9.71-1.28-2.75 2.17-3.82 6.92-1.28 9.71 4.73 5.3 4.85 12.59 2 18.92-3.39 7.58-10.91 12.79-18.1 16.47-3.34 1.74-5.34 5.22-3.83 9 1.34 3.17 5.73 5.48 9.06 3.74Z"/><path fill="var(--unique-white)" d="M129.86 125.24c-8.16 4-13.4 5.52-14.25 4-.85-1.52 5.39-3.24 5.39-3.24s-6.4 2.57-7.17.82c-.77-1.75 5.25-3.55 5.25-3.55s-6.62 2.86-7.27.56c-.65-2.3 7.14-3.19 7-5.25-.14-2.06-4.14 1-4.44-1.1-.2-1.76 4.88-2.22 9.9-4.67"/><path stroke="var(--unique-black)" stroke-linecap="round" stroke-linejoin="round" d="M129.86 125.24c-8.16 4-13.4 5.52-14.25 4-.85-1.52 5.39-3.24 5.39-3.24s-6.4 2.57-7.17.82c-.77-1.75 5.25-3.55 5.25-3.55s-6.62 2.86-7.27.56c-.65-2.3 7.14-3.19 7-5.25-.14-2.06-4.14 1-4.44-1.1-.2-1.76 4.88-2.22 9.9-4.67M130.7 124.88l-6.46-12"/><path stroke="var(--steel-90)" stroke-linecap="round" stroke-linejoin="round" d="m42.2 81.68-14.57 3.58M103.86 177.8l-13.26-6.7"/></svg>
