<svg xmlns="http://www.w3.org/2000/svg" width="200" height="200" fill="none"><g clip-path="url(#a)"><path fill="var(--brand-sapphire-10)" d="M173.393 119.266c0 40.045-32.613 72.427-72.794 72.427-40.18 0-72.794-32.382-72.794-72.427 0-40.044 32.613-72.426 72.794-72.426s72.794 24.92 72.794 72.426Z"/><path stroke="var(--unique-black)" stroke-linecap="round" stroke-linejoin="round" stroke-miterlimit="10" d="M88.266 14.992v154.115M92.365 32.55h-3.9"/><path fill="var(--unique-white)" stroke="var(--unique-black)" stroke-linecap="round" stroke-linejoin="round" stroke-miterlimit="10" d="M108.899 32.55H92.367v19.228H108.9V32.55Z"/><path stroke="var(--unique-black)" stroke-linecap="round" stroke-linejoin="round" stroke-miterlimit="10" d="M96.207 36.662h6.869M96.207 39.442h4.715"/><mask id="b1" fill="#fff"><path d="M98.477 44.076h-2.27v4.633h2.27v-4.633Z"/></mask><path fill="var(--unique-black)" stroke="var(--unique-black)" stroke-width="2" d="M98.477 44.076h-2.27v4.633h2.27v-4.633Z" mask="url(#b1)"/><mask id="c1" fill="#fff"><path d="M101.798 42.976h-2.27v5.675h2.27v-5.675Z"/></mask><path fill="var(--unique-black)" stroke="var(--unique-black)" stroke-width="2" d="M101.798 42.976h-2.27v5.675h2.27v-5.675Z" mask="url(#c1)"/><mask id="d1" fill="#fff"><path d="M105.113 44.48h-2.27v4.228h2.27v-4.227Z"/></mask><path fill="var(--unique-black)" stroke="var(--unique-black)" stroke-width="2" d="M105.113 44.48h-2.27v4.228h2.27v-4.227Z" mask="url(#d1)"/><path fill="var(--brand-sapphire-60)" d="M89.402 14.78c2.143 5.53-1.004 11.86-1.004 11.86s-6.496-2.665-8.639-8.262c-2.143-5.53 1.004-11.86 1.004-11.86s6.496 2.731 8.64 8.262Z"/><path stroke="var(--unique-white)" stroke-linecap="round" stroke-linejoin="round" stroke-miterlimit="10" d="m88.4 26.64-3.818-10.062"/><path fill="var(--unique-white)" stroke="var(--unique-black)" stroke-linecap="round" stroke-linejoin="round" stroke-miterlimit="10" d="M109.024 66.384c-7.902 7.196-20.492 6.196-20.492 6.196s.134-12.593 8.036-19.722c7.903-7.13 20.493-6.197 20.493-6.197s-.134 12.593-8.037 19.723Z"/><path stroke="var(--unique-black)" stroke-linecap="round" stroke-linejoin="round" stroke-miterlimit="10" d="m88.599 72.647 17.143-16.457"/><path fill="var(--unique-white)" stroke="var(--unique-black)" stroke-linecap="round" stroke-linejoin="round" stroke-miterlimit="10" d="M59.31 126.822c-8.506 10.127-24.109 11.06-24.109 11.06s-1.875-15.458 6.563-25.586c8.438-10.127 24.108-11.06 24.108-11.06s1.942 15.458-6.563 25.586ZM68.686 74.45H39.555V95.84h29.13V74.451Z"/><path stroke="var(--unique-black)" stroke-linecap="round" stroke-linejoin="round" stroke-miterlimit="10" d="M39.554 74.45h-4.487M45.384 91.108l3.75-5.597 3.951 1.133 8.103-7.996"/><path stroke="var(--unique-black)" stroke-linecap="round" stroke-linejoin="round" stroke-miterlimit="10" d="m59.113 78.648 2.612-.6v2.332M49.803 78.049h-4.42v2.332h4.42v-2.332ZM35.067 48.598v121.799"/><path fill="var(--brand-sapphire-60)" d="M44.443 43.134c-2.344 5.597-9.108 8.13-9.108 8.13s-2.946-6.597-.602-12.194c2.344-5.597 9.107-8.129 9.107-8.129s2.947 6.596.603 12.193Z"/><path fill="var(--unique-white)" stroke="var(--unique-black)" stroke-linecap="round" stroke-linejoin="round" stroke-miterlimit="10" d="M28.235 48.53c-2.21-3.064-1.34-7.462-1.34-7.462s4.42.6 6.63 3.665 1.34 7.462 1.34 7.462-4.42-.6-6.63-3.664Z"/><path stroke="var(--unique-black)" stroke-linecap="round" stroke-linejoin="round" stroke-miterlimit="10" d="m35.2 137.815 14.598-18.79"/><path fill="var(--brand-sapphire-60)" d="M28.727 83.564c7.51 8.386 6.258 21.669 6.258 21.669s-13.35-.415-20.777-8.8c-7.51-8.385-6.259-21.669-6.259-21.669s13.268.332 20.778 8.8Z"/><path stroke="var(--unique-white)" stroke-linecap="round" stroke-linejoin="round" stroke-miterlimit="10" d="m23.137 89.957 11.849 15.193"/><path stroke="var(--unique-black)" stroke-linecap="round" stroke-linejoin="round" stroke-miterlimit="10" d="m30.848 46.665 4.018 5.53"/><path stroke="var(--unique-white)" stroke-linecap="round" stroke-linejoin="round" stroke-miterlimit="10" d="m40.76 39.07-5.49 12.193"/><path stroke="var(--steel-90)" stroke-linecap="round" stroke-linejoin="round" stroke-miterlimit="10" d="m76.059 29.463 1.875-2.198M179.521 42.3l3.616-1.066M94.913 11.464l.737 2.332M129.336 72.83l.669 2.265M138.644 67.232l-1.206 3.132M138.04 53.374l-2.411.933M148.957 112.208l2.277 2.132M151.232 121.069l-1.138 2.132M161.012 99.481l-1.473 1.933"/><path stroke="var(--unique-black)" stroke-linecap="round" stroke-linejoin="round" stroke-miterlimit="10" d="m57.279 105.945-1.072 2.732M62.367 105.945l2.21-.933"/><path stroke="var(--steel-90)" stroke-linecap="round" stroke-linejoin="round" stroke-miterlimit="10" d="M55.805 54.24 53.93 56.64M65.316 56.572l2.545-.733M66.922 171.242l1.138 3.198M63.438 172.841l1.138 1.599M96.654 169.91l-1.74 4.531"/><path fill="var(--unique-white)" stroke="var(--unique-black)" stroke-linecap="round" stroke-linejoin="round" stroke-miterlimit="10" d="m71.476 174.44 13.862-.466s-.401-6.596-.334-9.795c.067-3.198-9.644-1.332-9.644-1.332l-.134 6.863c-.067 0-3.884 1.399-3.75 4.73Z"/><path stroke="var(--unique-black)" stroke-linecap="round" stroke-linejoin="round" stroke-miterlimit="10" d="M75.294 169.176h2.813"/><path fill="var(--unique-white)" stroke="var(--unique-black)" stroke-linecap="round" stroke-linejoin="round" stroke-miterlimit="10" d="m144.473 173.241 7.902-11.328s-5.491-3.598-8.103-5.596c-2.545-1.933-6.831 6.929-6.831 6.929l5.425 4.198s-1.139 3.864 1.607 5.797Z"/><path stroke="var(--unique-black)" stroke-linecap="round" stroke-linejoin="round" stroke-miterlimit="10" d="m142.527 167.045 1.675-2.266"/><mask id="e1" fill="#fff"><path d="M107.908 102.214c-2.01-1.999-6.095-2.332-8.037 0-14.733 17.457-23.706 40.645-25.18 63.365 3.483.933 11.251 1.866 11.251 1.666 1.005-20.189 8.84-41.577 21.966-57.035 2.009-2.332 2.343-5.664 0-7.996Z"/></mask><path fill="var(--brand-sapphire-60)" stroke="var(--unique-black)" stroke-width="2" d="M107.908 102.214c-2.01-1.999-6.095-2.332-8.037 0-14.733 17.457-23.706 40.645-25.18 63.365 3.483.933 11.251 1.866 11.251 1.666 1.005-20.189 8.84-41.577 21.966-57.035 2.009-2.332 2.343-5.664 0-7.996Z" mask="url(#e1)"/><mask id="f1" fill="#fff"><path d="M138.377 165.645c2.612-2.732 5.29-5.93 7.835-8.728-17.278-15.992-27.256-36.247-27.925-59.767-.201-7.263-11.586-7.33-11.385 0 .804 26.452 11.92 50.505 31.475 68.495Z"/></mask><path fill="var(--brand-sapphire-60)" stroke="var(--unique-black)" stroke-width="2" d="M138.377 165.645c2.612-2.732 5.29-5.93 7.835-8.728-17.278-15.992-27.256-36.247-27.925-59.767-.201-7.263-11.586-7.33-11.385 0 .804 26.452 11.92 50.505 31.475 68.495Z" mask="url(#f1)"/><path stroke="var(--unique-white)" stroke-linecap="round" stroke-linejoin="round" stroke-miterlimit="10" d="m108.107 109.477-2.478-.799"/><path fill="var(--unique-white)" d="M131.811 112.076c-2.411.267-4.889.6-7.299.933 0 .067 0 .133-.067.2-.134 1.066.134 2.065.602 2.998.268.467.67.667 1.072.667 1.607-.6 3.281-.8 4.955-.8.603-1.266.804-2.599.737-3.998Z"/><path fill="var(--unique-black)" stroke="var(--unique-black)" stroke-linecap="round" stroke-linejoin="round" stroke-miterlimit="10" d="M96.722 90.288c-1.072 4.13-3.951 7.529-7.97 9.128-4.62 1.866-9.576-.067-14.264 1.066l2.612 7.996c3.348.133 5.96.333 8.907.066a21.468 21.468 0 0 0 8.572-2.665c5.09-2.865 7.902-8.062 9.375-13.66 1.34-5.263-5.893-7.195-7.232-1.931Z"/><path fill="var(--unique-white)" stroke="var(--unique-black)" stroke-linecap="round" stroke-linejoin="round" stroke-miterlimit="10" d="m118.419 99.682-18.483 2.532c-5.96-14.192-2.679-15.525 1.273-16.924.669-.267 1.339-.467 2.009-.8.736-.333 1.406-.6 2.009-.8 5.893-1.731 8.036 3.266 8.906 5.93.871 2.933 4.286 10.062 4.286 10.062Z"/><path fill="var(--unique-black)" stroke="var(--unique-black)" stroke-linecap="round" stroke-linejoin="round" stroke-miterlimit="10" d="M133.019 112.808c-2.143-12.526-10.112-23.387-21.765-28.717-5.089-2.332-8.103 5.197-3.013 7.529 8.974 4.064 14.666 12.46 16.206 22.254 2.88-.266 5.692-.733 8.572-1.066Z"/><path fill="var(--unique-white)" d="M74.422 100.481c-1.876.2-5.693 1.799-6.295 3.399-.67 1.599 1.071.333 2.009 0 0 0-2.746 1.066-2.143 2.198.602 1.133 1.942-.466 2.745-.533 0 0-2.344 1.133-1.674 1.999.67.866 2.344-1.266 3.349-.533 1.004.733-1.206 2.066-.47 2.465.737.4 1.608-.799 5.224-.932"/><path stroke="var(--unique-black)" stroke-linecap="round" stroke-linejoin="round" stroke-miterlimit="10" d="M74.422 100.481c-1.876.2-5.693 1.799-6.295 3.399-.67 1.599 1.071.333 2.009 0 0 0-2.746 1.066-2.143 2.198.602 1.133 1.942-.466 2.745-.533 0 0-2.344 1.133-1.674 1.999.67.866 2.344-1.266 3.349-.533 1.004.733-1.206 2.066-.47 2.465.737.4 1.608-.799 5.224-.932"/><path fill="var(--unique-white)" d="M124.446 113.941c-.335 2.731.536 4.53 2.143 5.063Z"/><path stroke="var(--unique-black)" stroke-linecap="round" stroke-linejoin="round" stroke-miterlimit="10" d="M124.446 113.941c-.335 2.731.536 4.53 2.143 5.063"/><path fill="var(--unique-white)" d="M125.449 115.94c.603 1.399 2.277 5.064 3.683 5.13 1.407.067-.401-3.131-.401-3.131s1.406 3.131 2.879 2.998c.737-.066-.803-3.465-.803-3.465s1.205 3.132 2.143 2.999c1.004-.133-.402-2.999-.134-3.998.201-.666.602-1.932.268-3.598"/><path stroke="var(--unique-black)" stroke-linecap="round" stroke-linejoin="round" stroke-miterlimit="10" d="M125.449 115.94c.603 1.399 2.277 5.064 3.683 5.13 1.407.067-.401-3.131-.401-3.131s1.406 3.131 2.879 2.998c.737-.066-.803-3.465-.803-3.465s1.205 3.132 2.143 2.999c1.004-.133-.402-2.999-.134-3.998.201-.666.602-1.932.268-3.598"/><path fill="var(--unique-white)" stroke="var(--unique-black)" stroke-linecap="round" stroke-linejoin="round" stroke-miterlimit="10" d="m104.757 83.824-1.808-2.265-1.808-2.266c.402-.733.469-1.732.134-3.131-.804-2.932-4.621-2.399-5.693-.533-1.071 1.865-1.071 3.264-1.071 3.264l.804.267s.468 2.132 2.544 1.932l2.143 2.665 1.139 1.466c-.067 0-.067 0-.134.067l.402 4.93 3.415-6.13.201-.4-.268.134Z"/><mask id="g" fill="#fff"><path d="M98.865 73.897c-1.205.066-2.344.532-3.214 1.665.87.866 2.745 1.333 3.549 1.333.737 0 .804 1 .268 1.332-.469.267.937 1.133 1.272 1.133h.402c.469-.733.536-1.799.201-3.198a17.432 17.432 0 0 1-.201-.866c-.737-.533-1.54-1-2.277-1.4Z"/></mask><path fill="var(--unique-black)" stroke="var(--unique-black)" stroke-width="2" d="M98.865 73.897c-1.205.066-2.344.532-3.214 1.665.87.866 2.745 1.333 3.549 1.333.737 0 .804 1 .268 1.332-.469.267.937 1.133 1.272 1.133h.402c.469-.733.536-1.799.201-3.198a17.432 17.432 0 0 1-.201-.866c-.737-.533-1.54-1-2.277-1.4Z" mask="url(#g)"/><path fill="var(--unique-white)" stroke="var(--unique-black)" stroke-linecap="round" stroke-linejoin="round" stroke-miterlimit="10" d="M107.803 162.218c-10.648-10.261-10.313-27.785-10.313-27.785s17.545-.799 28.193 9.528c10.648 10.328 10.313 27.785 10.313 27.785s-17.546.733-28.193-9.528Z"/><path stroke="var(--unique-black)" stroke-linecap="round" stroke-linejoin="round" stroke-miterlimit="10" d="M129.164 128.437h6.831"/><path fill="var(--unique-white)" stroke="var(--unique-black)" stroke-linecap="round" stroke-linejoin="round" stroke-miterlimit="10" d="M108.641 153.849H129.2v-25.386h-20.559v25.386Z"/><path stroke="var(--unique-black)" stroke-linecap="round" stroke-linejoin="round" stroke-miterlimit="10" d="M125.951 140.563c0 3.864-3.147 7.063-7.098 7.063-3.885 0-7.099-3.132-7.099-7.063 0-3.931 3.147-7.063 7.099-7.063 3.951 0 7.098 2.599 7.098 7.063Z"/><path stroke="var(--unique-black)" stroke-linecap="round" stroke-linejoin="round" stroke-miterlimit="10" d="m123.941 135.367-5.023 5.197h7.032M112.891 136.899l6.027 3.665M122.469 148.893h3.013M122.469 150.158h3.013M135.995 176.61V89.792"/><path fill="var(--unique-white)" stroke="var(--unique-black)" stroke-linecap="round" stroke-linejoin="round" stroke-miterlimit="10" d="M162.169 148.439c-10.2 9.139-26.4 7.882-26.4 7.882s.172-15.931 10.372-25.07c10.2-9.139 26.4-7.881 26.4-7.881s-.257 15.93-10.372 25.069Z"/><path stroke="var(--unique-black)" stroke-linecap="round" stroke-linejoin="round" stroke-miterlimit="10" d="m135.995 156.421 18.483-16.857M122.468 157.421l13.527 14.325"/><path fill="var(--brand-sapphire-60)" d="M148.27 104.853c-4.885 3.944-12.239 2.937-12.239 2.937s.529-7.377 5.413-11.322c4.885-3.945 12.239-2.937 12.239-2.937s-.59 7.351-5.413 11.322Z"/><path stroke="var(--unique-white)" stroke-linecap="round" stroke-linejoin="round" stroke-miterlimit="10" d="m144.461 99.624-8.431 8.165"/><path stroke="var(--steel-90)" stroke-linecap="round" stroke-linejoin="round" stroke-miterlimit="10" d="M133.853 128.437v2.398"/><path stroke="var(--unique-black)" stroke-linecap="round" stroke-linejoin="round" d="M161.632 117.338V52.265"/><path fill="var(--unique-white)" stroke="var(--unique-black)" stroke-linecap="round" stroke-linejoin="round" stroke-miterlimit="10" d="M182.06 90.214c-8.115 6.553-20.333 4.879-20.333 4.879s.879-12.256 8.994-18.809c8.114-6.553 20.332-4.88 20.332-4.88s-.981 12.213-8.993 18.81Z"/><path stroke="var(--unique-black)" stroke-linecap="round" stroke-linejoin="round" stroke-miterlimit="10" d="m175.732 81.528-14.007 13.565"/><path fill="var(--unique-white)" stroke="var(--unique-black)" stroke-linecap="round" stroke-linejoin="round" stroke-miterlimit="10" d="M171.935 50.82c-2.947 5.53-10.113 7.463-10.113 7.463s-2.41-6.996.536-12.526c2.947-5.53 10.112-7.463 10.112-7.463s2.344 6.996-.535 12.526Z"/><path stroke="var(--unique-black)" stroke-linecap="round" stroke-linejoin="round" stroke-miterlimit="10" d="m166.377 47.49-4.554 10.793"/><path fill="var(--brand-sapphire-60)" d="M159.383 69.165c3.128 3.492 2.606 9.023 2.606 9.023s-5.559-.172-8.652-3.664c-3.127-3.492-2.606-9.024-2.606-9.024s5.525.138 8.652 3.665Z"/><path stroke="var(--unique-white)" stroke-linecap="round" stroke-linejoin="round" stroke-miterlimit="10" d="m157.055 71.827 4.934 6.327"/></g><defs><clipPath id="a"><path fill="var(--unique-white)" d="M0 0h200v200H0z"/></clipPath></defs></svg>
