<svg xmlns="http://www.w3.org/2000/svg" width="200" height="200" fill="none"><path fill="var(--brand-sapphire-10)" d="M81.51 77.077 61.722 94.5 37 66.423 56.787 49z"/><path fill="var(--unique-white)" stroke="var(--unique-black)" stroke-linecap="round" stroke-linejoin="round" stroke-miterlimit="10" d="M186.334 163.816 83.611 180.2 52.17 34.138l102.724-16.385 31.439 146.063Z"/><path fill="var(--unique-white)" stroke="var(--unique-black)" stroke-linecap="round" stroke-linejoin="round" stroke-miterlimit="10" d="m186.335 163.816-96.42 23.606-31.44-146.063 96.42-23.606 31.44 146.063Z"/><path fill="var(--unique-white)" d="M73.96 64.19c14.631-3.495 29.729-7.456 43.814-10.717Z"/><path stroke="var(--unique-black)" stroke-linecap="round" stroke-linejoin="round" stroke-miterlimit="10" d="M73.96 64.19c14.631-3.495 29.729-7.456 43.814-10.717"/><path fill="var(--unique-white)" d="M75.284 72.342c14.63-3.494 29.728-7.455 43.813-10.716Z"/><path stroke="var(--unique-black)" stroke-linecap="round" stroke-linejoin="round" stroke-miterlimit="10" d="M75.284 72.342c14.63-3.494 29.728-7.455 43.813-10.716"/><path fill="var(--unique-white)" d="M76.918 80.807c14.63-3.495 29.728-7.455 43.813-10.716Z"/><path stroke="var(--unique-black)" stroke-linecap="round" stroke-linejoin="round" stroke-miterlimit="10" d="M76.918 80.807c14.63-3.495 29.728-7.455 43.813-10.716"/><path fill="var(--brand-sapphire-60)" stroke="var(--unique-black)" stroke-linecap="round" stroke-linejoin="round" stroke-miterlimit="10" d="m170.226 149.062-10.273 2.252-31.439-146.14 6.926 3.883L138.786 3l31.44 146.062ZM125.678 15.447l-10.272 2.201 31.443 146.07 10.272-2.201-31.443-146.07Z"/><mask id="a" fill="#fff"><path d="m186.335 163.816-71.674 34.089-31.44-146.063 71.674-34.089 31.44 146.063Z"/></mask><path fill="var(--unique-white)" stroke="var(--unique-black)" stroke-width="1.667" d="m186.335 163.816-71.674 34.089-31.44-146.063 71.674-34.089 31.44 146.063Z" mask="url(#a)"/><path fill="var(--brand-sapphire-10)" d="m117.5 147-7.5-37 51-24 5 35-48.5 26Z"/><path stroke="var(--unique-black)" stroke-linecap="round" stroke-linejoin="round" stroke-miterlimit="10" d="m110.537 85.698 37.977-18.869M116.373 116.604l37.977-18.87M145.401 83.369a417.678 417.678 0 0 1 5.992-2.951M151.237 114.274a418.696 418.696 0 0 1 5.992-2.951M113.416 99.287c9.728-4.97 19.377-9.318 28.249-14.055M119.253 130.193c9.728-4.97 19.377-9.319 28.249-14.055"/><path fill="var(--unique-black)" stroke="var(--unique-black)" stroke-linecap="round" stroke-linejoin="round" stroke-miterlimit="10" d="m164.35 15.749-10.272 2.201 31.443 146.07 10.271-2.201-31.442-146.07Z"/><path fill="var(--unique-white)" stroke="var(--unique-black)" stroke-linecap="round" stroke-linejoin="round" stroke-miterlimit="10" d="M98.403 56.58a2.643 2.643 0 0 0-2.584-2.7 2.643 2.643 0 0 0-2.706 2.58 2.643 2.643 0 0 0 2.585 2.7 2.643 2.643 0 0 0 2.706-2.58ZM106.8 53.042a2.643 2.643 0 0 0-2.585-2.7 2.643 2.643 0 0 0-2.705 2.579 2.642 2.642 0 0 0 2.584 2.7 2.643 2.643 0 0 0 2.706-2.58ZM114.724 49.788a2.643 2.643 0 0 0-2.585-2.7 2.642 2.642 0 0 0-2.705 2.58 2.642 2.642 0 0 0 2.584 2.7 2.644 2.644 0 0 0 2.706-2.58ZM59.953 118.7c-11.673 1.475-16.731 18.326-11.206 27.566 3.035 5.048-4.669 9.94-7.704 4.892-9.26-15.452-.156-39.214 18.444-41.621 5.914-.699 6.303 8.464.466 9.163Z"/><path fill="var(--unique-white)" stroke="var(--unique-black)" stroke-linecap="round" stroke-linejoin="round" stroke-miterlimit="10" d="M69.68 124.912H31.705v26.79h37.977v-26.79Z"/><path fill="var(--unique-white)" stroke="var(--unique-black)" stroke-linecap="round" stroke-linejoin="round" stroke-miterlimit="10" d="M71.782 122.661H33.806v26.789h37.976v-26.789Z"/><path stroke="var(--unique-black)" stroke-linecap="round" stroke-linejoin="round" stroke-miterlimit="10" d="M39.175 131.435v14.055M42.599 131.435v14.055"/><path fill="var(--unique-white)" d="M94.817 186.645s-.311 6.833-.623 9.318l16.031-1.63s.857-4.893-3.891-4.582l-.311-3.106"/><path stroke="var(--unique-black)" stroke-linecap="round" stroke-linejoin="round" stroke-miterlimit="10" d="M94.817 186.645s-.311 6.833-.623 9.318l16.031-1.63s.857-4.893-3.891-4.582l-.311-3.106"/><path fill="var(--brand-sapphire-60)" stroke="var(--unique-black)" stroke-linecap="round" stroke-linejoin="round" stroke-miterlimit="10" d="M12.794 177.171c14.864-5.901 37.743-33.623 37.432-48.143-.078-4.427 4.202-6.135 7.47-5.048 1.09-.388 2.258-.466 3.503-.233 24.669 4.116 44.669 39.758 44.825 62.976H94.895c-.233-17.627-15.953-45.659-33.852-50.629-.934 17.627-26.848 44.649-44.047 51.483-1.4-3.572-2.646-7.066-4.202-10.406Z"/><path fill="var(--unique-white)" stroke="var(--unique-black)" stroke-linecap="round" stroke-linejoin="round" stroke-miterlimit="10" d="M59.953 101.151c-.622-3.262 3.269-4.582 5.214-3.262 1.946 1.32 2.646 2.64 2.646 2.64l-.622.622s.544 2.329-1.557 3.106l-1.4 6.988-3.891-.621 1.322-6.523c-.856-.543-1.4-1.475-1.712-2.95Z"/><path fill="var(--unique-black)" d="M64.856 97.734c.467 1.398-1.478 2.64-2.49 3.106-.778.389-.311 1.398.39 1.398.622.078-.312 1.553-.623 1.708-.156.078-.234.156-.39.233-.855-.543-1.4-1.475-1.711-3.028-.7-3.106 2.801-4.426 4.825-3.417Z"/><path fill="var(--unique-white)" d="m59.331 109.304.467-1.32 5.525-.233.7 1.708"/><path stroke="var(--unique-black)" stroke-linecap="round" stroke-linejoin="round" stroke-miterlimit="10" d="m59.331 109.304.467-1.32 5.525-.233.7 1.708"/><path fill="var(--unique-white)" stroke="var(--unique-black)" stroke-linecap="round" stroke-linejoin="round" stroke-miterlimit="10" d="M62.755 109.304c-9.183 0-9.495 1.165-10.74 7.299-1.245 6.135-2.1 11.338-2.1 11.338l17.664-2.641s.779-5.979 1.401-9.318c.7-3.416 1.012-6.678-6.226-6.678Z"/><path fill="var(--unique-white)" d="M12.794 177.172 4 179.967l5.914 14.055s4.592-1.475 3.891-4.736l3.113-1.786"/><path stroke="var(--unique-black)" stroke-linecap="round" stroke-linejoin="round" stroke-miterlimit="10" d="M12.794 177.172 4 179.967l5.914 14.055s4.592-1.475 3.891-4.736l3.113-1.786"/><path fill="var(--unique-white)" stroke="var(--unique-black)" stroke-linecap="round" stroke-linejoin="round" stroke-miterlimit="10" d="M107.658 132.133c-.234-.931-3.502 1.476-3.502 1.476s3.19-2.485 2.723-3.184c-.311-.466-2.101.155-3.112.544 1.011-.466 2.723-1.32 2.256-2.097-.622-1.087-5.369.932-5.291.155.077-.776 3.346-2.174 2.023-3.028-1.868-1.165-4.903 3.572-8.016 4.504-.467.155-.934.233-1.4.31.544 3.029 1.09 5.979 1.634 9.008 1.79-.311 3.58-.777 5.292-1.476.233-.077.389-.155.544-.31 5.681-2.485 7.082-5.047 6.849-5.902Z"/><path fill="var(--unique-white)" d="M66.101 109.615c3.113 1.165 4.825 2.174 4.748 5.202-.234 11.027 13.774 18.248 23.735 15.764.934 2.873 1.478 5.901 2.334 8.852-14.786 3.727-32.217-6.057-34.863-21.044"/><path stroke="var(--unique-black)" stroke-linecap="round" stroke-linejoin="round" stroke-miterlimit="10" d="M66.101 109.615c3.113 1.165 4.825 2.174 4.748 5.202-.234 11.027 13.774 18.248 23.735 15.764.934 2.873 1.478 5.901 2.334 8.852-14.786 3.727-32.217-6.057-34.863-21.044"/><path fill="var(--unique-black)" d="M60.498 98.433c-1.323 1.32-2.646 7.221-13.93 2.95-11.284-4.27-8.872 2.641-13.23 4.271-4.436 1.631-6.77 1.243-6.459 3.883.234 1.786 8.25 2.252 11.673-.621 2.413-2.019 2.802-1.088 6.849 1.164 7.704 4.349 15.408 8.697 18.52-6.056 1.48-7.144-3.423-5.591-3.423-5.591Z"/><path stroke="var(--unique-black)" stroke-linecap="round" stroke-linejoin="round" stroke-miterlimit="10" d="m88.825 103.325 2.88.932M84.7 108.605l-.855 2.563M93.65 117.069l-1.09 2.175M74.661 88.571l1.556 1.476"/><path fill="var(--unique-white)" stroke="var(--unique-black)" stroke-linecap="round" stroke-linejoin="round" stroke-miterlimit="10" d="M84.7 96.181a2.177 2.177 0 0 0 2.18-2.174c0-1.201-.976-2.175-2.18-2.175a2.177 2.177 0 0 0-2.178 2.175c0 1.2.975 2.174 2.178 2.174ZM63.922 165.757l-9.961 9.939c1.323 1.398 3.113 2.252 5.136 2.252a6.967 6.967 0 0 0 7.004-6.989c.078-2.096-.778-3.882-2.179-5.202Z"/><path stroke="var(--steel-90)" stroke-linecap="round" stroke-linejoin="round" stroke-miterlimit="10" d="m65.089 179.501-1.712 4.348M8.047 168.708l3.657.543M36.006 89.234l1.55-5.332L27.552 81 26 86.332l10.005 2.902Z"/></svg>
