<svg xmlns="http://www.w3.org/2000/svg" width="200" height="200" fill="none"><path fill="var(--brand-sapphire-10)" d="m15.72 145.757 27.065-12.942 8.648 18.086-27.065 12.942z"/><path fill="var(--brand-sapphire-60)" d="M112.214 159.568 48 148.068l.786-4.068L113 155.5l-.786 4.068ZM166.985 94.06l-61.035 3.879-.221-4.138 61.036-3.88.22 4.138Z"/><path fill="var(--brand-sapphire-10)" d="m163.643 71.861-50.072 7.495-.571-4.069 50.071-7.494.572 4.068Z"/><path fill="var(--brand-sapphire-60)" d="m143.357 136.846-50.072 7.423-.642-4.068 50.071-7.423.643 4.068Z"/><path fill="var(--brand-sapphire-10)" d="m156.643 48.933-50.572.57-.071-4.068 50.643-.642v4.14Z"/><path fill="var(--brand-sapphire-60)" d="M159.143 105.793H98v4.14h61.143v-4.14Z"/><path fill="var(--unique-white)" stroke="var(--unique-black)" stroke-linecap="round" stroke-linejoin="round" stroke-miterlimit="10" d="M115.143 30.566a3.784 3.784 0 0 0 3.786-3.783A3.784 3.784 0 0 0 115.143 23a3.784 3.784 0 0 0-3.786 3.783 3.784 3.784 0 0 0 3.786 3.783Z"/><path fill="var(--brand-sapphire-60)" d="M175.786 96.359a3.784 3.784 0 1 0 0-7.566A3.784 3.784 0 0 0 172 92.576a3.784 3.784 0 0 0 3.786 3.783Z"/><path fill="var(--unique-white)" stroke="var(--unique-black)" stroke-linecap="round" stroke-linejoin="round" stroke-miterlimit="10" d="m193.697 124.957-44.269-27.258-20.25 32.887 44.269 27.258 20.25-32.887Z"/><path fill="var(--unique-white)" stroke="var(--unique-black)" stroke-linecap="round" stroke-linejoin="round" stroke-miterlimit="10" d="m161.428 140.415-20.285-12.42 20.071-9.636.214 22.056Z"/><path fill="var(--unique-white)" stroke="var(--unique-black)" stroke-linecap="round" stroke-linejoin="round" stroke-miterlimit="10" d="m165.714 143.056-13.785-8.423 13.643-6.567.142 14.99ZM175.929 120.358l8.928 5.496-8.857 4.211-.071-9.707Z"/><path fill="var(--unique-black)" d="M133.571 173.534c5.572-14.632 11.215-29.193 16.786-43.825 1.286-3.355 3.429-14.418.214-15.56-2.642-.928-9.357 8.208-10.642 11.563-5.572 14.632-11.215 29.193-16.786 43.825-2.572 6.71 7.857 10.707 10.428 3.997Z"/><path stroke="var(--unique-black)" stroke-linecap="round" stroke-linejoin="round" stroke-miterlimit="10" d="m146.5 152.549-8.428 21.984-8.286-3.14"/><path stroke="var(--unique-white)" stroke-linecap="round" stroke-linejoin="round" stroke-miterlimit="10" stroke-width=".714" d="m138.714 165.111-14.286-5.496M152.857 129.638l-14.357-5.496"/><path stroke="var(--unique-black)" stroke-linecap="round" stroke-linejoin="round" stroke-miterlimit="10" stroke-width="2.143" d="m151.786 112.007-3.286 8.708"/><path stroke="var(--unique-black)" stroke-linecap="round" stroke-linejoin="round" stroke-miterlimit="10" d="m157.571 113.22.643 2.213"/><path stroke="var(--steel-90)" stroke-linecap="round" stroke-linejoin="round" stroke-miterlimit="10" d="M112.214 147 110 149.855M103.714 88.167l1.928 1.57M160.785 51.122l-2.285 2.57M161.071 59.402l2.215.571M35.571 115.075l-.928 2.57M13.72 128.949l2.214.641"/><path fill="var(--unique-black)" stroke="var(--unique-black)" stroke-linecap="round" stroke-linejoin="round" stroke-miterlimit="10" d="M56.786 63.542c-.143.071-.358.143-.5.214-3.643 1.642-7.5 3.712-9.715 7.138-.428.642-.714 1.356-1 2.07-3.143-1.428-6.214-3.212-8.5-5.425.072-.143.072-.214.143-.357C40 61.9 44.643 58.332 49.786 55.69c1-.5 2-.999 3-1.427.357-.143.714-.286 1.071-.357 1.786-.357 3.286.285 4.357 1.428 2.143 2.426 2.286 6.638-1.428 8.208Z"/><path fill="var(--unique-white)" d="M84.857 40.844c.572-4.282 0-7.209.786-8.066.786-.856.714 2.356 1.929 2.784 1.214.428.5-4.925 2.071-5.353 1.572-.5.929 4.354.929 4.354s.214-4.354 1.428-4.211c1.215.142.572 4.496.572 4.496s.714-4.282 1.357-4.068c.643.214 1.857 2.07.857 11.42"/><path stroke="var(--unique-black)" stroke-linecap="round" stroke-linejoin="round" stroke-miterlimit="10" d="M84.857 40.844c.572-4.282 0-7.209.786-8.066.786-.856.714 2.356 1.929 2.784 1.214.428.5-4.925 2.071-5.353 1.572-.5.929 4.354.929 4.354s.214-4.354 1.428-4.211c1.215.142.572 4.496.572 4.496s.714-4.282 1.357-4.068c.643.214 1.857 2.07.857 11.42"/><path fill="var(--unique-black)" d="M87.571 35.563c1.929 1.142 2.5 2.64 2.5 2.64Z"/><path stroke="var(--unique-black)" stroke-linecap="round" stroke-linejoin="round" stroke-miterlimit="10" d="M87.571 35.563c1.929 1.142 2.5 2.64 2.5 2.64"/><path fill="var(--unique-black)" stroke="var(--unique-black)" stroke-linecap="round" stroke-linejoin="round" stroke-miterlimit="10" d="M94.786 42.2C93.5 49.91 87.643 55.548 80.5 58.19c-7.714 2.855-16.143 2.355-23.786 5.425-.143.07-.285.07-.428.142-4.643 1.428-7.857-3.925-5.929-7.352.5-.856 1.286-1.57 2.429-1.998.357-.143.785-.286 1.143-.428 1.642-.571 3.285-1 4.928-1.428 4.714-1.07 9.5-1.499 14.214-2.57 4.858-1.07 10.858-3.64 11.786-9.207.072-.286.143-.571.214-.785 3.286.357 6.5.57 9.786.785 0 .5 0 1-.071 1.427ZM137.429 73.178s7.714 4.283 9.214 5.496l9.571-17.63s-5.785-2.212-8.142 1.927l-7.286-2.926-3.357 13.133Z"/><path stroke="var(--unique-white)" stroke-linecap="round" stroke-linejoin="round" stroke-miterlimit="10" stroke-width=".714" d="m148.143 62.971-.928 2.784M146.643 62.258l-1.214 2.712"/><path fill="var(--unique-black)" stroke="var(--unique-black)" stroke-linecap="round" stroke-linejoin="round" stroke-miterlimit="10" d="M84.928 148.124s-3.072 6.424-4.072 8.137l18.715 7.28s1.428-5.995-2.929-7.78l1.929-7.566-13.643-.071Z"/><path fill="var(--unique-white)" stroke="var(--unique-black)" stroke-linecap="round" stroke-linejoin="round" stroke-miterlimit="10" d="M82.714 147.981c5.714-26.195-9.286-46.895-26.786-55.674-5.428-2.712-4-7.28-.571-10.492.214-1.5.928-2.998 1.928-4.283 20.572-26.695 59.643-31.763 87.429-17.13L137 74.892c-21.215-10.993-49.072-10.208-66.429 7.993C91 95.234 108 120.786 99.428 150.622c-5.142-.714-11.714-2.284-16.714-2.641Z"/><path stroke="var(--unique-white)" stroke-linecap="round" stroke-linejoin="round" stroke-miterlimit="10" stroke-width=".714" d="m96.642 155.69-2.857-.571M97.215 154.119l-2.858-.785"/><path stroke="var(--unique-black)" stroke-linecap="round" stroke-linejoin="round" stroke-miterlimit="10" d="m83.143 145.198 16.642 1.641M141.214 59.045 134 73.178"/><path fill="var(--unique-white)" stroke="var(--unique-black)" stroke-linecap="round" stroke-linejoin="round" stroke-miterlimit="10" d="M43.725 92.48 17.823 88l-3.398 19.623 25.902 4.479 3.398-19.624Z"/><path stroke="var(--unique-black)" stroke-linecap="round" stroke-linejoin="round" stroke-miterlimit="10" d="M21.929 93.793 20 104.999M25.099 97.274l-1.342 8.438"/><path fill="var(--unique-white)" stroke="var(--unique-black)" stroke-linecap="round" stroke-linejoin="round" stroke-miterlimit="10" d="m46.003 81.043-14.63 21.822 16.556 11.084L62.56 92.127 46.003 81.043Z"/><path stroke="var(--unique-black)" stroke-linecap="round" stroke-linejoin="round" stroke-miterlimit="10" d="m38 100.219 9.429 6.353M40.286 96.793l9.429 6.353"/><path fill="var(--unique-white)" stroke="var(--unique-black)" stroke-linecap="round" stroke-linejoin="round" stroke-miterlimit="10" d="M29.858 123.793 7 141.626l13.539 17.328 22.858-17.833-13.54-17.328Z"/><path stroke="var(--unique-black)" stroke-linecap="round" stroke-linejoin="round" stroke-miterlimit="10" d="m22.291 134.802 7.714 9.922M17.72 137.816l5 6M24.72 132.816l7.714 9.921"/><path fill="var(--unique-white)" stroke="var(--unique-black)" stroke-linecap="round" stroke-linejoin="round" stroke-miterlimit="10" d="M78.214 76.89 54 86.096c-.929.357-1.929-.143-2.286-1l-6.428-16.916c-.358-.927.142-1.927 1-2.284L70.5 56.69c.928-.357 1.928.143 2.285.999l6.43 16.916c.428.857-.072 1.927-1 2.284Z"/><path stroke="var(--unique-black)" stroke-linecap="round" stroke-linejoin="round" stroke-miterlimit="10" d="m62.697 68.831-2.736 1.043 1.094 2.868 2.737-1.043-1.095-2.868ZM55 85.793c-9.714 13.062-3.857 8.208 1.429 10.064 5.285 1.856-2.643 16.417-5.5 28.908-2.929 13.062 17.928-3.355 21.785 3.569 4 7.137-27.857 42.183-50.714 42.397M45.715 68.11 73 57.689"/><path fill="var(--unique-black)" d="M47.143 73.249 48 75.89s-1 .571-1.714-.642c-.715-1.214.857-1.999.857-1.999ZM39.217 162.793 30 168.111l2.143 3.708 9.217-5.317-2.143-3.709Z"/><path fill="var(--unique-black)" stroke="var(--unique-black)" stroke-linecap="round" stroke-linejoin="round" stroke-miterlimit="10" d="M70.286 80.316c-1-1.928-2.214-3.712-3.428-5.568-5.143 5.14-13.929 11.563-20.072 5.353-2.357-2.355-2-5.781-.571-8.493-2.429-2.356-4.857-4.783-7.143-7.21a19.241 19.241 0 0 0-1.786 2.856c-3.214 6.066-3 13.99 1.786 19.2 4.786 5.282 12.143 6.995 19 5.282C63.5 90.38 68 87.382 72 83.67a144.994 144.994 0 0 0-1.714-3.355Z"/><path fill="var(--unique-white)" d="M66.857 74.748c4.858-4.711 7.5-6.71 5.358-2.927-1.286 2.356.285 1.428 3.071-.785s.714 1.856-.429 3.355c0 0 3-3.07 3.786-2.284.786.856-2.286 3.997-2.286 3.997s3.072-2.998 3.429-1.713c.286 1.07-6 7.28-7.857 9.279"/><path stroke="var(--unique-black)" stroke-linecap="round" stroke-linejoin="round" stroke-miterlimit="10" d="M66.857 74.748c4.858-4.711 7.5-6.71 5.358-2.927-1.286 2.356.285 1.428 3.071-.785s.714 1.856-.429 3.355c0 0 3-3.07 3.786-2.284.786.856-2.286 3.997-2.286 3.997s3.072-2.998 3.429-1.713c.286 1.07-6 7.28-7.857 9.279"/><path fill="var(--unique-white)" stroke="var(--unique-black)" stroke-linecap="round" stroke-linejoin="round" stroke-miterlimit="10" d="m59.429 43.985.714-.714s-.786-1.356-2.929-2.712c-2.214-1.357-6.357.285-5.5 3.783.357 1.57 1.072 2.569 1.929 3.14l-1.357 7.28c-.786.357-1.5.714-2.286 1.071.143.214.286.428.5.642.857.928 2 1.5 3.571 1.5 2.143 0 3.572-1.071 4.286-2.499a5.55 5.55 0 0 0 .572-2.855c-.643.143-1.286.286-1.858.5L58 47.482c2.143-1.07 1.429-3.497 1.429-3.497Z"/><path fill="var(--unique-black)" d="M56.786 40.345c.571 1.498-1.5 2.926-2.572 3.497-.785.428-.285 1.499.5 1.499.643 0-.285 1.642-.643 1.856l-.428.214c-.929-.5-1.572-1.499-2-3.212-.857-3.283 4.214-9.136 5.143-3.854Z"/><path fill="var(--unique-black)" d="m56.357 42.629-1.072-1.07c-.285-.286-.857-.286-1.142 0-.286.285-.286.784.071 1.141l1.072 1.07c.285.286.857.286 1.142 0 .286-.356.286-.856-.071-1.141Z"/><path fill="var(--brand-sapphire-10)" d="M189.286 44.928 139 38.861l.5-4.068 50.286 6.067-.5 4.069Z"/></svg>
