<svg xmlns="http://www.w3.org/2000/svg" width="200" height="200" fill="none"><path fill="var(--brand-sapphire-60)" d="m75.839 92.082-52.3 24.295L2.442 70.92l50.19-23.273 23.208 44.435Z"/><path stroke="var(--unique-black)" stroke-linecap="round" stroke-linejoin="round" stroke-miterlimit="10" stroke-width=".996" d="M177.56 103.718H97.193v45.777h80.367v-45.777Z"/><path stroke="var(--unique-black)" stroke-linecap="round" stroke-linejoin="round" stroke-miterlimit="10" stroke-width=".996" d="M170.207 107.042h-15.664v34.333h15.664v-34.333ZM151.025 107.042h-15.664v34.333h15.664v-34.333ZM132.357 107.042h-15.664v34.333h15.664v-34.333Z"/><path fill="var(--unique-white)" stroke="var(--unique-black)" stroke-linecap="round" stroke-linejoin="round" stroke-miterlimit="10" stroke-width=".996" d="M193.607 99.434 61.198 160.876l-39.64-85.481L148.534 16.51l8.248 3.58 36.826 79.343Z"/><path fill="var(--unique-white)" stroke="var(--unique-black)" stroke-linecap="round" stroke-linejoin="round" stroke-miterlimit="10" stroke-width=".996" d="m127.434 130.123-39.64-85.417-67.58 34.972 39.96 85.993 67.26-35.548Z"/><path stroke="var(--unique-black)" stroke-linecap="round" stroke-linejoin="round" stroke-miterlimit="10" stroke-width=".996" d="m113.369 50.587 28.707-13.298M117.715 59.986l28.707-13.362M122.063 69.32l28.707-13.297M151.921 72.965c4.284-1.982 8.631-3.964 12.915-6.01M145.336 76.034c1.279-.575 2.557-1.214 3.836-1.79M148.725 83.259l19.436-9.015M152.113 90.483c4.092-1.918 8.184-3.836 12.34-5.69"/><path fill="var(--brand-sapphire-60)" d="m140.898 78.063-21.344 9.9 11.165 24.072 21.344-9.901-11.165-24.07Z"/><path fill="var(--unique-black)" d="M130.354 30.409 97.873 45.474l1.21 2.61 32.482-15.066-1.211-2.61Z"/><path stroke="var(--unique-white)" stroke-linecap="round" stroke-linejoin="round" stroke-miterlimit="10" stroke-width=".889" d="m129.672 103.718 2.429-6.905 4.796.64 3.708-10.422"/><path fill="var(--unique-white)" stroke="var(--unique-black)" stroke-linecap="round" stroke-linejoin="round" stroke-miterlimit="10" stroke-width=".996" d="M80.406 59.96 20.838 87.59l21.361 46.054 59.568-27.63-21.361-46.053Z"/><path stroke="var(--unique-black)" stroke-linecap="round" stroke-linejoin="round" stroke-miterlimit="10" stroke-width=".996" d="m57.45 79.488-17.981 8.34 6.457 13.921 17.98-8.34-6.457-13.921ZM59.79 74.947l-16.24 31.328M48.73 107.81l13.171-6.138M50.84 112.285l13.106-6.138M52.887 116.761l13.17-6.138M115.159 54.424l32.734-15.216a6.084 6.084 0 0 1 8.056 2.94 6.084 6.084 0 0 1-2.941 8.057l-39 18.093a6.085 6.085 0 0 1-8.056-2.94 6.084 6.084 0 0 1 2.941-8.057M68.102 132.297l32.542-15.152M70.276 136.965l32.543-15.089M99.941 128.909c1.663-.768 3.389-1.535 5.051-2.366M72.45 141.695a770.074 770.074 0 0 0 24.743-11.444M148.532 16.51l3.005 6.458 5.435-2.493"/><path fill="var(--unique-white)" d="M99.75 62.608c1.151-1.279 3.069-3.26 3.58-2.366.512.895-2.493 3.645-2.493 3.645"/><path stroke="var(--unique-black)" stroke-linecap="round" stroke-linejoin="round" stroke-miterlimit="10" stroke-width=".996" d="M99.75 62.608c1.151-1.279 3.069-3.26 3.58-2.366.512.895-2.493 3.645-2.493 3.645"/><path fill="var(--unique-white)" stroke="var(--unique-black)" stroke-linecap="round" stroke-linejoin="round" stroke-miterlimit="10" stroke-width=".996" d="M69.125 51.1c0 .191-.064.447-.127.639 0 0 0 .064-.065.128-.127.51-.447.959-.83 1.342-.32.256-.64.512-1.087.703-.064.064-.128.064-.192.064a3.108 3.108 0 0 1-.448.192 10.489 10.489 0 0 0-2.75 1.535c-.255.191-.575.383-.83.639a.77.77 0 0 0-.32.32c-.256.191-.447.447-.64.639-.447.511-.894.959-1.214 1.534-.32.448-.575.96-.831 1.407-.128.192-.192.448-.32.64a11.568 11.568 0 0 0-.895 3.9v.639c0 1.278.192 2.621.64 3.9.063.192.191.447.255.639.512 1.279 1.343 2.494 2.366 3.58.32.32.64.64 1.023.96.575.51 1.087 2.11 1.406 3.9.064.191.064.447.128.639.256 1.662.256 3.26.064 3.964-.128.383-.383.32-.703-.064-.384-.384-.767-1.151-1.215-2.046.192.383.703 1.406.96 2.046.127.32.127.511 0 .575-.257.128-.704-.192-1.088-.575-.447-.448-.831-1.087-1.023-1.407.192.32.512.895.767 1.407.128.256.192.447.256.64.064.191.064.319 0 .319-.192.064-.511-.064-.895-.32a4.482 4.482 0 0 1-.64-.511c-.958-.831-1.981-1.982-2.557-2.43-.575-.511-1.15-1.023-1.662-1.534-.192-.192-.32-.384-.511-.576-1.087-1.214-1.982-2.557-2.75-3.964-.127-.191-.191-.383-.32-.575 0-.064-.063-.064-.063-.128-.064-.064-.064-.192-.128-.256-.512-1.15-.96-2.301-1.215-3.516a2.272 2.272 0 0 1-.128-.64c-.255-1.278-.383-2.62-.447-3.9v-.639c0-1.342.192-2.621.511-3.9.064-.192.128-.447.128-.64.256-1.086.64-2.173 1.15-3.196.193-.448.448-.895.704-1.343.767-1.406 1.79-2.749 2.941-3.963l.576-.576c.127-.128.255-.256.383-.32.192-.191.384-.32.512-.447a19.173 19.173 0 0 1 3.964-2.558c.191-.063.383-.191.511-.255.256-.128.512-.256.831-.32h.064c.128-.064.192-.064.32-.128.064-.064.192-.064.256-.128.127 0 .191-.064.255-.064s.192-.064.256-.064c.32-.063.576-.127.895-.063h.064c.703 0 1.279.255 1.854.575 1.215.511 1.982 2.11 1.854 3.58Z"/><path stroke="var(--unique-black)" stroke-linecap="round" stroke-linejoin="round" stroke-miterlimit="10" stroke-width=".996" d="m58.192 80.446 5.243-5.115"/><path fill="var(--unique-white)" stroke="var(--unique-black)" stroke-linecap="round" stroke-linejoin="round" stroke-miterlimit="10" stroke-width=".996" d="m63.5 113.372-2.302 7.48h10.294s1.982-4.603-.831-4.667l.895-2.813H63.5v0Z"/><path fill="var(--unique-black)" d="M62.86 114.203h10.038c3.964-7.225 5.05-15.792 3.644-24.104-.959-5.69-3.133-11.124-5.818-16.24-1.343-2.556-2.941-4.922-4.54-7.352-.639-.959-3.196-4.092-2.173-5.306 4.028-4.668-4.092-12.34-6.777-6.777-2.813 5.882-3.453 10.101-.576 15.024 2.877 4.987 6.33 9.463 8.44 14.897 1.79 4.731 2.43 10.677 1.598 16.24-.895 6.073-3.26 11.572-3.836 13.618Z"/><path fill="var(--unique-white)" stroke="var(--unique-black)" stroke-linecap="round" stroke-linejoin="round" stroke-miterlimit="10" stroke-width=".996" d="m70.597 113.372-2.558 7.48h11.444s2.174-4.603-.959-4.667l.768-2.557-8.695-.256Z"/><path fill="var(--unique-black)" d="M71.875 84.793c3.644 9.718 3.836 21.418-3.58 29.41h11.572c3.836-7.16 4.859-15.536 3.452-23.72-.959-5.69-3.133-11.124-5.818-16.24-1.342-2.556-2.94-4.922-4.54-7.352-.638-.959-3.196-4.091-2.173-5.306 4.028-4.667-2.75-11.444-6.777-6.777-3.9 4.54-3.452 10.101-.575 15.024 2.94 5.051 6.393 9.527 8.439 14.961Z"/><path stroke="var(--unique-white)" stroke-linecap="round" stroke-linejoin="round" stroke-miterlimit="10" stroke-width=".889" d="m57.425 63.183 2.046.767S70.659 78.27 72.577 90.29c.96 6.202.96 16.303-1.918 22.569"/><path stroke="var(--unique-black)" stroke-linecap="round" stroke-linejoin="round" stroke-miterlimit="10" stroke-width=".996" d="M78.524 116.121h-1.407"/><path fill="var(--unique-white)" stroke="var(--unique-black)" stroke-linecap="round" stroke-linejoin="round" stroke-miterlimit="10" stroke-width=".996" d="m75.007 42.916-3.964 5.563c-1.023-.576-2.045-1.215-3.068-1.727l4.091-5.69c-.32-.703-.575-1.726-.127-2.94.959-2.686 4.667-1.919 5.562-.065.895 1.854.767 3.07.767 3.07l-.767.191c0-.064-.576 1.918-2.494 1.598Z"/><path fill="var(--unique-black)" d="M74.624 36.139c1.087.127 2.11.703 2.877 1.79-.895.703-1.599.895-2.302.831-.703-.064-.831.895-.32 1.215.256.192-.703.959-1.534 1.215-.64.191-1.151-.064-1.215-.064-.383-.768-.64-1.727-.192-3.005.064-.192.448-.895.512-1.151.767-.512 1.342-.767 2.174-.831Z"/><path fill="var(--unique-black)" d="M75.583 38.313c0 .32-.064.64-.192.895-.127.384.448.576.576.192.128-.32.192-.703.192-1.087.064-.32-.576-.384-.576 0Z"/><path fill="var(--unique-white)" stroke="var(--unique-black)" stroke-linecap="round" stroke-linejoin="round" stroke-miterlimit="10" stroke-width=".996" d="m73.857 47.072-.064.128-.96 1.79-.127.191-5.946-2.173.511-.448 1.215-1.726 2.494 1.023.575.256 1.151.447 1.15.512Z"/><path fill="var(--unique-white)" stroke="var(--unique-black)" stroke-linecap="round" stroke-linejoin="round" stroke-miterlimit="10" stroke-width=".996" d="M75.839 53.274a5.53 5.53 0 0 1-.384 1.47c-.128.32-.256.575-.384.895-.127.192-.191.448-.32.64 0 0 0 .063-.063.063a41.695 41.695 0 0 0-1.599 3.837c-.064.255-.191.447-.255.639 0 .064 0 .064-.064.128l-.512 1.534-.83-.256-.64-.191-3.772-1.215-2.046-.64-2.622-.83-.639-.192-1.215-.384-2.685-.831-.64-.192-1.598-.512c.128-.32.32-.639.448-.895.128-.191.192-.447.32-.639.32-.575.575-1.087.83-1.598.193-.384.448-.767.64-1.151.256-.384.448-.767.703-1.15.128-.193.256-.449.448-.64.959-1.407 1.854-2.43 2.749-3.133.192-.128.384-.32.575-.448.256-.191.512-.32.768-.447h.064c.127-.064.191-.064.32-.128.063-.064.191-.064.255-.064.128 0 .192-.064.256-.064s.192-.064.255-.064c.32-.064.576-.064.896-.064h.064c1.022 0 1.981.192 3.068.576.192.063 1.28.447 1.599.575.32.128.64.256.959.32.255.064.447.191.64.255.447.192.894.384 1.278.64 1.215.703 2.046 1.406 2.493 2.11.576.575.704 1.278.64 2.046Z"/><path fill="var(--unique-white)" d="M95.53 61.074c1.918-.512 6.138-2.046 6.649-.767.512 1.278-4.091 1.022-3.26 1.662.831.64 3.9-2.622 4.411-1.726.512.895-2.493 3.644-2.493 3.644s2.429-2.43 2.557-1.47c.192 1.022-2.877 3.26-2.877 3.26s2.494-2.366 2.877-1.407c.384.96-2.429 4.476-7.288 4.476"/><path stroke="var(--unique-black)" stroke-linecap="round" stroke-linejoin="round" stroke-miterlimit="10" stroke-width=".996" d="M95.53 61.074c1.918-.512 6.138-2.046 6.649-.767.512 1.278-4.091 1.022-3.26 1.662.831.64 3.9-2.622 4.411-1.726.512.895-2.493 3.644-2.493 3.644s2.429-2.43 2.557-1.47c.192 1.022-2.877 3.26-2.877 3.26s2.494-2.366 2.877-1.407c.384.96-2.429 4.476-7.288 4.476"/><path fill="var(--unique-white)" stroke="var(--unique-black)" stroke-linecap="round" stroke-linejoin="round" stroke-miterlimit="10" stroke-width=".996" d="M96.106 68.746h-2.558a40.272 40.272 0 0 1-3.9-.384c-.192 0-.447-.064-.64-.128-1.342-.255-2.62-.511-3.9-.895-.191-.064-.447-.128-.639-.192-1.342-.447-2.621-.895-3.9-1.47-.192-.128-.447-.192-.639-.32-.448-.192-.831-.447-1.279-.64a34.631 34.631 0 0 1-2.621-1.47c-.192-.128-.448-.255-.64-.383-.894-.576-1.726-1.215-2.557-1.854-.064-.064-.128-.064-.192-.128-.255-.192-.511-.448-.767-.64-.128-.127-.256-.255-.447-.383-.192-.192-.448-.384-.64-.576a30.848 30.848 0 0 1-2.046-2.046 7.75 7.75 0 0 1-.639-.895c-.128-.191-.192-.447-.256-.639a3.522 3.522 0 0 1 .128-2.43c.192-.511.512-.959.831-1.342 0-.064.064-.064.064-.128.256-.256.512-.448.831-.64.32-.191.704-.383 1.023-.447.192-.064.448-.064.64-.128.639-.064 1.342.128 1.982.576.255.191.511.383.767.639.384.384.767.831 1.15 1.15.129.129.257.256.384.32l.256.256a26.31 26.31 0 0 0 2.558 2.11c.32.192.575.448.895.64.127.063.255.191.447.255.192.128.448.256.64.384a31.937 31.937 0 0 0 3.9 1.982c.191.064.447.192.639.255 1.023.384 1.982.704 3.005.96 1.087.255 2.11.51 3.26.639.704.128 1.407.192 2.174.192H95.338c.128 1.214.256 2.43.32 3.58 0 .192.064.448.064.64.256 1.278.32 2.429.384 3.58Z"/><path fill="var(--unique-black)" d="M107.869 57.046h.832c.319 0 .447.384.319.576l-.511.767c-.064.064-.064.128-.128.128l-12.276 5.626c-.192.064-.447 0-.511-.192l-.384-.767c-.064-.192 0-.448.192-.512l12.276-5.626h.191Z"/><path fill="var(--unique-white)" stroke="var(--unique-black)" stroke-linecap="round" stroke-linejoin="round" stroke-miterlimit="10" stroke-width=".996" d="M95.718 180.244c4.987-13.107 10.038-26.15 15.025-39.256 1.151-3.005.192-13.938.192-13.938s-8.376 7.352-9.527 10.357c-4.987 13.107-10.037 26.15-15.024 39.256-2.302 6.01 7.032 9.591 9.334 3.581Z"/><path fill="var(--unique-black)" d="M111.126 139.517a7.29 7.29 0 0 1-.32 1.471c-4.347 11.252-8.631 22.569-12.978 33.821l-9.335-3.516c4.348-11.317 8.695-22.569 12.979-33.886a5.48 5.48 0 0 1 .639-1.151l9.015 3.261ZM111.319 132.484c-.128-2.941-.32-5.37-.32-5.37s-1.918 1.726-4.092 3.836c1.471.447 2.941.959 4.412 1.534Z"/><path stroke="var(--unique-white)" stroke-linecap="round" stroke-linejoin="round" stroke-miterlimit="10" stroke-width=".996" d="m105.18 135.489-12.723 34.397M108.441 136.896l-12.723 34.333"/><path stroke="var(--steel-90)" stroke-linecap="round" stroke-linejoin="round" stroke-miterlimit="10" stroke-width=".996" d="m111.111 21.674 4.301 2.867M100.359 28.843l-2.151 3.813M26.098 125.839l2.813.767"/><path stroke="var(--unique-black)" stroke-linecap="round" stroke-linejoin="round" stroke-miterlimit="10" stroke-width=".996" d="m111.386 119.701-2.302 1.087M109.084 113.372v2.749M113.369 128.908l2.43.512M117.715 117.08v2.621M120.337 100.457l-1.278 2.877"/><path stroke="var(--steel-90)" stroke-linecap="round" stroke-linejoin="round" stroke-miterlimit="10" stroke-width=".996" d="m183.633 114.203 2.941.512M182.099 117.464l-.831 2.238"/></svg>
