<svg xmlns="http://www.w3.org/2000/svg" width="200" height="200" fill="none"><path fill="var(--brand-sapphire-10, #d5e8fd)" d="M80.715 45h102.997v138.787H80.715V45Z"/><mask id="a" fill="#fff"><path d="M58.047 28.34a10.916 10.916 0 1 0 7.92-20.345 10.916 10.916 0 0 0-7.92 20.346Z"/></mask><path stroke="var(--steel-90, #001729)" stroke-width="2" d="M58.047 28.34a10.916 10.916 0 1 0 7.92-20.345 10.916 10.916 0 0 0-7.92 20.346Z" mask="url(#a)"/><path fill="var(--unique-white, #ffffff)" stroke="var(--unique-black, #111111)" stroke-linecap="round" stroke-linejoin="round" stroke-miterlimit="10" d="M80.323 36.956 55.446 21.319l-11.03 17.548 24.876 15.637 11.03-17.548Z"/><path stroke="var(--unique-black, #111111)" stroke-linecap="round" stroke-linejoin="round" stroke-miterlimit="10" d="m55.351 29.277-5.787 9.207M57.594 30.687l-5.787 9.207"/><path fill="var(--unique-white, #ffffff)" d="M92.286 125.928c3.715.5 3.643 1.786 2.929 2.215-.286.214-1-.072-1.786-.215-1.071-.142-2.143-.142-2.143-.142"/><path stroke="var(--unique-black, #111111)" stroke-linecap="round" stroke-linejoin="round" stroke-miterlimit="10" d="M92.286 125.928c3.715.5 3.643 1.786 2.929 2.215-.286.214-1-.072-1.786-.215-1.071-.142-2.143-.142-2.143-.142"/><path fill="var(--unique-white, #ffffff)" stroke="var(--unique-black, #111111)" stroke-linecap="round" stroke-linejoin="round" stroke-miterlimit="10" d="M71.316 154.311V20.949l95.086-4.144 7.912 11.679V167.27H79.001l-7.685-12.96Z"/><path stroke="var(--unique-black, #111111)" stroke-linecap="round" stroke-linejoin="round" stroke-miterlimit="10" d="M169.043 162.599H94.451"/><path fill="var(--unique-white, #ffffff)" stroke="var(--unique-black, #111111)" stroke-linecap="round" stroke-linejoin="round" stroke-miterlimit="10" d="M63.545 16.805h102.998v138.787H63.545V16.805Z"/><path fill="var(--unique-white, #ffffff)" stroke="var(--unique-black, #111111)" stroke-linecap="round" stroke-linejoin="round" stroke-miterlimit="10" d="M63.545 16.805h102.998v138.787H63.545V16.805Z"/><path stroke="var(--unique-black, #111111)" stroke-linecap="round" stroke-linejoin="round" stroke-miterlimit="10" d="M159.316 145.688v-34.937M151.258 145.688v-17.694"/><path fill="var(--brand-sapphire-60, #1952b6)" stroke="var(--brand-sapphire-60, #1952b6)" d="m92.143 29.701 4.59 9.3.116.236.26.038 10.263 1.491-7.426 7.24-.189.182.045.26 1.753 10.221-9.18-4.826-.232-.122-.233.122-9.18 4.826 1.754-10.221.044-.26-.188-.183-7.427-7.239 10.264-1.491.26-.038.116-.236 4.59-9.3ZM137.857 29.701l4.59 9.3.116.236.26.038 10.263 1.491-7.426 7.24-.188.182.044.26 1.753 10.221-9.179-4.826-.233-.122-.233.122-9.179 4.826 1.753-10.221.044-.26-.188-.183-7.426-7.239 10.263-1.491.26-.038.116-.236 4.59-9.3Z"/><path stroke="var(--steel-90, #001729)" stroke-linecap="round" stroke-linejoin="round" stroke-miterlimit="10" d="m180.267 22.108 10.961-3.537M174.551 13.454l10.938-11.311M36.953 45.425l2.198-2.535M33.177 34.6l6.05.521"/><path stroke="var(--unique-black, #111111)" stroke-linecap="round" stroke-linejoin="round" stroke-miterlimit="10" d="m99.01 62.038 3.846 2.785"/><path stroke="var(--steel-90, #001729)" stroke-linecap="round" stroke-linejoin="round" stroke-miterlimit="10" d="m182.646 171.656 2.079 1.504M172.311 178.755l.906-2.98"/><path fill="var(--unique-black, #111111)" d="M36.747 21.22a3.209 3.209 0 1 0 2.328-5.98 3.209 3.209 0 0 0-2.328 5.98Z"/><path stroke="var(--steel-90, #001729)" stroke-linecap="round" stroke-linejoin="round" stroke-miterlimit="10" d="m15.353 168.743-.614-1.6M8.186 174.327 5 172.858"/><mask id="b" fill="#fff"><path d="M28.363 41.746c.34.2.453.637.253.977l-2.93 4.982a.714.714 0 0 1-.979.253l-4.968-2.929a.714.714 0 0 1-.253-.976l2.918-4.983c.2-.341.638-.455.979-.255l4.98 2.93Z"/></mask><path stroke="var(--steel-90, #001729)" stroke-width="2" d="M28.363 41.746c.34.2.453.637.253.977l-2.93 4.982a.714.714 0 0 1-.979.253l-4.968-2.929a.714.714 0 0 1-.253-.976l2.918-4.983c.2-.341.638-.455.979-.255l4.98 2.93Z" mask="url(#b)"/><path fill="var(--unique-black, #111111)" d="M47.127 52.343a.714.714 0 0 1 .515.869l-.667 2.615a.714.714 0 0 1-.87.516l-2.608-.669a.714.714 0 0 1-.515-.867l.662-2.614a.714.714 0 0 1 .869-.517l2.614.667Z"/><path fill="var(--unique-white, #ffffff)" stroke="var(--unique-black, #111111)" d="m45.565 89.183 3.058-7.92-2.445-.725-4.204 6.403 3.59 2.242Z"/><path fill="var(--unique-white, #ffffff)" stroke="var(--unique-black, #111111)" stroke-linecap="round" stroke-linejoin="round" stroke-miterlimit="10" d="M51.37 80.086c-.805 2.716-3.17 2.902-4.85 2.404-1.68-.499-2.275-2.559-1.741-4.359.725-2.445 3.077-3.52 4.758-3.022 1.68.498 2.64 2.26 1.834 4.977Z"/><path fill="var(--unique-black, #111111)" d="M50.36 75.26c3.154-1.712 4.542 4.412-3.046 3.464-.836.041-.762 1.132-.204 1.45.55.254-.874 1.277-1.257 1.325-.127.016-.31.08-.437.096-.552-.772-1.565-2.272-1.241-3.802.74-4.845 6.574-4.787 6.184-2.534Z"/><path fill="var(--unique-black, #111111)" d="M43.953 72.087c1.559 1.2.816 1.897 2.29 3.437l-1.01 1.08c-1.35-1.599-4.08-.658-6.344 4.187-2.264 4.846-5.672-.578-14.39 5.388-8.716 5.966-9.773-4.83-4.467-8.773 5.307-3.943 15.098 1.29 17.076-2.918 1.977-4.208 5.286-3.601 6.845-2.401ZM61.276 188.225H76.99c0-3.785-4.357-4.5-4.357-4.5v-4.571l-11.286.357c0 3.786-.071 8.714-.071 8.714Z"/><path stroke="var(--unique-black, #111111)" d="M61.678 175.518v4.822l10.592-.422.053-4.924-10.645.524Z"/><path fill="var(--unique-black, #111111)" d="M23.133 178.726c-1.143 4.5-2.571 9.5-2.571 9.5h17.643c0-3.786-4.358-4.5-4.358-4.5l1.143-4.643-11.857-.357Z"/><path stroke="var(--unique-black, #111111)" d="m25.066 172.812-1.555 5.855 11.107.517 1.555-5.764-11.107-.608Z"/><path stroke="var(--unique-white, #ffffff)" stroke-linecap="round" stroke-linejoin="round" stroke-miterlimit="10" d="M71.848 181.583h-2.5M33.634 181.583h-2.5"/><mask id="c7" fill="#fff"><path d="M45.205 104.011c-3.866-5.44-12.214-5.428-11.786 1.715 1.5 24.857-7.214 48.928-16.214 72.142l5.929.143 12.071.357c0-.071.071-.142.071-.214 6.643-18.286 10.072-37.571 10.572-57 .24-9.368 1.837-13.654-.643-17.143Z"/></mask><path fill="var(--unique-white, #ffffff)" stroke="var(--unique-black, #111111)" stroke-width="2" d="M45.205 104.011c-3.866-5.44-12.214-5.428-11.786 1.715 1.5 24.857-7.214 48.928-16.214 72.142l5.929.143 12.071.357c0-.071.071-.142.071-.214 6.643-18.286 10.072-37.571 10.572-57 .24-9.368 1.837-13.654-.643-17.143Z" mask="url(#c7)"/><mask id="d2" fill="#fff"><path d="M72.847 178.369c-.428-27.5-5.285-56.215-27.571-74.358-.572-.5-1.215-1-1.786-1.428-2.643-2-6.786-.429-8.286 2.143-1.857 3.143-.428 6.285 2.143 8.285a55.17 55.17 0 0 1 8.572 8.143c11.714 14.357 12.5 33.286 9.714 57.857l5.786-.214 11.142-.428h.286Z"/></mask><path fill="var(--unique-white, #ffffff)" stroke="var(--unique-black, #111111)" stroke-width="2" d="M72.847 178.369c-.428-27.5-5.285-56.215-27.571-74.358-.572-.5-1.215-1-1.786-1.428-2.643-2-6.786-.429-8.286 2.143-1.857 3.143-.428 6.285 2.143 8.285a55.17 55.17 0 0 1 8.572 8.143c11.714 14.357 12.5 33.286 9.714 57.857l5.786-.214 11.142-.428h.286Z" mask="url(#d2)"/><path fill="var(--unique-white, #ffffff)" d="m34.553 117.315-.356-12.413 3.938.713 7.15 12.112-.153 3.406-10.579-3.818Z"/><path stroke="var(--unique-black, #111111)" stroke-linecap="round" d="m38.551 105.286 4.652 40.83"/><path fill="var(--unique-black, #111111)" d="M33.127 128.061a.499.499 0 1 0-.993.113l.993-.113Zm-.993.113 4.839 42.385.993-.114-4.839-42.384-.993.113Z"/><path stroke="var(--unique-black, #111111)" stroke-linecap="round" d="m26.76 152.469 2.867 25.312M43.544 112.233l-9.758 7.688M45.285 125.701l-14.118 10.857M44.024 139.632 26.76 153.194M41.777 153.643l-20.84 15.525M37.995 168.707l-12.137 8.986"/><path fill="var(--brand-sapphire-60, #1952b6)" stroke="var(--unique-black, #111111)" stroke-linecap="round" stroke-linejoin="round" stroke-miterlimit="10" d="M80.916 101.601c-7.168.295-13.928 3.216-20.732.454-3.977-1.596-10.173-7.33-12.074-11.11-2.985.727-4.23 1.874-6.98 3.202-.07.019-.138.037-.189.125 2.358 5.21 6.643 9.608 11.749 12.38 8.62 4.567 18.636 4.693 28.141 4.29 5.99-.275 6.094-9.546.085-9.341Z"/><path stroke="var(--unique-black, #111111)" stroke-linecap="round" stroke-linejoin="round" stroke-miterlimit="10" d="m94.482 114.286-.143 2.5"/><path fill="var(--brand-sapphire-60, #1952b6)" stroke="var(--unique-black, #111111)" stroke-linecap="round" stroke-linejoin="round" stroke-miterlimit="10" d="M46.062 86.869c-8.858-.715-6.93-.215-14.786 17.142l15.714 2.858c2.857-8.429 7.072-19.286-.928-20Z"/><path fill="var(--unique-white, #ffffff)" stroke="var(--unique-black, #111111)" d="m92.141 92.913-.98 14.131-.019.262.206.164 11.085 8.819-13.743 3.435-.254.063-.093.246-4.962 13.269-7.513-12.009-.139-.223-.263-.012-14.152-.619 9.1-10.856.169-.202-.07-.253-3.785-13.65 13.137 5.299.244.098.219-.145 11.813-7.817Z"/><path fill="var(--unique-white, #ffffff)" d="M87.26 114.294c-.036-.138-4.384 2.748-4.489 2.627-.797-2.819 2.531-2.493 2.634-2.667.378-.539.098-1.057-.65-1.382-2.165-.107-4.33.079-6.477.335-.207.054-.345.089-.57.073-.233 1.682-.17 3.362-.246 5.078-.113 1.283-.226 2.565-.322 3.917 1.006.184 2.046.213 3.154.223 1.056-.197 2.493-.345 3.408-.801 1.932-1.381 2.546-3.013 3.537-5.185-.107-.415.196-1.82.02-2.218Z"/><path fill="var(--brand-sapphire-60, #1952b6)" d="M77.726 113.349c-7.171.218-14.862.423-21.705-2.393-5.94-2.457-11.016-7.865-10.746-14.571.24-5.961-9.1-6.145-9.27-.202-.358 9.236 5.532 17.532 13.425 21.848 8.57 4.659 18.29 4.892 27.8 4.59"/><path stroke="var(--unique-black, #111111)" stroke-linecap="round" stroke-linejoin="round" stroke-miterlimit="10" d="M77.726 113.349c-7.171.218-14.862.423-21.705-2.393-5.94-2.457-11.016-7.865-10.746-14.571.24-5.961-9.1-6.145-9.27-.202-.358 9.236 5.532 17.532 13.425 21.848 8.57 4.659 18.29 4.892 27.8 4.59"/><path fill="var(--brand-sapphire-60, #1952b6)" d="m46.97 105.833-12.365-7.768 1.804-4.815 2.414-3.8 7.904-1.615 3.215 3.928-1.177 8.698-1.796 5.372Z"/><path stroke="var(--unique-black, #111111)" stroke-linecap="round" stroke-linejoin="round" stroke-miterlimit="10" d="M77.725 113.349c3.637-.196 8.05-1.107 7.748.593-.267 1.543-3.053-.691-2.788 2.928M83.52 120.121s4.094-1.862 3.575-4.457M82.772 116.921l4.487-2.627c.494 1.348-3.63 3.955-3.63 3.955"/><path stroke="var(--unique-black, #111111)" stroke-linecap="round" stroke-linejoin="round" stroke-miterlimit="10" d="m77.361 113.369-.063 9.235c5.129.158 8.171-.918 9.12-4.406M102.84 105.875l2.263-1.072M99.45 100.828l1.271-3.942"/></svg>
