<svg xmlns="http://www.w3.org/2000/svg" width="200" height="200" fill="none"><path d="M0 0h200v200H0z"/><path fill="var(--brand-sapphire-10)" d="M105.001 24h59v41h-59V24ZM68.001 135h66v26h-66v-26Z"/><path stroke="var(--steel-90)" stroke-linecap="round" stroke-linejoin="round" stroke-miterlimit="10" d="m102.881 122.343-11.67-18.138-9.367 4.757-24.754-31.89"/><path fill="var(--unique-white)" stroke="var(--unique-black)" stroke-linecap="round" stroke-linejoin="round" stroke-miterlimit="10" d="M19.848 35.37h104.59V179.36H19.848V35.37Z"/><path fill="var(--unique-black)" stroke="var(--unique-black)" stroke-linecap="round" stroke-linejoin="round" stroke-miterlimit="10" d="M11.448 174.229h59.097v8.549H11.448v-8.549Z"/><path fill="var(--unique-white)" stroke="var(--unique-black)" stroke-linecap="round" stroke-linejoin="round" stroke-miterlimit="10" d="M47.947 156.389h35.458v8.548H47.947v-8.548Z"/><path fill="var(--unique-black)" stroke="var(--unique-black)" stroke-linecap="round" stroke-linejoin="round" stroke-miterlimit="10" d="M43.487 139.068h39.918v8.549H43.487v-8.549ZM43.487 121.749h39.918v8.548H43.487v-8.548Z"/><path stroke="var(--unique-black)" stroke-linecap="round" stroke-linejoin="round" stroke-miterlimit="10" d="M57 96H42M48.987 99.893h-7.062"/><path fill="var(--brand-sapphire-60)" d="m70.73 33.3 1.337-10.406-14.124 3.048L43.076 11l5.575 23.416-16.65 8.177 14.42 5.426-4.088 10.928 17.023-3.569 8.4 5.278 2.379-11.67L93.252 37.76 70.729 33.3Z"/><path fill="var(--unique-white)" stroke="var(--unique-black)" stroke-linecap="round" stroke-linejoin="round" stroke-miterlimit="10" d="M107.267 82.87c-.818-.669-1.71-1.263-2.676-1.858-1.635-1.264-3.271-2.602-4.98-3.791.594-.67 1.412-1.19 2.453-1.487 18.063-5.278 35.606 4.312 42.074 21.706-3.271 1.264-5.724 2.453-9.144 2.825-3.939-10.258-15.387-17.246-25.943-16.577-1.115-.595-.743-.074-1.784-.818Z"/><path stroke="var(--unique-black)" stroke-linecap="round" stroke-linejoin="round" stroke-miterlimit="10" d="m108.159 74.916-.223 6.096"/><path fill="var(--unique-white)" stroke="var(--unique-black)" stroke-linecap="round" stroke-linejoin="round" stroke-miterlimit="10" d="M141.015 85.695c-.446 1.487-1.115 2.379-1.932 2.9l1.486 10.258-4.088.297-1.561-10.779c-1.933-.966-1.115-3.79-1.264-3.345l-.595-.743s.818-1.264 2.899-2.453c2.082-1.115 6.022.594 5.055 3.865Z"/><path fill="var(--unique-black)" d="M139.975 82.128c-1.115-.67-2.528-.818-4.015-.297.298 1.337 1.859 2.899 2.602 3.345.744.446.149 1.412-.52 1.412-.595 0 .223 1.561.52 1.784.149.074.298.149.372.223.892-.446 1.561-1.338 2.081-2.9.075-.296.223-.594.298-.965a17.261 17.261 0 0 0-1.338-2.602Z"/><path fill="var(--unique-black)" d="m136.704 84.357.892-.892c.669-.669 1.784.372 1.041 1.04l-.892.893c-.744.669-1.784-.372-1.041-1.04Z"/><path fill="var(--unique-white)" stroke="var(--unique-black)" stroke-linecap="round" stroke-linejoin="round" stroke-miterlimit="10" d="M59.617 36.187c8.846-8.474 22.821-8.177 31.295.595 7.582 7.88 8.177 19.922 1.859 28.47-.744.967-1.561 1.934-2.528 2.826-.966.891-1.932 1.71-2.899 2.378-8.771 5.947-20.665 4.832-28.396-2.973-9.367-9.59-8.103-22.821.669-31.296ZM61.4 65.178c7.285 7.434 19.179 7.731 26.687.52 7.507-7.21 7.73-19.178.52-26.686-7.21-7.508-19.179-7.73-26.687-.52-7.508 7.285-8.623 18.51-.52 26.686Z"/><path stroke="var(--unique-black)" stroke-linecap="round" stroke-linejoin="round" stroke-miterlimit="10" d="M88.31 56.63c1.636-4.906.447-10.481-3.196-14.273M84.743 62.28c.52-.52 1.04-1.041 1.486-1.636"/><path fill="var(--unique-white)" stroke="var(--unique-black)" stroke-linecap="round" stroke-linejoin="round" stroke-miterlimit="10" d="m87.419 70.456 26.984 28.1 5.426-5.204-26.984-28.025c-.743.966-1.56 1.933-2.527 2.825a28.14 28.14 0 0 1-2.9 2.304Z"/><path stroke="var(--unique-black)" stroke-linecap="round" stroke-linejoin="round" stroke-miterlimit="10" d="m91.255 74.485 5.412-5.204 3.349 3.482-5.411 5.205-3.35-3.483Z"/><path fill="var(--unique-white)" stroke="var(--unique-black)" stroke-linecap="round" stroke-linejoin="round" stroke-miterlimit="10" d="m87.047 181.589 15.388-.075s-.223-7.359 0-10.927c.149-3.568-10.63-1.784-10.63-1.784l-.446 8.4c-.075 0-4.312.669-4.312 4.386Z"/><path stroke="var(--unique-black)" stroke-linecap="round" stroke-linejoin="round" stroke-miterlimit="10" d="m91.136 175.493 3.42.074M91.136 176.682l3.42.075"/><path fill="var(--unique-white)" stroke="var(--unique-black)" stroke-linecap="round" stroke-linejoin="round" stroke-miterlimit="10" d="m184.948 183.521 4.014-14.867s-7.136-1.71-10.556-2.825c-3.419-1.115-4.534 9.887-4.534 9.887l8.028 2.602c-.074 0-.446 4.237 3.048 5.203Z"/><path stroke="var(--unique-black)" stroke-linecap="round" stroke-linejoin="round" stroke-miterlimit="10" d="m180.19 178.02.966-3.271M181.305 178.318l.967-3.271"/><path fill="var(--unique-black)" d="M102.658 126.877c9.961-11.893 26.092-14.049 40.662-13.529 2.751.075 4.089-2.453 4.981-.446.371.595 1.263 5.352 1.412 6.244 4.163 17.469 9.812 40.588 29.66 45.791-1.933 3.791-3.642 7.731-5.352 11.597-21.855-6.691-30.404-30.032-35.607-50.623-9.887.074-20.294 1.784-26.761 9.887-7.805 9.812-7.88 23.267-7.88 35.235H91.136c0-15.536 1.115-31.667 11.522-44.156Z"/><path stroke="var(--unique-white)" stroke-linecap="round" stroke-linejoin="round" stroke-miterlimit="10" d="m138 126-4.5-2.5"/><path fill="var(--unique-white)" d="M104.219 75.362c-1.636.52-3.123.967-2.9 2.082.298 1.115 4.238-.223 4.238-.223"/><path stroke="var(--unique-black)" stroke-linecap="round" stroke-linejoin="round" stroke-miterlimit="10" d="M104.219 75.362c-1.636.52-3.123.967-2.9 2.082.298 1.115 4.238-.223 4.238-.223"/><path fill="var(--unique-white)" d="m141.238 95.582-.074-2.156-7.062.298.595 2.601"/><path stroke="var(--unique-black)" stroke-linecap="round" stroke-linejoin="round" stroke-miterlimit="10" d="m141.238 95.582-.074-2.156-7.062.298.595 2.601"/><path fill="var(--unique-white)" stroke="var(--unique-black)" stroke-linecap="round" stroke-linejoin="round" stroke-miterlimit="10" d="M139.38 95.805c8.549-.297 9.59 3.048 10.928 19.625l-20.071-.223s-.818-4.832-1.115-9.813c-.297-5.278-1.264-9.143 10.258-9.589Z"/><path stroke="var(--unique-black)" stroke-linecap="round" stroke-linejoin="round" stroke-miterlimit="10" d="M149.49 111.788h-19.699M149.416 107.03h-7.582M148.672 102.272h-5.724M146.219 97.515h-15.09M146.813 115.43V98.11M141.982 115.43V95.88M137.224 115.355V95.954M132.467 115.281v-18.36"/><path fill="var(--unique-white)" d="m98.421 81.16 5.204 3.345v3.568l-4.757.52-1.487-4.088 1.04-3.345Z"/><path fill="var(--unique-white)" d="M96.489 81.16c-.67 1.338 1.487 3.345 1.487 3.345Z"/><path stroke="var(--unique-black)" stroke-linecap="round" stroke-linejoin="round" stroke-miterlimit="10" d="M96.489 81.16c-.67 1.338 1.487 3.345 1.487 3.345"/><path fill="var(--unique-white)" d="M97.38 86.587c-1.188-1.19-2.08-2.825-.965-4.089Z"/><path stroke="var(--unique-black)" stroke-linecap="round" stroke-linejoin="round" stroke-miterlimit="10" d="M97.38 86.587c-1.188-1.19-2.08-2.825-.965-4.089"/><path fill="var(--unique-white)" d="M106.523 83.836c-1.263-2.825-2.75-6.02-3.493-5.5-.744.52 0 4.014-1.041 4.162-1.041.149-5.278-4.088-5.575-2.602-.298 1.487 2.825 2.825 2.825 2.825"/><path stroke="var(--unique-black)" stroke-linecap="round" stroke-linejoin="round" stroke-miterlimit="10" d="M106.523 83.836c-1.263-2.825-2.75-6.02-3.493-5.5-.744.52 0 4.014-1.041 4.162-1.041.149-5.278-4.088-5.575-2.602-.298 1.487 2.825 2.825 2.825 2.825"/><path fill="var(--unique-white)" stroke="var(--unique-black)" stroke-linecap="round" stroke-linejoin="round" stroke-miterlimit="10" d="M106.524 83.836c4.609 12.043 17.692 18.138 30.031 14.57 6.468-1.858 9.218 8.177 2.751 10.035-18.064 5.204-35.533-4.385-42-21.854 3.048-.52 6.765-1.19 9.218-2.75Z"/><mask id="a" fill="var(--unique-white)"><path d="m39.98 114.095 1.757-4.099 4.1 1.756-1.757 4.1-4.1-1.757Z"/></mask><path fill="var(--unique-black)" stroke="var(--unique-black)" stroke-width="1.487" d="m39.98 114.095 1.757-4.099 4.1 1.756-1.757 4.1-4.1-1.757Z" mask="url(#a)"/><path stroke="var(--steel-90)" stroke-linecap="round" stroke-linejoin="round" stroke-miterlimit="10" d="m133.086 65.528 3.602-8.404 8.403 3.602-3.601 8.404-8.404-3.602ZM147.5 69l-3.216 2.646M127.707 160.477 132 162.5M147.258 174.824 142.5 178.5"/><path stroke="var(--unique-black)" stroke-linecap="round" stroke-linejoin="round" stroke-miterlimit="10" d="M41.33 117.734 35 126"/><path stroke="var(--steel-90)" stroke-linecap="round" stroke-linejoin="round" stroke-miterlimit="10" d="m7.5 141 5.73 5.205M17 163l-3 3.5M77.085 20.949l2.974-3.346M76.713 11.657l-2.602 8.548M39.858 23.602 38 21"/><circle cx="141" cy="35" r="4" fill="var(--brand-sapphire-60)"/><circle cx="174.5" cy="89.5" r="7.5" stroke="var(--steel-90)" stroke-linecap="round" stroke-linejoin="round" stroke-miterlimit="10"/></svg>
