<svg xmlns="http://www.w3.org/2000/svg" width="200" height="200" fill="none"><g clip-path="url(#a)"><path fill="var(--brand-sapphire-10, #d5e8fd)" d="M100.958 28.32c2.354-2.739 6.757-2.012 8.006 1.368l54.442 142.247c1.324 3.404-1.641 7.029-5.244 6.389L4.814 152.051c-3.604-.64-5.217-4.964-2.763-7.756l98.907-115.974Z"/><path fill="var(--unique-white, #ffffff)" d="m87.326 43.25 30.642 10.965-7.922 22.142-4.595-.239-26.493-9.479 8.368-23.388Z"/><path stroke="var(--unique-black, #111111)" stroke-linecap="round" stroke-linejoin="round" d="m110.046 76.357 7.922-22.142L87.326 43.25l-8.368 23.388 26.85 9.607"/><circle cx="106.165" cy="71.715" r="1.071" stroke="var(--unique-black, #111111)"/><circle cx="85.386" cy="58.965" r="2.857" fill="var(--unique-black, #111111)"/><circle cx="91.165" cy="51" r="1.071" stroke="var(--unique-black, #111111)"/><circle cx="107.236" cy="58.5" r="3.571" stroke="var(--brand-sapphire-60, #1952b6)"/><path fill="var(--brand-sapphire-60, #1952b6)" d="m93.9 55.15 2.56 13.987-13.842-5.331 11.281-8.656Z"/><path fill="var(--unique-white, #ffffff)" stroke="var(--unique-black, #111111)" stroke-linecap="round" stroke-linejoin="round" d="m99.028 60.096 1.922 10.5-10.39-4.002 8.468-6.498Z"/><path stroke="var(--steel-90, #001729)" stroke-linecap="round" stroke-linejoin="round" d="M36.865 159.148h-25.05M74.315 167.536H55.029M33.829 156.871H21.683M76.457 154.322c-3.104-.98-4.976-2.393-4.64-4.63.405-2.706 3.824-3.872 7.558-4.208"/><path fill="var(--unique-white, #ffffff)" d="M106 66.156c.418-.419 1.685-1.791 2.511-4.269 1.255-3.766 4.77-4.017 2.008.252 1.256-1.423 3.767-3.516 4.52-2.511.198.265-.158 1.237-.604 2.058.777-.954 1.572-1.664 2.11-1.305.259.172-.315 1.638-.89 2.809.667-.867 1.434-1.47 1.643-1.051.754 1.506-1.757 6.527-5.021 8.536L106 66.155ZM80.121 51.957c.334-.47 1.328-1.998 1.717-4.517.592-3.828 4.262-4.904 1.974-.087.975-1.574 3.542-4.231 4.431-3.388.216.205-.069 1.134-.456 2.006.644-.89 1.366-1.523 1.885-1.292.269.12-.146 1.543-.595 2.744.616-.952 1.403-1.675 1.666-1.315.971 1.326-1.033 6.704-3.844 9.17l-6.778-3.32ZM56.009 154.625l.502-7.03 13.056-2.511-.251 7.532c1.423.251 4.469 1.758 5.272 5.775H58.52l-2.511-3.766ZM62.537 102.652c-5.022-6.026-8.118-13.056-9.039-15.818l-7.04-1.44-1.429 14.999 2.945-2.01c1.34 2.093 5.287 5.814 8.286 13.81 3.013 8.035.67 25.191-.502 35.402l14.06-2.762c2.51-21.342-1.004-34.649-7.281-42.181Z"/><path fill="var(--unique-white, #ffffff)" d="m36.676 160.4 1.506-10.043 13.558-2.009 1.005 4.77c5.021 1.206 6.11 5.357 6.026 7.282H36.676ZM54 55.5l1 2.5-2.5 5.5L56 65l.5-1 2-4 2-1 1-2 .5-.5-2-4-1-.5-5 3.5Z"/><path fill="var(--brand-sapphire-60, #1952b6)" d="M87.675 54.268 80.1 51.439c-6.366 9.101-14.46 13.348-22.335 15.22L70.07 75.25c10.364-7.988 15.742-17.236 17.606-20.982ZM38.172 106.92c-4.31-11.083-1.34-18.663 0-20.839l8.787-.25c-2.008 8.787 3.497 20.28 5.524 29.124 2.762 12.052.419 25.024-.502 33.142l-15.316 2.511c.502-7.281 3.139-13.809 5.022-23.601 1.255-6.528 0-11.048-3.515-20.087Z"/><path stroke="var(--unique-black, #111111)" stroke-linecap="round" stroke-linejoin="round" d="M41.458 149.679c0-2.143.714-6.428 1.785-10.357M59.398 51.833c.842.884 2.346 3.19 2.838 4.637l-.951.658c.057.923-1.154 2.723-2.736 2.717l-2.167 4.662M53.498 86.834c.92 2.762 4.017 9.792 9.039 15.818 6.277 7.532 9.792 20.839 7.281 42.181l-14.06 2.762c1.171-10.211 3.515-27.368.502-35.402-2.999-7.996-6.947-11.717-8.286-13.81"/><path fill="var(--unique-black, #111111)" d="M60.353 51.266c-.688-1.47-2.028-.632-2.645-.103-.04-.253-.89-.638-2.39-.143-2.399.792-2.707 2.847-2.561 3.775-.776.64-2.773 2.096-4.557 2.792-2.23.869-9.891-1.04-10.891 4.306-.403 2.155 1.858 1.783 2.69 3.728 1.06 2.481 2.47 2.897 3.675 3.313 6.043 1.645 12.825-5.388 12.56-12.091-2.685-.357-1.385-2.118.235-1.853 1.026-.162 4.676-2.032 3.884-3.724Z"/><path fill="var(--unique-black, #111111)" d="M68.311 65.995c-8.034-2.009-12.553-2.092-16.068-2.009-1.758-1.004-6.026-2.008-9.04 2.009-3.012 4.017-6.025 15.148-6.527 20.84l17.073.753 2.762-4.269c30.882 3.515 52.676-8.367 57.447-13.64l-6.528-4.77c-12.554 10.294-28.824 3.66-39.119 1.086Z"/><path stroke="var(--unique-black, #111111)" stroke-linecap="round" stroke-linejoin="round" d="M70.07 75.25c10.363-7.988 15.74-17.236 17.605-20.982L80.1 51.439c-6.366 9.101-14.46 13.348-22.335 15.22"/><path stroke="var(--unique-white, #ffffff)" stroke-linecap="round" stroke-linejoin="round" d="M50.987 81.562c1.542.974 4.756 2.046 7.256 2.403"/><path stroke="var(--unique-black, #111111)" stroke-linecap="round" stroke-linejoin="round" d="M38.434 86.081c-1.34 2.176-4.31 9.756 0 20.839 3.515 9.039 4.77 13.559 3.515 20.087-1.883 9.792-4.52 16.32-5.022 23.601l15.316-2.511c.92-8.118 3.264-21.09.502-33.142-2.027-8.844-7.532-20.337-5.524-29.125M38.243 150.393 36.676 160.4H58.77c.083-1.925-1.005-6.076-6.026-7.282l-1.005-4.77M52.243 151.612l-4.52.753m5.022.753-5.022 2.511"/><path stroke="var(--unique-black, #111111)" stroke-linecap="round" stroke-linejoin="round" d="m56.51 147.595-.501 7.03m13.558-9.541-.251 7.532c1.423.251 4.469 1.758 5.272 5.775H58.52M69.316 152.616l-4.017 1.507m4.017-3.515-3.766.753M106.458 66.108c1.785-1.429 1.327-1.779 2.153-4.256 1.256-3.766 4.771-4.017 2.009.251 1.255-1.422 3.766-3.515 4.519-2.51.337.449-.92 2.929-1.506 3.263 1.004-1.422 2.259-3.012 3.013-2.51.417.278-1.339 3.933-1.758 4.268.586-1.423 2.193-3.146 2.511-2.51.753 1.506-1.758 6.527-5.022 8.536M80.112 51.433c.363-.468 1.338-1.745 1.848-4.306.775-3.893 4.23-4.582 2.024-.002 1.068-1.568 3.297-3.958 4.17-3.056.39.404-.547 3.021-1.086 3.427.818-1.537 1.865-3.272 2.675-2.868.45.224-.837 4.07-1.21 4.455.403-1.485 1.783-3.396 2.177-2.805.936 1.4-1.559 6.41-3.066 7.916m-3.515-5.523c1.005 1.255 1.005 3.264-.357 4.072"/><path stroke="var(--unique-white, #ffffff)" stroke-linecap="round" stroke-linejoin="round" d="M43.674 68.934c3.517.957 7.284-1.025 9.767-4.171"/><circle cx="101.458" cy="90.036" r="6.071" stroke="var(--steel-90, #001729)"/><circle cx="112.886" cy="87.179" r="2.5" stroke="var(--steel-90, #001729)"/><circle cx="119.315" cy="100.036" r="1.071" stroke="var(--steel-90, #001729)"/><circle cx="77.529" cy="88.965" r="2.143" fill="var(--brand-sapphire-60, #1952b6)"/><circle cx="120.029" cy="76.465" r="6.071" fill="var(--unique-black, #111111)"/><path stroke="var(--steel-90, #001729)" stroke-linecap="round" d="M89.672 89.443a5 5 0 1 1-.714 4.953"/><path stroke="var(--steel-90, #001729)" stroke-linecap="round" stroke-linejoin="round" d="m93.6 38.25-4.642-10m1.785 11.072-3.928-3.928"/></g><defs><clipPath id="a"><path fill="#fff" d="M0 0h200v200H0z"/></clipPath></defs></svg>
