<svg xmlns="http://www.w3.org/2000/svg" width="200" height="200" fill="none"><g clip-path="url(#a)"><path fill="var(--unique-black, #111111)" d="M73.082 50.755a.5.5 0 1 0-1 0h1Zm-1 0v120.063h1V50.755h-1Z"/><path stroke="var(--unique-black, #111111)" stroke-linecap="round" d="M57.581 170.818h29.286"/><circle cx="72.582" cy="59.389" r="5.714" fill="var(--unique-black, #111111)"/><path stroke="var(--unique-black, #111111)" stroke-linecap="round" d="M28.794 76.205 120.09 47.16"/><path fill="var(--unique-white, #ffffff)" stroke="var(--unique-black, #111111)" d="m15.947 115.105 20.545-40.711 20.546 40.711H15.947Z"/><mask id="b" fill="#fff"><path d="M14.42 92.45c-.5-3.218 2.63-5.795 5.691-4.688l34.256 12.385c3.119 1.127 3.83 5.218 1.275 7.332l-28.654 23.708c-2.562 2.12-6.457.641-6.967-2.645L14.419 92.45Z"/></mask><path fill="var(--brand-sapphire-60, #1952b6)" stroke="var(--unique-black, #111111)" stroke-width="2" d="M14.42 92.45c-.5-3.218 2.63-5.795 5.691-4.688l34.256 12.385c3.119 1.127 3.83 5.218 1.275 7.332l-28.654 23.708c-2.562 2.12-6.457.641-6.967-2.645L14.419 92.45Z" mask="url(#b)"/><path fill="var(--brand-sapphire-60, #1952b6)" d="m37.778 106.587 2.059-10.15 4.029 1.43-.287 12.397-5.801-3.677Z"/><path fill="var(--unique-black, #111111)" stroke="var(--unique-black, #111111)" stroke-width="2" d="M36.492 137.261c12.624 0 22.858-10.233 22.858-22.857H13.634c0 12.624 10.234 22.857 22.857 22.857Z"/><path fill="var(--unique-white, #ffffff)" stroke="var(--unique-black, #111111)" d="m88.127 91.925 20.546-40.711 20.545 40.711h-41.09Z"/><mask id="c3" fill="#fff"><path d="M108.672 114.081c12.624 0 22.858-10.233 22.858-22.857H85.815c0 12.624 10.234 22.857 22.857 22.857Z"/></mask><path fill="var(--unique-black, #111111)" stroke="var(--unique-black, #111111)" stroke-width="2" d="M108.672 114.081c12.624 0 22.858-10.233 22.858-22.857H85.815c0 12.624 10.234 22.857 22.857 22.857Z" mask="url(#c3)"/><path stroke="var(--steel-90, #001729)" stroke-linecap="round" stroke-linejoin="round" d="m189.373 127.575 6.129-3.471M185.552 126.734l3.214-3.214M88.984 41.288l6.205-5.257M84.456 37.941l.163-4.855"/><path stroke="var(--steel-90, #001729)" stroke-linecap="round" stroke-linejoin="round" stroke-miterlimit="10" d="m20.216 147.293.366-2.341M11.83 140.701l3.296-1.119"/><mask id="d" width="19.316" height="19.747" x="44.809" y="20.881" fill="#000" maskUnits="userSpaceOnUse"><path fill="#fff" d="M44.809 20.881h19.316v19.747H44.809z"/><path d="M60.26 34.538a.143.143 0 0 1-.163-.024l-1.787-1.7a.143.143 0 0 0-.163-.023l-4.556 2.348a.143.143 0 0 0-.077.147l.348 2.441a.143.143 0 0 1-.076.147l-1.715.884a.143.143 0 0 1-.207-.108l-1.658-12.906a.143.143 0 0 1 .076-.145l2.015-1.038a.143.143 0 0 1 .163.022l9.532 8.847a.143.143 0 0 1-.031.232l-1.7.876Zm-7.068-1.58c.013.097.12.152.207.107l3.17-1.634a.143.143 0 0 0 .033-.23l-3.91-3.696a.143.143 0 0 0-.24.123l.74 5.33Z"/></mask><path fill="var(--unique-white, #ffffff)" d="M60.26 34.538a.143.143 0 0 1-.163-.024l-1.787-1.7a.143.143 0 0 0-.163-.023l-4.556 2.348a.143.143 0 0 0-.077.147l.348 2.441a.143.143 0 0 1-.076.147l-1.715.884a.143.143 0 0 1-.207-.108l-1.658-12.906a.143.143 0 0 1 .076-.145l2.015-1.038a.143.143 0 0 1 .163.022l9.532 8.847a.143.143 0 0 1-.031.232l-1.7.876Zm-7.068-1.58c.013.097.12.152.207.107l3.17-1.634a.143.143 0 0 0 .033-.23l-3.91-3.696a.143.143 0 0 0-.24.123l.74 5.33Z"/><path stroke="var(--unique-black, #111111)" stroke-width="2" d="M60.26 34.538a.143.143 0 0 1-.163-.024l-1.787-1.7a.143.143 0 0 0-.163-.023l-4.556 2.348a.143.143 0 0 0-.077.147l.348 2.441a.143.143 0 0 1-.076.147l-1.715.884a.143.143 0 0 1-.207-.108l-1.658-12.906a.143.143 0 0 1 .076-.145l2.015-1.038a.143.143 0 0 1 .163.022l9.532 8.847a.143.143 0 0 1-.031.232l-1.7.876Zm-7.068-1.58c.013.097.12.152.207.107l3.17-1.634a.143.143 0 0 0 .033-.23l-3.91-3.696a.143.143 0 0 0-.24.123l.74 5.33Z" mask="url(#d)"/><path stroke="var(--steel-90, #001729)" stroke-linecap="round" stroke-linejoin="round" stroke-miterlimit="10" d="M57.582 154.439a6.072 6.072 0 1 0-.002-12.144 6.072 6.072 0 0 0 .002 12.144Z"/><path fill="var(--unique-black, #111111)" stroke="var(--unique-black, #111111)" stroke-linecap="round" stroke-linejoin="round" stroke-miterlimit="10" d="M43.322 162.688a2.5 2.5 0 1 0 0-5 2.5 2.5 0 0 0 0 5Z"/><path stroke="var(--steel-90, #001729)" stroke-linecap="round" stroke-linejoin="round" stroke-miterlimit="10" d="M32.285 149.369a.714.714 0 0 1 .443 1.166l-2.334 2.776a.714.714 0 0 1-1.207-.188l-1.362-3.319a.715.715 0 0 1 .765-.978l3.695.543Z"/><path fill="var(--unique-black, #111111)" stroke="var(--unique-black, #111111)" stroke-linecap="round" stroke-linejoin="round" stroke-miterlimit="10" d="m152.284 71.65.965-2.252a.714.714 0 0 1 .938-.375l2.252.965a.713.713 0 0 1 .375.938l-.965 2.252a.714.714 0 0 1-.938.376l-2.252-.966a.713.713 0 0 1-.375-.938Z"/><path stroke="var(--steel-90, #001729)" stroke-linecap="round" stroke-linejoin="round" stroke-miterlimit="10" d="m150.207 93.425 2.605-6.782a.714.714 0 0 1 .923-.411l6.782 2.605a.713.713 0 0 1 .411.923l-2.605 6.783a.714.714 0 0 1-.923.41l-6.783-2.605a.714.714 0 0 1-.41-.922ZM153.388 38.852l1.175-1.962M22.11 78.497l-2.122-.855M169.937 96.594l-.632-2.198M162.646 76.576l1.521-1.27M34.06 35.631l-1.493-1.304M39.039 53.776l-1.321 1.477"/><path fill="var(--unique-white, #ffffff)" d="M85.228 64.893c-4.54-.337-7.416-.674-6.033 1.092 1.383 1.767 3.783 1.569.198 2.717-3.519 1.064-4.53 1.5-3.625 2.602.904 1.102 4.919-.255 4.919-.255s-4.914 1.473-4.46 2.633c.39 1.245 5.792.014 5.792.014s-5.448 1.465-4.785 3.056c.578 1.525 5.694-.736 11.357-2.305"/><path stroke="var(--unique-black, #111111)" stroke-linecap="round" stroke-linejoin="round" stroke-miterlimit="10" d="M85.228 64.893c-4.54-.337-7.416-.674-6.033 1.092 1.383 1.767 3.783 1.569.198 2.717-3.519 1.064-4.53 1.5-3.625 2.602.904 1.102 4.919-.255 4.919-.255s-4.914 1.473-4.46 2.633c.39 1.245 5.792.014 5.792.014s-5.448 1.465-4.785 3.056c.578 1.525 5.694-.736 11.357-2.305"/><path fill="var(--unique-white, #ffffff)" stroke="var(--unique-black, #111111)" stroke-linecap="round" stroke-linejoin="round" stroke-miterlimit="10" d="M85.228 64.892s2.741-.832 8.61-3.306c6.512-2.09 17.142-12.546 22.3-16.838 4.67 1.495 3.343 1.572 7.57 4-4.345 8.025-8.749 11.204-16.696 16.995-8.91 5.428-20.627 9.995-20.627 9.995l-1.157-10.846Z"/><mask id="e" fill="#fff"><path d="M65.78 55.77c.823-4.262 5.911-6.087 9.255-3.318l20.866 17.273c3.406 2.82 2.456 8.274-1.702 9.776l-26.011 9.396c-4.17 1.506-8.392-2.103-7.553-6.457l5.146-26.67Z"/></mask><path fill="var(--unique-white, #ffffff)" stroke="var(--unique-black, #111111)" stroke-width="2" d="M65.78 55.77c.823-4.262 5.911-6.087 9.255-3.318l20.866 17.273c3.406 2.82 2.456 8.274-1.702 9.776l-26.011 9.396c-4.17 1.506-8.392-2.103-7.553-6.457l5.146-26.67Z" mask="url(#e)"/><path stroke="var(--unique-black, #111111)" stroke-linecap="round" d="m86.84 77.66 7.027-2.569"/><path fill="var(--unique-white, #ffffff)" stroke="var(--unique-black, #111111)" stroke-linecap="round" stroke-linejoin="round" stroke-miterlimit="10" d="M115.476 150.096c2.748 8.608 7.51 22.712 7.51 22.712s-5.312 2.199-4.121 7.236h19.965c.184-.367-8.059-28.025-11.356-34.711-2.931 1.374-11.998 4.763-11.998 4.763Z"/><mask id="f5" fill="#fff"><path d="M154.327 134.668c8.151 3.938 24.433 15.703 24.433 15.703s-1.099 6.136 5.312 8.609l6.685-17.493c-.091-.366-22.621-8.975-31.596-15.02-1.191 3.023-4.834 8.201-4.834 8.201Z"/></mask><path fill="var(--unique-white, #ffffff)" stroke="var(--unique-black, #111111)" stroke-width="2" d="M154.327 134.668c8.151 3.938 24.433 15.703 24.433 15.703s-1.099 6.136 5.312 8.609l6.685-17.493c-.091-.366-22.621-8.975-31.596-15.02-1.191 3.023-4.834 8.201-4.834 8.201Z" mask="url(#f5)"/><mask id="g4" fill="#fff"><path d="M174.582 150.545c2.107-4.304 5.862-10.99 8.06-15.203-20.699-11.356-50.04-41.937-53.52-65.2-6.594-1.74-13.097-3.663-19.416-6.044-.183.458-.367.916-.458 1.466-5.862 29.215.164 74.589 8.865 103.072 6.551 0 15.315 0 19.36-.934-5.678-18.5-18.426-54.972-17.51-74.297 6.32 20.515 36.211 47.249 54.619 57.14Z"/></mask><path fill="var(--brand-sapphire-60, #1952b6)" stroke="var(--unique-black, #111111)" stroke-width="2" d="M174.582 150.545c2.107-4.304 5.862-10.99 8.06-15.203-20.699-11.356-50.04-41.937-53.52-65.2-6.594-1.74-13.097-3.663-19.416-6.044-.183.458-.367.916-.458 1.466-5.862 29.215.164 74.589 8.865 103.072 6.551 0 15.315 0 19.36-.934-5.678-18.5-18.426-54.972-17.51-74.297 6.32 20.515 36.211 47.249 54.619 57.14Z" mask="url(#g4)"/><path stroke="var(--unique-black, #111111)" stroke-linecap="round" stroke-linejoin="round" stroke-miterlimit="10" d="M122.985 172.9h3.022M178.76 150.37l1.099-1.923M117.399 80.95c.274 3.571 2.198 10.715 2.198 10.715"/><path fill="var(--unique-white, #ffffff)" stroke="var(--unique-black, #111111)" stroke-linecap="round" stroke-linejoin="round" stroke-miterlimit="10" d="M132.419 82.42c-1.923-.823-27.978-9.437-27.978-9.437 2.709-3.589 10.901-27.872 11.798-28.315.891-.441 2.201-.64 6.3.212.055.012.11.02.166.025.871.087 8.557 1.027 13.085 7.516 4.805 6.886-3.371 30-3.371 30Z"/><path fill="var(--unique-white, #ffffff)" d="M84.166 78.714c-3.05-3.521-5.224-6.787-5.303-3.566-.014 2.68 1.36 3.862-1.889 1.963-3.143-1.907-4.142-2.368-4.358-.959-.216 1.41 3.477 3.49 3.477 3.49s-4.38-2.672-4.94-1.559c-.665 1.122 3.86 4.318 3.86 4.318s-4.73-3.074-5.47-1.518c-.749 1.449 4.352 3.745 9.304 6.91"/><path stroke="var(--unique-black, #111111)" stroke-linecap="round" stroke-linejoin="round" stroke-miterlimit="10" d="M84.166 78.714c-3.05-3.521-5.224-6.787-5.303-3.566-.014 2.68 1.36 3.862-1.889 1.963-3.143-1.907-4.142-2.368-4.358-.959-.216 1.41 3.477 3.49 3.477 3.49s-4.38-2.672-4.94-1.559c-.665 1.122 3.86 4.318 3.86 4.318s-4.73-3.074-5.47-1.518c-.749 1.449 4.352 3.745 9.304 6.91"/><path fill="var(--unique-white, #ffffff)" stroke="var(--unique-black, #111111)" stroke-linecap="round" stroke-linejoin="round" stroke-miterlimit="10" d="M132.963 64.91c-.492.975-5.177 9.674-8.003 13.422-4.272 5.892-9.999 9.536-17.002 11.883-1.878.677-3.665 1.132-5.575 1.382-3.28.568-6.492.595-9.736.195-4.752-.5-9.47-1.968-13.915-4.099.402-.351.796-.81 1.076-1.366 1.406-2.677 2.706-5.346 4.006-8.016 6.337 3.06 13.489 4.131 20.606 1.883 5.33-1.793 9.139-5.293 12.344-9.712 3.015-4.084 4.365-6.515 6.943-11.611M130.295 48.072l.727-3.769.882-4.367c1.271-.32 2.502-1.225 3.715-2.99 2.595-3.934-1.807-7.673-5.094-7.06-3.208.645-4.837 2.047-4.837 2.047l.549 1.177s-1.974 2.678.327 4.874l-1.025 5.16-.495 2.54c-.564-.237-1.243-.427-1.807-.663.004 1.801.867 3.584 3.043 4.495 2.095.878 3.938.324 5.19-.857-.322-.135-.772-.418-1.175-.587Z"/><mask id="h" fill="#fff"><path d="M131.017 28.482c-1.388 1.503.493 5.606 1.627 6.745 1.597 1.616-.033 3.017-1.26 1.65-.59-.626-.327 2.137-.059 2.628.128.148.255.297.463.478 1.318-.205 2.664-1.157 3.83-3.037.748-1.108 2.728-3.12.869-4.562-.245-1.903-1.049-3.376-2.374-2.7-.419-2.165-1.696-2.51-3.096-1.202Z"/></mask><path fill="var(--unique-black, #111111)" stroke="var(--unique-black, #111111)" stroke-width="2" d="M131.017 28.482c-1.388 1.503.493 5.606 1.627 6.745 1.597 1.616-.033 3.017-1.26 1.65-.59-.626-.327 2.137-.059 2.628.128.148.255.297.463.478 1.318-.205 2.664-1.157 3.83-3.037.748-1.108 2.728-3.12.869-4.562-.245-1.903-1.049-3.376-2.374-2.7-.419-2.165-1.696-2.51-3.096-1.202Z" mask="url(#h)"/><mask id="i" fill="#fff"><path d="M134.962 32.408c.036-1.216-1.797-2.268-2.854-1.1-1.354 1.422-3.311 2.023-5.239 1.878a1.516 1.516 0 0 0-1.459-.137c-2.939 1.137-1.999 5.225.816 5.741 1.391.299 2.683-.297 3.847-1.041 1.494-1.08 2.975-2.354 4.389-3.467.626-.59.735-1.302.5-1.874Z"/></mask><path fill="var(--unique-black, #111111)" stroke="var(--unique-black, #111111)" stroke-width="2" d="M134.962 32.408c.036-1.216-1.797-2.268-2.854-1.1-1.354 1.422-3.311 2.023-5.239 1.878a1.516 1.516 0 0 0-1.459-.137c-2.939 1.137-1.999 5.225.816 5.741 1.391.299 2.683-.297 3.847-1.041 1.494-1.08 2.975-2.354 4.389-3.467.626-.59.735-1.302.5-1.874Z" mask="url(#i)"/><path stroke="var(--steel-90, #001729)" stroke-linecap="round" stroke-linejoin="round" stroke-miterlimit="10" d="m160.503 76.576 1.521-1.27"/><path stroke="var(--unique-black, #111111)" d="m107.196 67.305 4.5 8.112M110.306 59.714l6.555 11.05M113.264 51.4l7.608 12.749M127.482 74.157l4.8 8.264M131.649 67.12l3.513 6.047M117.068 44.29l7.635 12.848M125.063 48.723l-12.003 3.761M108.99 63.025l15.505-5.453M104.756 72.87l13.893-4.886M124.872 78.547l9.825-3.456M137.072 62.146l-3.164 1.112M130.548 55.45l5.873-2.056M128.149 49.818l3.229 6.035M134.362 60.944l2.415 4.803"/><path stroke="var(--steel-90, #001729)" stroke-linecap="round" stroke-linejoin="round" stroke-miterlimit="10" d="M86.824 122.336a3.12 3.12 0 1 0 0-6.241 3.12 3.12 0 0 0 0 6.241ZM97.617 125.459l1.388 1.414M82.651 135.378l-.614 1.884"/></g><defs><clipPath id="a"><path fill="var(--unique-white, #ffffff)" d="M0 0h200v200H0z"/></clipPath></defs></svg>
