<svg xmlns="http://www.w3.org/2000/svg" width="200" height="200" fill="none"><circle cx="145" cy="32" r="15" fill="var(--brand-sapphire-10)"/><circle cx="163" cy="70" r="7" fill="var(--brand-sapphire-60)"/><circle cx="58.5" cy="38.5" r="5.5" fill="var(--unique-black)"/><path fill="var(--brand-sapphire-10)" d="m68 166.781 85.805-5.78 1.076 15.963-85.805 5.78z"/><path stroke="var(--steel-90)" stroke-linecap="round" d="m85.01 172.847 67.126 9.293m-18.922 6.42 41.525 2.374"/><mask id="a" fill="#fff"><path d="m89.367 65.414 2.272-17.953c1.625-12.844-7.47-24.574-20.313-26.2-12.845-1.625-24.574 7.47-26.2 20.314l-2.272 17.953-12.459-1.576 2.26-17.858C35.151 20.37 53.165 6.402 72.89 8.898c19.725 2.497 33.692 20.51 31.196 40.235l-2.26 17.858-12.459-1.577Z"/></mask><path fill="var(--unique-white)" stroke="var(--unique-black)" stroke-width="2" d="m89.367 65.414 2.272-17.953c1.625-12.844-7.47-24.574-20.313-26.2-12.845-1.625-24.574 7.47-26.2 20.314l-2.272 17.953-12.459-1.576 2.26-17.858C35.151 20.37 53.165 6.402 72.89 8.898c19.725 2.497 33.692 20.51 31.196 40.235l-2.26 17.858-12.459-1.577Z" mask="url(#a)"/><path fill="var(--unique-black)" stroke="var(--unique-black)" stroke-linecap="round" stroke-linejoin="round" stroke-miterlimit="10" d="m15.922 58.994 107.145 13.558-4.143 32.739c-3.744 29.588-30.764 50.538-60.352 46.794v0C28.985 148.341 8.035 121.32 11.78 91.733l4.143-32.74Z"/><path fill="var(--unique-white)" stroke="var(--unique-black)" stroke-linecap="round" stroke-linejoin="round" stroke-miterlimit="10" d="m11.922 52.994 107.146 13.558-4.143 32.74c-3.744 29.587-30.765 50.537-60.352 46.793v0C24.985 142.341 4.035 115.32 7.779 85.733l4.143-32.74Z"/><mask id="b" fill="#fff"><path fill-rule="evenodd" d="M68.405 96.19a11.014 11.014 0 0 0 5.514-8.218c.765-6.043-3.514-11.563-9.558-12.328-6.044-.764-11.563 3.515-12.328 9.559a11.014 11.014 0 0 0 3.293 9.332L46 116.405l25.99 3.289-3.585-23.504Z" clip-rule="evenodd"/></mask><path fill="var(--brand-sapphire-60)" fill-rule="evenodd" d="M68.405 96.19a11.014 11.014 0 0 0 5.514-8.218c.765-6.043-3.514-11.563-9.558-12.328-6.044-.764-11.563 3.515-12.328 9.559a11.014 11.014 0 0 0 3.293 9.332L46 116.405l25.99 3.289-3.585-23.504Z" clip-rule="evenodd"/><path fill="var(--unique-black)" d="m68.405 96.19-.493-.87-.6.34.105.681.988-.15Zm-13.079-1.655.92.392.27-.634-.496-.478-.694.72ZM46 116.405l-.92-.392-.52 1.218 1.314.166.126-.992Zm25.99 3.289-.126.992 1.314.166-.2-1.309-.988.151Zm.937-31.847a10.014 10.014 0 0 1-5.015 7.473l.986 1.74a12.014 12.014 0 0 0 6.014-8.962l-1.985-.251Zm-8.691-11.21c5.495.695 9.387 5.714 8.691 11.21l1.985.251c.834-6.592-3.834-12.611-10.425-13.446l-.251 1.984Zm-11.21 8.691c.695-5.495 5.714-9.387 11.21-8.692l.25-1.984c-6.591-.834-12.61 3.834-13.445 10.425l1.984.251Zm2.994 8.487a10.014 10.014 0 0 1-2.995-8.487l-1.984-.25a12.014 12.014 0 0 0 3.591 10.177l1.388-1.44Zm-9.1 22.982 9.326-21.87-1.84-.784-9.326 21.87 1.84.784Zm25.195 1.905-25.99-3.289-.25 1.984 25.99 3.289.25-1.984Zm-4.698-22.36L71 119.843l1.977-.301-3.584-23.503-1.977.301Z" mask="url(#b)"/><path fill="var(--unique-white)" d="M146.555 95.252c-.221 3.247-.738 6.495.886 6.864 1.205.274 1.475-3.15 2.167-3.398.241-.086.533.212.933 1.184 1.55 3.764.369 4.945 2.14 5.166 1.845.221.591-5.388.591-5.388s1.033 5.167 2.288 4.798c1.254-.369.369-5.684.369-5.684s.812 5.093 1.919 4.429c1.107-.738.443-6.421-.296-10.555"/><path stroke="var(--unique-black)" stroke-linecap="round" stroke-linejoin="round" stroke-miterlimit="10" d="M146.555 95.252c-.221 3.247-.738 6.495.886 6.864 1.205.274 1.475-3.15 2.167-3.398.241-.086.533.212.933 1.184 1.55 3.764.369 4.945 2.14 5.166 1.845.221.591-5.388.591-5.388s1.033 5.167 2.288 4.798c1.254-.369.369-5.684.369-5.684s.812 5.093 1.919 4.429c1.107-.738.443-6.421-.296-10.555"/><mask id="c" fill="#fff"><path fill-rule="evenodd" d="m186.084 85 3.835 10.621-4.39 1.585 7.971 15.065-6 2.729-5.408-12.973-2 1L185 116.5l-10 4-4.081-18.019-25.889 9.347c4.974 16.521-1.316 33.51-15.085 39.154-14.82 6.074-32.692-3.294-39.918-20.924-7.226-17.631-1.07-36.847 13.749-42.921 12.863-5.273 28.026 1.09 36.531 14.39L186.084 85Zm-53.161 27.475c4.685 11.431 1.291 23.644-7.58 27.28-8.871 3.637-19.86-2.682-24.545-14.112-4.686-11.43-1.292-23.644 7.579-27.28 8.871-3.636 19.861 2.682 24.546 14.112Z" clip-rule="evenodd"/></mask><path fill="var(--unique-white)" fill-rule="evenodd" d="m186.084 85 3.835 10.621-4.39 1.585 7.971 15.065-6 2.729-5.408-12.973-2 1L185 116.5l-10 4-4.081-18.019-25.889 9.347c4.974 16.521-1.316 33.51-15.085 39.154-14.82 6.074-32.692-3.294-39.918-20.924-7.226-17.631-1.07-36.847 13.749-42.921 12.863-5.273 28.026 1.09 36.531 14.39L186.084 85Zm-53.161 27.475c4.685 11.431 1.291 23.644-7.58 27.28-8.871 3.637-19.86-2.682-24.545-14.112-4.686-11.43-1.292-23.644 7.579-27.28 8.871-3.636 19.861 2.682 24.546 14.112Z" clip-rule="evenodd"/><path fill="var(--unique-black)" d="m189.919 95.621.339.94.941-.339-.34-.94-.94.34ZM186.084 85l.941-.34-.34-.94-.941.34.34.94Zm-.555 12.206-.34-.94-1.083.39.539 1.018.884-.468Zm7.971 15.065.414.91.967-.44-.497-.938-.884.468Zm-6 2.729-.923.385.397.953.94-.428-.414-.91Zm-5.408-12.973.923-.385-.412-.989-.958.479.447.895Zm-2 1-.447-.895-.798.399.305.838.94-.342ZM185 116.5l.372.929.9-.36-.332-.911-.94.342Zm-10 4-.975.221.259 1.143 1.088-.435-.372-.929Zm-4.081-18.019.975-.221-.25-1.104-1.064.384.339.941Zm-25.889 9.347-.339-.941-.892.322.274.907.957-.288Zm-15.085 39.154-.379-.926.379.926Zm-39.918-20.924-.925.379.925-.379Zm13.749-42.921-.379-.926.379.926Zm36.531 14.39-.843.539.431.673.752-.271-.34-.941Zm-14.964 38.228-.379-.925.379.925Zm7.58-27.28.925-.379-.925.379Zm-32.125 13.168-.926.379.926-.379Zm7.579-27.28-.379-.925.379.925Zm82.482-3.082-3.834-10.62-1.882.679 3.835 10.62 1.881-.678Zm-4.991 2.866 4.39-1.585-.679-1.881-4.39 1.585.679 1.88Zm8.516 13.656-7.972-15.065-1.767.936 7.971 15.064 1.768-.935Zm-6.47 4.107 6-2.729-.828-1.821-6 2.73.828 1.82Zm-6.745-13.499 5.408 12.974 1.846-.77-5.408-12.973-1.846.769Zm-.63 1.51 2-1-.894-1.789-2 1 .894 1.789Zm5.401 12.237-4.908-13.474-1.88.685 4.909 13.473 1.879-.684Zm-10.568 5.271 10-4-.743-1.857-10 4 .743 1.857Zm-5.428-18.727 4.081 18.019 1.951-.442-4.082-18.019-1.95.442Zm-24.574 10.066 25.889-9.347-.679-1.881-25.889 9.347.679 1.881Zm-15.046 39.139c14.375-5.892 20.742-23.499 15.664-40.368l-1.915.577c4.869 16.173-1.343 32.545-14.507 37.94l.758 1.851Zm-41.222-21.47c7.371 17.984 25.747 27.813 41.222 21.47l-.758-1.851c-14.165 5.806-31.532-3.101-38.614-20.377l-1.85.758Zm14.295-44.226c-15.475 6.343-21.667 26.242-14.295 44.226l1.85-.758c-7.081-17.277-.962-35.811 13.203-41.617l-.758-1.85Zm37.752 14.777c-8.691-13.593-24.326-20.28-37.752-14.777l.758 1.851c12.301-5.042 26.991.995 35.309 14.004l1.685-1.078Zm44.595-16.929-45.777 16.528.68 1.881 45.777-16.527-.68-1.882Zm-60.022 56.622c9.587-3.93 12.925-16.876 8.126-28.585l-1.851.759c4.571 11.151 1.122 22.632-7.033 25.975l.758 1.851Zm-25.85-14.659c4.8 11.71 16.264 18.588 25.85 14.659l-.758-1.851c-8.156 3.343-18.671-2.415-23.241-13.566l-1.85.758Zm8.126-28.584c-9.587 3.929-12.925 16.875-8.126 28.584l1.851-.758c-4.57-11.151-1.122-22.633 7.033-25.976l-.758-1.85Zm25.85 14.658c-4.799-11.709-16.263-18.588-25.85-14.658l.758 1.85c8.156-3.343 18.671 2.416 23.241 13.567l1.851-.759Z" mask="url(#c)"/><path fill="var(--unique-white)" stroke="var(--unique-black)" stroke-linecap="round" stroke-linejoin="round" stroke-miterlimit="10" d="M147.114 102.995c-1.784-.339-.949-5.627-.706-8.615L153 93c-.76.228-4.563 10.247-5.886 9.995Z"/><path fill="var(--unique-black)" stroke="var(--unique-black)" stroke-linecap="round" stroke-linejoin="round" stroke-miterlimit="10" d="M140.134 72.445c-8.709-3.616-18.156-3.395-27.382-2.583l.664 11.292c6.938-.738 14.171-1.18 20.74 1.108 5.831 1.992 11.514 6.568 12.326 12.99h.074c3.69-.886 7.38-1.772 10.997-2.584-1.772-9.226-8.783-16.68-17.419-20.223Z"/><path fill="var(--unique-white)" stroke="var(--unique-black)" stroke-linecap="round" stroke-linejoin="round" stroke-miterlimit="10" d="M97.105 64.179s1.476 2.51 3.985 1.476l7.898 7.012c1.181-1.181 2.362-2.362 3.469-3.543l-7.971-7.086c.221-1.107-.074-2.435-1.034-3.985-2.214-3.47-6.79-1.329-7.38 1.55-.665 2.804-.074 4.502-.074 4.502l1.107.074Z"/><path fill="var(--unique-black)" d="M95.112 58.643c.738 1.624 4.65 1.624 5.904 1.181 1.845-.664 2.362 1.107.886 1.624-.738.221 1.55 1.033 1.993.96.221 0 .369-.074.516-.148.296-1.18-.369-2.288-1.033-4.133-.738-2.214-6.421-2.731-6.347-1.403-1.772-.516-2.436.37-1.92 1.92Z"/><path fill="var(--unique-black)" d="M99.614 56.946c-.96-.517-2.436.59-1.919 1.919.664 1.624.443 3.321-.369 4.797-.37.222-.59.59-.664 1.108-.148 2.804 3.395 3.469 4.871 1.402.664-1.033.738-2.288.517-3.395-.296-1.624-.812-3.174-1.181-4.724-.148-.738-.665-1.107-1.255-1.107Z"/><path fill="var(--unique-black)" stroke="var(--unique-black)" stroke-linecap="round" stroke-linejoin="round" stroke-miterlimit="10" d="m176.447 140.717 14.023 1.033-2.435 19.043s-5.462-.591-5.388-5.979l-7.233-1.55 1.033-12.547Z"/><path stroke="var(--unique-white)" stroke-linecap="round" stroke-linejoin="round" stroke-miterlimit="10" d="m182.647 154.814 1.034-2.288M180.654 154.224l1.033-2.288"/><path fill="var(--unique-black)" stroke="var(--unique-black)" stroke-linecap="round" stroke-linejoin="round" stroke-miterlimit="10" d="m104.264 173.487 2.731 13.802-18.969 2.731s-.885-5.388 4.281-6.79l-.517-7.381 12.474-2.362Z"/><path fill="var(--brand-sapphire-60)" stroke="var(--unique-black)" stroke-linecap="round" stroke-linejoin="round" stroke-miterlimit="10" d="M105.592 175.627c-5.462-25.611.812-62.145 17.271-82.59 2.288-2.878 2.804-6.864 0-9.742-2.436-2.436-7.381-2.879-9.743 0-19.264 24.061-27.16 58.75-21.994 93.882 4.65-.442 9.964-.738 14.466-1.55Z"/><path fill="var(--unique-white)" stroke="var(--unique-black)" stroke-linecap="round" stroke-linejoin="round" stroke-miterlimit="10" d="M179.547 140.274c-25.094-1.476-41.775-32.106-50.779-54.543-1.402-3.47-4.576-5.831-8.488-4.798-3.247.886-6.2 5.02-4.797 8.488 6.347 15.795 12.842 31.885 24.282 44.727 9.669 10.85 23.176 19.485 37.789 20.445.591-4.65 1.255-9.817 1.993-14.319Z"/><path stroke="var(--unique-white)" stroke-linecap="round" stroke-linejoin="round" stroke-miterlimit="10" d="m92.38 183.23 2.51.369M92.233 180.72l2.51.369"/><path fill="var(--unique-black)" d="M109.874 69.42c-10.481 4.797-8.562 8.487-4.503 25.241l24.504-9.373c-3.1-4.502-6.716-21.921-20.001-15.869Z"/><path fill="var(--unique-white)" stroke="var(--unique-black)" stroke-linecap="round" stroke-linejoin="round" stroke-miterlimit="10" d="M84.063 83 66 94.482l14.056 22.112 18.063-11.483L84.063 83Z"/><path stroke="var(--unique-black)" stroke-linecap="round" stroke-linejoin="round" stroke-miterlimit="10" d="m77 111.455 9.824-6.214M74.379 99.647l9.823-6.213"/><path fill="var(--unique-white)" d="M85.16 98.294c.485-.313 1.061-.674 1.546-.987Z"/><path stroke="var(--unique-black)" stroke-linecap="round" stroke-linejoin="round" stroke-miterlimit="10" d="M85.16 98.294c.485-.313 1.061-.674 1.546-.987"/><path fill="var(--unique-white)" d="M76.881 103.52c1.937-1.251 3.851-2.432 5.788-3.684Z"/><path stroke="var(--unique-black)" stroke-linecap="round" stroke-linejoin="round" stroke-miterlimit="10" d="M76.881 103.52c1.937-1.251 3.851-2.432 5.788-3.684"/><path fill="var(--unique-black)" stroke="var(--unique-black)" stroke-linecap="round" stroke-linejoin="round" stroke-miterlimit="10" d="M111.202 76.652c-1.919 7.897-3.838 16.68-9.005 23.175-3.838 4.798-10.112 8.636-16.385 7.234v.073c-.443 3.765-.886 7.529-1.329 11.219 9.3 1.476 18.6-2.657 24.947-9.595 7.307-8.045 10.259-18.82 12.769-29.154 1.697-7.085-9.3-10.111-10.997-2.952Z"/><path fill="var(--unique-white)" d="M85.738 107.06c-2.73-.738-5.83-2.878-6.716-1.476-.886 1.403 5.093 3.469 1.033 3.691-4.06.221-4.945-.812-5.61.295-.885 1.624 4.872 2.362 4.872 2.362s-5.166-.812-5.314.516c-.148 1.329 5.166 2.288 5.166 2.288s-5.092-1.033-4.797.296c.295 1.328 5.905 2.583 10.038 3.247"/><path stroke="var(--unique-black)" stroke-linecap="round" stroke-linejoin="round" stroke-miterlimit="10" d="M85.738 107.06c-2.73-.738-5.83-2.878-6.716-1.476-.886 1.403 5.093 3.469 1.033 3.691-4.06.221-4.945-.812-5.61.295-.885 1.624 4.872 2.362 4.872 2.362s-5.166-.812-5.314.516c-.148 1.329 5.166 2.288 5.166 2.288s-5.092-1.033-4.797.296c.295 1.328 5.905 2.583 10.038 3.247"/><path stroke="var(--unique-white)" stroke-linecap="round" stroke-linejoin="round" stroke-miterlimit="10" d="M108.988 75.84C107.364 79.458 108.5 91.5 102 98.5M120.354 80.786c0 4.207-.295 6.42-.295 6.42M119.911 70.305c2.214 1.919 6.864 10.48 6.864 10.48"/><path stroke="var(--steel-90)" d="M104.634 20.773c5.706-2.084 12.022.853 14.106 6.56 2.084 5.706-.853 12.021-6.559 14.105l-26.3 9.606c-5.707 2.084-12.023-.852-14.107-6.559-2.084-5.706.852-12.022 6.559-14.106"/><rect width="37.629" height="15.997" x="110.732" y="27.563" stroke="var(--steel-90)" rx="7.998" transform="rotate(7.793 110.732 27.563)"/><rect width="37.629" height="15.997" x="123.623" y="44.532" stroke="var(--steel-90)" rx="7.998" transform="rotate(-16.853 123.623 44.532)"/><path fill="var(--brand-sapphire-10)" d="m49.267 181.55-12.392 8.402-12.897-19.02 12.393-8.403z"/><path stroke="var(--steel-90)" stroke-linecap="round" stroke-linejoin="round" stroke-miterlimit="10" d="m51.01 180.951 4.39-5.658-22.825-17.681-4.39 5.659 22.826 17.68ZM43.654 187.611l-2.352-2.236"/><path stroke="var(--unique-black)" stroke-linecap="round" d="M23.5 61.5 93 70M46 21.5l4-3"/><path stroke="var(--steel-90)" stroke-linecap="round" d="m162 23.897 6.147-1.647M154.308 24.644l8.147-5.112"/><path fill="var(--unique-white)" stroke="var(--unique-black)" stroke-linecap="round" stroke-linejoin="round" stroke-miterlimit="10" d="m75.449 133.911-25.482 12.657 9.585 19.308 25.482-12.657-9.585-19.308Z"/><path stroke="var(--unique-black)" stroke-linecap="round" stroke-linejoin="round" stroke-miterlimit="10" d="m57.256 149 5.484 11.018M62.251 150.011l4.226 8.226"/><path stroke="var(--unique-black)" stroke-linecap="round" d="m168 103 8-3"/></svg>
