<svg xmlns="http://www.w3.org/2000/svg" width="300" height="200" fill="none"><path fill="var(--unique-white)" stroke="var(--unique-black)" stroke-linecap="round" stroke-linejoin="round" stroke-miterlimit="10" d="M264.048 51.975 240.203 82.62l25.06 19.376 23.844-30.644-25.059-19.376Z"/><path stroke="var(--unique-black)" stroke-linecap="round" stroke-linejoin="round" stroke-miterlimit="10" d="m253.154 79.486 12.293-15.853M269.224 69.186c.394-.558.857-1.102 1.251-1.659M258.183 83.375l7.71-9.911M263.211 87.267l12.293-15.853"/><path fill="var(--unique-white)" stroke="var(--unique-black)" stroke-linecap="round" stroke-linejoin="round" stroke-miterlimit="10" d="M80.863 31.82 45.914 66.714l25.97 25.852 34.948-34.894-25.97-25.852Z"/><path fill="var(--brand-sapphire-10)" d="M86.377 68.831 70.432 84.844l-4.5-20.627 20.445 4.614Z"/><path fill="var(--unique-white)" stroke="var(--unique-black)" stroke-linecap="round" stroke-linejoin="round" stroke-miterlimit="10" d="M89.76 65.459 78.94 76.345 75.866 62.32l13.893 3.139Z"/><circle cx="79.02" cy="47.051" r="3.792" fill="var(--unique-white)" stroke="var(--unique-black)" stroke-linecap="round" stroke-linejoin="round" stroke-miterlimit="10" transform="rotate(-64.731 79.02 47.051)"/><path stroke="var(--steel-90)" stroke-linecap="round" stroke-linejoin="round" stroke-miterlimit="10" d="m57.097 24.647-17.383.182M58.051 29.29l-6.738 2.06"/><circle cx="29.536" cy="56.033" r="9.604" stroke="var(--steel-90)" stroke-linecap="round" stroke-linejoin="round" stroke-miterlimit="10" transform="rotate(-64.731 29.536 56.033)"/><path stroke="var(--steel-90)" stroke-linecap="round" stroke-linejoin="round" stroke-miterlimit="10" d="M46.651 52.985a6.86 6.86 0 1 0-4.25 3.648"/><circle cx="60.882" cy="39.98" r="3.659" stroke="var(--steel-90)" stroke-linecap="round" stroke-linejoin="round" stroke-miterlimit="10" transform="rotate(-64.731 60.882 39.98)"/><path fill="var(--brand-sapphire-10)" d="M225.945 85.435h-62.11v52.5h62.11v-52.5Z"/><path fill="var(--unique-white)" stroke="var(--unique-black)" stroke-miterlimit="10" d="M147.903 33.391h115.978v104.544H147.903"/><path fill="var(--brand-sapphire-10)" d="M122.936 74.513h83.486v84.146h-83.486"/><path stroke="var(--unique-black)" stroke-linecap="round" stroke-linejoin="round" stroke-miterlimit="10" d="M167.905 47.073h55.962M167.905 55.944h55.962"/><path fill="var(--unique-white)" d="M214.32 64.908h9.457Z"/><path stroke="var(--unique-black)" stroke-linecap="round" stroke-linejoin="round" stroke-miterlimit="10" d="M214.32 64.908h9.457"/><path fill="var(--unique-white)" d="M167.905 64.908h41.235Z"/><path stroke="var(--unique-black)" stroke-linecap="round" stroke-linejoin="round" stroke-miterlimit="10" d="M167.905 64.908h41.235"/><path fill="var(--unique-white)" stroke="var(--unique-black)" stroke-linecap="round" stroke-linejoin="round" stroke-miterlimit="10" d="m37.032 116.533-18.349 27.561 22.324 14.777 18.349-27.56-22.324-14.778Z"/><path stroke="var(--unique-black)" stroke-linecap="round" stroke-linejoin="round" stroke-miterlimit="10" d="m34.036 129.203 3.835-5.816M35.996 130.52l3.835-5.816M46.1 132.54a1.503 1.503 0 0 0 .322-2.106 1.515 1.515 0 0 0-2.113-.322 1.503 1.503 0 0 0-.321 2.106c.495.671 1.44.815 2.112.322ZM40.106 153.074l-2.194-8.366 3.15-.042-2.13-11.359"/><mask id="a" fill="var(--unique-white)"><path d="m37.755 134.172 1.006-1.871 1.768.858-2.774 1.013Z"/></mask><path fill="var(--unique-black)" stroke="var(--unique-black)" stroke-width="2" d="m37.755 134.172 1.006-1.871 1.768.858-2.774 1.013Z" mask="url(#a)"/><path fill="var(--unique-white)" d="M161.206 148.911c12.202 5.213 15.964 8.323 14.037 16.554Z"/><path stroke="var(--unique-black)" stroke-linecap="round" stroke-linejoin="round" stroke-miterlimit="10" d="M161.206 148.911c12.202 5.213 15.964 8.323 14.037 16.554"/><path fill="var(--unique-white)" stroke="var(--unique-black)" stroke-linecap="round" stroke-linejoin="round" stroke-miterlimit="10" d="M158.362 142.507c1.193-.915 2.294-1.829 3.486-2.652l-2.018-3.75a2.22 2.22 0 0 0-2.936-.915 2.207 2.207 0 0 0-.917 2.927l2.385 4.39Z"/><path stroke="var(--unique-black)" stroke-miterlimit="10" d="M152.95 175.527c-7.527.104-15.507.039-23.625.288m97.836-83.251c-.297 5.158-.159 11.752-4.339 15.996"/><path fill="var(--unique-black)" stroke="var(--unique-black)" stroke-linecap="round" stroke-linejoin="round" stroke-miterlimit="10" d="m178.547 173.331-.092 2.287-1.927-1.281c-1.192-.732-2.11-1.829-2.752-3.018l-16.881-31.372 3.762-2.012 16.789 31.372c.734 1.189 1.101 2.561 1.101 4.024Z"/><path fill="var(--unique-black)" d="M152.124 125.769c-.917-.915-1.743-1.464 0 0Z"/><path fill="var(--unique-white)" d="M147 142c15.321-1.372 33.105 28.038 29.619 30.142-3.486 2.104-6.619-5.642-6.619-5.642"/><path stroke="var(--unique-black)" stroke-linecap="round" stroke-linejoin="round" stroke-miterlimit="10" d="M147 142c15.321-1.372 33.105 28.038 29.619 30.142-3.486 2.104-6.619-5.642-6.619-5.642"/><path fill="var(--unique-white)" d="m148.01 142.655-15.731-.492c-1.31 4.589-5.006 15.407-2.903 33.286l23.446-.342 15.264 1.219v-12.04l-20.076-21.631Z"/><path fill="var(--unique-white)" d="M168 162.5c3.945 5.305 4.771 13.177 0 14Z"/><path stroke="var(--unique-black)" stroke-linecap="round" stroke-linejoin="round" stroke-miterlimit="10" d="M168 162.5c3.945 5.305 4.771 13.177 0 14"/><path fill="var(--unique-white)" d="M165.06 168.666c2.844 4.939 5.963 11.25-3.119 10.884-9.083-.366-9.174-4.024-9.174-4.024"/><path stroke="var(--unique-black)" stroke-linecap="round" stroke-linejoin="round" stroke-miterlimit="10" d="M165.06 168.666c2.844 4.939 5.963 11.25-3.119 10.884-9.083-.366-9.174-4.024-9.174-4.024M152.856 175.434l5.046.549M162.672 163.545v1.92M166.801 159.245l.55 2.195"/><mask id="b" fill="var(--unique-white)"><path d="M222.949 107.752c-1.927 2.195-4.771 3.933-9.175 4.756-13.578 2.47-29.174-15.091-31.101-16.555-12.201-9.329-25.045-16.92-40.091-20.762-26.881-6.86-59.542-3.475-80.734 15.915-20.092 18.292-25.505 45.274-7.156 65.305 18.257 19.939 47.523 20.67 75.137 19.847-1.284-11.799-.825-23.597 3.028-34.573-20.459-.64-50.663-5.542-43.507-20.999 3.486-7.591 16.443-7.263 23.507-7.812 12.936-1.006 25.596 2.47 36.514 9.146 19.633 12.165 34.862 29.36 59.724 29.635 19.909.274 36.147-12.074 42.019-29.635-10.918-2.195-21.56-5.853-28.165-14.268Z"/></mask><path fill="var(--brand-sapphire-60)" stroke="var(--unique-black)" stroke-width="2" d="M222.949 107.752c-1.927 2.195-4.771 3.933-9.175 4.756-13.578 2.47-29.174-15.091-31.101-16.555-12.201-9.329-25.045-16.92-40.091-20.762-26.881-6.86-59.542-3.475-80.734 15.915-20.092 18.292-25.505 45.274-7.156 65.305 18.257 19.939 47.523 20.67 75.137 19.847-1.284-11.799-.825-23.597 3.028-34.573-20.459-.64-50.663-5.542-43.507-20.999 3.486-7.591 16.443-7.263 23.507-7.812 12.936-1.006 25.596 2.47 36.514 9.146 19.633 12.165 34.862 29.36 59.724 29.635 19.909.274 36.147-12.074 42.019-29.635-10.918-2.195-21.56-5.853-28.165-14.268Z" mask="url(#b)"/><path fill="var(--unique-white)" stroke="var(--unique-black)" stroke-linecap="round" stroke-linejoin="round" stroke-miterlimit="10" d="M166.582 85.426c-5.229 32.012-18.68 56.716-18.68 56.716-30.884 0-52.927-2.464-58.799-12.983-7.064-12.713 1.33-53.388 1.33-53.388s15.571-5.49 36.65-3.03c21.079 2.462 39.499 12.685 39.499 12.685Z"/><path stroke="var(--unique-black)" d="m155.592 85.37-19.477 56.81M130.627 86.753l-19.383 53.337M112.66 71.936l-22.335 59.719M104.048 72.926l58.823 28.646M101.394 93.915l55.186 26.532M92.546 111.434l56.778 27.297M75.675 121.212l50.513 24.285"/><mask id="c" fill="var(--unique-white)"><path d="M54.654 156.538c-18.348-20.031-15.96-45.687 4.132-63.98 9.367-8.57 20.817-14.402 31.685-16.845 10.867-2.442 22.176 11.278 18.666 21.339-3.511 10.06-13.64 10.702-19.825 23.761-6.184 13.06 23.049 20.359 43.507 20.999-3.853 10.976-4.312 22.775-3.027 34.574-27.615.823-56.88.091-75.138-19.848Z"/></mask><path fill="var(--brand-sapphire-60)" stroke="var(--unique-black)" stroke-width="2" d="M54.654 156.538c-18.348-20.031-15.96-45.687 4.132-63.98 9.367-8.57 20.817-14.402 31.685-16.845 10.867-2.442 22.176 11.278 18.666 21.339-3.511 10.06-13.64 10.702-19.825 23.761-6.184 13.06 23.049 20.359 43.507 20.999-3.853 10.976-4.312 22.775-3.027 34.574-27.615.823-56.88.091-75.138-19.848Z" mask="url(#c)"/><path fill="var(--unique-white)" d="M127.994 72.72c-8.623-2.012-10.642 4.482-9.816 7.226.826 2.744 3.119 4.482 10.642 4.116"/><path stroke="var(--unique-black)" stroke-linecap="round" stroke-linejoin="round" stroke-miterlimit="10" d="M127.994 72.72c-8.623-2.012-10.642 4.482-9.816 7.226.826 2.744 3.119 4.482 10.642 4.116"/><path fill="var(--unique-white)" d="M154.692 72.72c8.899-2.012 11.009 4.482 10.183 7.226-.917 2.744-3.211 4.482-11.009 4.116"/><path stroke="var(--unique-black)" stroke-linecap="round" stroke-linejoin="round" stroke-miterlimit="10" d="M154.692 72.72c8.899-2.012 11.009 4.482 10.183 7.226-.917 2.744-3.211 4.482-11.009 4.116"/><path fill="var(--unique-white)" stroke="var(--unique-black)" stroke-linecap="round" stroke-linejoin="round" stroke-miterlimit="10" d="M126.303 65.94c-.826 2.104-1.703 6.506-1.703 8.884 0 9.695 7.706 18.476 17.431 18.476 9.725 0 17.89-8.689 17.89-18.476 0-2.378-.132-6.78-1.05-8.883h-32.568Z"/><path fill="var(--unique-white)" d="M142.556 77.256s1.206 7.08.655 9.733l-4.679-1.098"/><path stroke="var(--unique-black)" stroke-linecap="round" stroke-linejoin="round" stroke-miterlimit="10" d="M142.556 77.256s1.206 7.08.655 9.733l-4.679-1.098"/><path fill="var(--unique-black)" d="M130.925 66.07c3.58-.547 20.468-.52 24.187-.216 0 0 2.072 3.624 6.589 5.31-1.198-9.003-9.062-16.556-18.545-16.9-9.991-.36-17.856 4.79-18.83 17.601 6.233-6.527 6.599-5.795 6.599-5.795Z"/><path stroke="var(--unique-black)" d="M126.52 72.117h-2.301M159.675 72.117h-2.301"/><path stroke="var(--steel-90)" stroke-linecap="round" stroke-linejoin="round" stroke-miterlimit="10" d="m13.934 148.562-2.113 3.923M105.374 33.519l-3.67 1.646M27.087 90.519l.962 3.895M39.909 92.348l-5.409 4.65M191.204 20.678l-3.67 4.482"/><path stroke="var(--unique-black)" stroke-linecap="round" stroke-linejoin="round" stroke-miterlimit="10" d="m210.561 98.513 2.385 4.116"/><path stroke="var(--steel-90)" stroke-linecap="round" stroke-linejoin="round" stroke-miterlimit="10" d="m192.66 87.317-4.128 2.744M248.727 154.672l-4.496 4.116M9.343 140.819l-2.92-.878"/><path stroke="var(--unique-black)" d="M139.024 72.288s3.202-1.168 5.381 0"/><mask id="d" fill="var(--unique-white)"><path d="M143.723 71.787c.023-.65.444-1.205 1.023-1.5 1.24-.63 3.615-1.657 6.12-1.772 2.446-.112 5.36.067 6.724 2.101.304.454.52.95.58 1.459.107.895-.447 3.089-1.041 5.1-.735 2.486-2.916 4.233-5.486 4.564-3.915.504-7.45-2.393-7.707-6.332-.123-1.89-.219-3.452-.213-3.62Z"/></mask><path fill="var(--unique-black)" stroke="var(--unique-black)" stroke-width="2" d="M143.723 71.787c.023-.65.444-1.205 1.023-1.5 1.24-.63 3.615-1.657 6.12-1.772 2.446-.112 5.36.067 6.724 2.101.304.454.52.95.58 1.459.107.895-.447 3.089-1.041 5.1-.735 2.486-2.916 4.233-5.486 4.564-3.915.504-7.45-2.393-7.707-6.332-.123-1.89-.219-3.452-.213-3.62Z" mask="url(#d)"/><mask id="e" fill="var(--unique-white)"><path d="M126.747 71.109c.085-.645.557-1.157 1.161-1.396 1.294-.511 3.756-1.31 6.26-1.188 2.446.118 5.331.57 6.495 2.724.26.48.429.994.44 1.506.021.902-.737 3.034-1.52 4.98-.966 2.405-3.303 3.94-5.893 4.027-3.945.133-7.19-3.084-7.073-7.03.057-1.893.109-3.456.13-3.623Z"/></mask><path fill="var(--unique-black)" stroke="var(--unique-black)" stroke-width="2" d="M126.747 71.109c.085-.645.557-1.157 1.161-1.396 1.294-.511 3.756-1.31 6.26-1.188 2.446.118 5.331.57 6.495 2.724.26.48.429.994.44 1.506.021.902-.737 3.034-1.52 4.98-.966 2.405-3.303 3.94-5.893 4.027-3.945.133-7.19-3.084-7.073-7.03.057-1.893.109-3.456.13-3.623Z" mask="url(#e)"/><path fill="var(--unique-black)" stroke="var(--steel-90)" stroke-linecap="round" stroke-linejoin="round" stroke-miterlimit="10" d="M272.805 174.692h-32.806c10.757.177 21.811.177 32.806.118v-.118Z"/><path fill="var(--unique-black)" d="M230.074 174.692h5.944Z"/><path stroke="var(--steel-90)" stroke-linecap="round" stroke-linejoin="round" stroke-miterlimit="10" d="M230.074 174.692h5.944"/><path fill="var(--unique-black)" d="M230.074 180.38c13.551-.178 26.626-.178 40.235 0Z"/><path stroke="var(--steel-90)" stroke-linecap="round" stroke-linejoin="round" stroke-miterlimit="10" d="M230.074 180.38c13.551-.178 26.626-.178 40.235 0"/><path fill="var(--unique-black)" stroke="var(--unique-black)" stroke-linecap="round" stroke-linejoin="round" stroke-miterlimit="10" d="M225.795 176.054c.755 0 1.367-.61 1.367-1.363 0-.752-.612-1.362-1.367-1.362s-1.367.61-1.367 1.362c0 .753.612 1.363 1.367 1.363Z"/><path stroke="var(--steel-90)" stroke-linecap="round" stroke-linejoin="round" stroke-miterlimit="10" d="m277.798 162.208-2.674 1.245"/><path fill="var(--unique-black)" d="m234.515 84.214.324-.38a.49.49 0 0 0-.08-.056l-.244.436Zm4.1 8.52a.501.501 0 0 0 .998-.07l-.998.07Zm-10.957-.108c-.157-1.304-.66-2.844-1.253-4.432-.299-.798-.624-1.62-.947-2.438a99.514 99.514 0 0 1-.937-2.44c-.587-1.61-1.044-3.113-1.175-4.376-.133-1.271.076-2.178.667-2.74l-.689-.726c-.928.883-1.117 2.185-.973 3.57.145 1.392.639 2.992 1.231 4.614.297.814.622 1.644.945 2.464.325.822.647 1.634.941 2.421.592 1.585 1.056 3.028 1.197 4.202l.993-.12Zm-3.645-16.427c.321-.305.599-.424.842-.45.246-.025.522.038.846.22.674.378 1.413 1.177 2.274 2.238.836 1.03 1.776 2.29 2.797 3.443 1.028 1.158 2.182 2.26 3.498 3l.489-.872c-1.174-.66-2.24-1.666-3.239-2.791-1.004-1.133-1.894-2.333-2.768-3.41-.848-1.044-1.697-1.995-2.563-2.48-.446-.25-.929-.395-1.438-.342-.513.054-.988.302-1.427.72l.689.724Zm10.177 8.395a12.978 12.978 0 0 1 3.751 5.396c.298.804.467 1.498.562 1.988a9.534 9.534 0 0 1 .108.714.318.318 0 0 1 .003.035l.001.007v.001l.499-.035.499-.036-.001-.002v-.004l-.001-.014-.004-.048a9.073 9.073 0 0 0-.122-.806 13.681 13.681 0 0 0-.606-2.147 13.983 13.983 0 0 0-4.04-5.81l-.649.76Z"/><path stroke="var(--unique-black)" stroke-linecap="round" stroke-linejoin="round" stroke-miterlimit="10" d="M234.415 83.888c-.424-9.28-.431-27.648 3.744-27.648 4.174 0 3.126 10.04 3.126 14.614 0 0 5.504-2.744 7.339.914 0 0 5.505-1.372 6.422 3.659 8.257-2.744 3.49 15.825 3.49 15.825-.742 4.916-7.686 31.641-7.686 31.641"/><path stroke="var(--unique-black)" d="M240.833 70.854s-5.737 11.395-1.417 12.28c4.319.884 8.725-11.743 8.725-11.743"/><path stroke="var(--unique-black)" d="M248.15 71.769s-5.737 11.394-1.418 12.279c4.32.884 7.536-8.62 7.536-8.62"/><path stroke="var(--unique-black)" d="M254.268 75.427s-4.279 8.424-.457 9.147c3.822.722 5.03-6.403 5.03-6.403"/><path stroke="var(--steel-90)" stroke-linecap="round" stroke-linejoin="round" stroke-miterlimit="10" d="M14.22 122.988c2.787 0 5.046-2.252 5.046-5.03 0-2.779-2.259-5.031-5.046-5.031-2.786 0-5.045 2.252-5.045 5.031 0 2.778 2.259 5.03 5.045 5.03Z"/><path fill="var(--unique-black)" d="M21.56 168.72a3.206 3.206 0 0 0 3.21-3.201 3.207 3.207 0 0 0-3.21-3.202 3.207 3.207 0 0 0-3.212 3.202 3.206 3.206 0 0 0 3.211 3.201Z"/></svg>
