<svg xmlns="http://www.w3.org/2000/svg" width="300" height="200" fill="none"><path stroke="var(--steel-90)" stroke-linecap="round" stroke-linejoin="round" stroke-miterlimit="10" d="M85.133 16.794 71.185 7.982M83.478 20.602l-6.38-1.363M87.525 12.322l-3.973-5.176M155.59 166.385l10.993-10.243M157.281 172.468l7.548-1.866"/><ellipse cx="3.462" cy="3.454" stroke="var(--steel-90)" stroke-linecap="round" stroke-linejoin="round" stroke-miterlimit="10" rx="3.462" ry="3.454" transform="matrix(-.97419 -.22575 -.22691 .97391 252.201 19.326)"/><path stroke="var(--steel-90)" stroke-linecap="round" stroke-linejoin="round" stroke-miterlimit="10" d="m248.045 149.453 4.809-10.196 10.224 4.797-4.81 10.196-10.223-4.797Z"/><path fill="var(--unique-black)" stroke="var(--unique-black)" stroke-linecap="round" stroke-linejoin="round" stroke-miterlimit="10" stroke-width=".722" d="m238.538 162.626 1.615-3.423 3.432 1.61-1.614 3.423-3.433-1.61Z"/><path fill="var(--unique-black)" d="m116.582 174.474-1.978 14.465h24.724s1.648-6.164-4.615-7.561l.329-6.904h-18.46Z"/><path stroke="var(--unique-white)" stroke-linecap="round" stroke-linejoin="round" stroke-miterlimit="10" d="m133.641 178.83-3.791 3.781M133.641 182.611l-3.791-3.781"/><path fill="var(--unique-black)" d="m59.55 174.474-3.708 14.465h25.63s2.638-5.835-4.285-7.15l1.484-7.315H59.55Z"/><path fill="var(--brand-sapphire-60)" stroke="var(--unique-black)" stroke-linecap="round" stroke-linejoin="round" stroke-miterlimit="10" d="M78.917 175.706A471.546 471.546 0 0 0 92.68 82.833c4.368 4.602 7.417 10.602 10.219 16.109 4.533 8.876 7.912 18.328 10.302 28.026 3.955 15.945 4.862 32.547 2.802 48.82h19.366c2.061-18.492.825-37.231-3.873-55.313-2.884-11.26-7.17-22.19-12.609-32.464-5.439-10.356-12.197-21.04-22.993-26.63-3.132-1.643-6.923-1.561-9.807.083-5.44-1.316-12.197 1.726-12.362 9.04-.742 35.67-5.769 70.929-14.917 105.367h20.109v-.165Z"/><path stroke="var(--unique-white)" stroke-linecap="round" stroke-linejoin="round" stroke-miterlimit="10" d="m76.611 178.83-3.79 3.781M76.611 182.611l-3.79-3.781"/><path fill="var(--unique-white)" stroke="var(--unique-black)" stroke-linecap="round" stroke-linejoin="round" stroke-miterlimit="10" d="M101.915 23.409c0 .082 0 3.287-3.215 4.109l-3.378 9.78-6.923-2.054 4.203-8.137c-.66.082-2.555.329-3.05-.575-.659-1.069.165-2.466 1.814-3.041-.083-.493-.165-.986-.248-1.562-.33-4.849 5.605-6 8.16-3.698 2.637 2.219 2.637 5.178 2.637 5.178Z"/><path fill="var(--unique-black)" d="M98.785 17.822c-2.802-1.644-7.911-.411-7.582 4.11v.246c0 .082-.082.164-.082.246 0 .576.165 2.22 1.071 2.055.412-.082.495-.493.577-.904.082-.329.082-.74.082-1.069 2.226-1.232 5.852-3.37 5.934-4.684Z"/><path stroke="var(--unique-black)" stroke-linecap="round" stroke-linejoin="round" stroke-miterlimit="10" d="m98.699 21.599 1.566 2.465-1.401.494"/><path fill="var(--unique-black)" d="M92.769 22.75c4.697-2.96 10.713-7.89 10.713-7.89s1.566-2.548-5.604 2.876c-7.252 5.425-5.11 5.014-5.11 5.014Z"/><mask id="a" fill="var(--unique-white)"><path d="M75.54 69.272c.577-9.041 2.225-26.136 2.225-26.136l23.351 1.642 7.471 26.713-33.047-2.22Z"/></mask><path fill="var(--unique-white)" stroke="var(--unique-black)" stroke-width="2" d="M75.54 69.272c.577-9.041 2.225-26.136 2.225-26.136l23.351 1.642 7.471 26.713-33.047-2.22Z" mask="url(#a)"/><path stroke="var(--unique-black)" d="M93.152 34.675V70.11"/><path fill="var(--unique-white)" stroke="var(--unique-black)" stroke-linecap="round" stroke-linejoin="round" stroke-miterlimit="10" d="M87.901 33.93c-18.048-.657-35.684 2.384-40.052 19.397C43.646 69.6 58.563 83.408 74.55 79.957c7.829-1.727 4.532-13.726-3.297-12-7.912 1.726-14.587-6.904-10.137-13.973 5.11-8.054 15.415-7.77 23.739-7.77 10.33 0 11.122-11.955 3.045-12.284Z"/><path fill="var(--unique-white)" stroke="var(--unique-black)" d="M87.901 33.931c-9.147-.329-18.295.329-25.547 3.206 1.236 4.027 2.72 7.972 4.285 11.835 5.851-2.96 13.763-2.712 19.779-2.63 8.076.082 9.56-12.082 1.483-12.41Z"/><path fill="var(--unique-white)" d="m78.263 50.323.383-6.26.513-9.389 26.963 2.364-1.922 13.988-25.937-.703Z"/><path fill="var(--unique-white)" stroke="var(--unique-black)" stroke-linecap="round" stroke-linejoin="round" stroke-miterlimit="10" d="M125.73 46.75c-5.604-7.396-14.175-9.862-22.993-10.766.165-1.644-.412-3.041-1.401-4.11-1.154.247-2.308.576-3.462.822-2.472.658-3.708 4.274-6.098 5.178-.33 1.069-5.769 35.177 22.911 32.547 11.537-.904 17.883-14.712 11.043-23.67Zm-16.318 10.685c-3.461-.74-5.604-4.356-6.263-8.383 5.027.246 8.076 1.48 10.713 3.287 4.203 2.713 1.237 6.247-4.45 5.096Z"/><path stroke="var(--unique-black)" d="M62.65 38.014h29.545M65.59 46.363h25.523M92.198 54.818H76.95M95.495 62.778H76.363"/><path fill="var(--unique-white)" stroke="var(--unique-black)" d="M102.817 35.983c.082-.657 0-1.233-.165-1.808-.659 2.384-1.566 4.685-2.308 7.068.083.082.165.165.165.247.165.329.248.74.412 1.068.33.083.577.33.66.658.577 1.808 1.529 3.974 1.694 5.865 3.639.257 6.323.956 9.632 2.536a492.29 492.29 0 0 1 4.909-11.606c-4.45-2.384-9.725-3.453-14.999-4.028Z"/><path fill="var(--unique-white)" d="M91.724 38.192c.577-3.452 1.454-6.892.465-9.604-.99-2.713-.742-3.946 2.472.493 0 0-1.978-3.863-1.154-4.274.907-.411 3.214 3.205 3.214 3.205s-2.555-3.863-1.236-3.945c1.236-.082 2.308 2.63 4.203 3.041 1.896.411 2.39-3.123 3.214-2.301 1.319 1.397.66 7.232-.082 11.178-.33 2.054.659 9.862.329 12.985"/><path stroke="var(--unique-black)" stroke-linecap="round" stroke-linejoin="round" stroke-miterlimit="10" d="M91.724 38.192c.577-3.452 1.454-6.892.465-9.604-.99-2.713-.742-3.946 2.472.493 0 0-1.978-3.863-1.154-4.274.907-.411 3.214 3.205 3.214 3.205s-2.555-3.863-1.236-3.945c1.236-.082 2.308 2.63 4.203 3.041 1.896.411 2.39-3.123 3.214-2.301 1.319 1.397.66 7.232-.082 11.178-.33 2.054.659 9.862.329 12.985"/><path fill="var(--unique-white)" d="M71.008 67.96c3.709-.658 2.555-2.302 5.11-4.274l-.165 2.794s4.285-3.37 5.439-2.301c1.154.986-2.637 4.438-2.637 4.438s3.626-3.616 4.615-2.22c.989 1.398-2.885 5.425-2.885 5.425s3.462-4.602 4.368-2.301c.99 2.301-3.049 9.123-10.63 10.52"/><path stroke="var(--unique-black)" stroke-linecap="round" stroke-linejoin="round" stroke-miterlimit="10" d="M71.008 67.96c3.709-.658 2.555-2.302 5.11-4.274l-.165 2.794s4.285-3.37 5.439-2.301c1.154.986-2.637 4.438-2.637 4.438s3.626-3.616 4.615-2.22c.989 1.398-2.885 5.425-2.885 5.425s3.462-4.602 4.368-2.301c.99 2.301-3.049 9.123-10.63 10.52"/><path fill="var(--unique-white)" d="M102.646 49.723c.011-.593.026-1.86 0-2.184l-1.376-.218-.812 1.996 2.188.406Z"/><path stroke="var(--unique-black)" d="M102.983 38.014h10.166M103.286 46.363h11.719M74.787 34.338v12.166M107.747 36.67v13.052M83.748 33.849v34.84M102.662 68.934v1.63"/><circle cx="247.35" cy="41.94" r="11.441" fill="var(--brand-sapphire-10)"/><circle cx="261.079" cy="70.925" r="5.339" fill="var(--brand-sapphire-60)"/><mask id="b" fill="var(--unique-white)"><path d="m207.535 69.188-.001-14.957c0-10.7-8.675-19.373-19.375-19.373s-19.373 8.675-19.373 19.375l.001 14.956h-10.379l-.001-14.876c0-16.432 13.32-29.754 29.752-29.754s29.753 13.32 29.754 29.752v14.876h-10.378Z"/></mask><path fill="var(--unique-white)" stroke="var(--unique-black)" stroke-width="2" d="m207.535 69.188-.001-14.957c0-10.7-8.675-19.373-19.375-19.373s-19.373 8.675-19.373 19.375l.001 14.956h-10.379l-.001-14.876c0-16.432 13.32-29.754 29.752-29.754s29.753 13.32 29.754 29.752v14.876h-10.378Z" mask="url(#b)"/><path fill="var(--unique-black)" stroke="var(--unique-black)" stroke-linecap="round" stroke-linejoin="round" stroke-miterlimit="10" stroke-width=".588" d="m146.648 71.545 89.259-.002.001 27.273c.001 24.648-19.98 44.63-44.628 44.631v0c-24.648 0-44.63-19.98-44.631-44.628l-.001-27.274Z"/><path fill="var(--unique-white)" stroke="var(--unique-black)" stroke-linecap="round" stroke-linejoin="round" stroke-miterlimit="10" d="m142.746 67.04 89.259-.002.001 27.273c.001 24.648-19.98 44.63-44.628 44.631v0c-24.648.001-44.63-19.98-44.631-44.628l-.001-27.273Z"/><mask id="c" fill="var(--unique-white)"><path fill-rule="evenodd" d="M193.541 96.597a9.116 9.116 0 1 0-10.895 0l-5.378 18.9 21.652-.001-5.379-18.898Z" clip-rule="evenodd"/></mask><path fill="var(--brand-sapphire-60)" fill-rule="evenodd" d="M193.541 96.597a9.116 9.116 0 1 0-10.895 0l-5.378 18.9 21.652-.001-5.379-18.898Z" clip-rule="evenodd"/><path fill="var(--unique-black)" d="m193.541 96.597-.598-.8-.552.411.188.663.962-.273Zm-10.895 0 .961.274.189-.663-.552-.412-.598.801Zm-5.378 18.9-.962-.274-.362 1.274h1.324v-1Zm21.652-.001v1h1.324l-.363-1.274-.961.274Zm-2.71-26.21a8.103 8.103 0 0 1-3.267 6.51l1.196 1.603a10.104 10.104 0 0 0 4.071-8.112h-2Zm-8.117-8.115a8.116 8.116 0 0 1 8.117 8.116h2c0-5.587-4.53-10.116-10.117-10.116v2Zm-8.116 8.116a8.117 8.117 0 0 1 8.116-8.116v-2c-5.587 0-10.116 4.53-10.116 10.116h2Zm3.267 6.509a8.102 8.102 0 0 1-3.267-6.509h-2c0 3.321 1.602 6.269 4.07 8.111l1.197-1.602Zm-5.014 19.975 5.377-18.9-1.923-.548-5.378 18.9 1.924.548Zm20.689-1.275-21.651.001v2l21.652-.001-.001-2Zm-6.34-17.625 5.379 18.899 1.923-.548-5.378-18.898-1.924.547Z" mask="url(#c)"/><path stroke="var(--unique-black)" stroke-linecap="round" d="m144.596 72.951 57.867-.243"/><path stroke="var(--steel-90)" stroke-linecap="round" d="m158.893 37.819 2.968-2.875M260.317 35.76l4.689-1.257M254.449 36.33l6.214-3.9M251.455 98.047l6.102-2.288"/></svg>
