<svg xmlns="http://www.w3.org/2000/svg" width="300" height="200" fill="none"><path fill="var(--unique-white, #ffffff)" stroke="var(--unique-black, #111111)" stroke-linecap="round" stroke-linejoin="round" stroke-miterlimit="10" d="M196.984 19.595H85.59v95.471h111.394v-95.47Z"/><path fill="var(--unique-white, #ffffff)" stroke="var(--unique-black, #111111)" stroke-linecap="round" stroke-linejoin="round" stroke-miterlimit="10" d="M162.203 65.974h-10.846v10.858h10.846V65.974Z"/><path fill="var(--brand-sapphire-10, #d5e8fd)" d="M167.469 59.381h-15.183c-4.493 0-8.134-3.645-8.134-8.143v-2.172c0-4.498 3.641-8.143 8.134-8.143h15.183V59.38ZM138.654 80.788H99.302V62.253h39.352c4.493 0 8.134 3.645 8.134 8.143v2.171c0 4.576-3.641 8.221-8.134 8.221Z"/><path fill="var(--unique-white, #ffffff)" stroke="var(--unique-black, #111111)" stroke-linecap="round" stroke-linejoin="round" stroke-miterlimit="10" d="M114.638 44.646h-10.845v10.858h10.845V44.646ZM143.999 34.1h-38.888c-1.007 0-1.859-.853-1.859-1.861 0-1.009.852-1.862 1.859-1.862h38.888c1.007 0 1.859.853 1.859 1.862 0 1.008-.852 1.86-1.859 1.86ZM138.421 44.646h-10.845v10.858h10.845V44.646ZM162.203 44.646h-10.846v10.858h10.846V44.646ZM184.127 44.646h-10.845v10.858h10.845V44.646ZM114.638 65.974h-10.845v10.858h10.845V65.974ZM138.421 65.974h-10.845v10.858h10.845V65.974Z"/><path stroke="var(--unique-black, #111111)" stroke-linecap="round" stroke-linejoin="round" stroke-miterlimit="10" d="m103.793 44.646 10.923 10.858M127.576 44.646l10.845 10.858M95.97 14.245v10.082M108.905 14.245v10.082M121.842 14.245v10.082M134.779 14.245v10.082M147.715 14.245v10.082M173.59 14.245v10.082M160.652 14.245v10.082M186.45 14.245v10.082"/><path fill="var(--unique-white, #ffffff)" stroke="var(--unique-black, #111111)" stroke-linecap="round" stroke-linejoin="round" stroke-miterlimit="10" d="m171.182 59.555-15.584 16.201 19.807 19.096 15.584-16.201-19.807-19.096Z"/><path stroke="var(--unique-black, #111111)" stroke-linecap="round" stroke-linejoin="round" stroke-miterlimit="10" d="m163.505 77.393 8.484-8.78M166.87 80.64l8.483-8.78"/><path fill="var(--unique-white, #ffffff)" d="M177.531 76.584c.417-.44.916-.952 1.332-1.39Z"/><path stroke="var(--unique-black, #111111)" stroke-linecap="round" stroke-linejoin="round" stroke-miterlimit="10" d="M177.531 76.584c.417-.44.916-.952 1.332-1.39"/><path fill="var(--unique-white, #ffffff)" d="M170.378 83.973c1.666-1.758 3.327-3.438 4.992-5.196Z"/><path stroke="var(--unique-black, #111111)" stroke-linecap="round" stroke-linejoin="round" stroke-miterlimit="10" d="M170.378 83.973c1.666-1.758 3.327-3.438 4.992-5.196"/><path fill="var(--unique-white, #ffffff)" stroke="var(--unique-black, #111111)" stroke-linecap="round" stroke-linejoin="round" stroke-miterlimit="10" d="M196.433 37.977s1.55 2.637 4.183 1.55l8.289 7.368c1.24-1.24 2.479-2.481 3.641-3.722l-8.366-7.446c.232-1.163-.078-2.559-1.085-4.187-2.324-3.646-7.126-1.396-7.746 1.628-.697 2.947-.078 4.731-.078 4.731l1.162.078Z"/><path fill="var(--unique-black, #111111)" d="M194.345 32.16c.774 1.707 4.88 1.707 6.197 1.242 1.937-.698 2.479 1.163.93 1.706-.775.233 1.626 1.086 2.091 1.008.232 0 .387-.077.542-.155.31-1.24-.387-2.404-1.084-4.343-.775-2.327-6.74-2.87-6.662-1.473-1.859-.543-2.556.387-2.014 2.016Z"/><path fill="var(--unique-black, #111111)" d="M199.069 30.377c-1.007-.543-2.556.62-2.014 2.016.697 1.706.465 3.49-.387 5.041-.387.233-.62.62-.697 1.163-.155 2.947 3.563 3.645 5.112 1.474.698-1.086.775-2.404.543-3.568-.31-1.706-.852-3.334-1.24-4.963-.155-.776-.697-1.163-1.317-1.163Z"/><path fill="var(--unique-black, #111111)" stroke="var(--unique-black, #111111)" stroke-linecap="round" stroke-linejoin="round" stroke-miterlimit="10" d="m279.706 118.402 14.718 1.086-2.556 20.009s-5.732-.62-5.655-6.282l-7.591-1.628 1.084-13.185Z"/><path stroke="var(--unique-white, #ffffff)" stroke-linecap="round" stroke-linejoin="round" stroke-miterlimit="10" d="m286.216 133.216 1.085-2.404M284.128 132.595l1.084-2.404"/><path fill="var(--unique-black, #111111)" stroke="var(--unique-black, #111111)" stroke-linecap="round" stroke-linejoin="round" stroke-miterlimit="10" d="m203.948 152.838 2.867 14.502-19.909 2.87s-.93-5.662 4.493-7.135l-.542-7.756 13.091-2.481Z"/><path fill="var(--unique-white, #ffffff)" stroke="var(--unique-black, #111111)" stroke-linecap="round" stroke-linejoin="round" stroke-miterlimit="10" d="M205.342 155.088c-5.732-26.912.852-65.302 18.127-86.785 2.401-3.024 2.943-7.212 0-10.237-2.557-2.56-7.747-3.025-10.226 0-20.218 25.283-28.507 61.734-23.084 98.65 4.88-.465 10.458-.775 15.183-1.628Z"/><path fill="var(--unique-white, #ffffff)" stroke="var(--unique-black, #111111)" stroke-linecap="round" stroke-linejoin="round" stroke-miterlimit="10" d="M282.964 117.938c-26.338-1.551-43.845-33.737-53.296-57.313-1.472-3.645-4.803-6.127-8.908-5.041-3.409.93-6.507 5.273-5.035 8.918 6.662 16.597 13.478 33.504 25.486 46.999 10.147 11.401 24.324 20.475 39.662 21.483.619-4.886 1.317-10.315 2.091-15.046Z"/><path stroke="var(--unique-white, #ffffff)" stroke-linecap="round" stroke-linejoin="round" stroke-miterlimit="10" d="m191.477 163.077 2.633.387M191.323 160.439l2.634.388"/><path fill="var(--brand-sapphire-60, #1952b6)" stroke="var(--unique-black, #111111)" stroke-linecap="round" stroke-linejoin="round" stroke-miterlimit="10" d="M241.598 46.661c-9.141-3.8-19.056-3.567-28.74-2.714l.698 11.866c7.281-.776 14.873-1.241 21.767 1.163 6.12 2.094 12.085 6.903 12.937 13.65h.077c3.874-.93 7.747-1.861 11.543-2.715-1.859-9.694-9.219-17.527-18.282-21.25Z"/><path fill="var(--unique-white, #ffffff)" d="M248.336 70.629c-.232 3.412-.774 6.824.93 7.212 1.704.388 1.627-6.282 3.254-2.326 1.626 3.955.387 5.196 2.246 5.428 1.937.233.62-5.661.62-5.661s1.084 5.429 2.401 5.041c1.317-.388.388-5.972.388-5.972s.852 5.352 2.014 4.653c1.162-.775.464-6.747-.31-11.09"/><path stroke="var(--unique-black, #111111)" stroke-linecap="round" stroke-linejoin="round" stroke-miterlimit="10" d="M248.336 70.629c-.232 3.412-.774 6.824.93 7.212 1.704.388 1.627-6.282 3.254-2.326 1.626 3.955.387 5.196 2.246 5.428 1.937.233.62-5.661.62-5.661s1.084 5.429 2.401 5.041c1.317-.388.388-5.972.388-5.972s.852 5.352 2.014 4.653c1.162-.775.464-6.747-.31-11.09"/><mask id="a" fill="var(--unique-white, #ffffff)"><path d="M209.837 43.483c-11 5.04-8.986 8.918-4.725 26.524l25.718-9.85c-3.253-4.73-7.049-23.034-20.993-16.674Z"/></mask><path fill="var(--brand-sapphire-60, #1952b6)" stroke="var(--unique-black, #111111)" stroke-width="2" d="M209.837 43.483c-11 5.04-8.986 8.918-4.725 26.524l25.718-9.85c-3.253-4.73-7.049-23.034-20.993-16.674Z" mask="url(#a)"/><path fill="var(--brand-sapphire-60, #1952b6)" stroke="var(--unique-black, #111111)" stroke-linecap="round" stroke-linejoin="round" stroke-miterlimit="10" d="M211.23 51.084c-2.014 8.299-4.028 17.528-9.45 24.353-4.029 5.04-10.613 9.074-17.198 7.6v.078c-.464 3.955-.929 7.91-1.394 11.788 9.761 1.551 19.521-2.792 26.183-10.082 7.669-8.454 10.768-19.777 13.402-30.634 1.781-7.446-9.761-10.626-11.543-3.103Z"/><path fill="var(--brand-sapphire-60, #1952b6)" d="m209.112 45.953-3.337 22.073 13.973-4.658 1.683-.639 1.843-2.616 5.611-5.756.875-1.851-6.823-8.607h-4.789l-1.634.189-7.402 1.865Z"/><path fill="var(--unique-white, #ffffff)" d="M184.505 83.035c-2.866-.775-6.12-3.025-7.049-1.551-.93 1.474 5.345 3.645 1.084 3.878-4.26.232-5.19-.853-5.887.31-.93 1.706 5.112 2.482 5.112 2.482s-5.422-.853-5.577.543c-.155 1.396 5.423 2.404 5.423 2.404s-5.346-1.086-5.036.31c.31 1.396 6.198 2.715 10.536 3.412"/><path stroke="var(--unique-black, #111111)" stroke-linecap="round" stroke-linejoin="round" stroke-miterlimit="10" d="M184.505 83.035c-2.866-.775-6.12-3.025-7.049-1.551-.93 1.474 5.345 3.645 1.084 3.878-4.26.232-5.19-.853-5.887.31-.93 1.706 5.112 2.482 5.112 2.482s-5.422-.853-5.577.543c-.155 1.396 5.423 2.404 5.423 2.404s-5.346-1.086-5.036.31c.31 1.396 6.198 2.715 10.536 3.412"/><path fill="var(--unique-black, #111111)" d="M251.665 74.348c1.627-2.017 2.169-3.645 2.169-3.645Z"/><path stroke="var(--unique-black, #111111)" stroke-linecap="round" stroke-linejoin="round" stroke-miterlimit="10" d="M251.665 74.348c1.627-2.017 2.169-3.645 2.169-3.645"/><path stroke="var(--unique-white, #ffffff)" stroke-linecap="round" stroke-linejoin="round" stroke-miterlimit="10" d="M220.836 55.427c0 4.42-.309 6.748-.309 6.748M220.371 44.413c2.324 2.016 7.204 11.012 7.204 11.012M208.908 50.23c-1.704 3.8.465 11.944-2.944 18.07"/><path fill="var(--unique-black, #111111)" d="m134.715 127.345-2.68-4.248-4.243 2.683 2.68 4.248 4.243-2.683ZM158.255 126.822l-1.437-2.279-2.277 1.439 1.438 2.279 2.276-1.439Z"/><path stroke="var(--steel-90, #001729)" stroke-linecap="round" stroke-linejoin="round" stroke-miterlimit="10" d="m144.003 122.301 1.698-1.469M141.298 132.424l.85 2.551M213.852 17.98l.266 3.382M12.307 138.3l.388 3.696M4 142.896l3.34 1.629M218.501 27.729l2.637.155"/><path stroke="var(--unique-black, #111111)" stroke-linecap="round" stroke-linejoin="round" stroke-miterlimit="10" d="m132.808 100.426 3.938.773M132.346 97.022l2.548-1.004"/><path stroke="var(--steel-90, #001729)" stroke-linecap="round" stroke-linejoin="round" stroke-miterlimit="10" d="m64.474 34.258 1.853 2.087M59.687 40.287l-1.081 1.7M294 100.539l-1.004 3.401M281.261 100.471l1.931 1.933"/><path fill="var(--unique-white, #ffffff)" d="M64.5 88.5 61 99l14.5 1.5-2.5-5-8.5-7Z"/><path fill="var(--unique-white, #ffffff)" d="m75.164 99.287.231-9.391c3.233 4.85 5.62 10.468 10.16 14.24 5.928 4.85 14.24 5.234 20.784 1.463 1.539-.924 3.695-3.156 3.925-4.465.231-1-1.616.308-2.463.077-.154-.308 2.31-4.002 1.925-5.311-.616-2.155-3.002 2.155-3.926 3.156.077 0 2.232-4.234 2.001-5.003-.462-1.54-2.694.77-3.848 2.694-.231-.616 2.309-3.08 2.001-3.926-.539-1.54-3.772 1.616-5.465 2.848-7.775 5.388-13.24-8.16-16.858-13.394-3.31-4.695-7.312-8.313-12.008-9.775l-1.847-.462a16.433 16.433 0 0 0-5.157-.154c-.54.077-1.155.154-1.694.308-.923.23-1.847.462-2.848.847-6.312 2.309-11.315 6.388-14.933 11.469.539.23 1 .616 1.386 1.154 1.847 2.694 3.925 5.235 5.696 8.006 1.077-2.617 2.54-4.927 4.387-6.774"/><path stroke="var(--unique-black, #111111)" stroke-linecap="round" stroke-linejoin="round" stroke-miterlimit="10" d="m75.164 99.287.231-9.391c3.233 4.85 5.62 10.468 10.16 14.24 5.928 4.85 14.24 5.234 20.784 1.463 1.539-.924 3.695-3.156 3.925-4.465.231-1-1.616.308-2.463.077-.154-.308 2.31-4.002 1.925-5.311-.616-2.155-3.002 2.155-3.926 3.156.077 0 2.232-4.234 2.001-5.003-.462-1.54-2.694.77-3.848 2.694-.231-.616 2.309-3.08 2.001-3.926-.539-1.54-3.772 1.616-5.465 2.848-7.775 5.388-13.24-8.16-16.858-13.394-3.31-4.695-7.312-8.313-12.008-9.775l-1.847-.462a16.433 16.433 0 0 0-5.157-.154c-.54.077-1.155.154-1.694.308-.923.23-1.847.462-2.848.847-6.312 2.309-11.315 6.388-14.933 11.469.539.23 1 .616 1.386 1.154 1.847 2.694 3.925 5.235 5.696 8.006 1.077-2.617 2.54-4.927 4.387-6.774M98.18 96.978l2.463 10.7"/><path fill="var(--unique-white, #ffffff)" stroke="var(--unique-black, #111111)" stroke-linecap="round" stroke-linejoin="round" stroke-miterlimit="10" d="m15.125 164.024-8.544 4.849 12.085 15.78s4.619-3.002 1.155-7.775l5.003-3.31-9.699-9.544Z"/><path stroke="var(--unique-black, #111111)" stroke-linecap="round" stroke-linejoin="round" stroke-miterlimit="10" d="m20.745 176.108-4.234-3.849"/><path fill="var(--unique-white, #ffffff)" stroke="var(--unique-black, #111111)" stroke-linecap="round" stroke-linejoin="round" stroke-miterlimit="10" d="m100.643 173.799-1.385 9.698h19.859s.385-5.465-5.465-5.619l.385-6.004-13.394 1.925Z"/><mask id="b6" fill="var(--unique-white, #ffffff)"><path d="M117.269 150.475c-1.154-9.006-3.31-17.781-8.236-25.478-8.082-12.547-20.398-20.783-33.869-26.402l.154-.427H56.152l-.077 1.581a7.002 7.002 0 0 0-.616 2.848c-1.694 26.095-19.32 44.415-42.952 58.809 3.695 3.618 11.007 13.162 14.163 17.242 20.322-16.703 37.256-39.642 42.875-65.582 10.238 4.233 20.321 10.16 26.017 19.782 6.543 11.238 4.311 25.248.616 41.643-.077.231 21.938.077 21.938.077.77-8.005.154-16.087-.847-24.093Z"/></mask><path fill="var(--brand-sapphire-60, #1952b6)" stroke="var(--unique-black, #111111)" stroke-width="2" d="M117.269 150.475c-1.154-9.006-3.31-17.781-8.236-25.478-8.082-12.547-20.398-20.783-33.869-26.402l.154-.427H56.152l-.077 1.581a7.002 7.002 0 0 0-.616 2.848c-1.694 26.095-19.32 44.415-42.952 58.809 3.695 3.618 11.007 13.162 14.163 17.242 20.322-16.703 37.256-39.642 42.875-65.582 10.238 4.233 20.321 10.16 26.017 19.782 6.543 11.238 4.311 25.248.616 41.643-.077.231 21.938.077 21.938.077.77-8.005.154-16.087-.847-24.093Z" mask="url(#b6)"/><path stroke="var(--unique-black, #111111)" stroke-linecap="round" stroke-linejoin="round" stroke-miterlimit="10" d="m113.653 176.646-5.619 1.001"/><path fill="var(--unique-white, #ffffff)" stroke="var(--unique-black, #111111)" d="m65.133 82.736-2.77 21.304-.033.26.195.176 15.98 14.359-21.118 3.949-.258.048-.107.24-8.718 19.635-10.281-18.863-.126-.231-.262-.027-21.367-2.225 14.763-15.607.18-.191-.055-.257-4.487-21.009 19.405 9.218.238.112.227-.131 18.594-10.76Z"/><path fill="var(--unique-white, #ffffff)" stroke="var(--unique-black, #111111)" stroke-linecap="round" stroke-linejoin="round" stroke-miterlimit="10" d="M75.396 62.03s-.539-1.693-2.694-3.694l-.077-.077c-2.155-1.924-7.082-1.078-6.928 3.002 0 .77.154 1.463.308 2.078 0 .154.077.231.154.385.077.231.154.385.308.616.077.077.077.154.154.308 0 0 0 .077.077.077.077.077.154.23.23.308l.232.23-.847 2.31-.462 1.309-1.078 3.002c-.538.077-1.154.153-1.693.308.077 2.232 1.54 4.387 4.388 4.387 2.694 0 4.156-1.924 4.31-4.08l-1.847-.461.539-1.463.462-1.309 1.077-3.002c2.694-.615 2.463-3.54 2.463-3.54l.924-.693Z"/><path fill="var(--unique-black, #111111)" d="M68.7 61.414c1-.308 3.156-1.616 3.926-3.079-1.386-1.231-4.003-1.308-5.543-.077a.898.898 0 0 0-.846.154c-2.694 2.233-4.003 3.08-7.698 2.002-1.231-.385-2.386-.924-3.617-1.309-2.002-.616-4.311-1.154-6.312-.385-2.925 1.078-4.542 4.31-3.387 7.313 1.385 3.464 6.08 5.542 9.621 5.234 2.618-.23 5.62-.924 7.852-2.232 1.77-1 4.926-3.849 5.08-3.926.385-.154 1.848-1.77 1.078-2.001-.77-.077-1.155-1.386-.154-1.694Z"/><path fill="var(--unique-white, #ffffff)" d="M49.533 79.505c-10.315 9.545-13.394 25.094-8.775 39.103.77 2.309 2.232 6.312 3.463 5.773.847-.385-.076-4.003-.153-5.08.615 1.077 1.77 4.849 3.079 4.387 1.54-.462 0-4.079-.308-5.619.846.847 1.54 5.003 3.31 4.388.77-.308-.308-3.926-.154-4.773.154-.847 3.002 1.232 3.54.308.77-1.155-2.848-3.079-3.002-3.618-2.232-7.158-.615-20.475 5.85-27.249"/><path stroke="var(--unique-black, #111111)" stroke-linecap="round" stroke-linejoin="round" stroke-miterlimit="10" d="M49.533 79.505c-10.315 9.545-13.394 25.094-8.775 39.103.77 2.309 2.232 6.312 3.463 5.773.847-.385-.076-4.003-.153-5.08.615 1.077 1.77 4.849 3.079 4.387 1.54-.462 0-4.079-.308-5.619.846.847 1.54 5.003 3.31 4.388.77-.308-.308-3.926-.154-4.773.154-.847 3.002 1.232 3.54.308.77-1.155-2.848-3.079-3.002-3.618-2.232-7.158-.615-20.475 5.85-27.249M39.371 112.004l10.434-1.691"/><path stroke="var(--unique-black, #111111)" d="m44.016 86.13-.118 25.071M50.443 78.786v20.71M56.977 74.388v12.92M63.345 83.752V73.669M69.728 98.397V76.047M76.457 91.7V74.77M82.68 101.249v-20.4M89.32 106.531v-15.36M95.438 108.137V96.479M39.068 105.093h10.845M87.332 105.093h12.854M39.372 98.665h10.846M81.085 98.665h17.52M76.928 92.253h12.943M41.19 92.253h11.858M63.8 92.253h11.857M44.289 85.737H59.88M64.828 85.737h20.833M49.895 79.214h31.19M57.6 74.022h5.513m11.774 0h-3.436"/></svg>
