<svg xmlns="http://www.w3.org/2000/svg" width="300" height="200" fill="none"><path fill="var(--unique-white, #ffffff)" d="m237.5 145.5-5 1.5 1 14.5 5-1 6.5-2.5 5-3 3.5-2.5 2.5-6-1-2.5-2.5-3.5H249l-5 2-3 1.5-3.5 1.5ZM73.5 116l-5-.5-3.5 13 2 .5h10l3-.5 2-1.5 1-1.5.5-2.5-.5-3-.5-1.5-1.5-1-1.5-1-3-.5h-3Z"/><path fill="var(--brand-sapphire-10, #d5e8fd)" d="m259.706 150.387 16.934 2.492-3.585 24.355-16.934-2.492zM54.22 152.04l7.766 11.28-17.313 11.918-7.765-11.28zM202.308 38.746v24.695h-32.927V38.746z"/><path stroke="var(--unique-black, #111111)" stroke-linecap="round" stroke-linejoin="round" stroke-miterlimit="10" d="M63.997 122.866c-6.446-.558-12.489-2.311-17.726-5.099-9.75-5.099-17.162-13.465-21.11-23.583a47.413 47.413 0 0 1-3.143-16.97c0-3.107.323-6.215.887-9.162 2.98-14.58 12.972-26.61 26.267-32.586 5.881-2.63 12.327-4.064 19.176-4.064 25.622 0 46.088 16.413 46.329 45.812.162 20.237-13.214 37.446-31.745 43.501"/><path fill="var(--unique-black, #111111)" d="M68.61 31.402c-6.81 0-13.22 1.44-19.069 4.078 6.171-1.122 21.525-1.297 33.57 6.976 15.056 10.343 33.569 47.99 0 78.581 18.427-6.077 31.727-23.348 31.566-43.658-.24-29.505-20.59-45.977-46.068-45.977Z"/><path stroke="var(--steel-90, #001729)" stroke-linecap="round" stroke-linejoin="round" stroke-miterlimit="10" d="M157.622 44.234h5.421l-2.488 3.246-2.933-3.246ZM193.784 45.742h-26.723M180.909 51.189h-13.762"/><path fill="var(--unique-white, #ffffff)" d="m82.899 124.857 5.278-1.991 9.07 22.697-20.286 7.486-9.071-22.618 7.01-2.628"/><path stroke="var(--unique-black, #111111)" stroke-linecap="round" stroke-linejoin="round" stroke-miterlimit="10" d="m82.899 124.857 5.278-1.991 9.07 22.697-20.286 7.486-9.071-22.618 7.01-2.628"/><path fill="var(--brand-sapphire-60, #1952b6)" d="M47.341 98.676c-2.766 2.738-8.298 3.221-10.982 0-7.322-8.777-12.203-19.406-13.423-30.68 3.01-14.736 13.097-26.895 26.52-32.935-13.423 14.495-15.538 36.8-2.115 52.744 2.685 3.141 3.173 7.65 0 10.871Z"/><path fill="var(--brand-sapphire-60, #1952b6)" stroke="var(--unique-black, #111111)" stroke-linecap="round" stroke-linejoin="round" stroke-miterlimit="10" d="M52.697 109.214c-2.546 4.215-4.682 7.133-6.407 9.079a45.788 45.788 0 0 1-21.52-23.994c14.292-17.833 16.346-18.157 22.095-10.862l.165.162c1.971 2.432 4.024 4.62 5.667 6.89 3.45 4.945 5.175 10.133 0 18.725Z"/><path fill="var(--brand-sapphire-60, #1952b6)" d="M68.034 119.456c.734-1.622 1.223-2.433 2.608-3.812-7.66-.486-17.031-3.081-17.276-11.272-.244-9.488-15.075-9.488-14.83 0 .244 8.353 4.97 15.408 11.978 19.868 4.971 3.163 10.757 4.461 16.624 5.028-.407-3.243-.489-6.649.896-9.812Z"/><path stroke="var(--unique-black, #111111)" stroke-linecap="round" stroke-linejoin="round" stroke-miterlimit="10" d="M76.363 115.768c-7.062-.16-22.81-1.278-23.054-11.503-.243-9.345-15.017-9.345-14.774 0 .244 8.228 4.952 15.177 11.933 19.57 7.63 4.793 17.128 5.192 25.895 5.432 9.498.16 9.498-13.34 0-13.499Z"/><path stroke="var(--unique-black, #111111)" stroke-linecap="round" stroke-linejoin="round" stroke-miterlimit="10" d="M81.193 121.951c1.428 3.466-.714 7.712-3.211 8.232"/><path fill="var(--unique-black, #111111)" d="m77.064 134.138-.575 2.447-1.224-2.121-1.87-14.93 1.798-.327 1.871 14.931Z"/><path fill="var(--unique-white, #ffffff)" d="M69.725 120.122c1.143 7.691 3.957 12.405 6.155 10.585 1.144-.992-1.758-5.21-1.846-6.285"/><path stroke="var(--unique-black, #111111)" stroke-linecap="round" stroke-linejoin="round" stroke-miterlimit="10" d="M69.725 120.122c1.143 7.691 3.957 12.405 6.155 10.585 1.144-.992-1.758-5.21-1.846-6.285"/><path fill="var(--unique-white, #ffffff)" d="M79.094 123.781c2.094 7.542-.93 10.003-1.939 8.892-.465-.476-.155-2.461-.31-4.208-.155-1.985-.698-3.811-.698-3.811"/><path stroke="var(--unique-black, #111111)" stroke-linecap="round" stroke-linejoin="round" stroke-miterlimit="10" d="M79.094 123.781c2.094 7.542-.93 10.003-1.939 8.892-.465-.476-.155-2.461-.31-4.208-.155-1.985-.698-3.811-.698-3.811M77.064 136.585h10.092M77.982 138.415H88.99"/><path fill="var(--unique-white, #ffffff)" stroke="var(--unique-black, #111111)" stroke-linecap="round" stroke-linejoin="round" stroke-miterlimit="10" d="M64.597 76.681c-.968-3.63-7.022-6.233-9.847-1.736-1.291 2.052-1.614 3.787-1.21 5.208l-6.296 4.576c-.242-.237-.404-.474-.646-.79-.323 2.92-.727 10.573-.727 10.573l6.296-3.866c-.242-.394-.565-.71-.807-1.104l6.86-4.971c3.39 1.262 5.247-2.051 5.247-2.051l1.534-.08c-.081.08.565-2.13-.404-5.759Z"/><path fill="var(--unique-black, #111111)" d="M66.808 74.637c-.883 2.049-6.42 2.428-8.104 1.973-1.284-.38-1.846 1.214-1.043 1.972.642.683-2.006 1.366-2.648 1.29-.24-.076-.481-.076-.722-.227-.401-1.442-.08-3.111 1.203-5.16 1.284-2.048 4.413-2.655 7.141-2.807 2.728-.152 4.975.152 4.173 2.959Z"/><path fill="var(--brand-sapphire-60, #1952b6)" d="M271.56 128.312c-1.382 5.018-3.684 9.656-6.676 13.761-9.131-6.386-20.717-13.153-31.306-7.907-.538.228-3.931-.152-4.469 0-3.376.913-4.125.456-6.044-2.737-1.457-2.433-1.381-6.082.154-8.363a5.029 5.029 0 0 1 2.532-1.977c.691-.228 1.381-.456 1.995-.608 4.297-1.292 8.287-1.977 12.124-2.129 11.739-.608 21.715 3.498 31.69 9.96Z"/><path fill="var(--unique-white, #ffffff)" d="m255.019 139.329 22.963 5.541-6.396 26.471-22.962-5.54 3.313-13.544"/><path stroke="var(--unique-black, #111111)" stroke-linecap="round" stroke-linejoin="round" stroke-miterlimit="10" d="m255.019 139.329 22.963 5.541-6.396 26.471-22.962-5.54 3.313-13.544"/><path fill="var(--brand-sapphire-60, #1952b6)" d="M213.761 136.958c1.531 9.368 6.607 16.091 6.607 16.091l23.663-10.455 4.593-1.523-1.378-4.113c1.608-2.665-.459-6.397-3.521-10.434l-29.964 10.434Z"/><path fill="var(--brand-sapphire-60, #1952b6)" d="M236.238 160.823c-9.465 2.32-19.325 2.702-26.85-3.87-6.75-5.876-7.138-15.541-3.181-23.118 3.258-6.031 9.232-9.665 15.594-11.984 1.552-.541 3.181-1.083 4.733-1.469a4.87 4.87 0 0 1 1.474-.232c2.793-.232 5.043 1.005 6.439 2.861 2.716 3.556 2.483 9.51-2.25 11.752-.465.232-.931.386-1.474.541-3.801 1.005-8.689 2.32-10.784 5.954-1.396 2.396-1.241 4.02 1.474 5.257 3.802 1.701 7.914 1.701 12.026.773-.155 4.949.86 8.587 2.799 13.535Z"/><path stroke="var(--unique-black, #111111)" stroke-linecap="round" stroke-linejoin="round" stroke-miterlimit="10" d="M243.027 142.755c-6.43 3.746-14.851 6.499-21.894 3.211-2.679-1.223-2.832-2.753-1.454-5.199 2.067-3.594 6.966-4.894 10.641-5.888m-4.058-14.757c-7.808 2.064-16.076 5.811-20.056 13.304-3.981 7.417-3.522 17.051 3.138 22.862 12.555 10.934 34.449 5.2 45.702-5.123"/><path fill="var(--unique-white, #ffffff)" d="M253.211 140.613c5.305-1.069 10.382.142 10.079 4.204Z"/><path stroke="var(--unique-black, #111111)" stroke-linecap="round" stroke-linejoin="round" stroke-miterlimit="10" d="M253.211 140.613c5.305-1.069 10.382.142 10.079 4.204"/><path fill="var(--unique-white, #ffffff)" stroke="var(--unique-black, #111111)" stroke-linecap="round" stroke-linejoin="round" stroke-miterlimit="10" d="m265.608 148.62.447 2.6-2.311-1.182-9.615-13.943 1.863-1.339 9.616 13.864Z"/><path fill="var(--unique-white, #ffffff)" d="M243.119 142.907s7.925-5.175 15.388-1.098c7.462 4.077 6.847 7.056 2.538 5.175-2.462-1.098-3.923-1.882-3.923-1.882"/><path stroke="var(--unique-black, #111111)" stroke-linecap="round" stroke-linejoin="round" stroke-miterlimit="10" d="M243.119 142.907s7.925-5.175 15.388-1.098c7.462 4.077 6.847 7.056 2.538 5.175-2.462-1.098-3.923-1.882-3.923-1.882"/><path fill="var(--unique-white, #ffffff)" d="M260.542 147.561c.122.476-1.097 2.496-2.744 1.605Z"/><path stroke="var(--unique-black, #111111)" stroke-linecap="round" stroke-linejoin="round" stroke-miterlimit="10" d="M260.542 147.561c.122.476-1.097 2.496-2.744 1.605"/><path fill="var(--unique-white, #ffffff)" stroke="var(--unique-black, #111111)" stroke-linecap="round" stroke-linejoin="round" stroke-miterlimit="10" d="m232.339 119.15-2.905-7.444c1.071-.998 1.682-2.532 1.835-4.835.229-5.141-5.963-6.216-8.639-3.837-2.676 2.456-3.364 4.528-3.364 4.528l1.147.844s-.382 3.607 2.981 4.451l3.059 7.751c-.153 0-.383.077-.536.154-1.529.383-3.134.92-4.663 1.458.535.383.994.69 1.529.92 4.052 2.226 7.798 1.842 10.933.231 2.293-1.228 4.281-3.07 5.733-4.988-2.37 0-4.663.307-7.11.767Z"/><path fill="var(--unique-white, #ffffff)" d="M258.716 149.39s-.99 2.957-4.587 1.352Z"/><path stroke="var(--unique-black, #111111)" stroke-linecap="round" stroke-linejoin="round" stroke-miterlimit="10" d="M258.716 149.39s-.99 2.957-4.587 1.352"/><path fill="var(--unique-black, #111111)" d="M251.063 96.974c-4.188 3.137-6.015-.688-10.126 2.907-3.121 2.678-9.896-.918-11.267.842-.38.535-1.066.688-1.598.229-.077 0-.077-.076-.153-.076-2.055-1.607-4.035-2.601-4.948.229-.457 2.219 3.654 5.432 5.329 5.968 1.218.382.761 1.989-.305 2.218-.228.077-.304.23-.228.536-.609 5.737 5.329 8.644 12.942 9.333 7.613.688 6.243-6.273 6.014-10.175-.228-3.901 7.156-4.437 10.125-8.798 2.969-4.437-1.598-6.35-5.785-3.213Z"/><path stroke="var(--unique-black, #111111)" stroke-linecap="round" stroke-linejoin="round" stroke-miterlimit="10" d="m266.055 151.219 5.505 1.83M255.963 153.963l14.679 3.659M253.211 165.854l-.918 2.744M255.046 165.854l-.917 2.744M266.972 168.598l-.917 3.658M265.138 168.598l-.918 2.743M207.644 154.878c-14.175-7.354-23.24-22.141-23.24-39.141 0-24.384 19.759-44.09 44.036-44.09 24.354 0 43.807 15.795 44.037 44.09 0 4.14-.536 8.128-1.532 11.885-1.351 4.959-3.584 9.55-6.483 13.629"/><path stroke="var(--steel-90, #001729)" stroke-linecap="round" stroke-linejoin="round" stroke-miterlimit="10" d="m54.026 151.282-6.585-5.019-20.279 26.48 6.586 5.02 20.278-26.481Z"/><path fill="var(--unique-black, #111111)" d="m143.712 151.057-12.432 5.365 10.538 24.228 12.433-5.365-10.539-24.228Z"/><path stroke="var(--steel-90, #001729)" stroke-linecap="round" stroke-linejoin="round" stroke-miterlimit="10" d="m111.744 157.622-32.845 24.311M114.553 162.013l-32.909 24.311"/><path stroke="var(--unique-black, #111111)" stroke-linecap="round" stroke-linejoin="round" stroke-miterlimit="10" d="m72.372 132.153-1.53 2.546"/><path stroke="var(--steel-90, #001729)" stroke-linecap="round" stroke-linejoin="round" stroke-miterlimit="10" d="m154.251 104.024 1.722 1.146M183.486 90.854l-.917 2.743M268.807 59.756l-.917 2.744M111.927 139.329l-2.753 3.659M192.661 107.317l1.834-2.744M170.642 68.768l1.403 2.482M277.486 46.239l1.403 2.482M119.266 64.33l2.752 2.743M281.131 61.128l2.753 2.744"/><path stroke="var(--steel-90, #001729)" stroke-linecap="round" d="M79.816 89.164c35.659-15.77 99.863-30.135 131.848 8.616"/><path stroke="var(--steel-90, #001729)" stroke-linecap="round" d="m213.566 92.804-1.407 5.778-5.349-1.295M108.702 121.977l-.585-5.916 5.478-.539"/><path stroke="var(--steel-90, #001729)" stroke-linecap="round" d="M199.161 124.301c-12.644 16.966-60.263 25.758-90.247-7.649"/><path stroke="var(--unique-black, #111111)" stroke-linecap="round" stroke-linejoin="round" stroke-miterlimit="10" d="m193.95 37.24-5.978 2.971 1.777-6.421 16.65-21 4.201 3.449-16.65 21Z"/><path fill="var(--unique-black, #111111)" d="m190.874 38.289-2.287-1.83-.915 3.66 3.202-1.83ZM193.95 37.24l-4.201-3.45 16.65-21 4.201 3.449-16.65 21Z"/><path fill="var(--unique-white, #ffffff)" stroke="var(--unique-black, #111111)" stroke-linecap="round" stroke-linejoin="round" stroke-miterlimit="10" d="m246.181 55.83 20.01-16.71-12.695-15.117-20.01 16.71 12.695 15.117Z"/><path stroke="var(--unique-black, #111111)" stroke-linecap="round" stroke-linejoin="round" stroke-miterlimit="10" d="m259.168 38.518-7.257-8.624M254.495 38.688l-5.535-6.41"/></svg>
