<svg xmlns="http://www.w3.org/2000/svg" width="300" height="200" fill="none"><g clip-path="url(#a)"><path fill="var(--brand-sapphire-10)" d="M164.466 31.614c2.708-3.157 7.807-2.27 9.292 1.615l45.318 118.648c1.52 3.977-1.872 8.094-6.066 7.365L84.99 136.988c-4.194-.729-5.996-5.749-3.224-8.98l82.7-96.394Z"/><path stroke="var(--steel-90)" stroke-linecap="round" stroke-linejoin="round" stroke-miterlimit="10" d="m164.22 141.254 2.498 3.204M107.539 111.525l-2.605-3.118M167.891 137.255l3.977.862M104.005 115.645l-4.005-.729"/><path fill="var(--unique-black)" d="m35.456 163.604 64.243-4.31.365 5.45-64.243 4.309zM197.561 165.59l64.243-4.31.365 5.45-64.243 4.309z"/><path fill="var(--brand-sapphire-10)" d="m23.905 148.631 68.356-1.153.092 5.46-68.356 1.153z"/><path fill="var(--unique-black)" d="m98.504 173.297 45.233 4.487-.54 5.435-45.232-4.488zM242.378 148.073l40.023-21.548 2.589 4.808-40.023 21.548z"/><path fill="var(--unique-white)" stroke="var(--unique-black)" d="m64.875 60.592.874-10.871h-3.276l-2.839 9.422 5.241 1.45Z"/><path fill="var(--unique-white)" stroke="var(--unique-black)" stroke-linecap="round" stroke-linejoin="round" stroke-miterlimit="10" d="M68.703 47.268c0 3.64-2.845 4.732-5.096 4.732-2.252 0-3.737-2.32-3.737-4.732 0-3.276 2.505-5.46 4.756-5.46 2.251 0 4.077 1.82 4.077 5.46Z"/><path fill="var(--unique-black)" d="M65.897 41.693c3.27-3.26 7.229 3.775-2.492 5.379-1.018.356-.528 1.674.279 1.861.772.112-.613 1.891-1.067 2.09-.152.067-.355.212-.506.279-.964-.75-2.765-2.227-2.926-4.23-.86-6.237 6.368-8.296 6.712-5.379Z"/><path fill="var(--unique-black)" d="M56.645 40.126c2.358.908 1.698 2.038 4.076 3.397l-.85 1.698c-2.247-1.476-5.265.68-6.284 7.474-1.02 6.795-7.197 1.36-15.754 11.89-8.557 10.532-13.802-2.378-8.706-9.172 5.096-6.794 19.066-3.925 19.964-9.83.898-5.905 5.195-6.366 7.554-5.457Z"/><path fill="var(--unique-white)" stroke="var(--unique-black)" stroke-linecap="round" stroke-linejoin="round" stroke-miterlimit="10" d="m89.548 177.892-20.386-4.53s1.725-7.988 2.24-11.926c.515-3.939 14.72.506 14.72.506l-1.156 9.356c.094-.027 5.77 1.282 4.582 6.594Z"/><path stroke="var(--unique-black)" stroke-linecap="round" d="m80 168.652 5.37.844M80.318 166.639l5.37.843"/><path fill="var(--unique-black)" d="m69.616 171.83 19.972 4.596-.305 1.325-19.972-4.597z"/><path fill="var(--unique-white)" d="m61.006 187.146-20.504-5.901s2.462-7.794 3.342-11.668c.88-3.873 14.608 1.869 14.608 1.869l-1.857 8.886c.096-.018 5.794 2.037 4.411 6.814ZM649.612 2976.68h21.127v1.36h-21.127v-1.36ZM-566.22-2623.97h68.152v67.95h-68.152v-67.95Z"/><path stroke="var(--unique-black)" stroke-linecap="round" stroke-linejoin="round" stroke-miterlimit="10" d="m61.006 187.146-20.504-5.901s2.462-7.794 3.342-11.668c.88-3.873 14.608 1.869 14.608 1.869l-1.857 8.886c.096-.018 5.794 2.037 4.411 6.814ZM649.612 2976.68h21.127v1.36h-21.127v-1.36ZM-566.22-2623.97h68.152v67.95h-68.152v-67.95Z"/><path fill="var(--unique-black)" d="m40.589 180.091 20.224 5.887-.38 1.305-20.224-5.887z"/><path stroke="var(--unique-black)" stroke-linecap="round" d="m52.338 177.566 5.268 1.339M52.84 175.59l5.268 1.339"/><path fill="var(--unique-black)" stroke="var(--unique-black)" d="M71.125 162.766c7.135-47.561-6.115-59.112-15.287-80.854l14.948 2.378c10.87 28.536 20.043 40.427 14.608 80.854l-14.269-2.378Z"/><path stroke="var(--unique-black)" stroke-linecap="round" d="m75.26 163.188 1.36-10.191"/><path fill="var(--unique-black)" d="M43.268 171.598c10.87-50.278 9.172-63.867 9.172-89.346h9.513c7.608 32.613 5.775 62.508-4.077 91.724l-14.608-2.378Z"/><path stroke="var(--unique-black)" stroke-linecap="round" d="M61.953 82.252H52.44c0 25.479 1.699 39.068-9.172 89.346l14.608 2.378c8.634-25.604 11.11-51.731 6.468-79.75"/><path fill="var(--unique-white)" d="M96.5 49.5V52l-8.5-.5V49l.5-3.5V42l1-1 1 2 1.5-2.5 2 .5 1 1 .5 2v2l.5 1.5.5 2Z"/><path fill="var(--unique-white)" stroke="var(--unique-black)" stroke-linecap="round" stroke-linejoin="round" stroke-miterlimit="10" d="M88.03 51.79v.136c-.409 3.465-.545 10.192-4.294 11.619-4.02 1.562-9.745 1.427-12.472-2.31-3.203-4.349-10.563-.136-7.292 4.28 5.112 6.998 13.971 8.969 22.081 6.251 8.724-2.922 9.542-11.89 10.496-19.772v-.204c-2.863-.136-5.725-.34-8.52 0Z"/><mask id="b" fill="var(--unique-white)"><path d="M62.882 56.343c-10.904.184-11.245 2.89-14.312 26.671h24.876s-.614-15.189-1.159-18.926c-.75-4.484-1.363-7.881-9.405-7.745Z"/></mask><path fill="var(--unique-white)" stroke="var(--unique-black)" stroke-width="2" d="M62.882 56.343c-10.904.184-11.245 2.89-14.312 26.671h24.876s-.614-15.189-1.159-18.926c-.75-4.484-1.363-7.881-9.405-7.745Z" mask="url(#b)"/><path stroke="var(--unique-black)" stroke-linecap="round" d="m64.728 56.855 7.135 8.833M71.831 69.252 50.826 82.55M70.46 60.889 50.304 73.476M61.67 61.272l10.532 12.23M58.954 66.028l10.531 12.23M49.851 75.689l5.926 6.806"/><path fill="var(--unique-white)" stroke="var(--unique-black)" stroke-linecap="round" stroke-linejoin="round" stroke-miterlimit="10" d="M85.713 83.86c.137.136 3.203-4.688 4.77-7.134-5.383-3.329-11.926.816-18.468.476-6.543-.34-14.312-6.251-9.882-13.25 3.066-4.823-4.567-9.24-7.633-4.484-4.975 7.746-1.977 17.462 5.247 22.626 3.544 2.514 7.906 3.737 12.268 3.94 2.453.136 5.043-.203 7.428-.747.682-.068 5.93-1.834 6.27-1.427Z"/><path fill="var(--unique-white)" stroke="var(--unique-black)" stroke-linecap="round" stroke-linejoin="round" stroke-miterlimit="10" d="M93.346 79.444c-1.09-1.427-2.317-2.446-3.544-3.058-1.635 1.699-2.794 3.94-4.157 5.775l-1.431 1.835c.75-.204 1.295-.204 1.431-.136 1.84 1.02 3.135 1.903 3.953 1.699.75-.204-.205-1.563-.954-2.65 1.635.68 1.295 2.378 2.658 2.106.954-.204.272-2.921-.341-4.144.545.543.886 3.125 1.908 2.717.75-.271 1.227-3.193.477-4.144Z"/><path stroke="var(--unique-black)" stroke-linecap="round" stroke-linejoin="round" stroke-miterlimit="10" d="M88.03 51.926c.41-6.998.069-9.852.75-10.667 1.5-1.767 1.568 3.261 1.568 3.261s2.249 1.223 2.385 2.786"/><path stroke="var(--unique-black)" stroke-linecap="round" stroke-linejoin="round" stroke-miterlimit="10" d="M90.484 43.433c.75-3.669 1.636-3.465 2.385-2.921.75.543-.34 3.872-.34 3.872"/><path stroke="var(--unique-black)" stroke-linecap="round" stroke-linejoin="round" stroke-miterlimit="10" d="M94.232 44.385c.34-2.175.136-3.805-1.295-3.873"/><path stroke="var(--unique-black)" stroke-linecap="round" stroke-linejoin="round" stroke-miterlimit="10" d="M93.959 40.92c.886 0 1.636 1.698 1.5 3.804-.137 1.834 1.567 2.446 1.022 7.202M71.742 62.933c.477 1.223.681 7.61.681 7.61"/><path stroke="var(--steel-90)" stroke-linecap="round" d="m114.951 163.784 26.498-6.115m8.153-2.038-5.095 1.199"/><path fill="var(--unique-white)" stroke="var(--unique-black)" stroke-linecap="round" stroke-linejoin="round" stroke-miterlimit="10" d="M214.204 155.687c2.499 7.804 6.829 20.589 6.829 20.589s-4.83 1.993-3.747 6.559h18.154c.166-.332-7.329-25.405-10.327-31.465-2.664 1.245-10.909 4.317-10.909 4.317Z"/><path fill="var(--unique-black)" d="m216.77 181.481 17.642-.054-.002 1.359-17.641.054.001-1.359Z"/><mask id="c7" fill="var(--unique-white)"><path d="M250.12 139.694c7.412 3.57 22.217 14.235 22.217 14.235s-.999 5.562 4.83 7.804l6.079-15.858c-.083-.332-20.569-8.136-28.73-13.615-1.083 2.74-4.396 7.434-4.396 7.434Z"/></mask><path fill="var(--unique-white)" stroke="var(--unique-black)" stroke-width="2" d="M250.12 139.694c7.412 3.57 22.217 14.235 22.217 14.235s-.999 5.562 4.83 7.804l6.079-15.858c-.083-.332-20.569-8.136-28.73-13.615-1.083 2.74-4.396 7.434-4.396 7.434Z" mask="url(#c7)"/><path fill="var(--unique-black)" d="m275.054 160.862 5.79-15.13 1.267.492-5.79 15.13-1.267-.492Z"/><mask id="d8" fill="var(--unique-white)"><path d="M268.551 154.062c1.915-3.902 5.329-9.962 7.328-13.781-18.82-10.295-46.103-35.984-49.267-57.071-5.996-1.578-11.909-3.321-17.655-5.48-.166.415-.333.83-.416 1.329-5.33 26.484.15 67.615 8.061 93.435 5.957 0 13.926 0 17.604-.847-5.164-16.77-16.755-49.832-15.922-67.35 5.746 18.597 33.528 40.799 50.267 49.765Z"/></mask><path fill="var(--brand-sapphire-60)" stroke="var(--unique-black)" stroke-width="2" d="M268.551 154.062c1.915-3.902 5.329-9.962 7.328-13.781-18.82-10.295-46.103-35.984-49.267-57.071-5.996-1.578-11.909-3.321-17.655-5.48-.166.415-.333.83-.416 1.329-5.33 26.484.15 67.615 8.061 93.435 5.957 0 13.926 0 17.604-.847-5.164-16.77-16.755-49.832-15.922-67.35 5.746 18.597 33.528 40.799 50.267 49.765Z" mask="url(#d8)"/><path stroke="var(--unique-black)" stroke-linecap="round" stroke-linejoin="round" stroke-miterlimit="10" d="M220.483 176.333h3.67M272.336 153.928l.999-1.743M215.952 93.006c.25 3.237 1.999 9.713 1.999 9.713"/><path fill="var(--unique-white)" d="m194 35-1 3.5v.5l8.5 1.5 2-8.5-1-.5-.5-3-4-1-1 1.5-.5 2-1 2-1.5 2Z"/><path fill="var(--unique-white)" d="M198.896 27.97c-1.568-1.699-1.567 1.562-2.588 3.736-1.021 2.173-2.248 1.494-3.609 7.336"/><path stroke="var(--unique-black)" stroke-linecap="round" stroke-linejoin="round" stroke-miterlimit="10" d="M198.896 27.97c-1.568-1.699-1.567 1.562-2.588 3.736-1.021 2.173-2.248 1.494-3.609 7.336"/><path fill="var(--unique-white)" d="M197.876 32.044c.34-2.241 1.02-5.91 2.86-3.6Z"/><path stroke="var(--unique-black)" stroke-linecap="round" stroke-linejoin="round" stroke-miterlimit="10" d="M197.876 32.044c.34-2.241 1.02-5.91 2.86-3.6"/><path fill="var(--unique-white)" stroke="var(--unique-black)" stroke-linecap="round" stroke-linejoin="round" stroke-miterlimit="10" d="M214.095 59.7c-3.815 2.036-12.331 6.178-14.785.064-2.25-5.57.405-12.975 1.903-18.409.068-.203.068-.475.136-.679-2.93-.476-5.792-1.02-8.654-1.768 0 .068 0 .068-.068.136-2.246 8.423-5.65 20.174.212 27.85 6.474 8.494 17.443 4.352 25.277.21 5.042-2.647 1.02-10.12-4.021-7.405Z"/><path fill="var(--unique-white)" d="M202.101 31.705c.817-3.736-.273-3.532-.818-3.532-1.022.067-1.361 4.415-1.361 4.415"/><path stroke="var(--unique-black)" stroke-linecap="round" stroke-linejoin="round" stroke-miterlimit="10" d="M202.101 31.705c.817-3.736-.273-3.532-.818-3.532-1.022.067-1.361 4.415-1.361 4.415"/><path stroke="var(--unique-black)" stroke-linecap="round" stroke-linejoin="round" stroke-miterlimit="10" d="M201.217 41.353c.748-4.484 2.722-8.356 2.109-9.647-.682-1.563-1.839 1.494-3.95 3.192"/><path fill="var(--unique-white)" stroke="var(--unique-black)" stroke-linecap="round" stroke-linejoin="round" stroke-miterlimit="10" d="M235.061 69.317c2.453 3.668-5.053 23.303-5.16 25.061-1.803-.604-25.866-8.563-25.866-8.563l-3.038-2.575s10.896-22.084 14.336-24.122c3.441-2.038 17.889 8.059 19.728 10.199Z"/><path fill="var(--unique-white)" d="M183.951 74.71c-1.196-4.052-1.762-7.563-3.043-4.937-1.022 2.206-.33 3.698-2.303.91-1.881-2.755-2.534-3.51-3.244-2.43-.71 1.082 1.56 4.186 1.56 4.186s-2.615-3.85-3.498-3.142c-.974.675 1.565 5.013 1.565 5.013s-2.755-4.315-3.954-3.31c-1.166.914 2.189 4.726 5.092 9.198"/><path stroke="var(--unique-black)" stroke-linecap="round" stroke-linejoin="round" stroke-miterlimit="10" d="M183.951 74.71c-1.196-4.052-1.762-7.563-3.043-4.937-1.022 2.206-.33 3.698-2.303.91-1.881-2.755-2.534-3.51-3.244-2.43-.71 1.082 1.56 4.186 1.56 4.186s-2.615-3.85-3.498-3.142c-.974.675 1.565 5.013 1.565 5.013s-2.755-4.315-3.954-3.31c-1.166.914 2.189 4.726 5.092 9.198"/><path fill="var(--unique-white)" d="M229.135 81.592c-3.166 2.967-7.537 6.11-11.288 8.14-5.758 3.254-11.87 4.107-18.549 3.41-1.809-.147-3.46-.443-5.134-.955-2.927-.764-5.595-1.95-8.128-3.5-3.743-2.2-7.093-5.183-9.967-8.612a4.156 4.156 0 0 0 1.406-.723c2.173-1.68 4.255-3.393 6.337-5.106 4.089 4.907 9.602 8.48 16.339 9.3 5.086.525 9.557-.93 13.875-3.37 4.035-2.236 7.393-5.442 10.977-8.978"/><path stroke="var(--unique-black)" stroke-linecap="round" stroke-linejoin="round" stroke-miterlimit="10" d="M229.135 81.592c-3.166 2.967-7.537 6.11-11.288 8.14-5.758 3.254-11.87 4.107-18.549 3.41-1.809-.147-3.46-.443-5.134-.955-2.927-.764-5.595-1.95-8.128-3.5-3.743-2.2-7.093-5.183-9.967-8.612a4.156 4.156 0 0 0 1.406-.723c2.173-1.68 4.255-3.393 6.337-5.106 4.089 4.907 9.602 8.48 16.339 9.3 5.086.525 9.557-.93 13.875-3.37 4.035-2.236 7.393-5.442 10.977-8.978"/><path fill="var(--unique-white)" stroke="var(--unique-black)" stroke-linecap="round" stroke-linejoin="round" stroke-miterlimit="10" d="m227.309 63.862.91-3.36 1.09-3.892c1.174-.207 2.35-.945 3.568-2.462 2.614-3.388-1.127-7.055-4.148-6.716-2.95.375-4.52 1.536-4.52 1.536l.419 1.1s-1.968 2.294-.028 4.429l-1.273 4.598-.618 2.264c-.496-.25-1.098-.466-1.594-.716-.117 1.629.547 3.297 2.459 4.263 1.84.93 3.548.549 4.761-.437-.283-.143-.672-.428-1.026-.607Z"/><mask id="e" fill="var(--unique-white)"><path d="M229.267 46.198c-1.358 1.269.074 5.102 1.026 6.205 1.339 1.565-.231 2.726-1.252 1.41-.494-.604-.439 1.911-.229 2.373.106.142.211.284.388.462 1.208-.1 2.492-.873 3.674-2.497.752-.953 2.681-2.644 1.092-4.068-.095-1.737-.726-3.121-1.972-2.596-.236-1.985-1.37-2.38-2.727-1.29Z"/></mask><path fill="var(--unique-black)" stroke="var(--unique-black)" stroke-width="2" d="M229.267 46.198c-1.358 1.269.074 5.102 1.026 6.205 1.339 1.565-.231 2.726-1.252 1.41-.494-.604-.439 1.911-.229 2.373.106.142.211.284.388.462 1.208-.1 2.492-.873 3.674-2.497.752-.953 2.681-2.644 1.092-4.068-.095-1.737-.726-3.121-1.972-2.596-.236-1.985-1.37-2.38-2.727-1.29Z" mask="url(#e)"/><mask id="f" fill="var(--unique-white)"><path d="M232.583 50.002c.113-1.098-1.478-2.169-2.515-1.182-1.322 1.198-3.136 1.614-4.875 1.358a1.38 1.38 0 0 0-1.313-.22c-2.74.837-2.161 4.596.357 5.246 1.241.36 2.452-.094 3.557-.69 1.426-.88 2.854-1.935 4.21-2.85.607-.493.753-1.13.579-1.662Z"/></mask><path fill="var(--unique-black)" stroke="var(--unique-black)" stroke-width="2" d="M232.583 50.002c.113-1.098-1.478-2.169-2.515-1.182-1.322 1.198-3.136 1.614-4.875 1.358a1.38 1.38 0 0 0-1.313-.22c-2.74.837-2.161 4.596.357 5.246 1.241.36 2.452-.094 3.557-.69 1.426-.88 2.854-1.935 4.21-2.85.607-.493.753-1.13.579-1.662Z" mask="url(#f)"/><path fill="var(--brand-sapphire-60)" d="m153.894 38.67 1.703-13.208-17.981 3.868-18.928-18.964 7.098 29.72-21.199 10.378 18.36 6.888-5.205 13.87 21.672-4.53 10.694 6.7 3.028-14.814 29.433-14.246-28.675-5.661Z"/><path stroke="var(--steel-90)" stroke-linecap="round" stroke-linejoin="round" stroke-miterlimit="10" d="m161.984 22.993 3.785-4.246M161.507 11.198l-3.312 10.85M111.556 29.582l-2.366-3.302M109.699 33.94l-3.939-1.022"/><path fill="var(--unique-white)" stroke="var(--unique-black)" stroke-linecap="round" stroke-linejoin="round" stroke-miterlimit="10" d="m151.04 96.12-39.867 20.711 16.783 32.09 39.866-20.71-16.782-32.09Z"/><path stroke="var(--unique-black)" stroke-linecap="round" stroke-linejoin="round" stroke-miterlimit="10" d="m139.167 109.186 8.368-4.393M139.999 110.762l8.367-4.394M151.286 121.018a2.04 2.04 0 1 0-.531-4.048 2.04 2.04 0 0 0-1.763 2.287 2.046 2.046 0 0 0 2.294 1.761ZM129.101 140.243l2.887-11.353 3.765 2.006 4.928-14.862"/><path fill="var(--unique-black)" d="m138.72 116.291 2.422-1.562 1.535 2.171-3.957-.609ZM177.064 98.17c-4.048 0-7.339 3.282-7.339 7.318s3.291 7.317 7.339 7.317 7.34-3.281 7.34-7.317c0-4.791-3.292-7.317-7.34-7.317Zm0 9.779a2.497 2.497 0 0 1-2.501-2.494 2.497 2.497 0 0 1 2.501-2.494c1.382 0 2.468.853 2.468 2.494a2.469 2.469 0 0 1-2.468 2.494Z"/><path stroke="var(--brand-sapphire-10)" stroke-linecap="round" stroke-linejoin="round" stroke-miterlimit="10" d="M177.065 102.994v-4.823M174.563 105.488h-4.838M175.157 103.88l-3.324-3.282"/><circle cx="188.415" cy="122.866" r="4.073" stroke="var(--steel-90)"/><path stroke="var(--steel-90)" stroke-linecap="round" stroke-linejoin="round" d="M264.866 67.238c-3.828-1.821-13.138-2.512-6.921 2.2M270.349 101.326c3.156 1.686 10.978 2.633 5.921-1.583"/><path stroke="var(--steel-90)" stroke-linecap="round" stroke-linejoin="round" d="M260.306 68.321c-.469-.78 2.039-.409 3.023.142M274.538 99.924c.491.766-2.026.469-3.026-.053"/><path stroke="var(--steel-90)" stroke-linecap="round" stroke-linejoin="round" stroke-miterlimit="10" d="m271.969 72.499-9.312 24.449M280.496 89.86l-26-9.856"/><circle cx="267.309" cy="85.102" r="9.815" stroke="var(--steel-90)" stroke-linecap="round" stroke-linejoin="round" stroke-miterlimit="10" transform="rotate(20.898 267.309 85.102)"/><circle cx="267.308" cy="85.102" r="6.616" stroke="var(--steel-90)" stroke-linecap="round" stroke-linejoin="round" stroke-miterlimit="10" transform="rotate(20.898 267.308 85.102)"/><circle cx="267.308" cy="85.102" r="3.831" stroke="var(--steel-90)" stroke-linecap="round" stroke-linejoin="round" stroke-miterlimit="10" transform="rotate(20.898 267.308 85.102)"/><circle cx="267.207" cy="85.039" r="1.301" fill="var(--unique-black)" stroke="var(--steel-90)" stroke-linecap="round" stroke-linejoin="round" stroke-miterlimit="10" transform="rotate(20.898 267.207 85.039)"/><path stroke="var(--steel-90)" stroke-linecap="round" stroke-linejoin="round" stroke-miterlimit="10" d="m244.954 43.662 3.304-7.686 7.71 3.294-3.304 7.686-7.71-3.294ZM261.665 41.463l-2.95 2.42M27.826 99.03l-2.13 4.122M20.887 92.318l-5.291-.055"/></g><defs><clipPath id="a"><path fill="var(--unique-white)" d="M0 0h300v200H0z"/></clipPath></defs></svg>
