<svg xmlns="http://www.w3.org/2000/svg" width="300" height="200" fill="none"><path fill="var(--brand-sapphire-10, #d5e8fd)" d="M260.184 116.418c0 41.341-33.578 75.274-75.046 74.817-44.404-.457-75.046-33.476-75.046-74.817 0-50.305 34.128-75.549 75.046-74.817 41.468.732 75.046 33.475 75.046 74.817Z"/><path fill="var(--unique-white, #ffffff)" stroke="var(--unique-black, #111111)" stroke-linecap="round" stroke-linejoin="round" stroke-miterlimit="10" d="m119.519 42.679 10.814-7.507c-.275-1.872-.083-4.087 1.699-6.451 3.904-5.36 11.608-1.19 12.253 3.543.735 4.625-.414 7.329-.414 7.329l-1.806-.03s-2.644 3.843-6.622 2.02l-10.361 8.064c-2.011-2.209-4.22-4.398-5.563-6.968Z"/><mask id="a9" fill="var(--unique-white, #ffffff)"><path d="M133.829 26.554c.487-.145.776-.272 1.173-.31 1.371-.328 2.582-.242 4.208.005 5.287-1.296 7.993 4.043 5.162 5.907-2.507 1.034-4.384 1.31-5.688.234-3.347-2.582-4.837.754-2.665 2.547.543.449-1.062 1.498-3.156 1.595-1.499.04-2.495-.964-2.604-1.054-.276-1.871-.192-4.176 1.571-6.739.45-.541 1.549-1.643 1.999-2.185Z"/></mask><path fill="var(--unique-black, #111111)" stroke="var(--unique-black, #111111)" stroke-width="2" d="M133.829 26.554c.487-.145.776-.272 1.173-.31 1.371-.328 2.582-.242 4.208.005 5.287-1.296 7.993 4.043 5.162 5.907-2.507 1.034-4.384 1.31-5.688.234-3.347-2.582-4.837.754-2.665 2.547.543.449-1.062 1.498-3.156 1.595-1.499.04-2.495-.964-2.604-1.054-.276-1.871-.192-4.176 1.571-6.739.45-.541 1.549-1.643 1.999-2.185Z" mask="url(#a9)"/><mask id="b12" fill="var(--unique-white, #ffffff)"><path d="M140.902 30.385c.236.377.363.665.112 1.188-.556 1.55-1.903 4.273-1.05 5.891.708 1.132 2.278.785 2.318 2.28-.012 1.998-2.374 3.518-4.289 3.398-6.954-.446-1.094-10.583.343-13.415.773-1.37 2.653-.549 2.566.658Z"/></mask><path fill="var(--unique-black, #111111)" stroke="var(--unique-black, #111111)" stroke-width="2" d="M140.902 30.385c.236.377.363.665.112 1.188-.556 1.55-1.903 4.273-1.05 5.891.708 1.132 2.278.785 2.318 2.28-.012 1.998-2.374 3.518-4.289 3.398-6.954-.446-1.094-10.583.343-13.415.773-1.37 2.653-.549 2.566.658Z" mask="url(#b12)"/><path fill="var(--unique-white, #ffffff)" stroke="var(--unique-black, #111111)" stroke-linecap="round" stroke-linejoin="round" stroke-miterlimit="10" d="m37.431 137.714-22.843 3.109c-.826-6.036 5.412-7.957 5.412-7.957l-1.009-7.317s.092 0 .184-.092l16.33-1.463c.642 5.945 1.926 13.72 1.926 13.72ZM121.101 159.939l-15.046 17.378c-4.587-3.933-1.284-9.512-1.284-9.512l-5.596-4.847v-.183l11.192-11.891c4.587 4.025 10.734 9.055 10.734 9.055Z"/><path stroke="var(--unique-black, #111111)" stroke-linecap="round" stroke-linejoin="round" stroke-miterlimit="10" d="m104.679 167.805 3.211-3.201"/><mask id="c12" fill="var(--unique-white, #ffffff)"><path d="M112.477 151.525c-11.468-10.427-22.752-29.726-22.018-45.183.734-16.921 11.376-32.378 25.963-40.701 9.725-5.488 2.11-19.757-7.339-16.83-1.101-1.372-2.661-2.47-4.863-3.018-21.284-5.762-45.596-9.055-65.229 3.476-10 6.31-16.789 15.823-19.908 27.164-3.028 10.61-2.018 38.964-1.01 49.848 6.147 0 12.386-.092 18.533-.092-1.468-16.097-2.66-52.317 12.935-61.646 12.845-7.592 27.982-6.128 42.11-2.836-11.376 11.708-18.44 27.165-19.54 43.72-1.377 19.848 12.568 45.732 27.063 59.268 4.496-4.207 8.624-9.146 13.303-13.17Z"/></mask><path fill="var(--brand-sapphire-60, #1952b6)" stroke="var(--unique-black, #111111)" stroke-width="2" d="M112.477 151.525c-11.468-10.427-22.752-29.726-22.018-45.183.734-16.921 11.376-32.378 25.963-40.701 9.725-5.488 2.11-19.757-7.339-16.83-1.101-1.372-2.661-2.47-4.863-3.018-21.284-5.762-45.596-9.055-65.229 3.476-10 6.31-16.789 15.823-19.908 27.164-3.028 10.61-2.018 38.964-1.01 49.848 6.147 0 12.386-.092 18.533-.092-1.468-16.097-2.66-52.317 12.935-61.646 12.845-7.592 27.982-6.128 42.11-2.836-11.376 11.708-18.44 27.165-19.54 43.72-1.377 19.848 12.568 45.732 27.063 59.268 4.496-4.207 8.624-9.146 13.303-13.17Z" mask="url(#c12)"/><path stroke="var(--unique-black, #111111)" stroke-linecap="round" stroke-linejoin="round" stroke-miterlimit="10" d="m19.909 132.775 4.587-.275"/><path fill="var(--unique-white, #ffffff)" stroke="var(--unique-black, #111111)" stroke-linecap="round" stroke-linejoin="round" stroke-miterlimit="10" d="m172.387 78.903-1.652-.366c-.183-.275-.459-.457-.642-.64-.367-.366-.826-.64-1.376-.915-.551-.274-1.101-.457-1.743-.64a32.865 32.865 0 0 1-5.505-1.92c-.275-.184-.642-.275-.917-.458-3.762-1.83-7.432-4.39-11.101-7.317-.642-.55-1.285-1.006-1.835-1.555-3.486-3.018-6.881-6.403-10.092-9.787-.275-.366-.642-.64-.917-1.006-.092-.091-.184-.183-.184-.274-.275-.275-.55-.64-.825-.915-1.56-1.738-3.028-3.384-4.496-5.03-.734-.824-1.468-1.647-2.11-2.47a658.727 658.727 0 0 1-2.936-3.475c-.275-.275-.458-.55-.642-.824-.183-.183-.367-.366-.459-.548-.091-.183-.183-.275-.275-.458a5.862 5.862 0 0 0-.917-1.189c-.551-.64-1.193-1.28-1.743-1.83-2.477-2.56-5.23-4.938-8.074-7.042-.459-.274-.825-.64-1.284-.914-3.486-2.47-7.248-4.574-11.101-6.311-.275-.183-.642-.275-.918-.458-3.578-1.555-7.247-2.835-11.1-3.75-.276-.091-.643-.183-.918-.274-.459-.092-.826-.183-1.284-.274-1.743-.366-3.487-.732-5.23-.915-1.56-.183-3.027-.366-4.587-.457-.275 0-.642 0-.917-.092a75.326 75.326 0 0 0-11.101.274c-.275 0-.642.092-.918.092-.275 0-.55.091-.734.091-1.743.275-3.486.55-5.229.915-1.743.366-3.394.823-5.046 1.28-.275.092-.642.183-.917.275-.092 0-.275.091-.367.091-4.587 1.464-5.78 5.763-4.77 9.33.09.274.183.64.274.914.918 2.104 2.57 3.75 4.863 4.208.275.091.642.091.917.091.826 0 1.743-.091 2.66-.366 2.753-.914 5.597-1.555 8.35-2.012.275 0 .642-.091.917-.091 3.67-.55 7.431-.64 11.1-.458.276 0 .643 0 .918.092 3.762.274 7.431 1.006 11.101 2.103.275.092.642.183.918.275 3.853 1.189 7.614 2.927 11.1 5.03 0 0 .092 0 .092.092.184.091.275.183.459.274l-.551.275-3.761 1.554-1.651.732.091.183 5.321 8.872.918 1.555.183.274.184.366.55.915 6.606 11.067.55.914 1.101 1.738 1.376 2.287.551-.366.917-.64 4.312-3.019 1.376-.914 4.312-3.018c.367.365.734.731 1.009 1.189.276.365.643.64.918 1.006l.826.823c.275.274.55.64.825.914 2.936 3.11 6.055 6.129 9.45 8.964.275.274.642.549.917.823.459.457 1.009.823 1.468 1.28.367.275.734.64 1.101.915a102.296 102.296 0 0 0 8.44 6.037c.276.183.643.366.918.548 2.936 1.738 5.871 3.293 8.807 4.39 1.101.458 2.11.824 3.211 1.098.642.183 1.376.366 2.018.55 2.753.73 6.056 1.097 9.083 1.188H174.68c-.367-4.39-.55-8.78-2.293-12.896Z"/><mask id="d12" fill="var(--unique-white, #ffffff)"><path d="M174.204 74.078c.439-2.739 3.655-4.005 5.853-2.305l12.768 9.871c2.243 1.734 1.75 5.244-.883 6.288l-15.329 6.077c-2.64 1.047-5.42-1.18-4.97-3.982l2.561-15.949Z"/></mask><path fill="var(--unique-white, #ffffff)" stroke="var(--unique-black, #111111)" stroke-width="2" d="M174.204 74.078c.439-2.739 3.655-4.005 5.853-2.305l12.768 9.871c2.243 1.734 1.75 5.244-.883 6.288l-15.329 6.077c-2.64 1.047-5.42-1.18-4.97-3.982l2.561-15.949Z" mask="url(#d12)"/><path fill="var(--unique-white, #ffffff)" d="M56.24 33.994c-4.22 1.098-6.147 5.488-7.523 4.299-1.377-1.28 1.467-2.653 1.284-4.848-.184-2.195-8.257 3.11-8.807.275-.276-1.555 5.137-4.116 5.137-4.116s-5.596 2.47-6.238.274c-.643-2.195 5.871-4.207 5.871-4.207s-4.77 2.287-5.137-.092C40.46 23.293 48.9 21.19 52.203 20"/><path stroke="var(--unique-black, #111111)" stroke-linecap="round" stroke-linejoin="round" stroke-miterlimit="10" d="M56.24 33.994c-4.22 1.098-6.147 5.488-7.523 4.299-1.377-1.28 1.467-2.653 1.284-4.848-.184-2.195-8.257 3.11-8.807.275-.276-1.555 5.137-4.116 5.137-4.116s-5.596 2.47-6.238.274c-.643-2.195 5.871-4.207 5.871-4.207s-4.77 2.287-5.137-.092C40.46 23.293 48.9 21.19 52.203 20"/><path fill="var(--unique-white, #ffffff)" d="M121.836 37.104h.275l2.385-2.287.551-.548.367.64 2.936 4.756-2.936 1.463-.184.092-1.651.823-10.183 4.939-.918.366-10.826 5.305-.183.091-2.477 1.19-1.285.64-.183-.64-.183-.915-2.202-10.976v-.274l1.376-.64 4.037-2.013.091-.091.826-.366 1.009-.549"/><path stroke="var(--unique-black, #111111)" stroke-linecap="round" stroke-linejoin="round" stroke-miterlimit="10" d="M121.836 37.104h.275l2.385-2.287.551-.548.367.64 2.936 4.756-2.936 1.463-.184.092-1.651.823-10.183 4.939-.918.366-10.826 5.305-.183.091-2.477 1.19-1.285.64-.183-.64-.183-.915-2.202-10.976v-.274l1.376-.64 4.037-2.013.091-.091.826-.366 1.009-.549"/><path fill="var(--unique-white, #ffffff)" d="m124.496 60.061-1.009 1.921L122.295 65l-.367.915-2.661 6.585-5.871-1.555-.918-.274-3.578-.915 1.743-2.103 1.376-1.738 1.377-1.647 8.44-10.335.826-.914 1.834-2.287.918-1.098 3.394-4.115 2.386-2.836 2.844 3.201-2.936 1.83-.092.274"/><path stroke="var(--unique-black, #111111)" stroke-linecap="round" stroke-linejoin="round" stroke-miterlimit="10" d="m124.496 60.061-1.009 1.921L122.295 65l-.367.915-2.661 6.585-5.871-1.555-.918-.274-3.578-.915 1.743-2.103 1.376-1.738 1.377-1.647 8.44-10.335.826-.914 1.834-2.287.918-1.098 3.394-4.115 2.386-2.836 2.844 3.201-2.936 1.83-.092.274"/><path fill="var(--unique-white, #ffffff)" d="M53.762 19.543s3.211 10.793 3.761 13.994Z"/><path stroke="var(--unique-black, #111111)" stroke-linecap="round" stroke-linejoin="round" stroke-miterlimit="10" d="M53.762 19.543s3.211 10.793 3.761 13.994"/><path fill="var(--unique-black, #111111)" d="M160.459 88.872h-2.293c.826.366 1.743.64 2.569.915.183-.549.458-1.098.642-1.647V77.805h4.404c.091-.274.275-.64.367-.915h-4.771v-2.652c-.275-.183-.642-.274-.918-.457v3.018h-11.1V66.372c-.643-.549-1.285-1.006-1.835-1.555h-10.092v-9.786c-.275-.366-.642-.64-.918-1.006v10.792h-10.275c.275.275.551.64.826.915h9.449v8.963c.276.275.643.549.918.823v-9.786h11.101v11.067h-9.541c.367.274.733.64 1.1.915h8.441v6.036c.275.183.642.366.917.549v-6.585h11.101v11.158h-.092ZM113.396 64.451c-.367.458-.734.915-1.101 1.464h.183v4.847l.918.275v-5.03h8.532l.367-.915h-8.808v-.64h-.091ZM135.413 53.019h-10v-2.836c-.275.366-.642.732-.917 1.006v1.83h-1.56c-.275.274-.55.64-.825.914h2.385v9.238c.275.366.642.64.917 1.006V53.933h10.826c-.275-.274-.55-.549-.826-.914ZM125.047 34.269l-.551.548v6.311h-11.101V30.061h.367c-.459-.274-.826-.64-1.284-.914h-11.101v-6.403c-.275-.183-.642-.274-.918-.457v6.768h-11.1V18.628c-.276-.091-.643-.183-.918-.274v10.793h-11.1V18.08h9.816c-1.743-.366-3.487-.732-5.23-.915H77.34v-.457c-.275 0-.642 0-.917-.092v.549H65.505v-.183c-.275 0-.642.091-.917.091v.092h-.734c-1.743.274-3.486.549-5.23.915h5.964v11.067h-8.074c.092.274.184.64.276.914h7.706v1.92c.275 0 .642-.09.918-.09v-1.83h11.1v1.372c.276 0 .643 0 .918.092V30.06h11.1v3.567c.276.092.643.183.918.275V30.06h11.101v11.067h-4.037l-1.376.732v.183h5.413V53.11h-.55c0 .092.091.274.091.366l1.285-.64V42.043h11.101v5.762c.275-.091.642-.274.917-.366v-5.305h9.817c.734-.365 1.468-.731 2.201-1.006V35l-.366-.731Zm-48.533-5.122H65.505V18.08h11.101v11.067h-.092Zm35.964 11.981h-11.101V30.061h11.101v11.067Z"/><path fill="var(--unique-white, #ffffff)" d="M161.194 89.604c2.569-7.043 4.862-13.262 4.862-13.262Z"/><path stroke="var(--unique-black, #111111)" stroke-linecap="round" stroke-linejoin="round" stroke-miterlimit="10" d="M161.194 89.604c2.569-7.043 4.862-13.262 4.862-13.262"/><path fill="var(--unique-white, #ffffff)" d="M171.468 84.573s2.477-.274 3.761-1.646c1.285-1.372 5.78.183 5.505-1.83-.275-2.011-8.165-2.926-13.761-4.755"/><path stroke="var(--unique-black, #111111)" stroke-linecap="round" stroke-linejoin="round" stroke-miterlimit="10" d="M171.468 84.573s2.477-.274 3.761-1.646c1.285-1.372 5.78.183 5.505-1.83-.275-2.011-8.165-2.926-13.761-4.755M237.247 23.567c23.853 64.665-14.679 114.695-35.688 114.604-48.807-.275-64.128 2.012-62.293 11.798"/><path stroke="var(--unique-black, #111111)" stroke-linecap="round" stroke-linejoin="round" stroke-miterlimit="10" d="M160.917 149.146c-21.284-.274-24.312.183-24.679 5.031-.367 5.305 7.798 5.762 7.798 5.762"/><path stroke="var(--unique-black, #111111)" stroke-linecap="round" stroke-linejoin="round" stroke-miterlimit="10" d="M293.486 61.982c2.477 87.164-49.175 119.908-99.083 114.146-50-5.762-54.037-10.61-50.367-16.372 2.018-3.11 11.376-3.11 19.633-2.469"/><path stroke="var(--unique-black, #111111)" stroke-linecap="round" stroke-linejoin="round" stroke-miterlimit="10" d="M223.669 152.256c-25.872-9.055-26.606 6.311-42.569 1.006-15.963-5.305-23.303 0-14.771 6.494 8.533 6.494 19.266 7.774 31.101 10.244"/><path stroke="var(--steel-90, #001729)" stroke-linecap="round" stroke-linejoin="round" stroke-miterlimit="10" d="m121.101 119.238 17.615 8.598M134.22 103.323l4.862 7.318M230.092 81.83 217.34 93.627M211.193 82.653l-2.019 4.482M70.917 140.458l-2.386 1.829M79.908 150.61l.459 3.659M49.817 85.305l-3.028 2.378M7.706 121.525H4.22M170.642 47.805l1.652 2.836M223.853 40.397l-3.669 2.47M222.019 186.098l2.11 2.469"/><path fill="var(--unique-black, #111111)" d="m66.515 170.658-3.243-4.77-4.784 3.233 3.243 4.77 4.784-3.233Z"/><mask id="e" fill="var(--unique-white, #ffffff)"><path d="m58.222 157.923-7.584-11.155-11.19 7.562 7.585 11.155 11.19-7.562Z"/></mask><path stroke="var(--steel-90, #001729)" stroke-width="2" d="m58.222 157.923-7.584-11.155-11.19 7.562 7.585 11.155 11.19-7.562Z" mask="url(#e)"/><mask id="f" fill="var(--unique-white, #ffffff)"><path d="m45.306 180.765-5.701-8.387-8.413 5.685 5.702 8.386 8.412-5.684Z"/></mask><path stroke="var(--steel-90, #001729)" stroke-width="2" d="m45.306 180.765-5.701-8.387-8.413 5.685 5.702 8.386 8.412-5.684Z" mask="url(#f)"/><path fill="var(--unique-black, #111111)" d="m229.173 65.183-.275.274c-1.376 1.19-3.486 1.098-4.679-.365l-.275-.275c-1.193-1.372-1.101-3.475.367-4.664l.275-.275c1.376-1.189 3.486-1.097 4.679.366l.275.275c1.193 1.371 1.101 3.475-.367 4.664Z"/><mask id="g" fill="var(--unique-white, #ffffff)"><path d="M179.996 104.258a5.926 5.926 0 0 1 5.096-2.903h19.652a5.927 5.927 0 0 1 5.097 2.903l3.97 6.696c1.171 1.975-.253 4.474-2.549 4.474h-32.688c-2.296 0-3.719-2.499-2.548-4.474l3.97-6.696Z"/></mask><path fill="var(--unique-white, #ffffff)" stroke="var(--unique-black, #111111)" stroke-width="2" d="M179.996 104.258a5.926 5.926 0 0 1 5.096-2.903h19.652a5.927 5.927 0 0 1 5.097 2.903l3.97 6.696c1.171 1.975-.253 4.474-2.549 4.474h-32.688c-2.296 0-3.719-2.499-2.548-4.474l3.97-6.696Z" mask="url(#g)"/><mask id="h" fill="var(--unique-white, #ffffff)"><path d="M170.391 119.808a5.926 5.926 0 0 1 5.094-2.899h38.939a5.924 5.924 0 0 1 5.093 2.899l3.981 6.698c1.173 1.975-.25 4.476-2.547 4.476h-51.994c-2.297 0-3.72-2.501-2.546-4.476l3.98-6.698Z"/></mask><path fill="var(--unique-white, #ffffff)" stroke="var(--unique-black, #111111)" stroke-width="2" d="M170.391 119.808a5.926 5.926 0 0 1 5.094-2.899h38.939a5.924 5.924 0 0 1 5.093 2.899l3.981 6.698c1.173 1.975-.25 4.476-2.547 4.476h-51.994c-2.297 0-3.72-2.501-2.546-4.476l3.98-6.698Z" mask="url(#h)"/><mask id="i" fill="var(--unique-white, #ffffff)"><path d="M159.214 137.99c1.526-2.566 2.29-3.85 3.488-4.608.158-.1.32-.192.487-.277 1.264-.642 2.757-.642 5.744-.642h52.116c2.987 0 4.48 0 5.745.642.166.085.328.177.486.277 1.198.758 1.962 2.042 3.489 4.608 2.137 3.593 3.206 5.39 2.578 6.794a3.062 3.062 0 0 1-.281.495c-.885 1.257-2.976 1.257-7.157 1.257h-61.836c-4.181 0-6.271 0-7.156-1.257a2.994 2.994 0 0 1-.282-.495c-.628-1.404.441-3.201 2.579-6.794Z"/></mask><path fill="var(--unique-white, #ffffff)" stroke="var(--unique-black, #111111)" stroke-width="2" d="M159.214 137.99c1.526-2.566 2.29-3.85 3.488-4.608.158-.1.32-.192.487-.277 1.264-.642 2.757-.642 5.744-.642h52.116c2.987 0 4.48 0 5.745.642.166.085.328.177.486.277 1.198.758 1.962 2.042 3.489 4.608 2.137 3.593 3.206 5.39 2.578 6.794a3.062 3.062 0 0 1-.281.495c-.885 1.257-2.976 1.257-7.157 1.257h-61.836c-4.181 0-6.271 0-7.156-1.257a2.994 2.994 0 0 1-.282-.495c-.628-1.404.441-3.201 2.579-6.794Z" mask="url(#i)"/><path stroke="var(--unique-black, #111111)" stroke-linecap="round" d="M166.017 135.736h11.144M168.616 137.402h11.144M186.447 121.848h6.687M200.192 113.33h6.686"/><path fill="var(--unique-black, #111111)" d="M259.662 182.686c5.818-5.077 11.548-10.124 17.365-15.201 1.354-1.138 4.535-5.705 3.598-6.741-.937-1.035-5.905 1.431-7.259 2.569-5.817 5.077-11.548 10.124-17.365 15.201-2.561 2.42 1.07 6.505 3.661 4.172Z"/><path stroke="var(--unique-black, #111111)" stroke-linecap="round" stroke-linejoin="round" stroke-miterlimit="10" d="m270.135 176.501-8.697 7.703-2.871-3.28"/><path stroke="var(--unique-white, #ffffff)" stroke-linecap="round" stroke-linejoin="round" stroke-miterlimit="10" d="m263.871 180.282-4.976-5.751M277.359 167.059l-3.332-4.022"/><path stroke="var(--unique-black, #111111)" stroke-linecap="round" stroke-linejoin="round" stroke-miterlimit="10" d="m281.902 159.635-3.427 3.005"/><path stroke="var(--steel-90, #001729)" stroke-linecap="round" stroke-linejoin="round" stroke-miterlimit="10" d="m291.495 150.594 4.398-3.175M289.285 140.366l-1.677 7.249"/><path stroke="var(--steel-90, #001729)" d="M208.674 38.842c0 4.773-3.882 8.646-8.674 8.646s-8.674-3.873-8.674-8.646c0-4.774 3.882-8.647 8.674-8.647s8.674 3.873 8.674 8.647Z"/></svg>
