<svg xmlns="http://www.w3.org/2000/svg" width="300" height="200" fill="none"><g clip-path="url(#a)"><path fill="var(--unique-white, #ffffff)" d="m54.5 41.5 2 1H63l1.5-.5 1-2v-3l-2-2.5-1-.5-6 5-2 1v1.5ZM56.5 44 54 48.5l3 1 .5-3.5-.5-2h-.5Z"/><path fill="var(--unique-white, #ffffff)" stroke="var(--unique-black, #111111)" stroke-linecap="round" stroke-linejoin="round" stroke-miterlimit="10" d="M219.742 23.266H88.071v112.849h131.671V23.266Z"/><path stroke="var(--unique-black, #111111)" stroke-linecap="round" stroke-linejoin="round" stroke-miterlimit="10" d="m206.821 116.25 6.787 5.153M205.112 119.824l1.583 2.327M100.657 17.308v11.917M115.943 17.308v11.917M131.238 17.308v11.917M146.528 17.308v11.917M161.82 17.308v11.917M192.405 17.308v11.917M177.108 17.308v11.917M207.604 17.308v11.917M100.296 42.264l-1.51 1.505M99.541 71.563l1.442 1.78M202.833 73.35l.357 2.262M101.311 119.379l-1.274 1.653M98.99 115.229l-3.91.9M207.673 39.11l-1.853.958M207.136 69.197l-2.084-.098"/><path fill="var(--brand-sapphire-60, #1952b6)" stroke="var(--brand-sapphire-60, #1952b6)" d="m152.423 84.784 4.214 8.539.117.236.26.037 9.423 1.37-6.819 6.646-.188.184.045.259 1.609 9.386-8.428-4.432-.233-.122-.233.122-8.428 4.432 1.609-9.386.045-.259-.188-.184-6.819-6.646 9.423-1.37.26-.038.117-.235 4.214-8.54Z"/><path stroke="var(--unique-black, #111111)" d="m152.423 41.514 4.214 8.54.117.235.26.038 9.423 1.37-6.819 6.646-.188.184.045.259 1.609 9.385-8.428-4.431-.233-.122-.233.122-8.428 4.431 1.609-9.385.045-.26-.188-.183-6.819-6.647 9.423-1.369.26-.038.117-.236 4.214-8.539ZM113.962 84.784l4.214 8.539.116.236.26.037 9.424 1.37-6.819 6.646-.188.184.044.259 1.61 9.386-8.429-4.432-.232-.122-.233.122-8.429 4.432 1.61-9.386.044-.259-.188-.184-6.819-6.646 9.424-1.37.26-.038.116-.235 4.215-8.54Z"/><path fill="var(--brand-sapphire-10, #d5e8fd)" d="m114.923 40.385 4.663 9.447 10.426 1.515-7.545 7.354 1.781 10.384-9.325-4.902-9.325 4.902 1.781-10.384-7.545-7.354 10.426-1.515 4.663-9.447Z"/><path stroke="var(--unique-black, #111111)" d="m188.962 41.514 4.214 8.54.116.235.26.038 9.424 1.37-6.819 6.646-.188.184.044.259 1.61 9.385-8.429-4.431-.232-.122-.233.122-8.429 4.431 1.61-9.385.044-.26-.188-.183-6.819-6.647 9.424-1.369.26-.038.116-.236 4.215-8.539ZM188.962 84.784l4.214 8.539.116.236.26.037 9.424 1.37-6.819 6.646-.188.184.044.259 1.61 9.386-8.429-4.432-.232-.122-.233.122-8.429 4.432 1.61-9.386.044-.259-.188-.184-6.819-6.646 9.424-1.37.26-.038.116-.235 4.215-8.54Z"/><path fill="var(--unique-black, #111111)" d="m235.357 15.242-3.607 2.75 2.758 3.597 3.608-2.75-2.759-3.597Z"/><path stroke="var(--steel-90, #001729)" stroke-linecap="round" stroke-linejoin="round" stroke-miterlimit="10" d="m45.031 15.385 2.475 5.45M256.44 17.39l-1.561 1.557M11.227 176.404l-5.405 1.637M10.64 168.619l-3.919-2.687M41.936 24.8l-2.494-.912M248.144 11.537l1.275 7.001M273.301 175l-2.128 2.122M275.177 183.52l-2.94-.626"/><path fill="var(--unique-black, #111111)" d="m78.863 175.021-1.776 13.025h22.2s1.481-5.55-4.144-6.808l.296-6.217H78.863Z"/><path stroke="var(--unique-white, #ffffff)" stroke-linecap="round" stroke-linejoin="round" stroke-miterlimit="10" d="m94.18 178.943-3.404 3.404M94.18 182.347l-3.404-3.404"/><path fill="var(--unique-black, #111111)" d="m27.652 175.021-3.33 13.025h23.014s2.368-5.254-3.848-6.438l1.332-6.587H27.652Z"/><path fill="var(--brand-sapphire-60, #1952b6)" stroke="var(--unique-black, #111111)" stroke-linecap="round" stroke-linejoin="round" stroke-miterlimit="10" d="M45.042 176.131A425.635 425.635 0 0 0 57.4 92.509c3.922 4.144 6.66 9.546 9.177 14.504 4.07 7.993 7.104 16.503 9.25 25.235 3.552 14.357 4.366 29.305 2.516 43.957h17.39c1.85-16.65.74-33.523-3.478-49.803-2.59-10.138-6.438-19.981-11.322-29.23-4.884-9.325-10.952-18.945-20.647-23.977-2.812-1.48-6.216-1.406-8.806.074-4.884-1.184-10.952 1.554-11.1 8.14-.666 32.117-5.18 63.864-13.394 94.87h18.056v-.148Z"/><path stroke="var(--unique-white, #ffffff)" stroke-linecap="round" stroke-linejoin="round" stroke-miterlimit="10" d="m42.972 178.943-3.404 3.404M42.972 182.347l-3.404-3.404"/><path fill="var(--unique-black, #111111)" d="M62.88 33.975c-2.516-1.48-7.104-.37-6.808 3.7v.222c0 .074-.074.148-.074.222 0 .518.148 1.998.962 1.85.37-.074.444-.444.518-.814.074-.296.074-.666.074-.962 1.998-1.11 5.254-3.034 5.328-4.218Z"/><path stroke="var(--unique-black, #111111)" stroke-linecap="round" stroke-linejoin="round" stroke-miterlimit="10" d="M65.69 39.005c0 .074 0 2.96-2.886 3.7l-3.034 8.806-6.216-1.85 3.774-7.326c-.592.074-2.294.296-2.738-.518-.592-.962.148-2.22 1.628-2.738a58.434 58.434 0 0 1-.222-1.406c-.296-4.366 5.032-5.402 7.326-3.33 2.368 1.998 2.368 4.662 2.368 4.662Z"/><path stroke="var(--unique-black, #111111)" stroke-linecap="round" stroke-linejoin="round" stroke-miterlimit="10" d="m62.803 37.375 1.406 2.22-1.258.444"/><path fill="var(--unique-black, #111111)" d="M57.477 38.411c4.219-2.664 9.62-7.104 9.62-7.104s1.407-2.294-5.031 2.59c-6.513 4.885-4.589 4.514-4.589 4.514Z"/><mask id="b" fill="#fff"><path d="M42.008 80.3c.519-8.14 1.999-23.533 1.999-23.533l20.967 1.479 6.71 24.052L42.008 80.3Z"/></mask><path fill="var(--unique-white, #ffffff)" stroke="var(--unique-black, #111111)" stroke-width="2" d="M42.008 80.3c.519-8.14 1.999-23.533 1.999-23.533l20.967 1.479 6.71 24.052L42.008 80.3Z" mask="url(#b)"/><path stroke="var(--unique-black, #111111)" d="M57.824 49.148V80.52"/><path fill="var(--unique-white, #ffffff)" stroke="var(--unique-black, #111111)" stroke-linecap="round" stroke-linejoin="round" stroke-miterlimit="10" d="M53.11 48.478c-16.207-.592-32.044 2.146-35.966 17.465-3.774 14.652 9.62 27.084 23.977 23.976 7.03-1.554 4.07-12.358-2.96-10.804-7.104 1.554-13.098-6.216-9.102-12.58 4.588-7.252 15.244-6.808 22.718-6.808 7.252 0 8.585-10.953 1.332-11.249Z"/><path fill="var(--unique-white, #ffffff)" stroke="var(--unique-black, #111111)" d="M53.11 48.479c-8.215-.296-16.43.296-22.941 2.886 1.11 3.626 2.442 7.178 3.848 10.656 5.254-2.664 12.358-2.442 17.76-2.368 7.252.074 8.584-10.878 1.332-11.174Z"/><path fill="var(--unique-white, #ffffff)" d="m44.455 63.238.344-5.636.46-8.454 24.211 2.128-1.725 12.595-23.29-.633Z"/><path fill="var(--unique-white, #ffffff)" stroke="var(--unique-black, #111111)" stroke-linecap="round" stroke-linejoin="round" stroke-miterlimit="10" d="M87.077 60.022c-5.032-6.66-12.728-8.88-20.646-9.694.148-1.48-.37-2.738-1.258-3.7-1.036.222-2.072.518-3.108.74-2.22.592-3.33 3.848-5.476 4.662-.297.962-5.18 31.673 20.572 29.305 10.36-.814 16.058-13.247 9.916-21.313Zm-14.652 9.62c-3.108-.666-5.032-3.922-5.624-7.548 4.514.222 7.252 1.332 9.62 2.96 3.774 2.442 1.11 5.624-3.996 4.588Z"/><path stroke="var(--unique-black, #111111)" d="M30.63 52.156h26.335M33.309 59.673h22.685M56.967 67.285H43.735M59.93 74.453H43.267"/><path fill="var(--unique-white, #ffffff)" stroke="var(--unique-black, #111111)" d="M66.503 50.327c.074-.592 0-1.11-.148-1.628-.592 2.146-1.406 4.218-2.072 6.364.074.074.148.148.148.222.148.296.222.666.37.962a.803.803 0 0 1 .592.592c.518 1.628.814 3.182.962 4.884 3.256.296 6.734.962 9.25 2.59a434.856 434.856 0 0 1 4.366-10.36c-3.996-2.146-8.732-3.108-13.468-3.626Z"/><path fill="var(--unique-white, #ffffff)" d="M56.541 52.315c.519-3.108 1.306-6.205.418-8.647-.888-2.442-.666-3.552 2.22.444 0 0-1.776-3.478-1.036-3.848.814-.37 2.886 2.886 2.886 2.886s-2.294-3.478-1.11-3.552c1.11-.074 2.072 2.368 3.774 2.738 1.702.37 2.146-2.812 2.886-2.072 1.184 1.258.592 6.512-.074 10.064-.296 1.85.592 8.88.296 11.692"/><path stroke="var(--unique-black, #111111)" stroke-linecap="round" stroke-linejoin="round" stroke-miterlimit="10" d="M56.541 52.315c.519-3.108 1.306-6.205.418-8.647-.888-2.442-.666-3.552 2.22.444 0 0-1.776-3.478-1.036-3.848.814-.37 2.886 2.886 2.886 2.886s-2.294-3.478-1.11-3.552c1.11-.074 2.072 2.368 3.774 2.738 1.702.37 2.146-2.812 2.886-2.072 1.184 1.258.592 6.512-.074 10.064-.296 1.85.592 8.88.296 11.692"/><path fill="var(--unique-white, #ffffff)" d="M37.939 79.118c3.33-.592 2.294-2.072 4.588-3.848l-.148 2.516s3.848-3.034 4.884-2.072c1.036.888-2.368 3.996-2.368 3.996s3.256-3.256 4.144-1.998c.888 1.258-2.59 4.884-2.59 4.884s3.108-4.144 3.922-2.072c.888 2.072-2.738 8.214-9.546 9.472"/><path stroke="var(--unique-black, #111111)" stroke-linecap="round" stroke-linejoin="round" stroke-miterlimit="10" d="M37.939 79.118c3.33-.592 2.294-2.072 4.588-3.848l-.148 2.516s3.848-3.034 4.884-2.072c1.036.888-2.368 3.996-2.368 3.996s3.256-3.256 4.144-1.998c.888 1.258-2.59 4.884-2.59 4.884s3.108-4.144 3.922-2.072c.888 2.072-2.738 8.214-9.546 9.472"/><path fill="var(--unique-white, #ffffff)" d="M66.349 62.698c.01-.534.023-1.675 0-1.967l-1.236-.196-.729 1.797 1.965.366Z"/><path stroke="var(--unique-black, #111111)" d="M66.653 52.156h9.128M66.923 59.673h10.523M41.332 49.147V59.8M70.927 50.944v11.753M49.379 48.405v31.37M66.362 79.705v1.758"/><path fill="var(--unique-black, #111111)" d="m143.504 154.612-2.689-4.263-4.257 2.692 2.689 4.263 4.257-2.692ZM167.123 154.087l-1.442-2.287-2.284 1.444 1.442 2.287 2.284-1.444Z"/><path stroke="var(--steel-90, #001729)" stroke-linecap="round" stroke-linejoin="round" stroke-miterlimit="10" d="m152.823 149.551 1.704-1.474M150.109 159.707l.852 2.56"/><path fill="var(--unique-black, #111111)" d="M242.024 188.022h17.664s-.246-9.173 0-13.678c.246-4.505-13.967 2.621-13.967 2.621v5.651s-3.697.82-3.697 5.406Z"/><path fill="var(--unique-white, #ffffff)" stroke="var(--unique-black, #111111)" stroke-linecap="round" stroke-linejoin="round" stroke-miterlimit="10" d="M233.399 176.639c.083.163.247.245.329.409.411-.327.822-.655 1.232-.901 2.876-2.129 5.669-4.341 8.298-6.716.493-.41.986-.901 1.479-1.311l.493-.491c-9.284-13.105-13.967-28.749-12.899-44.803.822-12.449 5.423-24.49 12.735-34.564a641.155 641.155 0 0 1 .739 81.415c2.218 3.194 5.176 7.044 6.08 8.272h8.38a641.346 641.346 0 0 0-1.233-102.055c-.411-4.013-3.122-7.454-7.476-7.454-.986 0-2.054.246-2.958.656-2.546-1.31-5.668-1.229-8.215 1.474-27.359 28.75-30.809 73.961-6.984 106.069Z"/><path fill="var(--unique-white, #ffffff)" stroke="var(--unique-black, #111111)" stroke-linecap="round" stroke-linejoin="round" stroke-miterlimit="10" d="M245.311 177.783h6.572c-.904-1.229-3.779-5.078-6.08-8.273-.164 2.785-.328 5.57-.492 8.273Z"/><path fill="var(--unique-black, #111111)" d="M237.588 181.881s-2.464 2.785.247 6.553l14.295-10.238s-.082-.164-.246-.41c-.904-1.228-6.819-9.337-7.148-9.829-.493.492-10.68 8.928-10.68 8.928l3.532 4.996Z"/><path stroke="var(--unique-white, #ffffff)" stroke-linecap="round" stroke-linejoin="round" stroke-miterlimit="10" d="m235.862 179.507 2.465-1.802M237.012 181.144l2.547-1.802"/><path stroke="var(--unique-black, #111111)" stroke-linecap="round" stroke-linejoin="round" stroke-miterlimit="10" d="m245.064 88.099 5.093-1.556"/><path stroke="var(--unique-white, #ffffff)" stroke-linecap="round" stroke-linejoin="round" stroke-miterlimit="10" d="m251.802 178.688-7.97 5.57"/><path stroke="var(--unique-black, #111111)" stroke-linecap="round" stroke-linejoin="round" stroke-miterlimit="10" d="M238.491 75.73c-10.27 18.839-32.698 51.601-1.643 100.336M234.303 78.105l.904 2.949"/><path fill="var(--unique-white, #ffffff)" stroke="var(--unique-black, #111111)" stroke-linecap="round" stroke-linejoin="round" stroke-miterlimit="10" d="M232.82 41.248s.164 3.194 3.204 3.44l4.354 10.893 5.176-1.72-4.354-10.975c.821-.983 1.15-2.457.986-4.505-.411-4.505-6.08-4.668-8.134-2.211-2.054 2.457-2.382 4.423-2.382 4.423l1.15.655Z"/><path fill="var(--brand-sapphire-60, #1952b6)" d="m242.597 46.324 2.957 7.453-5.176 1.72-3.122-7.781c1.808-.491 3.533-.983 5.341-1.392Z"/><path fill="var(--unique-black, #111111)" d="M233.643 34.858c-.082 1.966 1.807 2.949 3.286 3.113 2.136.245 1.397 2.785.082 3.194-.821.246 1.972 1.72 3.533 1.72.247 0 .411.082.657.082 1.479-1.72 1.643-4.095 1.151-5.242-1.069-2.457-7.888-6.225-8.709-2.867Z"/><path fill="var(--unique-black, #111111)" d="M251.225 32.401c3.04 2.621 1.725 7.372 11.009 7.617 9.284.246 15.117 3.85 10.023 5.57-5.094 1.72-6.983-.082-12.406 1.884-5.422 1.966-8.051-.573-10.105-4.669-2.054-4.177-7.805-8.027-10.598-6.552l-.986-1.475c6.655-4.259 9.695-5.242 13.063-2.375Z"/><path fill="var(--brand-sapphire-60, #1952b6)" stroke="var(--unique-black, #111111)" stroke-linecap="round" stroke-linejoin="round" stroke-miterlimit="10" d="M240.464 50.912c13.063-2.13 32.041-4.34 41.49 7.454 4.354 5.405 4.107 13.105.328 18.756-4.026 5.98-10.68 8.436-17.499 9.338-.329-4.014-.575-7.945-1.068-11.959 3.122-.328 6.983-1.474 8.708-4.34 1.726-3.031.082-4.915-2.711-6.308-7.887-3.931-17.664-2.62-26.044-1.31-3.204.491-6.49-.82-7.476-4.26-.739-2.784 1.068-6.797 4.272-7.37Z"/><path fill="var(--unique-white, #ffffff)" stroke="var(--unique-black, #111111)" stroke-linecap="round" stroke-linejoin="round" stroke-miterlimit="10" d="M259.44 80.48c-.328-4.259-.328-7.043-1.396-11.139.575 0 1.889-.655 2.629.82 1.643 3.03 0 4.258 3.04 4.34 0 0 8.626 10.894 1.068 11.959-2.301.327-4.026.41-4.848.41-.164-2.54-.41-4.424-.493-6.39Z"/><path fill="var(--brand-sapphire-60, #1952b6)" stroke="var(--unique-black, #111111)" stroke-linecap="round" stroke-linejoin="round" stroke-miterlimit="10" d="M212.202 61.726c3.451-5.324 11.653-14.16 11.735-14.324 3.697 1.474 5.915 1.556 9.612 3.03-1.15 2.54-2.369 4.414-3.93 6.625 2.876-2.784 6.408-4.668 10.27-5.897 7.476-2.375 10.68 9.337 3.204 11.63-6.244 1.967-7.394 6.799-10.105 12.041-3.287 6.389-13.638 10.156-19.882 5.488-5.669-4.423-4.19-13.597-.904-18.593Zm11.995 2.949c.164-.41.328-.737.575-1.065-.657.983-1.232 2.047-1.643 3.194-.082.246-.165.573-.165.82.493-1.23 1.069-2.54 1.233-2.95Z"/><path fill="var(--brand-sapphire-60, #1952b6)" d="m218.754 69.989 3.21-9.194 7.15 3.722-4.523 6.565-5.837-1.093Z"/><path fill="var(--unique-white, #ffffff)" d="M233.808 50.012c1.15-2.457 2.711-7.453 1.725-8.027-.986-.573-.986 1.474-1.972 1.802-.986.246-.821-1.884-.821-1.884s-6.459 3.055-8.677 5.348"/><path stroke="var(--unique-black, #111111)" stroke-linecap="round" stroke-linejoin="round" stroke-miterlimit="10" d="M233.808 50.012c1.15-2.457 2.711-7.453 1.725-8.027-.986-.573-.986 1.474-1.972 1.802-.986.246-.821-1.884-.821-1.884s-6.459 3.055-8.677 5.348"/><mask id="c" fill="#fff"><path d="M242.817 50.893c13.474.246 12.269 2.23 14.98 11.403 2.711 9.174 3.697 13.597 3.697 13.597l-27.687.9s-1.643-9.09-2.218-14.497c-.493-5.405 1.533-11.566 11.228-11.403Z"/></mask><path fill="var(--brand-sapphire-60, #1952b6)" stroke="var(--unique-black, #111111)" stroke-width="2" d="M242.817 50.893c13.474.246 12.269 2.23 14.98 11.403 2.711 9.174 3.697 13.597 3.697 13.597l-27.687.9s-1.643-9.09-2.218-14.497c-.493-5.405 1.533-11.566 11.228-11.403Z" mask="url(#c)"/><path fill="var(--brand-sapphire-60, #1952b6)" d="m233.055 54.814-4.979-2.261 2.816 19.437 5.592 3.172 1.823-22.61-5.252 2.262ZM243.298 48.154l-5.416 1.064 1.395 3.724 2.152 15.714 5.592 3.172 9.118-9.878 1.295-1.27 3.491-3.743-3.363-5.17-8.648-1.54-4.481.644-1.135-2.717Z"/><path stroke="var(--unique-white, #ffffff)" stroke-linecap="round" stroke-linejoin="round" stroke-miterlimit="10" d="m233.789 73.44 2.136-4.915M232.016 54.401c-5.669 5.57-11.091 15.48-11.091 15.48"/></g><defs><clipPath id="a"><path fill="var(--unique-white, #ffffff)" d="M0 0h300v200H0z"/></clipPath></defs></svg>
