<svg xmlns="http://www.w3.org/2000/svg" width="300" height="200" fill="none"><path fill="var(--brand-sapphire-10, #d5e8fd)" d="M159.308 41.008H99.885v143.404h59.423V41.008Z"/><path fill="var(--brand-sapphire-60, #1952b6)" d="m137.673 150.471 1.442-99.437h-18.942l1.442 99.437h16.058Z"/><path stroke="var(--brand-sapphire-60, #1952b6)" stroke-linecap="round" stroke-linejoin="round" stroke-miterlimit="10" d="M137.385 165.182h-15.48"/><path fill="var(--brand-sapphire-60, #1952b6)" d="m137.481 160.579.096-5.506h-15.865l.096 5.506h15.673ZM111.712 55.471h35.865l-17.5-25.147-18.365 25.147Z"/><path fill="var(--unique-white, #ffffff)" d="m137 41.5 1.5-4 5-3.5 5-1.5 5.5.5-2 4-9 3.5-4 1.5-2-.5Z"/><path fill="var(--brand-sapphire-10, #d5e8fd)" d="M270.173 77.002h-58.077v92.206h58.077V77.002Z"/><path stroke="var(--unique-white, #ffffff)" stroke-linecap="round" stroke-linejoin="round" stroke-miterlimit="10" d="m229.788 125.652 5.577-4.766 10.481 5.506 16.346-21.942"/><path fill="var(--brand-sapphire-60, #1952b6)" d="M152.866 15.778H99.885v3.698h52.981v-3.698ZM159.308 7.067H99.885v3.698h59.423V7.067Z"/><path fill="var(--unique-white, #ffffff)" stroke="var(--unique-black, #111111)" stroke-linecap="round" stroke-linejoin="round" stroke-miterlimit="10" d="M186.999 154.745c2.885 7.725 7.885 20.381 7.885 20.381s-5.577 1.972-4.327 6.492h20.961c.193-.329-8.461-25.147-11.923-31.146-3.076 1.232-12.596 4.273-12.596 4.273Z"/><path fill="var(--unique-black, #111111)" d="M226.038 144.883c8.558 3.534 27.404 10.108 27.404 10.108s-1.154 5.506 5.577 7.725l7.019-15.696c-.096-.329-23.75-8.054-33.173-13.478-1.25 2.712-6.827 11.341-6.827 11.341Z"/><path fill="var(--unique-black, #111111)" d="M230.076 148.499c2.212-3.862 6.154-9.861 8.462-13.642-21.731-10.19-33.558-30.981-37.212-51.855-6.923-1.561-13.75-3.287-20.384-5.424-.193.41-.385.822-.481 1.315-6.154 26.215-4.808 53.499 4.327 79.057 4.904-.822 13.75-2.876 18.558-3.862-5.962-16.601-12.597-32.872-11.635-50.212 6.635 18.408 19.038 35.748 38.365 44.623Z"/><path fill="var(--unique-white, #ffffff)" d="M229.884 147.924c-6.346-2.959-12.115-6.986-17.307-11.916v-23.175c6.538 9.779 15.096 17.258 25.384 22.188-.961 1.562-2.115 3.452-3.365 5.424-1.731 2.63-3.462 5.342-4.712 7.479Z"/><path fill="var(--unique-black, #111111)" d="M213.057 114.312c6.346 9.122 14.519 16.108 24.231 20.874-.865 1.479-2.019 3.205-3.173 5.095-1.539 2.466-3.173 5.013-4.423 7.15-6.058-2.876-11.635-6.821-16.635-11.505v-21.614Zm-.961-3.04v24.9c5.192 4.931 11.154 9.204 18.077 12.327 2.211-3.862 6.153-9.861 8.461-13.642-11.634-5.423-20.384-13.806-26.538-23.585Z"/><path stroke="var(--unique-black, #111111)" stroke-linecap="round" stroke-linejoin="round" stroke-miterlimit="10" d="M193.827 171.181h14.134"/><path stroke="var(--unique-white, #ffffff)" stroke-linecap="round" stroke-linejoin="round" stroke-miterlimit="10" d="m254.307 142.829-4.039 10.683"/><path stroke="var(--unique-black, #111111)" stroke-linecap="round" stroke-linejoin="round" stroke-miterlimit="10" d="M194.884 175.208h3.173"/><path stroke="var(--unique-white, #ffffff)" stroke-linecap="round" stroke-linejoin="round" stroke-miterlimit="10" d="m253.442 154.992 1.154-1.726M189.019 92.699c.288 3.205 2.308 9.615 2.308 9.615"/><path fill="var(--unique-white, #ffffff)" d="M154.596 33.036c-8.077-1.232-10.962.493-13.654 2.22-1.346.903-3.558 3.78-3.75 5.834"/><path stroke="var(--unique-black, #111111)" stroke-linecap="round" stroke-linejoin="round" stroke-miterlimit="10" d="M154.596 33.036c-8.077-1.232-10.962.493-13.654 2.22-1.346.903-3.558 3.78-3.75 5.834"/><path fill="var(--unique-white, #ffffff)" d="M137.48 40.432c2.212-1.89 3.846-3.04 3.846-3.04Z"/><path stroke="var(--unique-black, #111111)" stroke-linecap="round" stroke-linejoin="round" stroke-miterlimit="10" d="M137.48 40.432c2.212-1.89 3.846-3.04 3.846-3.04"/><path fill="var(--unique-white, #ffffff)" d="m143.922 40.433 4.327-3.699 5.673 1.315-1.538 5.26-7.981-1.233-.481-1.643Z"/><path fill="var(--unique-white, #ffffff)" d="M143.249 39.446c-.865 2.877-3.461 3.04-2.596 4.849.866 1.89 5-2.794 8.75-1.973"/><path stroke="var(--unique-black, #111111)" stroke-linecap="round" stroke-linejoin="round" stroke-miterlimit="10" d="M143.249 39.446c-.865 2.877-3.461 3.04-2.596 4.849.866 1.89 5-2.794 8.75-1.973"/><path fill="var(--unique-white, #ffffff)" d="M227 99.52c3.365 2.219 3.269 4.52 4.807 5.835 1.539 1.315 1.731-1.397 1.731-2.712 0-1.315 3.269 3.533 4.712 2.794 1.442-.74-1.731-4.027-1.731-4.027s2.884 3.616 4.134 2.548c1.25-1.069-2.403-4.52-2.403-4.52s2.692 3.369 3.846 2.629c1.154-.739-2.596-5.752-9.423-10.765"/><path stroke="var(--unique-black, #111111)" stroke-linecap="round" stroke-linejoin="round" stroke-miterlimit="10" d="M227 99.52c3.365 2.219 3.269 4.52 4.807 5.835 1.539 1.315 1.731-1.397 1.731-2.712 0-1.315 3.269 3.533 4.712 2.794 1.442-.74-1.731-4.027-1.731-4.027s2.884 3.616 4.134 2.548c1.25-1.069-2.403-4.52-2.403-4.52s2.692 3.369 3.846 2.629c1.154-.739-2.596-5.752-9.423-10.765"/><path fill="var(--unique-white, #ffffff)" stroke="var(--unique-black, #111111)" stroke-linecap="round" stroke-linejoin="round" stroke-miterlimit="10" d="M226.999 99.52c-6.346-3.37-18.462-11.752-24.423-16.93-.096.905-.481 2.713-.769 4.439-2.02-.74-23.75-7.89-23.75-7.89l3.653-7.807c-.384-1.726.577-3.944 3.077-6.574-8.077-9.45-22.692-19.395-36.442-22.435l6.346-9.205c16.058 3.534 29.519 15.368 38.943 26.38l.865.986c1.827 2.055 4.038 4.192 6.346 6.328 10.192 9.369 23.942 18.984 31.827 24.654l-5.673 8.054Z"/><path fill="var(--unique-black, #111111)" d="m232.576 91.384-5.673 8.054c-3.75-1.972-9.519-5.753-14.904-9.615V76.92h.962c7.307 5.752 14.615 10.847 19.615 14.463Z"/><path fill="var(--unique-white, #ffffff)" stroke="var(--unique-black, #111111)" stroke-linecap="round" stroke-linejoin="round" stroke-miterlimit="10" d="M203.634 48.486c-3.365.165-5.096 1.15-5.096 1.15l.288 1.069s-2.307 2.055-.288 4.109l-2.404 7.478c-.385-.41-.865-.904-1.25-1.397l-2.885 6.74 8.366-.905.384-.082c-.096-.082 2.885-9.697 2.885-9.697.096 0 .385 0 .385-.083.096 0 .288-.082.48-.082h.097c.096 0 .192-.082.384-.082.192-.082.481-.164.673-.246.096-.083.289-.165.385-.247a8.04 8.04 0 0 0 1.731-1.315c2.884-2.876-.866-6.574-4.135-6.41Z"/><path fill="var(--unique-black, #111111)" d="M203.538 54.403c-.769-.329-.673 1.808-.385 2.137.096.164.866 4.19 1.731 6.081 1.058 2.383 3.269 4.684 5.385 6.41 2.884 2.383 8.557 3.698 12.211 1.89 3.173-1.561 4.039-5.013 2.212-7.56-1.25-1.808-3.654-2.794-5.866-3.616-1.346-.493-2.788-.74-4.134-1.233-4.039-1.397-4.616-2.876-5.385-6.163-.096-.33-.384-.494-.673-.576-.577-1.89-2.885-3.451-5-3.287-.288 1.561.673 3.863 1.346 4.684.673.822-.577 1.644-1.442 1.233Z"/><path stroke="var(--unique-black, #111111)" stroke-linecap="round" stroke-linejoin="round" stroke-miterlimit="10" d="M99.98 88.835H40.557v95.576H99.98V88.835Z"/><path fill="var(--brand-sapphire-60, #1952b6)" d="m66.711 171.837-.769-15.286-17.692.987 5.769 4.519-10.192 9.615 6.923 5.342 10.192-9.615 5.77 4.438Z"/><path fill="var(--unique-white, #ffffff)" stroke="var(--unique-black, #111111)" stroke-linecap="round" stroke-linejoin="round" stroke-miterlimit="10" d="m66.615 133.623 23.366.986.673-19.805-7.5 5.835-13.558-12.574-8.942 7.068 13.461 12.573-7.5 5.917Z"/><path stroke="var(--unique-black, #111111)" stroke-linecap="round" stroke-linejoin="round" stroke-miterlimit="10" d="m53.25 142.581 20.48-1.233.865 24.161h11.347l6.346 13.395M44.595 150.059l.289-28.352 10.192.493 8.173-21.695 11.346 1.972 5.481-11.176"/><mask id="a" fill="#fff"><path d="M85.653 109.216c2.39 0 4.327-1.656 4.327-3.698 0-2.043-1.937-3.699-4.327-3.699-2.39 0-4.327 1.656-4.327 3.699 0 2.042 1.938 3.698 4.328 3.698Z"/></mask><path fill="var(--brand-sapphire-60, #1952b6)" stroke="var(--brand-sapphire-60, #1952b6)" stroke-width="2" d="M85.653 109.216c2.39 0 4.327-1.656 4.327-3.698 0-2.043-1.937-3.699-4.327-3.699-2.39 0-4.327 1.656-4.327 3.699 0 2.042 1.938 3.698 4.328 3.698Z" mask="url(#a)"/><path fill="var(--brand-sapphire-60, #1952b6)" d="M53.25 151.785c1.592 0 2.884-1.104 2.884-2.465 0-1.362-1.292-2.466-2.885-2.466-1.593 0-2.885 1.104-2.885 2.466 0 1.361 1.292 2.465 2.885 2.465Z"/><path fill="var(--unique-white, #ffffff)" stroke="var(--unique-black, #111111)" stroke-linecap="round" stroke-linejoin="round" stroke-miterlimit="10" d="m82.661 155.593-3.997 1.972 2.308 3.416 3.997-1.972-2.308-3.416Z"/><path stroke="var(--steel-90, #001729)" stroke-linecap="round" stroke-linejoin="round" stroke-miterlimit="10" d="M81.422 142.334h8.27M81.422 145.868h8.27"/><path fill="var(--unique-white, #ffffff)" stroke="var(--unique-black, #111111)" stroke-linecap="round" stroke-linejoin="round" stroke-miterlimit="10" d="m51.942 57.061-37.13 14.193 19.63 37.512 37.13-14.194-19.63-37.51Z"/><path stroke="var(--unique-black, #111111)" stroke-linecap="round" stroke-linejoin="round" stroke-miterlimit="10" d="m29.116 79.303 22.307-8.465"/><path fill="var(--unique-white, #ffffff)" d="M51.712 79.714c1.25-.493 2.403-.904 3.653-1.397Z"/><path stroke="var(--unique-black, #111111)" stroke-linecap="round" stroke-linejoin="round" stroke-miterlimit="10" d="M51.712 79.714c1.25-.493 2.403-.904 3.653-1.397"/><path fill="var(--unique-white, #ffffff)" d="M32.962 86.864c4.134-1.562 8.269-3.123 12.403-4.767Z"/><path stroke="var(--unique-black, #111111)" stroke-linecap="round" stroke-linejoin="round" stroke-miterlimit="10" d="M32.962 86.864c4.134-1.562 8.269-3.123 12.403-4.767"/><path stroke="var(--steel-90, #001729)" stroke-linecap="round" stroke-linejoin="round" stroke-miterlimit="10" d="M33.345 188.602H192M204.211 188.602h80.384M41.614 188.849v4.273M68.153 188.849v4.273M94.692 188.849v4.273M121.23 188.849v4.273M147.769 188.849v4.273M174.307 188.849v4.273M239.98 188.849v4.273M266.423 188.849v4.273M221.231 158.032l.866 2.219M205.943 144.555l2.212 1.479M167.962 168.14l-3.077 5.178M136.905 28.434l-3.462-3.369M144.789 27.695l.385-4.11M30.27 160.662l-3.077.739"/><path stroke="#000" stroke-linecap="round" d="M137.937 40s-1.081 1.166-.921 1.413c.114.174.263.23.461.353C139.165 42.815 143 40 143 40"/></svg>
