<svg xmlns="http://www.w3.org/2000/svg" width="300" height="232" fill="none"><path fill="var(--unique-white, #ffffff)" d="M200 95h-2.5v5.5h2.5V95Z"/><path fill="var(--unique-white, #ffffff)" stroke="var(--unique-black, #111111)" stroke-linecap="round" stroke-linejoin="round" stroke-miterlimit="10" stroke-width=".8" d="M31.874 18.075h161.251V155.9H31.874V18.075Z"/><path fill="var(--unique-white, #ffffff)" stroke="var(--unique-black, #111111)" stroke-linecap="round" stroke-linejoin="round" stroke-miterlimit="10" stroke-width=".8" d="M82.226 85.03h15.699v15.675h-15.7V85.03Z"/><path fill="var(--brand-sapphire-10, #d5e8fd)" d="M74.6 75.51h21.978c6.504 0 11.775-5.261 11.775-11.755V60.62c0-6.494-5.271-11.756-11.775-11.756H74.6V75.51ZM116.306 106.415h56.965V79.656h-56.965c-6.504 0-11.774 5.262-11.774 11.756v3.135c0 6.606 5.27 11.868 11.774 11.868Z"/><path fill="var(--unique-white, #ffffff)" stroke="var(--unique-black, #111111)" stroke-linecap="round" stroke-linejoin="round" stroke-miterlimit="10" stroke-width=".8" d="M151.075 54.237h15.699v15.675h-15.699V54.237ZM108.575 39.015h56.292c1.458 0 2.691-1.232 2.691-2.688 0-1.455-1.233-2.687-2.691-2.687h-56.292c-1.458 0-2.691 1.232-2.691 2.688 0 1.455 1.233 2.687 2.691 2.687ZM116.646 54.237h15.699v15.675h-15.699V54.237ZM82.226 54.237h15.699v15.675h-15.7V54.237ZM50.48 54.237h15.7v15.675h-15.7V54.237ZM151.075 85.03h15.699v15.675h-15.699V85.03ZM116.646 85.03h15.699v15.675h-15.699V85.03Z"/><path stroke="var(--unique-black, #111111)" stroke-linecap="round" stroke-linejoin="round" stroke-miterlimit="10" stroke-width=".8" d="m166.774 54.237-15.811 15.675M132.345 54.237l-15.699 15.675M178.098 10.35v14.555M159.379 10.35v14.555M140.647 10.35v14.555M121.924 10.35v14.555M103.193 10.35v14.555M65.735 10.35v14.555M84.466 10.35v14.555M47.122 10.35v14.555M50.623 121.69l6.524-3.2M64.673 133.804l.734-7.213"/><path fill="var(--unique-white, #ffffff)" d="m190.017 101.691-.317-12.895c-4.451 6.659-7.737 14.374-13.989 19.553-8.161 6.658-19.606 7.187-28.614 2.008-2.119-1.268-5.087-4.333-5.405-6.13-.318-1.374 2.226.423 3.392.106.211-.423-3.18-5.496-2.65-7.293.848-2.959 4.133 2.96 5.405 4.334-.106 0-3.073-5.813-2.755-6.87.635-2.114 3.709 1.057 5.298 3.699.318-.846-3.179-4.228-2.755-5.39.742-2.114 5.193 2.22 7.524 3.91 10.704 7.398 18.228-11.203 23.209-18.39 4.557-6.447 10.068-11.414 16.532-13.422l2.544-.634a22.679 22.679 0 0 1 7.1-.212c.742.106 1.59.212 2.332.423 1.271.317 2.543.634 3.921 1.163 8.69 3.17 15.578 8.772 20.559 15.747-.742.317-1.378.846-1.907 1.586-2.544 3.699-5.405 7.187-7.843 10.991-1.483-3.593-3.497-6.764-6.04-9.3"/><path stroke="var(--unique-black, #111111)" stroke-linecap="round" stroke-linejoin="round" stroke-miterlimit="10" stroke-width=".8" d="m190.017 101.691-.317-12.895c-4.451 6.659-7.737 14.374-13.989 19.553-8.161 6.658-19.606 7.187-28.614 2.008-2.119-1.268-5.087-4.333-5.405-6.13-.318-1.374 2.226.423 3.392.106.211-.423-3.18-5.496-2.65-7.293.848-2.959 4.133 2.96 5.405 4.334-.106 0-3.073-5.813-2.755-6.87.635-2.114 3.709 1.057 5.298 3.699.318-.846-3.179-4.228-2.755-5.39.742-2.114 5.193 2.22 7.524 3.91 10.704 7.398 18.228-11.203 23.209-18.39 4.557-6.447 10.068-11.414 16.532-13.422l2.544-.634a22.679 22.679 0 0 1 7.1-.212c.742.106 1.59.212 2.332.423 1.271.317 2.543.634 3.921 1.163 8.69 3.17 15.578 8.772 20.559 15.747-.742.317-1.378.846-1.907 1.586-2.544 3.699-5.405 7.187-7.843 10.991-1.483-3.593-3.497-6.764-6.04-9.3M158.328 98.52l-3.392 14.691"/><path fill="var(--unique-white, #ffffff)" stroke="var(--unique-black, #111111)" stroke-linecap="round" stroke-linejoin="round" stroke-miterlimit="10" stroke-width=".8" d="m272.674 190.58 11.764 6.658-16.639 21.667s-6.358-4.122-1.589-10.675l-6.889-4.545 13.353-13.105Z"/><path stroke="var(--unique-black, #111111)" stroke-linecap="round" stroke-linejoin="round" stroke-miterlimit="10" stroke-width=".8" d="m264.935 207.171 5.828-5.285"/><path fill="var(--unique-white, #ffffff)" stroke="var(--unique-black, #111111)" stroke-linecap="round" stroke-linejoin="round" stroke-miterlimit="10" stroke-width=".8" d="m154.935 204 1.908 13.317h-27.342s-.53-7.504 7.524-7.715l-.53-8.244 18.44 2.642Z"/><mask id="a" fill="var(--unique-white, #ffffff)"><path d="M132.043 171.978c1.59-12.366 4.557-24.414 11.34-34.983 11.127-17.228 28.083-28.536 46.629-36.252l-.212-.585h26.388l.106 2.171a9.582 9.582 0 0 1 .848 3.91c2.332 35.829 26.6 60.983 59.135 80.747-5.087 4.967-15.155 18.072-19.5 23.674-27.977-22.935-51.292-54.43-59.028-90.047-14.095 5.813-27.978 13.951-35.82 27.162-9.008 15.431-5.935 34.666-.848 57.178.106.317-30.203.105-30.203.105-1.06-10.991-.212-22.089 1.165-33.08Z"/></mask><path fill="var(--brand-sapphire-60, #1952b6)" stroke="var(--unique-black, #111111)" stroke-width="1.6" d="M132.043 171.978c1.59-12.366 4.557-24.414 11.34-34.983 11.127-17.228 28.083-28.536 46.629-36.252l-.212-.585h26.388l.106 2.171a9.582 9.582 0 0 1 .848 3.91c2.332 35.829 26.6 60.983 59.135 80.747-5.087 4.967-15.155 18.072-19.5 23.674-27.977-22.935-51.292-54.43-59.028-90.047-14.095 5.813-27.978 13.951-35.82 27.162-9.008 15.431-5.935 34.666-.848 57.178.106.317-30.203.105-30.203.105-1.06-10.991-.212-22.089 1.165-33.08Z" mask="url(#a)"/><path stroke="var(--unique-black, #111111)" stroke-linecap="round" stroke-linejoin="round" stroke-miterlimit="10" stroke-width=".8" d="m137.026 207.911 7.737 1.374"/><path fill="var(--unique-white, #ffffff)" stroke="var(--unique-black, #111111)" stroke-width=".8" d="m199.344 73.534 1.056 31.697.007.21-.169.125-25.582 18.836 30.552 8.793.202.058.067.2 10.058 30.085 17.827-26.262.118-.174.21-.001 31.799-.243-19.535-25.024-.13-.166.064-.2 9.594-30.235-29.899 10.796-.198.072-.171-.122-25.87-18.445Z"/><path fill="var(--unique-white, #ffffff)" stroke="var(--unique-black, #111111)" stroke-linecap="round" stroke-linejoin="round" stroke-miterlimit="10" stroke-width=".8" d="M189.698 50.538s.742-2.326 3.709-5.074l.106-.105c2.968-2.642 9.75-1.48 9.538 4.122 0 1.056-.212 2.008-.424 2.853 0 .212-.106.317-.212.529a3.162 3.162 0 0 1-.424.845c-.106.106-.106.212-.212.423 0 0 0 .106-.106.106-.106.105-.212.317-.318.422l-.317.318 1.165 3.17.636 1.797 1.484 4.122c.742.105 1.589.211 2.331.422-.106 3.065-2.119 6.025-6.04 6.025-3.71 0-5.723-2.642-5.935-5.602l2.543-.634-.741-2.008-.636-1.797-1.484-4.122c-3.709-.845-3.391-4.861-3.391-4.861l-1.272-.951Z"/><path fill="var(--unique-black, #111111)" d="M198.921 49.69c-1.378-.422-4.345-2.219-5.405-4.227 1.908-1.691 5.511-1.797 7.63-.106.318-.105.742-.105 1.166.212 3.709 3.064 5.511 4.227 10.598 2.747 1.695-.528 3.285-1.268 4.981-1.796 2.755-.846 5.934-1.586 8.69-.529 4.027 1.48 6.252 5.919 4.663 10.04-1.908 4.757-8.373 7.61-13.247 7.188-3.604-.317-7.737-1.269-10.81-3.065-2.437-1.374-6.782-5.285-6.994-5.39-.53-.212-2.544-2.431-1.484-2.748 1.06-.106 1.59-1.903.212-2.326Z"/><path fill="var(--unique-white, #ffffff)" d="M225.307 74.532c14.201 13.106 18.44 34.455 12.082 53.69-1.06 3.171-3.074 8.667-4.769 7.927-1.166-.529.106-5.496.212-6.976-.848 1.48-2.438 6.659-4.239 6.025-2.12-.635 0-5.602.423-7.716-1.165 1.163-2.119 6.87-4.557 6.025-1.059-.423.424-5.391.212-6.553-.212-1.163-4.133 1.691-4.874.423-1.06-1.586 3.921-4.228 4.133-4.968 3.073-9.829.847-28.113-8.055-37.414"/><path stroke="var(--unique-black, #111111)" stroke-linecap="round" stroke-linejoin="round" stroke-miterlimit="10" stroke-width=".8" d="M225.307 74.532c14.201 13.106 18.44 34.455 12.082 53.69-1.06 3.171-3.074 8.667-4.769 7.927-1.166-.529.106-5.496.212-6.976-.848 1.48-2.438 6.659-4.239 6.025-2.12-.635 0-5.602.423-7.716-1.165 1.163-2.119 6.87-4.557 6.025-1.059-.423.424-5.391.212-6.553-.212-1.163-4.133 1.691-4.874.423-1.06-1.586 3.921-4.228 4.133-4.968 3.073-9.829.847-28.113-8.055-37.414M239.299 119.156l-14.366-2.321"/><path stroke="var(--unique-black, #111111)" stroke-width=".8" d="m232.899 83.625.163 34.425M224.052 73.543v28.435M215.055 67.503v17.74M206.288 78.6V66.517M197.501 100.468V69.779M188.24 91.273V68.029M179.666 104.385V76.374M170.528 111.639v-21.09M162.105 113.844V97.836M239.712 109.661h-14.931M173.263 109.661h-17.696M239.293 100.835h-14.932M181.862 100.835H157.74M187.588 92.033h-17.819M236.793 92.033h-16.325M200.623 92.033h-11.287M232.524 83.086h-20.651M200.057 83.086h-24.492M224.808 74.13h-42.942M214.198 67h-7.59m-16.21 0h4.732"/><path stroke="var(--steel-90, #001729)" stroke-linecap="round" stroke-linejoin="round" stroke-miterlimit="10" stroke-width=".8" d="m215.627 26.51 11.244-14.428M218.782 29.862l6.145-3.817M117.187 195.471 105 184.115M115.313 202.215l-8.368-2.069"/><ellipse cx="10.237" cy="9.573" stroke="var(--steel-90, #001729)" stroke-linecap="round" stroke-linejoin="round" stroke-miterlimit="10" stroke-width=".8" rx="10.237" ry="9.573" transform="matrix(-.97419 -.22575 -.22691 .97391 292.991 35.54)"/><path stroke="var(--steel-90, #001729)" stroke-linecap="round" stroke-linejoin="round" stroke-miterlimit="10" stroke-width=".8" d="M267.549 54.538c-4.131-.957-6.766-4.794-5.887-8.57.88-3.776 4.942-6.062 9.073-5.105 4.131.958 6.766 4.795 5.886 8.571-.408 1.751-1.5 3.182-2.966 4.117"/><ellipse cx="3.839" cy="3.829" stroke="var(--steel-90, #001729)" stroke-linecap="round" stroke-linejoin="round" stroke-miterlimit="10" stroke-width=".8" rx="3.839" ry="3.829" transform="matrix(-.97419 -.22575 -.22691 .97391 252.968 55.093)"/><path fill="var(--brand-sapphire-60, #1952b6)" d="m290.696 154.444-8.587.254-5.519 7.023-.389-7.768-7.179-2.429 5.545-3.393-1.242-7.919 6.631 3.42 8.663-6.282-3.354 10.145 5.431 6.949Z"/><path stroke="var(--steel-90, #001729)" stroke-linecap="round" stroke-linejoin="round" stroke-miterlimit="10" stroke-width=".8" d="m61.34 184.867-5.332-11.305-11.335 5.318 5.332 11.304 11.335-5.317Z"/><path fill="var(--unique-black, #111111)" stroke="var(--unique-black, #111111)" stroke-linecap="round" stroke-linejoin="round" stroke-miterlimit="10" stroke-width=".8" d="m74.97 203.007-1.79-3.796-3.806 1.786 1.79 3.795 3.806-1.785Z"/><path fill="var(--brand-sapphire-60, #1952b6)" d="m34.91 212.745-4.784-2.981-7.175 2.385 2.391-7.156-3.588-3.899 5.98-.353 2.392-5.964 2.99 4.771 7.773 1.193-5.98 6.041v5.963Z"/><path fill="var(--unique-white, #ffffff)" d="m197.1 94-6.1 6.16h6.1V94Z"/></svg>
