<svg xmlns="http://www.w3.org/2000/svg" width="300" height="232" fill="none"><path fill="var(--brand-sapphire-60)" d="M80.13 54.078 82.47 42.18l-11.891-2.34-2.325 11.899 11.877 2.34Z"/><path fill="var(--unique-black)" d="m127.767 20.136-2.886-4.572-4.569 2.887 2.886 4.572 4.569-2.887Z"/><path stroke="var(--steel-90)" stroke-linecap="round" stroke-linejoin="round" stroke-width=".8" d="m132.667 222.39-3.688-1.564M54.813 203.996l-3.94.696M220.73 182.284h7.897l-3.621 4.746-4.276-4.746Z"/><path fill="var(--unique-black)" stroke="var(--unique-black)" stroke-linecap="round" stroke-linejoin="round" stroke-width=".8" d="m210.991 161.657 41.926-32.981 7.054 8.97-41.912 32.994-7.068-8.983Z"/><path fill="var(--brand-sapphire-10)" d="M173.299 61.673H37.5v131.694h135.799V61.673Z"/><path fill="var(--unique-white)" stroke="var(--unique-black)" stroke-miterlimit="10" stroke-width=".8" d="M206.326 120.922c30.505 0 55.234-24.743 55.234-55.266 0-30.522-24.729-55.266-55.234-55.266-30.504 0-55.233 24.744-55.233 55.266 0 30.523 24.729 55.266 55.233 55.266Z"/><path stroke="var(--steel-90)" stroke-linecap="round" stroke-linejoin="round" stroke-width=".8" d="M99.305 72.634 106.12 56.7l15.926 6.831-6.827 15.922-15.913-6.818ZM193.126 206.282c5.534 0 10.021-4.489 10.021-10.027 0-5.537-4.487-10.026-10.021-10.026-5.534 0-10.021 4.489-10.021 10.026 0 5.538 4.487 10.027 10.021 10.027Z"/><path fill="var(--unique-white)" stroke="var(--unique-black)" stroke-linecap="round" stroke-linejoin="round" stroke-width=".8" d="M50.846 139.587c1.91 3.529 4.009 5.535 6.333 6.243l-6.132 15.682 8.243 4.344 8.137-21.63c4.73-3.717 1.617-9.96 1.617-9.96l1.109-2.112a20.454 20.454 0 0 0-8.645-4.626c-5.839-2.018-14.857 4.318-10.662 12.059Z"/><path fill="var(--unique-black)" d="M56.673 136.98c1.71-1.51 4.73-6.243 4.837-9.759.895-6.684-7.549-2.914-8.244 1.605-.428.377-.834.778-1.216 1.203a37.57 37.57 0 0 0-2.204 4.933c-.107.307-.107 1.002-.2 1.604.2.615.293 1.337.494 1.912.273.383.51.79.708 1.216 1.91 3.717 4.222 5.628 6.68 6.337.322-.241.621-.509.895-.802.602-.709 1.911-5.134.308-4.84-1.604.295-3.755-2.005-2.058-3.409Z"/><path fill="var(--unique-black)" d="M60.398 136.446a207.78 207.78 0 0 1-2.672-2.112.931.931 0 0 0-1.336 0 .95.95 0 0 0 0 1.337c.909.695 1.71 1.336 2.672 2.112a.945.945 0 1 0 1.336-1.337Z"/><path fill="var(--unique-black)" stroke="var(--unique-black)" stroke-linecap="round" stroke-linejoin="round" stroke-width=".8" d="M38.181 193.369h46.442L74.536 170.95c-4.383-8.744-11.143-11.016-21.698-14.024-6.68-2.233-14.697-.642-14.697-.642l.04 37.085Z"/><path fill="var(--unique-white)" d="M129.362 168.447c4.503-6.685 5.973-12.032 8.017-12.767 2.044-.736-.762 4.505.908 6.229 1.67 1.725 4.904-7.78 7.87-7.192 2.966.588-2.058 8.021-2.058 8.021s4.008-7.072 5.866-5.829c1.857 1.244-2.779 7.955-2.779 7.955s4.743-6.537 5.638-5.642c.895.896 1.336 4.987-8.017 19.719"/><path stroke="var(--unique-black)" stroke-linecap="round" stroke-linejoin="round" stroke-width=".8" d="M129.362 168.447c4.503-6.685 5.973-12.032 8.017-12.767 2.044-.736-.762 4.505.908 6.229 1.67 1.725 4.904-7.78 7.87-7.192 2.966.588-2.058 8.021-2.058 8.021s4.008-7.072 5.866-5.829c1.857 1.244-2.779 7.955-2.779 7.955s4.743-6.537 5.638-5.642c.895.896 1.336 4.987-8.017 19.719"/><path fill="var(--unique-black)" stroke="var(--unique-black)" stroke-linecap="round" stroke-linejoin="round" stroke-width=".8" d="M98.623 204.342a53.424 53.424 0 0 1-10.969-1.164c-26.521-5.588-32.346-31.911-32.587-33.02 0 0 18.411-1.591 19.467.789a24.129 24.129 0 0 0 16.981 13.916c22.714 4.8 37.157-15.454 37.758-16.323l15.418 10.682c-.788 1.069-17.609 25.12-46.068 25.12Z"/><path stroke="var(--steel-90)" stroke-linecap="round" stroke-linejoin="round" stroke-width=".8" d="m94.91 138.514 2.513 1.671M102.769 122.699l-1.336 3.155M115.994 141.575l2.231-2.78"/><path fill="var(--brand-sapphire-60)" stroke="var(--unique-black)" stroke-miterlimit="10" stroke-width=".8" d="M196.294 68.945s9.446-4.225 20.415 4.719c6.974 5.681 14.937 17.606 22.793 36.189 0 0-12.519 15.841-42.139 10.334-14.096-2.674-21.231-8.262-21.231-8.262s1.67-19.13 2.178-23.89a9.046 9.046 0 0 1 2.352-4.746l15.632-14.344Z"/><path fill="var(--unique-white)" stroke="var(--unique-black)" stroke-linecap="round" stroke-linejoin="round" stroke-width=".8" d="m190.36 73.05-7.749-5.963a8.48 8.48 0 0 0-1.122-6.23c-3.006-5.535-10.195-2.74-11.504 1.444a15.15 15.15 0 0 0-.681 6.885l1.737.16s1.883 4.01 5.945 2.767l8.11 6.19a1.711 1.711 0 0 0-.468.508c-1.336 1.337-2.672 2.941-4.008 4.478.728.08 1.463.08 2.191 0a13.678 13.678 0 0 0 11.624-6.684c1.644-2.674 1.497-4.719 1.817-7.66a31.124 31.124 0 0 0-5.892 4.104Z"/><path fill="var(--unique-black)" d="M195.248 38.09c-2.432 5.962-6.774 3.1-8.845 9.491-1.59 4.8-11.023 5.348-11.357 8.021a1.34 1.34 0 0 1-.982 1.225c-.181.05-.369.06-.554.032h-.201c-3.193-.388-5.905-.174-5.077 3.382.922 2.674 7.282 3.383 9.353 2.888 1.523-.374 2.057 1.604 1.082 2.527-.187.227-.174.427.093.708 2.993 6.417 11.103 5.695 19.574 1.578 8.471-4.118 2.605-10.562-.094-14.519-2.698-3.957 4.744-9.21 5.104-15.695.361-6.483-5.718-5.56-8.096.361Z"/><path fill="var(--unique-white)" stroke="var(--unique-black)" stroke-miterlimit="10" stroke-width=".8" d="M174.753 130.428c9.527-9.358 12.185-22.941 5.612-32.66-7.562-11.203-24.49-12.994-37.811-4.01-13.321 8.983-17.984 25.4-10.421 36.576 7.027 10.415 22.138 12.701 34.925 5.749l12.171 19.786-14.189 6.47 5.024 7.58 10.287-6.377 1.176 1.484-9.793 6.684 3.287 4.492 11.076-9.184 2.057 3.356 8.123-4.987-21.524-34.959Zm-10.314-4.225c-8.631 5.843-19.306 5.134-23.836-1.564-4.529-6.697-1.189-16.884 7.442-22.726 8.631-5.843 19.32-5.134 23.836 1.577 4.516 6.711 1.202 16.911-7.442 22.713Z"/><path fill="var(--brand-sapphire-60)" stroke="var(--unique-black)" stroke-miterlimit="10" stroke-width=".8" d="M188.879 150.573c14.51-7.446 28.605-17.767 34.885-33.315 5.611-13.783 4.489-30.948-5.679-42.298-3.393-3.73-8.764-4.893-12.973-1.711-3.674 2.9-5.104 9.25-1.71 12.98 6.32 7.086 6.48 16.832 2.672 25.294-4.529 10.134-14.577 17.099-24.183 22.018-4.462 2.326-7.135 6.979-5.117 12.032 1.79 4.238 7.656 7.326 12.105 5Z"/><path fill="var(--unique-white)" d="M189.424 150.132c-10.902 5.348-17.903 7.38-19.039 5.348-1.136-2.032 7.201-4.332 7.201-4.332s-8.551 3.436-9.579 1.097c-1.029-2.34 7.014-4.746 7.014-4.746s-8.845 3.823-9.713.748c-.869-3.074 9.539-4.264 9.352-7.018-.187-2.754-5.531 1.337-5.932-1.471-.267-2.353 6.52-2.968 13.227-6.243"/><path stroke="var(--unique-black)" stroke-linecap="round" stroke-linejoin="round" stroke-width=".8" d="M189.424 150.132c-10.902 5.348-17.903 7.38-19.039 5.348-1.136-2.032 7.201-4.332 7.201-4.332s-8.551 3.436-9.579 1.097c-1.029-2.34 7.014-4.746 7.014-4.746s-8.845 3.823-9.713.748c-.869-3.074 9.539-4.264 9.352-7.018-.187-2.754-5.531 1.337-5.932-1.471-.267-2.353 6.52-2.968 13.227-6.243M190.544 149.649l-8.631-16.042"/><path stroke="var(--steel-90)" stroke-linecap="round" stroke-linejoin="round" stroke-width=".8" d="m72.303 91.898-19.466 4.786M154.687 220.397l-17.717-8.957"/></svg>
