<svg xmlns="http://www.w3.org/2000/svg" width="300" height="232" fill="none"><path fill="var(--unique-white)" d="m256 208-4-8 20.5-8 4 2 10.5 1 3.5 5-1 2.5-2.5 1.5h-5.5l.5 2-1.5 1-4-1-9-1-7-1.5-1.5.5 1.5 3v2l-2 1-2.5-2Z"/><path fill="var(--brand-sapphire-10)" d="M289.882 121.675c0 45.895-37.171 83.544-83.066 83.066-49.122-.478-83.066-37.171-83.066-83.066 0-55.816 37.768-83.903 83.066-83.066 45.895.836 83.066 37.17 83.066 83.066Z"/><path fill="var(--unique-white)" d="m223.461 138.603 1.853 53.843-61.574-1.853 2.802-30.721 2.802-30.721"/><path stroke="var(--unique-black)" stroke-linecap="round" stroke-linejoin="round" stroke-miterlimit="10" stroke-width="1.5" d="m223.461 138.603 1.853 53.843-61.574-1.853 2.802-30.721 2.802-30.721"/><path fill="var(--unique-white)" d="m190.598 100.25-13.396.846-5.217 11.982-2.675 13.392.846 5.216 20.442 14.66 30.024-2.255 3.102-5.639 1.268-1.55-6.202-23.824-11.701-11.982-16.491-.846Z"/><path fill="var(--unique-white)" stroke="var(--unique-black)" stroke-linecap="round" stroke-linejoin="round" stroke-miterlimit="10" stroke-width="1.5" d="m202.885 100.238-1.669-7.97-1.853-9.266c2.224-1.668 3.892-4.448 4.819-8.896 1.853-9.823-9.823-13.53-15.753-9.637-5.746 3.892-7.784 7.969-7.784 7.969l2.038 1.853s-1.668 6.858 4.634 9.267l2.224 10.934 1.112 5.375c-1.298 0-2.78.185-4.078.185 1.483 3.522 4.634 6.302 9.638 6.302 4.818 0 7.969-2.595 9.452-5.931-.742 0-1.854-.185-2.78-.185Z"/><mask id="a" fill="#fff"><path d="M188.244 61.32c-1.482 4.077 5.56 10.563 8.711 11.86 4.448 1.854 2.409 5.931-1.112 4.263-1.668-.741 1.112 4.448 2.039 5.19.37.185.741.37 1.297.556 2.409-1.483 4.263-4.448 5.004-9.082.556-2.78 2.78-8.34-2.039-9.637-2.038-3.521-4.818-5.745-6.857-3.336-2.595-3.892-5.375-3.521-7.043.185Z"/></mask><path fill="var(--unique-black)" stroke="var(--unique-black)" stroke-width="3" d="M188.244 61.32c-1.482 4.077 5.56 10.563 8.711 11.86 4.448 1.854 2.409 5.931-1.112 4.263-1.668-.741 1.112 4.448 2.039 5.19.37.185.741.37 1.297.556 2.409-1.483 4.263-4.448 5.004-9.082.556-2.78 2.78-8.34-2.039-9.637-2.038-3.521-4.818-5.745-6.857-3.336-2.595-3.892-5.375-3.521-7.043.185Z" mask="url(#a)"/><path stroke="var(--unique-black)" stroke-linecap="round" stroke-linejoin="round" stroke-miterlimit="10" stroke-width="1.5" d="m180.084 182.528-9.081-.556c-4.077-.185-7.228-3.521-7.043-7.228l.186-2.039c.185-3.706 3.706-6.672 7.784-6.486l9.081.556"/><path fill="var(--unique-white)" stroke="var(--unique-black)" stroke-linecap="round" stroke-linejoin="round" stroke-miterlimit="10" stroke-width="1.5" d="M191.388 158.99c-4.634-1.112-3.522-9.081 4.818-10.564 8.34-1.482 7.414-13.344 5.375-18.904-1.853-5.56 2.409-11.676 9.823-5.374 7.413 6.301 9.637 30.024-6.116 32.248-7.97 1.297-9.452 3.706-13.9 2.594Z"/><path fill="var(--unique-white)" d="M212.892 137.306c1.112 6.672-2.78 12.974-6.116 13.159Z"/><path stroke="var(--unique-black)" stroke-linecap="round" stroke-linejoin="round" stroke-miterlimit="10" stroke-width="1.5" d="M212.892 137.306c1.112 6.672-2.78 12.974-6.116 13.159"/><mask id="b" fill="#fff"><path d="m187.122 186.791-5.745-.371c-3.522-.185-6.302-3.336-6.116-6.857l.926-16.124 18.904 1.112-.926 16.124c-.371 3.521-3.336 6.301-7.043 6.116Z"/></mask><path fill="var(--brand-sapphire-60)" stroke="var(--unique-black)" stroke-width="3" d="m187.122 186.791-5.745-.371c-3.522-.185-6.302-3.336-6.116-6.857l.926-16.124 18.904 1.112-.926 16.124c-.371 3.521-3.336 6.301-7.043 6.116Z" mask="url(#b)"/><mask id="c" fill="#fff"><path d="M199.174 65.766c-.927-2.41-5.375-2.966-6.487.185-1.482 3.892-4.818 6.672-8.71 7.97-.927-.186-2.039 0-2.966.926-4.818 4.634.371 11.862 6.302 10.564 2.965-.556 5.004-2.78 6.672-5.19 2.038-3.335 3.892-7.042 5.745-10.378.741-1.668.371-3.15-.556-4.077Z"/></mask><path fill="var(--unique-black)" stroke="var(--unique-black)" stroke-width="3" d="M199.174 65.766c-.927-2.41-5.375-2.966-6.487.185-1.482 3.892-4.818 6.672-8.71 7.97-.927-.186-2.039 0-2.966.926-4.818 4.634.371 11.862 6.302 10.564 2.965-.556 5.004-2.78 6.672-5.19 2.038-3.335 3.892-7.042 5.745-10.378.741-1.668.371-3.15-.556-4.077Z" mask="url(#c)"/><path fill="var(--unique-white)" stroke="var(--unique-black)" stroke-linecap="round" stroke-linejoin="round" stroke-miterlimit="10" stroke-width="1.5" d="M148.209 163.437c5.745 0 21.869-2.78 22.61.37.742 3.151-10.378 1.298-9.822 3.707.556 2.409 12.232-1.112 12.232 3.151 0 4.262-7.043 4.633-7.043 4.633s7.043-1.483 7.599 2.78c.37 4.448-7.043 4.819-7.043 4.819s7.043-.742 7.043 3.15c.185 5.56-18.534 5.746-25.762 5.746-7.228 0 .186-28.356.186-28.356Z"/><path fill="var(--unique-white)" d="M169.334 129.153c-10.378 2.594-22.054 7.598-29.282 13.9-4.078 3.521-9.452 10.749-5.56 16.124 2.78 4.077 8.896 4.448 13.714 4.077.186 9.452.371 19.089 0 28.541h-.185c-26.503 1.854-48.372-20.386-41.7-47.074 6.672-26.503 36.14-38.364 60.233-42.812 10.379-1.854 15.754-1.483 20.202-1.854"/><path stroke="var(--unique-black)" stroke-linecap="round" stroke-linejoin="round" stroke-miterlimit="10" stroke-width="1.5" d="M169.334 129.153c-10.378 2.594-22.054 7.598-29.282 13.9-4.078 3.521-9.452 10.749-5.56 16.124 2.78 4.077 8.896 4.448 13.714 4.077.186 9.452.371 19.089 0 28.541h-.185c-26.503 1.854-48.372-20.386-41.7-47.074 6.672-26.503 36.14-38.364 60.233-42.812 10.379-1.854 15.754-1.483 20.202-1.854"/><path fill="var(--unique-white)" d="M169.529 122.109c.185 1.482-.186 6.857-.186 6.857Z"/><path stroke="var(--unique-black)" stroke-linecap="round" stroke-linejoin="round" stroke-miterlimit="10" stroke-width="1.5" d="M169.529 122.109c.185 1.482-.186 6.857-.186 6.857"/><path stroke="var(--unique-black)" stroke-width="1.5" d="M251.622 198.907s3.568 11.127 7.507 11.045c3.939-.082-.952-5.919 0-6.329.952-.41 3.362.44 5.172.93 1.811.49 3.113.466 3.113.466"/><path fill="var(--unique-white)" d="M267.167 205.021c11.879 0 13.772 3.958 14.699.622.926-3.706-9.638-3.892-9.638-3.892"/><path fill="var(--unique-black)" d="m281.866 205.643.722.201.005-.019-.727-.182Zm-9.624-4.641a.749.749 0 1 0-.027 1.499l.027-1.499Zm-5.075 4.769c5.841 0 9.209.97 11.257 1.535.512.141.975.267 1.376.343.396.075.806.117 1.195.04.425-.084.78-.302 1.053-.655.252-.324.415-.737.54-1.19l-1.445-.401c-.106.38-.204.574-.28.672a.235.235 0 0 1-.16.103c-.105.021-.289.021-.624-.043a16.78 16.78 0 0 1-1.256-.315c-2.101-.58-5.618-1.589-11.656-1.589v1.5Zm15.426.054a2.378 2.378 0 0 0-.22-1.778c-.283-.508-.731-.902-1.224-1.211-.978-.612-2.32-1.004-3.606-1.264a30.68 30.68 0 0 0-3.621-.481 35.52 35.52 0 0 0-1.646-.089h-.034l-.014.749-.013.75h.006l.02.001.084.002.323.012c.28.012.681.033 1.159.07.959.074 2.218.21 3.439.457 1.239.25 2.365.599 3.107 1.064.367.23.592.458.709.67a.88.88 0 0 1 .076.684l1.455.364Z"/><path stroke="var(--unique-black)" stroke-linecap="round" stroke-linejoin="round" stroke-miterlimit="10" stroke-width="1.5" d="M273.129 198.466c11.861 1.298 15.568 1.298 15.568 4.263s-7.738.816-7.738.816"/><path stroke="var(--unique-black)" stroke-linecap="round" stroke-linejoin="round" stroke-miterlimit="10" stroke-width="1.5" d="M272.382 191.795c4.448 5.004 15.198-.185 16.68 6.116 3.151 3.336-.37 4.819-.37 4.819"/><path stroke="var(--unique-black)" stroke-linecap="round" stroke-linejoin="round" stroke-miterlimit="10" stroke-width="1.5" d="M274.052 196.243c5.931 1.112 14.456-.37 15.753 2.595"/><path stroke="var(--steel-90)" stroke-linecap="round" stroke-width="1.5" d="M32.152 50.786h-3.545M51.567 37.646v13.14h8.553M74.207 50.786h-3.544"/><circle cx="51.569" cy="50.785" r="25.319" stroke="var(--steel-90)" stroke-width="1.5"/><path stroke="var(--steel-90)" stroke-linecap="round" stroke-width="1.5" d="M51.567 28.093v3.545M51.567 70.197v3.545"/><path fill="var(--brand-sapphire-10)" d="M83.013 105.873h25.863v24.988H83.013z"/><path fill="var(--unique-white)" stroke="var(--unique-black)" stroke-width="1.5" d="M75.75 100.715h24.363v23.488H75.75z"/><circle cx="87.979" cy="100.342" r="3.626" fill="var(--brand-sapphire-60)"/><path stroke="var(--steel-90)" stroke-linecap="round" stroke-linejoin="round" stroke-miterlimit="10" stroke-width="1.5" d="m219.376 65.128 14.51-18.67M223.452 69.463l7.929-4.94"/><ellipse cx="13.212" cy="12.386" stroke="var(--steel-90)" stroke-linecap="round" stroke-linejoin="round" stroke-miterlimit="10" stroke-width="1.5" rx="13.212" ry="12.386" transform="scale(-1 1) rotate(-13.081 84.93 1291.373)"/><path stroke="var(--steel-90)" stroke-linecap="round" stroke-linejoin="round" stroke-miterlimit="10" stroke-width="1.5" d="M257.235 77.314c-5.331-1.239-8.732-6.204-7.596-11.09 1.135-4.887 6.377-7.844 11.707-6.605 5.331 1.239 8.731 6.204 7.596 11.09-.526 2.266-1.936 4.117-3.828 5.327"/><circle cx="4.954" cy="4.954" r="4.954" stroke="var(--steel-90)" stroke-linecap="round" stroke-linejoin="round" stroke-miterlimit="10" stroke-width="1.5" transform="scale(-1 1) rotate(-13.081 221.08 1078.774)"/><path fill="var(--unique-white)" stroke="var(--unique-black)" stroke-linecap="round" stroke-linejoin="round" stroke-miterlimit="10" stroke-width="1.5" d="m29.262 147.326 48.623.123c-.722 5.685-.7 10.88-.013 15.625l-48.623-.123.013-15.625Z"/><path fill="var(--unique-white)" stroke="var(--unique-black)" stroke-linecap="round" stroke-linejoin="round" stroke-miterlimit="10" stroke-width="1.5" d="m27.22 162.515 52.549.166c-.745 4.496-.705 8.58-.078 12.256l-52.472-.207v-12.215ZM82.235 189.917l-60.878-.201c.845-5.45.827-10.447.065-14.953l60.879.202-.066 14.952Z"/><path fill="var(--brand-sapphire-60)" d="m40.533 150.063-6.029-.022-.034 9.576 6.03.021.033-9.575Z"/><path stroke="var(--unique-black)" stroke-linecap="round" stroke-linejoin="round" stroke-miterlimit="10" stroke-width="1.5" d="m37.546 165.407 33.039.189M49.995 169.487l19.553.055M29.425 172.069l9.956.084"/><path fill="var(--brand-sapphire-60)" stroke="var(--unique-black)" stroke-linecap="round" stroke-linejoin="round" stroke-miterlimit="10" stroke-width="1.5" d="m70.383 177.674-24.559-.087-.031 8.777 24.559.087.031-8.777Z"/><path stroke="var(--unique-black)" stroke-linecap="round" stroke-linejoin="round" stroke-miterlimit="10" stroke-width="1.5" d="m69.27 146.963-30.337.184c.414-4.904.38-9.335-.073-13.384l30.337-.184.072 13.384Z"/><path fill="var(--unique-white)" stroke="var(--unique-black)" stroke-linecap="round" stroke-linejoin="round" stroke-miterlimit="10" stroke-width="1.5" d="m48.385 144.028-2.4.038c.015-2.74-.026-5.292.001-7.57l2.4-.038-.001 7.57Z"/><path stroke="var(--steel-90)" stroke-linecap="round" stroke-linejoin="round" stroke-miterlimit="10" stroke-width="1.5" d="m112.131 44.791-4.681-9.95-9.95 4.68 4.68 9.95 9.951-4.68Z"/><path fill="var(--unique-black)" stroke="var(--unique-black)" stroke-linecap="round" stroke-linejoin="round" stroke-miterlimit="10" stroke-width="1.5" d="m121.845 64.896-1.79-3.805-3.805 1.79 1.79 3.805 3.805-1.79Z"/><path fill="var(--brand-sapphire-60)" d="m291.625 124.803-11.081.329-7.122 9.087-.502-10.052-9.265-3.142 7.156-4.391-1.602-10.246 8.556 4.425 11.179-8.128-4.327 13.126 7.008 8.992ZM23.662 117.784l-4.784-2.989-7.175 2.391 2.39-7.175-3.587-3.91 5.98-.354 2.392-5.98 2.99 4.784 7.773 1.196-5.98 6.058v5.979Z"/><path stroke="var(--unique-black)" stroke-linecap="round" stroke-width="1.5" d="M15 190.466h281.25"/><path fill="var(--unique-white)" d="M223.454 138.603c4.262 3.892 15.197 30.209 23.722 62.457 9.823-3.336 25.206-8.896 25.206-9.452-8.34-16.68-13.53-51.894-31.692-72.651-9.638-10.934-21.684-16.68-34.843-18.718"/><path stroke="var(--unique-black)" stroke-linecap="round" stroke-linejoin="round" stroke-miterlimit="10" stroke-width="1.5" d="M223.454 138.603c4.262 3.892 15.197 30.209 23.722 62.457 9.823-3.336 25.206-8.896 25.206-9.452-8.34-16.68-13.53-51.894-31.692-72.651-9.638-10.934-21.684-16.68-34.843-18.718"/></svg>
