<svg xmlns="http://www.w3.org/2000/svg" width="300" height="232" fill="none"><path fill="var(--unique-white, #ffffff)" d="M217 47v7.5l4-1.5v-.5l-3-6-1 .5ZM206.5 41.5l.5 1.5 2 2.5h10l1.5-.5v-1.5l-1-2-1.5-1-7.5-5.5-2 1.5-1.5 2-.5 3Z"/><path fill="var(--unique-white, #ffffff)" stroke="var(--unique-black, #111111)" stroke-linecap="round" stroke-linejoin="round" stroke-miterlimit="10" stroke-width=".8" d="M31.874 18.075h161.251V155.9H31.874V18.075Z"/><path stroke="var(--unique-black, #111111)" stroke-linecap="round" stroke-linejoin="round" stroke-miterlimit="10" stroke-width=".8" d="M178.098 10.35v14.555M159.379 10.35v14.555M140.647 10.35v14.555M121.924 10.35v14.555M103.193 10.35v14.555M65.735 10.35v14.555M84.466 10.35v14.555M47.122 10.35v14.555"/><path fill="var(--brand-sapphire-60, #1952b6)" stroke="var(--brand-sapphire-60, #1952b6)" stroke-width=".8" d="m114.604 89.737 5.293 10.696.093.189.208.03 11.834 1.715-8.562 8.324-.151.147.035.207 2.022 11.755-10.587-5.551-.185-.097-.186.097-10.587 5.551 2.022-11.755.036-.207-.152-.147-8.562-8.324 11.834-1.715.208-.03.093-.189 5.294-10.696Z"/><path stroke="var(--unique-black, #111111)" stroke-width=".8" d="m114.604 37.43 5.293 10.697.093.188.208.03 11.834 1.715-8.562 8.324-.151.147.035.208 2.022 11.755-10.587-5.55-.185-.098-.186.097-10.587 5.55 2.022-11.754.036-.208-.152-.147-8.562-8.324 11.834-1.715.208-.03.093-.188 5.294-10.697ZM67.981 89.737l5.294 10.696.093.189.208.03 11.834 1.715-8.563 8.324-.15.147.035.207 2.022 11.755-10.587-5.551-.186-.097-.185.097-10.587 5.551 2.021-11.755.036-.207-.15-.147-8.563-8.324 11.834-1.715.208-.03.093-.189 5.293-10.696Z"/><path fill="var(--brand-sapphire-10, #d5e8fd)" d="m69.146 36.529 5.652 11.42 12.638 1.832-9.145 8.89 2.159 12.553-11.304-5.927-11.304 5.927 2.159-12.553-9.145-8.89 12.638-1.831 5.652-11.421Z"/><path stroke="var(--unique-black, #111111)" stroke-width=".8" d="m158.893 37.43 5.294 10.697.093.188.208.03 11.834 1.715-8.563 8.324-.151.147.036.208 2.022 11.755-10.587-5.55-.186-.098-.186.097-10.586 5.55 2.021-11.754.036-.208-.151-.147-8.563-8.324 11.835-1.715.208-.03.093-.188 5.293-10.697ZM158.893 89.737l5.294 10.696.093.189.208.03 11.834 1.715-8.563 8.324-.151.147.036.207 2.022 11.755-10.587-5.551-.186-.097-.186.097-10.586 5.551 2.021-11.755.036-.207-.151-.147-8.563-8.324 11.835-1.715.208-.03.093-.189 5.293-10.696Z"/><path stroke="var(--unique-black, #111111)" stroke-linecap="round" stroke-linejoin="round" stroke-miterlimit="10" stroke-width=".8" d="m41.248 132.91 6.524-3.2M55.298 145.024l.734-7.214"/><path stroke="var(--steel-90, #001729)" stroke-linecap="round" stroke-linejoin="round" stroke-miterlimit="10" stroke-width=".8" d="m226.877 26.51 11.244-14.428M230.032 29.862l6.145-3.817M147.188 199.577 135 188.22M145.313 206.32l-8.368-2.069"/><ellipse cx="10.237" cy="9.573" stroke="var(--steel-90, #001729)" stroke-linecap="round" stroke-linejoin="round" stroke-miterlimit="10" stroke-width=".8" rx="10.237" ry="9.573" transform="matrix(-.97419 -.22575 -.22691 .97391 289.797 28.06)"/><path stroke="var(--steel-90, #001729)" stroke-linecap="round" stroke-linejoin="round" stroke-miterlimit="10" stroke-width=".8" d="M264.355 47.059c-4.13-.957-6.766-4.795-5.886-8.57.88-3.777 4.942-6.062 9.072-5.105 4.131.957 6.767 4.794 5.887 8.57-.408 1.752-1.501 3.182-2.967 4.117"/><ellipse cx="3.839" cy="3.829" stroke="var(--steel-90, #001729)" stroke-linecap="round" stroke-linejoin="round" stroke-miterlimit="10" stroke-width=".8" rx="3.839" ry="3.829" transform="matrix(-.97419 -.22575 -.22691 .97391 279.218 107.448)"/><path fill="var(--brand-sapphire-60, #1952b6)" d="m290.696 154.444-8.587.254-5.519 7.023-.389-7.768-7.179-2.429 5.545-3.393-1.242-7.919 6.631 3.42 8.663-6.282-3.354 10.145 5.431 6.949Z"/><path stroke="var(--steel-90, #001729)" stroke-linecap="round" stroke-linejoin="round" stroke-miterlimit="10" stroke-width=".8" d="m71.041 184.337-5.332-11.305-11.335 5.318 5.332 11.304 11.335-5.317Z"/><path fill="var(--unique-black, #111111)" stroke="var(--unique-black, #111111)" stroke-linecap="round" stroke-linejoin="round" stroke-miterlimit="10" stroke-width=".8" d="m84.671 202.477-1.79-3.795-3.806 1.785 1.79 3.795 3.806-1.785Z"/><path fill="var(--brand-sapphire-60, #1952b6)" d="m41.038 214.588-6.907-4.304-10.358 3.443 3.452-10.33-5.18-5.63 8.633-.509 3.453-8.61 4.316 6.888 11.223 1.722-8.632 8.721v8.609Z"/><path fill="var(--unique-black, #111111)" d="m190.436 208.544 2.193 16.038h-27.411s-1.828-6.834 5.116-8.383l-.365-7.655h20.467Z"/><path stroke="var(--unique-white, #ffffff)" stroke-linecap="round" stroke-linejoin="round" stroke-miterlimit="10" stroke-width=".8" d="m171.523 213.374 4.203 4.192M171.523 217.566l4.203-4.192"/><path fill="var(--unique-black, #111111)" d="m253.666 208.544 4.112 16.038h-28.417s-2.923-6.47 4.752-7.928l-1.645-8.11h21.198Z"/><path fill="var(--brand-sapphire-60, #1952b6)" stroke="var(--unique-black, #111111)" stroke-linecap="round" stroke-linejoin="round" stroke-miterlimit="10" stroke-width=".8" d="M232.195 209.911a522.787 522.787 0 0 1-15.259-102.968c-4.843 5.102-8.223 11.754-11.33 17.86-5.025 9.841-8.772 20.32-11.421 31.072-4.386 17.678-5.391 36.085-3.107 54.127h-21.472c-2.284-20.502-.914-41.278 4.294-61.325 3.198-12.484 7.95-24.603 13.98-35.994 6.031-11.481 13.523-23.327 25.492-29.524 3.472-1.822 7.676-1.73 10.873.092 6.031-1.458 13.523 1.913 13.706 10.023.822 39.547 6.396 78.639 16.538 116.819h-22.294v-.182Z"/><path stroke="var(--unique-white, #ffffff)" stroke-linecap="round" stroke-linejoin="round" stroke-miterlimit="10" stroke-width=".8" d="m234.751 213.374 4.203 4.192M234.751 217.566l4.203-4.192"/><path fill="var(--unique-black, #111111)" d="M210.167 34.865c3.107-1.822 8.772-.455 8.406 4.557v.273c0 .091.092.182.092.273 0 .638-.183 2.46-1.188 2.278-.457-.09-.548-.546-.64-1.002-.091-.364-.091-.82-.091-1.185-2.467-1.366-6.488-3.736-6.579-5.194Z"/><path stroke="var(--unique-black, #111111)" stroke-linecap="round" stroke-linejoin="round" stroke-miterlimit="10" stroke-width=".8" d="M206.697 41.06c0 .09 0 3.645 3.564 4.556l3.746 10.843 7.675-2.278-4.66-9.02c.731.09 2.833.364 3.381-.639.731-1.184-.183-2.733-2.01-3.371.091-.547.183-1.094.274-1.732.365-5.376-6.213-6.651-9.046-4.1-2.924 2.46-2.924 5.74-2.924 5.74Z"/><path stroke="var(--unique-black, #111111)" stroke-linecap="round" stroke-linejoin="round" stroke-miterlimit="10" stroke-width=".8" d="m210.262 39.053-1.736 2.733 1.553.547"/><path fill="var(--unique-black, #111111)" d="M216.838 40.33c-5.209-3.281-11.879-8.748-11.879-8.748s-1.736-2.825 6.214 3.189c8.04 6.014 5.665 5.558 5.665 5.558Z"/><mask id="a13" fill="#fff"><path d="M235.938 91.908c-.639-10.024-2.467-28.977-2.467-28.977l-25.889 1.82-8.283 29.617 36.639-2.46Z"/></mask><path fill="var(--unique-white, #ffffff)" stroke="var(--unique-black, #111111)" stroke-width="1.6" d="M235.938 91.908c-.639-10.024-2.467-28.977-2.467-28.977l-25.889 1.82-8.283 29.617 36.639-2.46Z" mask="url(#a13)"/><path stroke="var(--unique-black, #111111)" stroke-width=".8" d="M216.412 53.55V92.18"/><path fill="var(--unique-white, #ffffff)" stroke="var(--unique-black, #111111)" stroke-linecap="round" stroke-linejoin="round" stroke-miterlimit="10" stroke-width=".8" d="M222.233 52.725c20.011-.73 39.564 2.642 44.406 21.505 4.66 18.042-11.878 33.351-29.604 29.523-8.68-1.913-5.025-15.217 3.655-13.303 8.772 1.913 16.173-7.655 11.239-15.491-5.665-8.93-18.823-8.384-28.051-8.384-8.954 0-10.599-13.486-1.645-13.85Z"/><path fill="var(--unique-white, #ffffff)" stroke="var(--unique-black, #111111)" stroke-width=".8" d="M222.233 52.726c10.142-.365 20.285.364 28.325 3.554-1.37 4.465-3.015 8.839-4.751 13.121-6.487-3.28-15.259-3.007-21.929-2.916-8.954.091-10.599-13.395-1.645-13.76Z"/><path fill="var(--unique-white, #ffffff)" d="m232.919 70.9-.424-6.94-.569-10.41-29.893 2.62 2.13 15.508 28.756-.778Z"/><path fill="var(--unique-white, #ffffff)" stroke="var(--unique-black, #111111)" stroke-linecap="round" stroke-linejoin="round" stroke-miterlimit="10" stroke-width=".8" d="M180.293 66.939c6.213-8.201 15.716-10.935 25.492-11.937-.182-1.823.457-3.372 1.554-4.556 1.279.273 2.558.638 3.837.91 2.741.73 4.112 4.74 6.762 5.742.365 1.184 6.395 39-25.401 36.084-12.792-1.002-19.828-16.31-12.244-26.243Zm18.091 11.846c3.838-.82 6.213-4.83 6.944-9.295-5.573.274-8.954 1.64-11.878 3.645-4.66 3.007-1.37 6.925 4.934 5.65Z"/><path stroke="var(--unique-black, #111111)" stroke-width=".8" d="M249.989 57.252h-32.517M246.681 66.51h-28.009M217.47 75.883h16.337M213.814 84.709h20.574"/><path fill="var(--unique-white, #ffffff)" stroke="var(--unique-black, #111111)" stroke-width=".8" d="M205.697 55.001c-.092-.729 0-1.367.182-2.005.731 2.643 1.736 5.194 2.559 7.837-.092.091-.183.182-.183.273-.183.365-.274.82-.457 1.185a.992.992 0 0 0-.731.729c-.639 2.005-1.005 3.918-1.188 6.014-4.02.364-8.314 1.184-11.421 3.19a531.913 531.913 0 0 0-5.391-12.758c4.934-2.642 10.782-3.827 16.63-4.465Z"/><path fill="var(--unique-white, #ffffff)" d="M217.996 57.45c-.64-3.828-1.612-7.642-.516-10.649 1.097-3.007.823-4.373-2.741.547 0 0 2.193-4.282 1.279-4.738-1.005-.456-3.563 3.554-3.563 3.554s2.832-4.283 1.37-4.374c-1.37-.091-2.558 2.916-4.659 3.371-2.102.456-2.65-3.462-3.564-2.551-1.462 1.549-.731 8.019.091 12.392.366 2.279-.731 10.935-.365 14.398"/><path stroke="var(--unique-black, #111111)" stroke-linecap="round" stroke-linejoin="round" stroke-miterlimit="10" stroke-width=".8" d="M217.996 57.45c-.64-3.828-1.612-7.642-.516-10.649 1.097-3.007.823-4.373-2.741.547 0 0 2.193-4.282 1.279-4.738-1.005-.456-3.563 3.554-3.563 3.554s2.832-4.283 1.37-4.374c-1.37-.091-2.558 2.916-4.659 3.371-2.102.456-2.65-3.462-3.564-2.551-1.462 1.549-.731 8.019.091 12.392.366 2.279-.731 10.935-.365 14.398"/><path fill="var(--unique-white, #ffffff)" d="M240.963 90.453c-4.112-.729-2.832-2.552-5.665-4.738l.183 3.098s-4.751-3.736-6.031-2.552c-1.279 1.094 2.924 4.921 2.924 4.921s-4.02-4.01-5.116-2.46c-1.097 1.549 3.198 6.014 3.198 6.014s-3.838-5.103-4.843-2.552c-1.097 2.552 3.381 10.115 11.787 11.664"/><path stroke="var(--unique-black, #111111)" stroke-linecap="round" stroke-linejoin="round" stroke-miterlimit="10" stroke-width=".8" d="M240.963 90.453c-4.112-.729-2.832-2.552-5.665-4.738l.183 3.098s-4.751-3.736-6.031-2.552c-1.279 1.094 2.924 4.921 2.924 4.921s-4.02-4.01-5.116-2.46c-1.097 1.549 3.198 6.014 3.198 6.014s-3.838-5.103-4.843-2.552c-1.097 2.552 3.381 10.115 11.787 11.664"/><path fill="var(--unique-white, #ffffff)" d="M205.886 70.234c-.012-.657-.029-2.061 0-2.42l1.525-.243.901 2.213-2.426.45Z"/><path stroke="var(--unique-black, #111111)" stroke-width=".8" d="M205.512 57.252h-11.271M205.177 66.51h-12.993M236.774 53.548v13.117M200.231 55.762v14.47M226.838 52.634v38.629M205.869 91.175v2.165"/></svg>
