<svg xmlns="http://www.w3.org/2000/svg" width="460" height="340" fill="none"><path stroke="var(--steel-90, #001729)" stroke-linecap="round" stroke-linejoin="round" stroke-miterlimit="10" d="M120.926 28.55 97.214 13.57M118.113 35.024l-10.847-2.319M124.992 20.946l-6.754-8.798M240.703 282.855l18.687-17.414M243.578 293.195l12.831-3.173"/><ellipse cx="5.886" cy="5.872" stroke="var(--steel-90, #001729)" stroke-linecap="round" stroke-linejoin="round" stroke-miterlimit="10" rx="5.886" ry="5.872" transform="matrix(-.97419 -.22575 -.22691 .97391 404.942 32.855)"/><path stroke="var(--steel-90, #001729)" stroke-linecap="round" stroke-linejoin="round" stroke-miterlimit="10" d="m397.875 254.071 8.176-17.333 17.38 8.153-8.175 17.334-17.381-8.154Z"/><path fill="var(--unique-black, #111111)" stroke="var(--unique-black, #111111)" stroke-linecap="round" stroke-linejoin="round" stroke-miterlimit="10" stroke-width="1.227" d="m381.715 276.465 2.744-5.82 5.835 2.738-2.744 5.819-5.835-2.737Z"/><path fill="var(--unique-black, #111111)" d="m174.389 296.605-3.363 24.591h42.03s2.802-10.479-7.845-12.854l.56-11.737h-31.382Z"/><path stroke="var(--unique-white, #ffffff)" stroke-linecap="round" stroke-linejoin="round" stroke-miterlimit="10" d="m203.388 304.01-6.445 6.428M203.388 310.438l-6.445-6.428"/><path fill="var(--unique-black, #111111)" d="m77.435 296.605-6.304 24.591h43.571s4.484-9.92-7.285-12.156l2.522-12.435H77.435Z"/><path fill="var(--brand-sapphire-60, #1952b6)" stroke="var(--unique-black, #111111)" stroke-linecap="round" stroke-linejoin="round" stroke-miterlimit="10" d="M110.358 298.701a801.687 801.687 0 0 0 23.397-157.885c7.425 7.824 12.609 18.024 17.372 27.385 7.706 15.09 13.45 31.158 17.513 47.645 6.725 27.106 8.266 55.329 4.763 82.994h32.924c3.503-31.437 1.401-63.293-6.585-94.032-4.903-19.142-12.188-37.725-21.435-55.19-9.247-17.605-20.735-35.769-39.088-45.27-5.324-2.794-11.769-2.654-16.672.14-9.247-2.236-20.735 2.934-21.015 15.369-1.261 60.639-9.807 120.58-25.359 179.123h34.185v-.279Z"/><path stroke="var(--unique-white, #ffffff)" stroke-linecap="round" stroke-linejoin="round" stroke-miterlimit="10" d="m106.438 304.01-6.445 6.428M106.438 310.438l-6.445-6.428"/><path fill="var(--unique-white, #ffffff)" stroke="var(--unique-black, #111111)" stroke-linecap="round" stroke-linejoin="round" stroke-miterlimit="10" d="M149.454 39.795c0 .14 0 5.59-5.464 6.986l-5.744 16.627-11.768-3.493 7.145-13.832c-1.121.14-4.343.559-5.184-.978-1.121-1.817.28-4.192 3.082-5.17-.14-.838-.28-1.677-.42-2.655-.561-8.243 9.527-10.2 13.87-6.287 4.483 3.772 4.483 8.802 4.483 8.802Z"/><path fill="var(--unique-black, #111111)" d="M144.134 30.297c-4.764-2.794-13.45-.698-12.889 6.986v.42c0 .14-.141.279-.141.419 0 .978.281 3.772 1.822 3.493.7-.14.84-.839.981-1.537.14-.56.14-1.258.14-1.817 3.782-2.095 9.947-5.728 10.087-7.964Z"/><path stroke="var(--unique-black, #111111)" stroke-linecap="round" stroke-linejoin="round" stroke-miterlimit="10" d="m143.988 36.718 2.662 4.192-2.382.838"/><path fill="var(--unique-black, #111111)" d="M133.906 38.675c7.986-5.03 18.213-13.413 18.213-13.413s2.662-4.332-9.527 4.89c-12.329 9.222-8.686 8.523-8.686 8.523Z"/><path fill="var(--unique-white, #ffffff)" stroke="var(--unique-black, #111111)" d="m147.711 76.597 12.416 44.391-54.978-3.691c.498-7.655 1.421-18.48 2.226-27.47a2944.567 2944.567 0 0 1 1.401-15.17l.076-.793 38.859 2.733Z"/><path stroke="var(--unique-black, #111111)" d="M134.559 58.947v60.241"/><path fill="var(--unique-white, #ffffff)" stroke="var(--unique-black, #111111)" stroke-linecap="round" stroke-linejoin="round" stroke-miterlimit="10" d="M125.632 57.682c-30.682-1.118-60.663 4.051-68.089 32.974-7.145 27.665 18.213 51.138 45.393 45.27 13.309-2.935 7.705-23.334-5.604-20.4-13.45 2.934-24.798-11.736-17.233-23.752 8.687-13.693 26.205-13.212 40.355-13.212 17.563 0 18.908-20.322 5.178-20.88Z"/><path fill="var(--unique-white, #ffffff)" stroke="var(--unique-black, #111111)" d="M125.632 57.683c-15.551-.559-31.102.559-43.43 5.45 2.1 6.846 4.623 13.552 7.284 20.12 9.948-5.03 23.397-4.612 33.625-4.472 13.73.14 16.251-20.539 2.521-21.098Z"/><path fill="var(--unique-white, #ffffff)" d="m109.247 85.55.651-10.64.873-15.963 45.836 4.018-3.267 23.779-44.093-1.194Z"/><path fill="var(--unique-white, #ffffff)" stroke="var(--unique-black, #111111)" stroke-linecap="round" stroke-linejoin="round" stroke-miterlimit="10" d="M189.941 79.476c-9.527-12.575-24.097-16.766-39.088-18.303.28-2.794-.701-5.17-2.382-6.986-1.961.42-3.923.978-5.884 1.397-4.203 1.118-6.305 7.266-10.368 8.802-.56 1.817-9.807 59.801 38.948 55.33 19.615-1.537 30.402-25.01 18.774-40.24Zm-27.74 18.164c-5.884-1.257-9.527-7.405-10.648-14.251 8.546.419 13.73 2.515 18.213 5.589 7.146 4.61 2.102 10.618-7.565 8.662Z"/><path stroke="var(--unique-black, #111111)" d="M82.704 64.624h50.229M87.704 78.818h43.389M132.936 93.19h-25.919M138.542 106.723h-32.525"/><path fill="var(--unique-white, #ffffff)" stroke="var(--unique-black, #111111)" d="M150.989 61.172c.14-1.118 0-2.096-.281-3.074-1.12 4.052-2.661 7.964-3.922 12.016.14.14.28.28.28.42.28.558.42 1.257.7 1.816.561.14.981.558 1.121 1.117.981 3.074 2.6 6.757 2.88 9.97 6.187.438 10.75 1.626 16.375 4.313 2.662-6.567 5.543-13.305 8.345-19.732-7.565-4.052-16.532-5.868-25.498-6.846Z"/><path fill="var(--unique-white, #ffffff)" d="M132.13 64.926c.981-5.868 2.472-11.716.791-16.327-1.682-4.61-1.261-6.706 4.203.839 0 0-3.363-6.567-1.962-7.266 1.541-.699 5.464 5.45 5.464 5.45s-4.343-6.568-2.101-6.708c2.101-.14 3.922 4.472 7.145 5.17 3.222.699 4.063-5.31 5.464-3.912 2.241 2.375 1.121 12.295-.14 19.002-.561 3.493 1.12 16.767.56 22.076"/><path stroke="var(--unique-black, #111111)" stroke-linecap="round" stroke-linejoin="round" stroke-miterlimit="10" d="M132.13 64.926c.981-5.868 2.472-11.716.791-16.327-1.682-4.61-1.261-6.706 4.203.839 0 0-3.363-6.567-1.962-7.266 1.541-.699 5.464 5.45 5.464 5.45s-4.343-6.568-2.101-6.708c2.101-.14 3.922 4.472 7.145 5.17 3.222.699 4.063-5.31 5.464-3.912 2.241 2.375 1.121 12.295-.14 19.002-.561 3.493 1.12 16.767.56 22.076"/><path fill="var(--unique-white, #ffffff)" d="M96.913 115.531c6.305-1.117 4.343-3.912 8.687-7.265l-.281 4.75s7.286-5.728 9.247-3.912c1.961 1.677-4.483 7.545-4.483 7.545s6.164-6.148 7.845-3.772c1.682 2.375-4.903 9.221-4.903 9.221s5.884-7.824 7.425-3.912c1.682 3.912-5.183 15.509-18.073 17.884"/><path stroke="var(--unique-black, #111111)" stroke-linecap="round" stroke-linejoin="round" stroke-miterlimit="10" d="M96.913 115.531c6.305-1.117 4.343-3.912 8.687-7.265l-.281 4.75s7.286-5.728 9.247-3.912c1.961 1.677-4.483 7.545-4.483 7.545s6.164-6.148 7.845-3.772c1.682 2.375-4.903 9.221-4.903 9.221s5.884-7.824 7.425-3.912c1.682 3.912-5.183 15.509-18.073 17.884"/><path fill="var(--unique-white, #ffffff)" d="M150.699 84.529c.018-1.007.043-3.161 0-3.712l-2.339-.372-1.381 3.394 3.72.69Z"/><path stroke="var(--unique-black, #111111)" d="M151.271 64.624h17.282M151.785 78.818h19.923M103.337 58.375v20.682M159.369 62.338v22.19M118.571 57.543v59.23"/><path stroke="var(--unique-black, #111111)" stroke-width="1.227" d="M150.725 117.188v2.77"/><circle cx="396.695" cy="71.298" r="19.45" fill="var(--brand-sapphire-10, #d5e8fd)"/><circle cx="420.035" cy="120.572" r="9.077" fill="var(--brand-sapphire-60, #1952b6)"/><path fill="var(--unique-white, #ffffff)" stroke="var(--unique-black, #111111)" d="M346.152 117.118h-16.644l-.001-24.925c0-18.466-14.971-33.436-33.437-33.435-18.466 0-33.435 14.97-33.434 33.437l.001 24.926h-16.645v-24.79c-.001-27.658 22.42-50.08 50.078-50.081 27.658-.001 50.08 22.42 50.081 50.078l.001 24.79Z"/><path fill="var(--unique-black, #111111)" stroke="var(--unique-black, #111111)" stroke-linecap="round" stroke-linejoin="round" stroke-miterlimit="10" d="m225.502 121.627 151.739-.005.002 46.365c.001 41.902-33.966 75.871-75.867 75.872v0c-41.902.002-75.871-33.965-75.873-75.867l-.001-46.365Z"/><path fill="var(--unique-white, #ffffff)" stroke="var(--unique-black, #111111)" stroke-linecap="round" stroke-linejoin="round" stroke-miterlimit="10" d="m218.868 113.97 151.739-.005.002 46.364c.001 41.902-33.966 75.871-75.868 75.873v0c-41.901.001-75.87-33.966-75.872-75.867l-.001-46.365Z"/><mask id="a" fill="#fff"><path fill-rule="evenodd" d="M305.219 164.215a15.476 15.476 0 0 0 6.237-12.428c0-8.559-6.939-15.497-15.498-15.497-8.56 0-15.498 6.939-15.498 15.498 0 5.087 2.452 9.602 6.237 12.427l-9.141 32.129 36.807-.001-9.144-32.128Z" clip-rule="evenodd"/></mask><path fill="var(--brand-sapphire-60, #1952b6)" fill-rule="evenodd" d="M305.219 164.215a15.476 15.476 0 0 0 6.237-12.428c0-8.559-6.939-15.497-15.498-15.497-8.56 0-15.498 6.939-15.498 15.498 0 5.087 2.452 9.602 6.237 12.427l-9.141 32.129 36.807-.001-9.144-32.128Z" clip-rule="evenodd"/><path fill="var(--unique-black, #111111)" d="m305.219 164.215-.598-.802-.552.413.189.663.961-.274Zm-18.522 0 .962.274.188-.663-.552-.412-.598.801Zm-9.141 32.129-.962-.273-.363 1.273h1.325v-1Zm36.807-.001v1h1.324l-.362-1.274-.962.274Zm-3.907-44.556c0 4.758-2.291 8.981-5.835 11.626l1.197 1.603a16.476 16.476 0 0 0 6.638-13.229h-2Zm-14.498-14.497c8.006 0 14.498 6.49 14.498 14.497h2c-.001-9.111-7.387-16.497-16.498-16.497v2Zm-14.498 14.498c0-8.007 6.491-14.498 14.498-14.498v-2c-9.112 0-16.498 7.387-16.498 16.498h2Zm5.835 11.626a14.477 14.477 0 0 1-5.835-11.626h-2a16.475 16.475 0 0 0 6.639 13.228l1.196-1.602Zm-8.777 33.204 9.141-32.129-1.924-.548-9.141 32.13 1.924.547Zm35.845-1.275-36.807.001v2l36.807-.001v-2Zm-10.105-30.854 9.143 32.128 1.924-.548-9.144-32.128-1.923.548Z" mask="url(#a)"/><path stroke="var(--unique-black, #111111)" stroke-linecap="round" d="m222.013 124.017 98.374-.415"/><path stroke="var(--steel-90, #001729)" stroke-linecap="round" d="m246.318 64.292 5.046-4.887M418.739 60.791l7.97-2.135M408.764 61.76l10.564-6.628M403.673 166.681l10.373-3.89"/></svg>
