<svg xmlns="http://www.w3.org/2000/svg" width="460" height="340" fill="none"><path fill="var(--brand-sapphire-10)" d="M146.08 119.192c0 21.853-17.749 39.789-39.668 39.548-23.471-.242-39.668-17.695-39.668-39.548 0-26.59 18.04-39.934 39.668-39.547 21.919.387 39.668 17.695 39.668 39.547Z"/><path fill="var(--unique-white)" stroke="var(--unique-black)" stroke-linecap="round" stroke-linejoin="round" stroke-miterlimit="10" d="M369.674 99.331H122.759V272.96h246.915V99.331Z"/><path stroke="var(--unique-black)" stroke-linecap="round" stroke-linejoin="round" stroke-miterlimit="10" d="M141.367 112.688c2.119 0 3.837-1.709 3.837-3.816 0-2.108-1.718-3.816-3.837-3.816s-3.837 1.708-3.837 3.816c0 2.107 1.718 3.816 3.837 3.816Zm14.006 0c2.12 0 3.838-1.709 3.838-3.816 0-2.108-1.718-3.816-3.838-3.816-2.119 0-3.837 1.708-3.837 3.816 0 2.107 1.718 3.816 3.837 3.816Zm52.569 142.909h159.814"/><path stroke="var(--steel-90)" stroke-linecap="round" stroke-linejoin="round" stroke-miterlimit="10" d="M389.779 201.79h22.063m-22.063 12.976h22.063m-22.063 12.976h16.116"/><path fill="var(--unique-white)" stroke="var(--unique-black)" stroke-linecap="round" stroke-linejoin="round" stroke-miterlimit="10" d="M174.681 199.884c3.645 6.678 7.674 10.494 12.087 11.829l-11.703 29.765 15.732 8.204 15.54-41.022c9.017-7.059 3.069-18.889 3.069-18.889l2.111-4.006s-4.988-5.343-16.5-8.777c-11.127-3.816-28.394 8.204-20.336 22.896Z"/><path fill="var(--unique-black)" d="M185.806 194.924c3.262-2.862 9.018-11.83 9.209-18.508 1.727-12.784-14.389-5.533-15.732 3.053-3.816 3.795-6.906 7.219-6.906 14.691.718 2.142 1.289 3.901 2.302 5.915 3.645 7.06 8.058 10.685 12.662 12.02.576-.381 1.151-.954 1.727-1.526 1.151-1.336 3.645-9.731.576-9.158-3.454.381-7.099-3.816-3.838-6.487Z"/><path fill="var(--brand-sapphire-60)" stroke="var(--unique-black)" stroke-linecap="round" stroke-linejoin="round" stroke-miterlimit="10" d="m180.824 226.596-5.947 14.882 15.732 8.205 6.331-16.791a201.825 201.825 0 0 0-16.116-6.296Z"/><path fill="var(--unique-black)" d="M192.911 193.97c-1.726-1.336-3.261-2.671-4.988-4.007-.767-.572-1.727-.763-2.494 0-.576.572-.767 1.908 0 2.48 1.727 1.336 3.262 2.672 4.988 4.007.768.573 1.727.763 2.494 0 .576-.572.768-1.717 0-2.48Z"/><path fill="var(--brand-sapphire-60)" d="M229.837 285.81h-83.35v-20.064c-3.967-.317-7.935-.464-11.902-.61-27.052-.954-56.405-4.579-74.248-27.093-40.672-50.944 29.738-100.17 75.974-107.42 1.343 11.257 3.838 22.514 5.948 33.581-19.377 3.434-37.987 12.02-51.417 26.711-5.372 5.915-9.784 12.975-6.331 20.988 3.645 8.396 12.662 12.975 21.104 15.264 14.581 4.007 29.737 3.625 44.894 4.389 8.633.381 17.075 1.144 25.516 3.434a78.343 78.343 0 0 1 17.482 7.35c17.731 10.139 32.305 28.903 36.33 43.47Z"/><path stroke="var(--unique-black)" stroke-linecap="round" stroke-linejoin="round" stroke-miterlimit="10" d="M229.645 285.235c-4.025-14.567-18.407-32.756-36.138-42.895a78.343 78.343 0 0 0-17.482-7.35c-8.441-2.29-16.883-3.053-25.516-3.434-15.157-.764-30.313-.382-44.894-4.389-8.442-2.289-17.459-6.868-21.104-15.264-3.453-8.013.96-15.073 6.331-20.988 13.43-14.691 32.04-23.277 51.417-26.711-2.11-11.067-4.605-22.324-5.948-33.581-46.236 7.25-116.647 56.476-75.974 107.42 17.843 22.514 47.196 26.139 74.248 27.093 3.967.146 7.935.293 11.902.61v19.584"/><path fill="var(--brand-sapphire-60)" d="m176.361 240.402 3.338-8.246 14.295 5.54-2.844 7.804-14.789-5.098Z"/><path fill="var(--unique-white)" d="M140.149 129.861c8.058-6.297 15.732-4.77 18.801-2.29 3.262 2.48 2.111 5.342 2.111 5.342"/><path stroke="var(--unique-black)" stroke-linecap="round" stroke-linejoin="round" stroke-miterlimit="10" d="M140.149 129.861c8.058-6.297 15.732-4.77 18.801-2.29 3.262 2.48 2.111 5.342 2.111 5.342"/><path fill="var(--unique-white)" d="M136.782 130.464c11.32-2.481 25.047.349 26.006 4.547.959 4.197.384 5.533.384 5.533s1.727 4.388.192 7.822c-1.727 3.435 2.494 8.014-1.727 10.494-2.686 1.718-18.721 5.337-18.721 5.337"/><path stroke="var(--unique-black)" stroke-linecap="round" stroke-linejoin="round" stroke-miterlimit="10" d="M136.782 130.464c11.32-2.481 25.047.349 26.006 4.547.959 4.197.384 5.533.384 5.533s1.727 4.388.192 7.822c-1.727 3.435 2.494 8.014-1.727 10.494-2.686 1.718-18.721 5.337-18.721 5.337"/><path fill="var(--unique-white)" d="M256.865 272.961c3.453-8.776 8.25-17.362 21.104-17.362 7.213 0 17.671.381 25.298.526h10.125s1.125 5.063-10.919 3.898c-.84.871-2.387 1.557-5.127 1.681-8.441.382-10.36 7.823-10.552 11.257"/><path stroke="var(--unique-black)" stroke-linecap="round" stroke-linejoin="round" stroke-miterlimit="10" d="M256.865 272.961c3.453-8.776 8.25-17.362 21.104-17.362h24.941s2.878 5.724-5.564 6.105c-8.441.382-10.36 7.823-10.552 11.257"/><path stroke="var(--unique-black)" stroke-linecap="round" stroke-linejoin="round" stroke-miterlimit="10" d="M302.139 260.366c6.907-.572 10.168-.381 10.936-3.625"/><path fill="var(--brand-sapphire-60)" stroke="var(--unique-black)" d="M250.46 272.893h42.359v13.95H250.46v-13.95Z"/><path fill="var(--brand-sapphire-60)" d="M251.208 287.343v-7.475h40.872v7.475h-40.872Z"/><path stroke="var(--unique-black)" stroke-linecap="round" stroke-linejoin="round" stroke-miterlimit="10" d="M284.685 255.597c-6.715 0-9.785 3.052-9.785 3.052m-86.109-97.572-4.074-27.265m-4.13 29.694-7.585-9.877m23.938 7.448 4.055-11.775"/><path fill="var(--steel-90)" fill-rule="evenodd" d="M102.72 116.99c-.049 4.104-3.41 7.396-7.505 7.356-4.094-.041-7.377-3.398-7.328-7.503.05-4.104 3.41-7.396 7.505-7.355 4.095.04 7.377 3.398 7.328 7.502Zm1 .01c-.055 4.655-3.868 8.391-8.516 8.346-4.649-.046-8.372-3.857-8.317-8.512.056-4.656 3.869-8.392 8.517-8.346 4.648.046 8.371 3.857 8.316 8.512Zm-11.26 3.403 2.835-2.779 2.77 2.834.715-.699-2.77-2.835 2.837-2.78-.7-.714-2.835 2.779-2.769-2.834-.716.699 2.77 2.836-2.837 2.779.7.714Z" clip-rule="evenodd"/><path fill="var(--brand-sapphire-60)" stroke="var(--unique-black)" d="m323.057 190.884-.19.463.463.189 6.927 2.838.463.189.19-.462 3.433-8.382 5.846 2.394.463.19.189-.463 2.508-6.123.19-.463-.463-.19-5.908-2.42 4.7-11.474.19-.463-.463-.189-6.68-2.737-.463-.189-.189.463-4.675 11.412-11.41-4.673 25.627-23.292.585-.533-.732-.3-7.577-3.104-.292-.119-.234.212-26.406 23.998-.084.076-.043.105-2.444 5.969-.19.462.463.19 19.639 8.044-3.433 8.382Zm-28.492-48.303.001.004c.503 3.362-.183 7.844-2.126 13.481-1.942 5.636-4.167 9.601-6.643 11.96l-.002.002c-1.224 1.18-2.468 1.92-3.729 2.255-1.257.333-2.563.273-3.932-.199-1.38-.476-2.457-1.237-3.252-2.278-.798-1.045-1.331-2.398-1.579-4.084-.476-3.378.225-7.868 2.168-13.504 1.942-5.637 4.153-9.595 6.601-11.94 1.234-1.176 2.488-1.913 3.76-2.245 1.268-.33 2.586-.266 3.965.209 1.369.472 2.435 1.229 3.22 2.266.787 1.041 1.31 2.39 1.548 4.073Zm-29.348 24.128v.001c1.476 5.256 4.96 8.83 10.392 10.702 5.411 1.865 10.346 1.192 14.746-2.039h.001c4.381-3.233 7.873-8.726 10.518-16.4 2.644-7.674 3.275-14.143 1.808-19.367-1.475-5.256-4.948-8.827-10.359-10.691-5.432-1.872-10.378-1.204-14.778 2.027-4.374 3.212-7.863 8.695-10.508 16.369-2.645 7.674-3.278 14.153-1.82 19.398Zm-28.78 1.895-.03.499.499.03 7.472.451.499.03.03-.499.545-9.042 6.307.38.499.031.03-.5.398-6.605.03-.499-.499-.03-6.373-.384.746-12.378.031-.499-.5-.03-7.205-.434-.499-.03-.03.499-.743 12.311-12.308-.743 16.741-30.315.383-.693-.79-.048-8.173-.492-.315-.019-.153.276-17.251 31.235-.055.099-.006.113-.389 6.438-.03.499.499.03 21.185 1.277-.545 9.042Z"/><path fill="var(--unique-black)" fill-rule="evenodd" d="M282.223 216.755c-2.923 10.456-13.781 16.562-24.255 13.634-10.474-2.928-16.592-13.779-13.669-24.235 2.923-10.457 13.781-16.562 24.255-13.635 10.474 2.928 16.592 13.78 13.669 24.236Zm.963.269c-3.072 10.989-14.483 17.404-25.487 14.328-11.004-3.076-17.435-14.478-14.363-25.468 3.072-10.989 14.483-17.404 25.487-14.328 11.005 3.077 17.435 14.479 14.363 25.468Zm-29.254.299 9.122-5.128 5.141 9.115.871-.491-5.14-9.114 9.121-5.128-.49-.872-9.122 5.129-5.141-9.116-.871.491 5.14 9.115-9.121 5.127.49.872Z" clip-rule="evenodd"/><path fill="var(--steel-90)" fill-rule="evenodd" d="M85.738 89.645c-2.102 7.834-10.166 12.485-18.013 10.385-7.848-2.1-12.503-10.154-10.4-17.988 2.101-7.834 10.165-12.485 18.013-10.385 7.847 2.1 12.502 10.154 10.4 17.988Zm.966.259c-2.245 8.368-10.858 13.334-19.238 11.092-8.38-2.242-13.353-10.844-11.108-19.212 2.246-8.369 10.86-13.335 19.239-11.093 8.38 2.243 13.353 10.844 11.107 19.213Zm-22.138.532 6.782-3.91 3.915 6.773.866-.501-3.914-6.772 6.78-3.909-.499-.866-6.782 3.91-3.915-6.772-.866.5 3.915 6.772-6.781 3.91.5.865Z" clip-rule="evenodd"/><path stroke="var(--steel-90)" stroke-linecap="round" stroke-linejoin="round" stroke-miterlimit="10" d="m325.181 74.079 1.665 4.748m80.602-.491-6.241 2.656"/><path fill="var(--unique-black)" d="m408.279 117.199-.494.333c-2.416 1.392-5.567.643-6.939-1.906l-.335-.493c-1.398-2.411-.651-5.552 1.904-6.917l.494-.334c2.416-1.391 5.567-.642 6.939 1.907l.335.492c1.398 2.412.651 5.553-1.904 6.918Z"/><path stroke="var(--steel-90)" d="M385.305 71.648c-1.411 7.334-8.518 12.134-15.878 10.719-7.359-1.416-12.179-8.51-10.768-15.844 1.411-7.334 8.518-12.134 15.878-10.718 7.359 1.416 12.179 8.51 10.768 15.843Z"/></svg>
