<svg width="105" height="57" viewBox="0 0 105 57" fill="none" xmlns="http://www.w3.org/2000/svg">
<path fill-rule="evenodd" clip-rule="evenodd" d="M20.7303 19.0532H15.5128V36.6192H20.7303V29.6627H26.2956V36.6192H31.5164V19.0532H26.2956V25.4881H20.7303V19.0532ZM50.1263 36.6192V19.0532H36.7291V28.2701C36.7291 31.7491 36.0337 32.794 33.2518 32.2708V36.6112C36.2075 37.1328 38.8155 36.6112 40.208 34.8725C41.5989 33.3076 41.7728 30.524 41.7728 28.2621V23.2198H45.0746V36.6192H50.1263ZM59.6905 19.0532H54.4745L52.0324 36.6208H56.9022L58.1193 27.23L60.898 36.6192H64.3752L67.1619 27.23L68.3789 36.6192H73.2551L70.821 19.0532H65.6035L62.6478 29.4888L59.6905 19.0532ZM80.3852 19.0532H75.1676L75.1613 36.6192H80.3788V29.4888L85.0748 36.6192H91.3323L84.5532 27.75L91.1728 19.0532H85.4305L80.3852 26.1836V19.0532ZM0.731079 28.2701C0.731079 11.575 21.4258 0.271667 52.7311 0.271667C84.2054 0.271667 104.731 11.575 104.731 28.2701C104.731 44.7865 84.2086 56.2717 52.7311 56.2717C21.4258 56.2717 0.731079 44.7928 0.731079 28.2701ZM3.68997 28.2701C3.68997 43.4018 23.3415 53.662 52.7311 53.662C82.2945 53.662 101.772 43.4018 101.772 28.2701C101.772 12.966 82.2945 2.87977 52.7311 2.87977C23.3383 2.87977 3.68678 12.966 3.68997 28.2701ZM7.64417 28.2707C7.64417 21.9298 11.8809 16.4671 19.7642 12.536C27.6444 8.60642 38.9979 6.31464 52.7312 6.31464C66.462 6.31464 77.8143 8.60563 85.6939 12.5348C93.5766 16.4655 97.8134 21.9281 97.8134 28.2707C97.8134 34.6134 93.5776 40.0764 85.6956 44.0075C77.8167 47.937 66.4644 50.2284 52.7312 50.2284C38.9979 50.2284 27.6444 47.9362 19.7643 44.0063C11.8809 40.0747 7.64417 34.6117 7.64417 28.2707ZM6.64417 28.2707C6.64417 14.5331 25.0786 5.31464 52.7312 5.31464C80.3789 5.31464 98.8134 14.5299 98.8134 28.2707C98.8134 42.0115 80.3837 51.2284 52.7312 51.2284C25.0786 51.2284 6.64417 42.0083 6.64417 28.2707Z" fill="#1492FF"/>
</svg>
