<svg xmlns="http://www.w3.org/2000/svg" width="96" height="96" fill="none"><path fill="var(--steel-50)" d="M89.904 10.664H6.096A6.095 6.095 0 0 0 0 16.76v45.346a22.114 22.114 0 0 1 6.095-6.721V16.758h83.81v44.33L77.891 50.166a4.57 4.57 0 0 0-6.307.151L59.428 62.473l-23.97-28.632a4.571 4.571 0 0 0-6.97-.047L12.727 52.11A22.005 22.005 0 0 1 19 51.203c12.15 0 22 9.85 22 22 0 4.482-1.34 8.65-3.642 12.127h52.547A6.096 6.096 0 0 0 96 79.235V16.76a6.095 6.095 0 0 0-6.096-6.095Z"/><path fill="var(--steel-50)" d="M64 32.76a8.38 8.38 0 0 1 8.38-8.382 8.38 8.38 0 0 1 8.382 8.381 8.38 8.38 0 0 1-8.381 8.381A8.38 8.38 0 0 1 64 32.76Z"/><path fill="var(--steel-50)" fill-rule="evenodd" d="M37 73.078c0 10.01-8.115 18.125-18.125 18.125S.75 83.088.75 73.078s8.115-18.125 18.125-18.125S37 63.068 37 73.078Zm-21.26-.305-4.244 4.244a2 2 0 0 0 2.828 2.828l4.244-4.243 4.243 4.243a2 2 0 0 0 2.828-2.828l-4.243-4.244 4.242-4.242a2 2 0 0 0-2.828-2.828l-4.242 4.242-4.242-4.242a2 2 0 0 0-2.829 2.829l4.242 4.241Z" clip-rule="evenodd"/></svg>
