<svg xmlns="http://www.w3.org/2000/svg" width="96" height="96" fill="none"><path fill="var(--steel-50, #ccd0d4)" fill-rule="evenodd" d="M37.274 12.35c-3.08.46-6.17.93-9.31 1.4l.31-2.87c.62-5.81 4.88-9.26 10.68-8.64l41.25 4.39c5.81.62 9.25 4.87 8.63 10.69l-2.85 26.78-1.07 10.02c-3.17-1.8-6.83-2.84-10.73-2.86l-1.15-7.81c-.64-4.35-1.3-8.59-1.95-12.82-.66-4.24-1.31-8.47-1.95-12.83-.84-5.68-7.01-9.15-12.69-8.31-6.71.99-12.94 1.92-19.17 2.86Zm14.79 60.91c0 5.95 2.37 11.36 6.21 15.32l-34.7 5.11c-6.02.89-10.54-2.48-11.43-8.5l-8.07-54.83c-.88-5.97 2.49-10.49 8.44-11.37l42.31-6.23c5.97-.88 10.48 2.48 11.36 8.44l4.05 27.46.42 2.87c-4.64.72-8.8 2.9-12.01 6.04.11-.28.15-.59.11-.91a1.752 1.752 0 0 0-1.99-1.48l-33.88 4.99c-.96.14-1.62 1.03-1.48 1.99.14.96 1.03 1.62 1.99 1.48l33.88-4.99c.17-.02.32-.07.47-.14-2.5 2.76-4.31 6.16-5.15 9.92l-27.89 4.11c-.96.14-1.62 1.03-1.48 1.99.14.96 1.03 1.62 1.99 1.48l26.88-3.96c-.02.4-.03.81-.03 1.22v-.01ZM19.754 38.9l33.88-4.99c.96-.14 1.62-1.03 1.48-1.99a1.752 1.752 0 0 0-1.99-1.48l-33.88 4.99c-.96.14-1.62 1.03-1.48 1.99.14.96 1.03 1.62 1.99 1.48Zm1.82 12.37 33.88-4.99c.96-.14 1.62-1.03 1.48-1.99a1.752 1.752 0 0 0-1.99-1.48l-33.88 4.99c-.96.14-1.62 1.03-1.48 1.99.14.96 1.03 1.62 1.99 1.48Zm70.49 21.87c0 10.01-8.11 18.12-18.12 18.12-10.01 0-18.12-8.11-18.12-18.12 0-10.01 8.11-18.12 18.12-18.12 10.01 0 18.12 8.11 18.12 18.12Zm-10.14-1.46-6.4-6.22a2.27 2.27 0 0 0-3.17 0l-6.4 6.22c-.73.72-.73 1.9 0 2.62.71.69 1.84.69 2.55 0l3.59-3.49v9.54c0 1.02.83 1.84 1.84 1.84 1.01 0 1.84-.82 1.84-1.84v-9.54l3.59 3.48c.71.69 1.84.69 2.55 0 .73-.72.73-1.9 0-2.62l.01.01Z" clip-rule="evenodd"/></svg>
