<svg xmlns="http://www.w3.org/2000/svg" width="96" height="96" fill="none"><path fill="var(--steel-50, #ccd0d4)" fill-rule="evenodd" d="M22.559 2.915 91.02 14.314a5.048 5.048 0 0 1 4.15 5.808l-6.272 37.666a22.101 22.101 0 0 0-3.149-2.565v-25.27c0-4.625-3.25-9.12-9.5-9.12H14.458l2.293-13.768a5.048 5.048 0 0 1 5.808-4.15Zm59.45 50.291V32.685c0-4.973-3.252-8.232-8.213-8.232H9.213C4.262 24.453 1 27.725 1 32.685v46.046c0 5.022 3.246 8.274 8.254 8.274h46.878A21.905 21.905 0 0 1 51.5 73.5c0-12.15 9.85-22 22-22 3.017 0 5.892.607 8.51 1.706Zm-47.68 5.267v.004c-.004 1.378-.007 2.6.006 4.28.016 2.212 2.073 3.397 3.983 2.27 4.194-2.487 8.376-4.996 12.545-7.524 1.913-1.16 1.894-3.43-.032-4.592a2013.36 2013.36 0 0 0-12.407-7.444c-2.038-1.214-4.083-.038-4.092 2.333-.007 1.688-.005 3.852-.002 5.843l.002 2.623v-.003c0 .823-.002 1.535-.004 2.21Zm1.598-28.854v7.587H48.13v-7.588H35.927Zm-.012 44.607v7.597H48.11v-7.597H35.915Zm-4.188-44.585h-9.64v7.588h9.64V29.64Zm30.23 7.594v-7.588h-9.64v7.588h9.64ZM31.703 81.84v-7.588h-9.639v7.588h9.64ZM6.137 37.212h11.721V29.59c-.438 0-1.124-.002-1.935-.005h-.001c-2.458-.007-6.056-.017-7.337.014-1.356.032-2.4 1.042-2.439 2.378a100.244 100.244 0 0 0-.02 3.635c.004.53.007 1.063.007 1.6h.004Zm60.017-7.614v7.63h11.734c0-.542.005-1.08.01-1.616.01-1.264.02-2.514-.029-3.761-.045-1.192-1.041-2.189-2.23-2.233-1.738-.066-11.56-.02-9.485-.02Zm-48.29 52.27v-7.62H6.138c0 .54-.004 1.077-.007 1.608-.009 1.228-.016 2.435.02 3.64a2.427 2.427 0 0 0 2.37 2.359c2.132.059 4.267.043 6.4.027h.002c.981-.007 1.962-.015 2.943-.015Z" clip-rule="evenodd"/><path fill="var(--steel-50, #ccd0d4)" fill-rule="evenodd" d="M73.5 91.625c10.01 0 18.125-8.115 18.125-18.125S83.51 55.375 73.5 55.375 55.375 63.49 55.375 73.5 63.49 91.625 73.5 91.625Zm1.65-11.028v-9.549l3.585 3.491c.71.687 1.84.687 2.551 0a1.836 1.836 0 0 0 0-2.622l-6.397-6.216a2.265 2.265 0 0 0-3.168 0l-6.397 6.224a1.836 1.836 0 0 0 0 2.622c.71.687 1.84.687 2.55 0l3.595-3.49v9.54c0 1.02.829 1.84 1.84 1.84 1.01 0 1.84-.82 1.84-1.84Z" clip-rule="evenodd"/></svg>
