<svg xmlns="http://www.w3.org/2000/svg" width="96" height="96" fill="none"><path fill="var(--steel-50, #ccd0d4)" fill-rule="evenodd" d="M22.559 2.915 91.02 14.314a5.048 5.048 0 0 1 4.15 5.808l-6.272 37.666a22.1 22.1 0 0 0-1.4-1.26v-31.37c0-3.25-1.474-8.158-7.849-8.158H15.096l1.655-9.936a5.048 5.048 0 0 1 5.808-4.15ZM82.8 53.557V28.424a5.257 5.257 0 0 0-5.257-5.257H5.257A5.257 5.257 0 0 0 0 28.424V82.31a5.257 5.257 0 0 0 5.257 5.257h51.327A21.91 21.91 0 0 1 51.5 73.5c0-2.463.405-4.83 1.151-7.041l-1.394 1.393-20.675-24.695a3.943 3.943 0 0 0-6.011-.041L5.257 65.561V28.424h72.286V51.87c1.843.342 3.606.914 5.257 1.686ZM55.2 42.224a7.228 7.228 0 0 1 7.229-7.229 7.228 7.228 0 0 1 7.228 7.229 7.228 7.228 0 0 1-7.228 7.228 7.228 7.228 0 0 1-7.229-7.228Z" clip-rule="evenodd"/><path fill="var(--steel-50, #ccd0d4)" fill-rule="evenodd" d="M73.375 91.5c10.01 0 18.125-8.115 18.125-18.125S83.385 55.25 73.375 55.25 55.25 63.365 55.25 73.375 63.365 91.5 73.375 91.5Zm1.844-11.274v-9.549l3.586 3.49c.71.688 1.84.688 2.551 0a1.836 1.836 0 0 0 0-2.621L74.96 65.33a2.265 2.265 0 0 0-3.168 0l-6.397 6.224a1.836 1.836 0 0 0 0 2.622c.71.687 1.84.687 2.55 0l3.595-3.491v9.54c0 1.02.829 1.841 1.84 1.841 1.01 0 1.84-.821 1.84-1.84Z" clip-rule="evenodd"/></svg>
