<svg xmlns="http://www.w3.org/2000/svg" width="96" height="96" fill="none"><path fill="var(--steel-50, #ccd0d4)" d="M89.904 10.667H6.096A6.095 6.095 0 0 0 0 16.762v62.476a6.095 6.095 0 0 0 6.095 6.095h83.81A6.095 6.095 0 0 0 96 79.238V16.762a6.095 6.095 0 0 0-6.096-6.095Zm0 6.095v44.33L77.892 50.17a4.57 4.57 0 0 0-6.307.15L59.428 62.477l-23.97-28.632a4.571 4.571 0 0 0-6.97-.047L6.095 59.82V16.762h83.81ZM64 32.762a8.38 8.38 0 0 1 8.38-8.38 8.38 8.38 0 0 1 8.382 8.38 8.38 8.38 0 0 1-8.381 8.38 8.38 8.38 0 0 1-8.38-8.38Z"/></svg>
