<svg xmlns="http://www.w3.org/2000/svg" width="96" height="96" fill="none"><path fill="var(--steel-50, #ccd0d4)" fill-rule="evenodd" d="M22.559 2.915 91.02 14.314a5.048 5.048 0 0 1 4.15 5.808l-6.272 37.666c-.398-.39-.81-.765-1.237-1.124V28.328c0-3.687-2.537-7.596-9.1-7.596H14.475L16.75 7.064a5.048 5.048 0 0 1 5.808-4.15Zm61.594 51.331v-24.69a5.258 5.258 0 0 0-5.258-5.258H6.605a5.258 5.258 0 0 0-5.258 5.257v53.89a5.258 5.258 0 0 0 5.258 5.257h50.992a21.923 21.923 0 0 1-6.086-14.508c-.33 0-.659-.001-.989-.004-.82-.006-1.185-.364-1.187-1.18a853.478 853.478 0 0 1 0-5.9c.004-.799.391-1.173 1.203-1.173l2.297-.002A22.074 22.074 0 0 1 63.797 53.75c0-1.282 0-2.347.002-3.115 0-.492-.128-.901-.591-1.126-.465-.226-.876-.089-1.244.24a5.415 5.415 0 0 1-.188.157l-.074.06c-3.32 2.77-6.643 5.54-9.965 8.307-.059.049-.124.09-.204.14a6.96 6.96 0 0 0-.137.087v-7.962c0-.461-.169-.823-.589-1.029-.422-.205-.816-.114-1.17.18l-.215.179-.051.042-.07.057c-3.31 2.762-6.623 5.522-9.936 8.283l-.002.001-.021.018-.005.005c-.059.05-.124.09-.204.139a5.85 5.85 0 0 0-.138.087v-2.26c-.002-1.854-.004-3.68.004-5.508.002-.539-.096-1.006-.637-1.242-.525-.229-.922.014-1.304.364l-.604.557a596.226 596.226 0 0 1-5.397 4.933c-.467.423-.642.874-.585 1.49.214 2.36.926 10.566 1.471 16.845l.001.013.001.009v.003l.566 6.513c.079.891.241 2.84.274 3.228h-3.758a1.35 1.35 0 0 0-.009-.111 53.86 53.86 0 0 0-.03-.247v-.002a19.638 19.638 0 0 1-.086-.758c-.255-2.901-1.402-16.055-2.418-27.707V54.61l-.012-.126-.014-.16a95488.99 95488.99 0 0 0-1.586-18.185c-.077-.881-.412-1.203-1.292-1.203h-5.52c-1.134 0-1.41.25-1.51 1.399-.173 1.978-.798 9.165-1.511 17.376v.007C14 65.656 12.775 79.753 12.477 83.152c-.01.104-.013.201-.01.293H6.605v-53.89h72.29v22.611a21.857 21.857 0 0 1 5.258 2.08ZM41.049 74.19c.308 0 .615 0 .923.002.692.001 1.384.003 2.076-.004.746-.008 1.137-.395 1.14-1.137.007-1.984.005-3.966 0-5.95-.003-.763-.404-1.16-1.171-1.164-1.966-.005-3.935-.005-5.901 0-.788 0-1.176.374-1.18 1.145a766.136 766.136 0 0 0 0 5.95c.004.786.374 1.148 1.16 1.156.766.006 1.53.004 2.294.002l.657-.002.002.002Z" clip-rule="evenodd"/><path fill="var(--steel-50, #ccd0d4)" fill-rule="evenodd" d="M73.5 91.625c10.01 0 18.125-8.115 18.125-18.125S83.51 55.375 73.5 55.375 55.375 63.49 55.375 73.5 63.49 91.625 73.5 91.625Zm1.65-11.028v-9.549l3.585 3.491c.71.687 1.84.687 2.551 0a1.836 1.836 0 0 0 0-2.622l-6.397-6.216a2.265 2.265 0 0 0-3.168 0l-6.397 6.224a1.836 1.836 0 0 0 0 2.622c.71.687 1.84.687 2.55 0l3.595-3.49v9.54c0 1.02.829 1.84 1.84 1.84 1.01 0 1.84-.82 1.84-1.84Z" clip-rule="evenodd"/></svg>
