<svg xmlns="http://www.w3.org/2000/svg" width="300" height="164" fill="none"><g clip-path="url(#a)"><path fill="var(--unique-white)" d="M110 164H41.5l13-32.5 55 1.5.5 31Z"/><path fill="var(--brand-sapphire-10)" d="M87.12 26.244 70.968 7.852l5.064 25.96-17.508 5.024 13.457 6.482-10.872 13.58 15.65-5.837 7.017 11.818 7.267-17.864 19.486-1.616L97.044 33.92l-.094-14.742-9.83 7.066Z"/><path fill="var(--brand-sapphire-60)" d="m49.402 103.791 9.976-3.169-10.293-3.17 3.326-6.974-8.235 4.597-3.642-6.181-.237 6.815-5.463 3.17 5.463 3.645-2.376 6.973 5.384-4.913 7.839 5.626-1.742-6.419Z"/><path fill="var(--unique-white)" d="M41.873 164.109c1.03-56.025 9.502-57.61 51.703-58.64 42.2-1.03 71.258-11.094 72.446 1.188"/><path stroke="var(--unique-black)" stroke-linecap="round" stroke-linejoin="round" stroke-miterlimit="10" stroke-width=".8" d="M41.873 164.109c1.03-56.025 9.502-57.61 51.703-58.64 42.2-1.03 71.258-11.094 72.446 1.188"/><path fill="var(--unique-white)" d="M113.5 126.5c5.701 0 32.175-14.453 41.834-17.464 14.885-4.596 23.357-.396 18.607 8.717"/><path stroke="var(--unique-black)" stroke-linecap="round" stroke-linejoin="round" stroke-miterlimit="10" stroke-width=".8" d="M113.5 126.5c5.701 0 32.175-14.453 41.834-17.464 14.885-4.596 23.357-.396 18.607 8.717"/><path fill="var(--unique-white)" d="M126.828 125.994c13.302-.872 44.972-15.453 48.773-5.547 3.879 9.826-32.462 16.403-32.462 16.403"/><path stroke="var(--unique-black)" stroke-linecap="round" stroke-linejoin="round" stroke-miterlimit="10" stroke-width=".8" d="M126.828 125.994c13.302-.872 44.972-15.453 48.773-5.547 3.879 9.826-32.462 16.403-32.462 16.403"/><path fill="var(--unique-white)" d="M91.995 123.299c19.002-6.736 30.878 2.774 38.796.396 7.918-2.377 15.835-13.313 21.773-8.954 5.939 4.358-10.293 29.954-26.92 32.727-16.627 2.774-15.835 21-15.835 21"/><path stroke="var(--unique-black)" stroke-linecap="round" stroke-linejoin="round" stroke-miterlimit="10" stroke-width=".8" d="M91.995 123.299c19.002-6.736 30.878 2.774 38.796.396 7.918-2.377 15.835-13.313 21.773-8.954 5.939 4.358-10.293 29.954-26.92 32.727-16.627 2.774-15.835 21-15.835 21"/><path fill="var(--unique-white)" stroke="var(--unique-black)" stroke-linecap="round" stroke-linejoin="round" stroke-miterlimit="10" stroke-width=".8" d="M94.053 42.707s1.504 3.17-1.267 4.913l-2.612 9.51-5.78.237 2.533-8.796c-1.267-.554-2.375-1.743-3.167-3.724-1.9-4.517 3.326-7.528 6.493-6.181 3.167 1.268 4.513 3.011 4.513 3.011l-.713 1.03Z"/><path fill="var(--unique-black)" d="M87.166 49.205c-1.346-.555-2.454-1.822-3.325-3.883-1.98-4.675 5.542-15.452 6.809-6.498 0 0-.475 3.645-2.771 4.834-2.296 1.189-.792 2.932 1.267 2.932 2.058-.08-1.98 2.615-1.98 2.615Z"/><path fill="var(--unique-white)" stroke="var(--unique-black)" stroke-linecap="round" stroke-linejoin="round" stroke-miterlimit="10" stroke-width=".8" d="M111.834 44.754c-10.402 10.53-16.38 18.787-33.78 20.221-3.247-.396-4.593 4.993-3.564 7.845 1.267 3.329 4.672 4.359 7.839 3.566 14.647-3.724 24.722-10.332 35.374-20.404-3.121-5.102-2.848-5.52-5.869-11.228ZM124.132 117.435l19.873-1.188c-.316-5.31-5.938-5.944-5.938-5.944l-.396-6.498s-.079 0-.158-.079l-14.094 1.506c.396 5.309.713 12.203.713 12.203Z"/><path fill="var(--unique-black)" d="m121.678 109.352 17.419-2.139c0-5.706-.238-9.351-.871-15.057-.633-5.626-1.108-11.57-3.009-16.879-1.821-5.23-5.067-9.826-10.213-12.203-5.78-2.694-12.669-1.902-18.132 1.347-9.343 5.626-15.28 17.117-19.16 26.943-.871 2.219-1.505 4.517-2.613 6.656 0 .08-.396.634-.792 1.19.554-2.378 1.03-4.835 1.821-7.212 3.484-10.698-13.302-15.294-16.785-4.596-1.109 3.486-3.959 14.026-1.188 21.475 1.742 4.754 7.601 7.766 11.48 8.479a19.205 19.205 0 0 0 17.023-5.468c4.276-4.438 5.701-10.46 8.076-15.928 1.901-4.517 7.206-17.116 11.798-16.72 5.146.396 5.305 19.256 5.146 30.112Z"/><path fill="var(--unique-white)" stroke="var(--unique-black)" stroke-linecap="round" stroke-linejoin="round" stroke-miterlimit="10" stroke-width=".8" d="m129.043 117.435 19.873-1.189c-.317-5.309-5.938-5.943-5.938-5.943l-.396-6.498s-.079 0-.159-.079l-14.093 1.506c.475 5.309.713 12.203.713 12.203Z"/><path fill="var(--unique-black)" d="m126.668 109.352 17.418-2.139c0-5.706-.237-9.351-.871-15.057-.633-5.626-1.108-11.57-3.008-16.879-1.821-5.23-5.068-9.826-10.214-12.203-5.78-2.694-12.668-1.902-18.131 1.347-9.343 5.626-15.281 17.117-19.16 26.943-.872 2.219-1.505 4.517-2.614 6.656 0 .08-.396.634-.791 1.19.554-2.378 1.029-4.835 1.82-7.212 3.484-10.698-13.301-15.294-16.785-4.596-1.9 5.705-3.246 11.728-1.583 17.671 1.583 5.706 1.9 12.521 10.847 12.679 6.413.079 13.697-1.506 18.052-5.943 4.276-4.438 5.701-10.46 8.076-15.928 1.9-4.517 7.205-17.117 11.797-16.72 5.067.475 5.226 19.335 5.147 30.191Z"/><path stroke="var(--unique-black)" stroke-linecap="round" stroke-linejoin="round" stroke-miterlimit="10" stroke-width=".8" d="m142.737 108.56-3.642 1.031"/><path stroke="var(--unique-white)" stroke-linecap="round" stroke-linejoin="round" stroke-miterlimit="10" stroke-width=".8" d="M118.703 64.464c-5.938 1.189-15.281 6.973-19.794 16.086M119.301 80.112c3.563-1.823 8.71 1.585 7.522 24.961M93.334 88.036l-2.296 3.962"/><path stroke="var(--unique-black)" stroke-linecap="round" stroke-linejoin="round" stroke-miterlimit="10" stroke-width=".8" d="m143.057 110.223-3.326.951"/><path fill="var(--unique-white)" d="m81.458 61.646 1.03-5.072 10.292-.792-1.583 4.279"/><path stroke="var(--unique-black)" stroke-linecap="round" stroke-linejoin="round" stroke-miterlimit="10" stroke-width=".8" d="m81.458 61.646 1.03-5.072 10.292-.792-1.583 4.279"/><path fill="var(--unique-white)" stroke="var(--unique-black)" stroke-linecap="round" stroke-linejoin="round" stroke-miterlimit="10" stroke-width=".8" d="M84.705 60.853c-9.184 1.664-10.689.792-14.252 14.898-3.563 14.105-4.196 17.037-4.196 17.037l28.108-6.577c3.008-18.385 8.709-28.686-9.66-25.358ZM135.933 65.052c-2.613-1.11-4.434 1.427-6.493 4.438-.792 1.11-2.217 1.743-4.038 2.06.713 4.042 1.109 8.162 1.267 12.283 5.384-.872 10.451-3.17 13.697-7.924 2.534-3.725-1.187-9.51-4.433-10.857Z"/><path fill="var(--unique-white)" d="M88.347 71.71c6.176 7.053 16.469 14.343 26.366 15.532 6.097.792 12.827.634 18.448-1.902-1.188-3.883-3.167-11.094-4.592-14.977-3.326 2.457-11.481 1.268-14.569.634-6.175-1.268-13.064-4.755-17.814-8.955"/><path stroke="var(--unique-black)" stroke-linecap="round" stroke-linejoin="round" stroke-miterlimit="10" stroke-width=".8" d="M88.347 71.71c6.176 7.053 16.469 14.343 26.366 15.532 6.097.792 12.827.634 18.448-1.902-1.188-3.883-3.167-11.094-4.592-14.977-3.326 2.457-11.481 1.268-14.569.634-6.175-1.268-13.064-4.755-17.814-8.955"/><path fill="var(--unique-white)" d="M129.44 69.49c2.137-2.456 1.821-6.973 3.483-6.022 1.188.713.634 3.724.634 3.724"/><path stroke="var(--unique-black)" stroke-linecap="round" stroke-linejoin="round" stroke-miterlimit="10" stroke-width=".8" d="M129.44 69.49c2.137-2.456 1.821-6.973 3.483-6.022 1.188.713.634 3.724.634 3.724"/><path fill="var(--unique-white)" d="M136.373 65.443c1.167 1.784.671 3.046.671 3.046Z"/><path stroke="var(--unique-black)" stroke-linecap="round" stroke-linejoin="round" stroke-miterlimit="10" stroke-width=".8" d="M136.373 65.443c1.167 1.784.671 3.046.671 3.046"/><path fill="var(--unique-white)" d="M109.982 36.337c1.896-1.3 6.881-5.099 5.924-6.075-.957-.976-3.709.334-5.99 2.473-2.302 2.249.066 3.602.066 3.602Z"/><path stroke="var(--unique-black)" stroke-linecap="round" stroke-linejoin="round" stroke-miterlimit="10" stroke-width=".8" d="m115.015 37.842 9.406 14.26"/><path stroke="var(--brand-sapphire-60)" stroke-linecap="round" stroke-linejoin="round" stroke-miterlimit="10" stroke-width=".8" d="M114.686 39.326c.279-.28.34-1.541.432-1.933.286-1.218.593-2.425.797-3.662.226-1.372.138-1.72.217-3.052-.861.25-1.168.902-1.75 1.585-.75.878-.905 1.467-2.404 2.224-1.791 1.138-4.242.421-3.48.705-.736 1.577 3.021 1.972 3.331 1.684.914-.849 1.635-1.91 2.4-2.895.525-.676 1.517-2.456 2.303-2.647-.134.932.862 2.639.636 3.61m-2.482 4.38c-.345.348-3.386-1.5-4.032-1.883m4.032 1.884c.161-.432.542.374 1.089-.124.445-.145.931-.883 1.187-1.228m.206-3.03c-.205.882.267 2.395-.206 3.03m.206-3.03.43 1.359-.636 1.671"/><path stroke="var(--brand-sapphire-60)" stroke-linecap="round" stroke-width=".8" d="m116.494 33.394-.065 2.537-.855 1.5.97-.487-1.136 1.86"/><path stroke="var(--brand-sapphire-60)" stroke-linecap="round" stroke-linejoin="round" stroke-miterlimit="10" stroke-width=".8" d="M111.635 36.732c.072.55.826 1.365 1.228 1.743-.061-.63-.639-1.487-1.025-1.989.086.64.865 1.289 1.316 1.719-.061-.644-.57-1.476-.984-1.953.276.853.758 1.658 1.477 2.206.099-.608-.599-1.675-.984-2.176.285.751.719 1.504 1.292 2.055.061-.74-.508-1.857-.94-2.454.197.75.547 1.78 1.205 2.264.446-.695-.424-2.566-.918-3.133-.302.676.411 2.107 1.16 2.246.13-.654-.338-2.119-.98-2.383-.257.776.177 1.985.784 2.512.538-.691.098-2.547-.35-3.263.021.447.242.95.544 1.285.333-.43.059-1.234-.099-1.722-.055.455.146 1.014.5 1.24.072-.66.006-1.449-.194-2.085-.036.359.107.75.28 1.08.464-.381.367-1.936.582-2.565-.258.225-.226.253-.156-.142-.294 1.464-1.602 1.834-2.44 3.052-.472.686-.698 2.18-1.457 2.52.796.535 2.801-3.057 3.242-3.866-.028 1.57-.576 3.206-.366 4.776.765-1.452.139-3.417.831-4.903"/><path stroke="var(--brand-sapphire-60)" stroke-linecap="round" stroke-linejoin="round" stroke-miterlimit="10" stroke-width=".8" d="M115.188 32.792c.117 2.037-.058 4.312-.944 6.1"/><path stroke="var(--unique-black)" stroke-linecap="round" stroke-linejoin="round" stroke-miterlimit="10" stroke-width=".8" d="M103.445 31.413c2.45 2.104 9.035 10.53 12.689 8.499 4.856-2.7-.019-10.707-2.128-15.454-.585-2.568-11.631 3.704-11.263 5.966 1.484 4.139 10.57-2.768 11.275-5.502M123.643 51.788c-.758.536-3.012 3.333-2.618 4.066 2.95-.954 5.926-3.099 8.262-5.107.756-.649 1.808-1.326.318-1.433-1.422-.104-3.847 1.285-5.962 2.474Z"/><path fill="var(--unique-white)" stroke="var(--unique-black)" stroke-linecap="round" stroke-linejoin="round" stroke-miterlimit="10" stroke-width=".8" d="M112.738 45.754c1.648-1.11 5.772-4.97 6.555-4.264.783.706-2.743 2.352-2.148 2.895.596.542 3.309-2.66 4.081-1.512.771 1.149-1.183 2.608-1.183 2.608s1.753-1.759 2.684-.717c.911 1.127-1.149 2.658-1.149 2.658s1.886-1.56 2.591-.51c1.059 1.462-4.279 5.125-6.353 6.52-2.074 1.395-5.078-7.678-5.078-7.678ZM256.026 15.826h-99.003v63.533h99.003V15.826Z"/><path fill="var(--unique-white)" stroke="var(--unique-black)" stroke-linecap="round" stroke-linejoin="round" stroke-miterlimit="10" stroke-width=".8" d="M208.023 46.69h-7.219v7.225h7.219v-7.226ZM222.725 46.69h-7.22v7.225h7.22v-7.226ZM238.463 46.69h-7.219v7.225h7.219v-7.226Z"/><path fill="var(--brand-sapphire-60)" d="M245.325 42.302h-43.902a5.417 5.417 0 0 1-5.415-5.42v-1.444a5.416 5.416 0 0 1 5.415-5.42h43.902v12.284ZM192.347 56.547h-26.196V44.212h26.196a5.416 5.416 0 0 1 5.414 5.419v1.445c0 3.045-2.424 5.47-5.414 5.47Z"/><path fill="var(--brand-sapphire-10)" d="m178.762 29.928-11.834-.518-.552 12.633 11.834.518.552-12.633Z"/><path fill="var(--unique-white)" stroke="var(--unique-black)" stroke-linecap="round" stroke-linejoin="round" stroke-miterlimit="10" stroke-width=".8" d="M176.361 32.496h-7.22v7.226h7.22v-7.226ZM195.904 25.478h-25.886a1.255 1.255 0 0 1-1.238-1.239c0-.671.567-1.239 1.238-1.239h25.886c.671 0 1.238.568 1.238 1.239 0 .67-.567 1.239-1.238 1.239ZM192.192 32.496h-7.22v7.226h7.22v-7.226ZM208.022 32.496h-7.219v7.226h7.219v-7.226ZM222.616 32.496h-7.22v7.226h7.22v-7.226ZM238.463 32.496h-7.219v7.226h7.219v-7.226ZM176.361 46.69h-7.22v7.225h7.22v-7.226ZM192.192 46.69h-7.22v7.225h7.22v-7.226Z"/><path stroke="var(--unique-black)" stroke-linecap="round" stroke-linejoin="round" stroke-miterlimit="10" stroke-width=".8" d="m169.141 32.496 7.271 7.226M184.972 32.496l7.22 7.226M163.933 12.265v6.71M172.545 12.265v6.71M181.156 12.265v6.71M189.769 12.265v6.71M198.38 12.265v6.71M215.603 12.265v6.71M206.991 12.265v6.71M224.164 12.265v6.71M232.9 12.265v6.71M241.637 12.265v6.71M250.373 12.265v6.71"/><path fill="var(--unique-black)" stroke="var(--unique-black)" stroke-linecap="round" stroke-linejoin="round" stroke-miterlimit="10" stroke-width=".8" d="M252.953 83.485c5.248 0 9.503-4.258 9.503-9.51 0-5.254-4.255-9.512-9.503-9.512s-9.503 4.258-9.503 9.511c0 5.253 4.255 9.511 9.503 9.511Z"/><path stroke="var(--unique-white)" stroke-linecap="round" stroke-linejoin="round" stroke-miterlimit="10" stroke-width=".8" d="m253.755 67.686-1.267 6.119M254.4 76.067l4.244.4"/><path stroke="var(--steel-90)" stroke-linecap="round" stroke-linejoin="round" stroke-miterlimit="10" stroke-width=".8" d="m57.257 24.912-6.032-1.456M61.24 16.153l-1.82-3.888M36.344 61.394l-4.492.728M118.746 21.209l4.004-2.979M39.892 68.937l-2.078 2.237M115.328 16.591l1.462-2.835M39.035 44.413l-1.82-8.555 8.548-1.82 1.82 8.554-8.548 1.821Z"/><path fill="var(--unique-black)" stroke="var(--unique-black)" stroke-linecap="round" stroke-linejoin="round" stroke-miterlimit="10" stroke-width=".8" d="m26.589 22.198-.696-3.271 3.269-.697.696 3.272-3.27.696Z"/><path fill="var(--brand-sapphire-10)" d="m211.884 120.004 27.542-23.506 15.694 18.42-27.542 23.506z"/><path fill="var(--unique-white)" stroke="var(--unique-black)" stroke-linecap="round" stroke-linejoin="round" stroke-miterlimit="10" stroke-width=".8" d="m221.388 89.756-21.118 27.908 21.162 16.017 21.118-27.909-21.162-16.016Z"/><path stroke="var(--unique-black)" stroke-linecap="round" stroke-linejoin="round" stroke-miterlimit="10" stroke-width=".8" d="m216.144 105.181 12.073 9.182M211.752 110.115l7.691 5.449M218.362 102.108l12.072 9.182"/><path stroke="var(--steel-90)" stroke-linecap="round" stroke-linejoin="round" stroke-miterlimit="10" stroke-width=".8" d="m203.242 92.19-1.515-1.628M197.331 102.395l-4.545-.221M267.216 113.157l6.071 1.288M263.477 122.024l2.324 3.586"/><path fill="var(--brand-sapphire-60)" d="M262.456 97.044a2.827 2.827 0 0 0 2.615-1.75 2.833 2.833 0 0 0-4.97-2.659 2.836 2.836 0 0 0 2.355 4.409Z"/><mask id="b" fill="#fff"><path d="M191.146 138.734a2.83 2.83 0 0 0 2.777-3.386 2.83 2.83 0 0 0-5.608.553 2.833 2.833 0 0 0 2.831 2.833Z"/></mask><path stroke="var(--steel-90)" stroke-width="1.6" d="M191.146 138.734a2.83 2.83 0 0 0 2.777-3.386 2.83 2.83 0 0 0-5.608.553 2.833 2.833 0 0 0 2.831 2.833Z" mask="url(#b)"/><path stroke="var(--brand-sapphire-60)" stroke-linecap="round" stroke-linejoin="round" d="M111.434 35.61c-.052.55-1.534.032-1.88-.142"/></g><defs><clipPath id="a"><path fill="var(--unique-white)" d="M0 0h300v164H0z"/></clipPath></defs></svg>
