<svg xmlns="http://www.w3.org/2000/svg" width="300" height="164" fill="none"><g clip-path="url(#a)"><path fill="var(--unique-white)" d="M20 92.5 33.5 50 51 58 33.5 99 20 92.5Z"/><path fill="var(--brand-sapphire-10)" d="m219.941 131.36-48.85 2.328-19.899 24.377-33.28-28.981-51.05 2.736 19.865-38.65-36.86-20.842L97.7 60.74 86.667 12.784l41.43 29.672L159.414 6.43l3.829 48.586 66.093 10.137-40.259 36.903 30.864 29.304Z"/><mask id="b" fill="#fff"><path d="M261.113 46.373a4.533 4.533 0 1 0 .001-9.065 4.533 4.533 0 0 0-.001 9.065Z"/></mask><path fill="var(--unique-black)" stroke="var(--unique-black)" stroke-width="1.6" d="M261.113 46.373a4.533 4.533 0 1 0 .001-9.065 4.533 4.533 0 0 0-.001 9.065Z" mask="url(#b)"/><mask id="c" fill="#fff"><path d="M283.474 74.284a6.707 6.707 0 0 0 6.194-4.138 6.704 6.704 0 1 0-6.194 4.138Z"/></mask><path stroke="var(--steel-90)" stroke-width="1.6" d="M283.474 74.284a6.707 6.707 0 0 0 6.194-4.138 6.704 6.704 0 1 0-6.194 4.138Z" mask="url(#c)"/><path stroke="var(--steel-90)" stroke-linecap="round" stroke-linejoin="round" stroke-miterlimit="10" stroke-width=".8" d="m241.889 95.77 3.691-16.945 16.946 3.69-3.69 16.944-16.947-3.69ZM229.481 63.339l5.177.462M223.798 53.112l5.788-4.85"/><path fill="var(--unique-black)" stroke="var(--unique-black)" stroke-linecap="round" stroke-linejoin="round" stroke-miterlimit="10" stroke-width=".8" d="m126.169 33.844-2.153-3.45 3.45-2.153 2.154 3.45-3.451 2.153Z"/><mask id="d" fill="#fff"><path d="M95 42.746a7.255 7.255 0 0 0 5.13-12.38 7.257 7.257 0 0 0-11.16 1.098A7.253 7.253 0 0 0 95 42.746Z"/></mask><path stroke="var(--steel-90)" stroke-width="1.6" d="M95 42.746a7.255 7.255 0 0 0 5.13-12.38 7.257 7.257 0 0 0-11.16 1.098A7.253 7.253 0 0 0 95 42.746Z" mask="url(#d)"/><path stroke="var(--steel-90)" stroke-linecap="round" stroke-linejoin="round" stroke-miterlimit="10" stroke-width=".8" d="m222.395 139.36 5.923 7.123M216.156 146.765l1.971 5.959"/><path fill="var(--unique-white)" d="M145.577 95.115c-4.339 17.301-17.938 28.177-37.886 28.174-27.886-.004-87.956-30.835-87.956-30.835"/><path stroke="var(--unique-black)" stroke-linecap="round" stroke-linejoin="round" stroke-miterlimit="10" d="M145.577 95.115c-4.339 17.301-17.938 28.177-37.886 28.174-27.886-.004-87.956-30.835-87.956-30.835"/><path fill="var(--unique-white)" d="M95.946 75.651c-19.198-4.544-41.81-17.43-44.414-11.412-2.602 6.017-13.227 35.616-13.227 35.616s50.763 26.991 71.776 15.483c21.014-11.508 23.947-16.858 26.351-19.716 2.327-2.909 6.572-8.766 6.936-13.857.365-5.092-18.829 6.805-26.464 4.45-7.558-2.306-14.704-9.106-20.958-10.564Z"/><path fill="var(--unique-white)" d="M154.18 75.794c.488 26.428-28.228 38.144-41.66 36.232Z"/><path stroke="var(--unique-black)" stroke-linecap="round" stroke-linejoin="round" stroke-miterlimit="10" d="M154.18 75.794c.488 26.428-28.228 38.144-41.66 36.232"/><path fill="var(--unique-white)" d="M33.336 49.846C62.353 65.26 81.531 67.4 93.59 60.484c12.059-6.917 43.776-7.12 43.777 2.976.002 10.096-23.197 2.845-26.027 11.442-2.829 8.598 11.893 9.232 23.944 3.198 4.259-3.713 9.055-8.128 13.542-16.26 4.487-8.133 17.889-3.093 8.738 11.72-11.433 26.05-39.089 26.735-39.089 26.735"/><path stroke="var(--unique-black)" stroke-linecap="round" stroke-linejoin="round" stroke-miterlimit="10" d="M33.336 49.846C62.353 65.26 81.531 67.4 93.59 60.484c12.059-6.917 43.776-7.12 43.777 2.976.002 10.096-23.197 2.845-26.027 11.442-2.829 8.598 11.893 9.232 23.944 3.198 4.259-3.713 9.055-8.128 13.542-16.26 4.487-8.133 17.889-3.093 8.738 11.72-11.433 26.05-39.089 26.735-39.089 26.735M112.357 97.52l-3.311.847M108.56 107.05l-2.889 1.122M106.115 113.024l-3.058 1.011"/><rect width="21.006" height="55.247" fill="var(--brand-sapphire-60)" rx="1" transform="matrix(-.92063 -.39043 -.39054 .92059 70.512 61.685)"/><ellipse cx="18.134" cy="18.131" fill="var(--unique-white)" stroke="var(--unique-black)" rx="18.134" ry="18.131" transform="matrix(-1 0 0 1 66.885 69.802)"/><path stroke="var(--unique-black)" stroke-linecap="round" stroke-linejoin="round" d="m56.005 97.906-7.254-9.973-4.534 7.253"/><mask id="e" width="169" height="112" x="99" y="46" maskUnits="userSpaceOnUse" style="mask-type:alpha"><path fill="#000" stroke="#001F3D" d="M173.886 47.279c2.901 0 53.194 4.835 77.978 7.253 38.082 19.038-6.347 93.377-30.829 100.63-19.585 5.802-68.608-7.857-90.672-15.412-.703-4.044-2.197-12.853-.906-18.132 1.813-3.626 4.071-4.45 6.347-6.346 6.027-5.022 5.44-9.67 4.533-10.879C137.738 97.636 131.5 78.5 124 81c-1.5 0-4.574.321-6.5 0-6-1-10.5-4.5-13.5-4-18.29 3.048 33.617-26.095 39.057-27.001 5.441-.907 27.202-2.72 30.829-2.72Z"/></mask><g mask="url(#e)"><mask id="f" fill="#fff"><path fill-rule="evenodd" d="M113.207 86.455c-.902-9.838 6.843-18.324 16.724-18.324h19.474V79.01h-19.474a5.913 5.913 0 0 0-5.889 6.452l.332 3.619c1.172 12.782 11.894 22.565 24.732 22.565h8.278v10.879h-8.278c-18.462 0-33.882-14.069-35.567-32.451l-.332-3.62Z" clip-rule="evenodd"/></mask><path fill="var(--unique-white)" fill-rule="evenodd" stroke="var(--unique-black)" stroke-width="2" d="M113.207 86.455c-.902-9.838 6.843-18.324 16.724-18.324h19.474V79.01h-19.474a5.913 5.913 0 0 0-5.889 6.452l.332 3.619c1.172 12.782 11.894 22.565 24.732 22.565h8.278v10.879h-8.278c-18.462 0-33.882-14.069-35.567-32.451l-.332-3.62Z" clip-rule="evenodd" mask="url(#f)"/><mask id="g" fill="#fff"><path d="M144.138 62.964c0-1.152.934-2.087 2.087-2.087h68.994c1.153 0 2.087.935 2.087 2.087V109.9c0 14.984-12.147 27.131-27.13 27.131h-18.908c-14.984 0-27.13-12.147-27.13-27.131V62.964Z"/></mask><path fill="var(--unique-white)" stroke="var(--unique-black)" stroke-width="2" d="M144.138 62.964c0-1.152.934-2.087 2.087-2.087h68.994c1.153 0 2.087.935 2.087 2.087V109.9c0 14.984-12.147 27.131-27.13 27.131h-18.908c-14.984 0-27.13-12.147-27.13-27.131V62.964Z" mask="url(#g)"/></g><path stroke="var(--unique-black)" stroke-linecap="round" d="M208.393 79.01v13.599"/><path stroke="var(--brand-sapphire-60)" stroke-linecap="round" d="M199.118 20.989s-5.129 5.344 0 9.161c5.129 3.818-10.258 3.818-5.129 9.925 5.129 6.108 3.075 9.925 3.075 9.925M186.424 20.989s-5.129 5.344 0 9.161c5.129 3.818-10.258 3.818-5.129 9.925C186.424 46.183 184.37 50 184.37 50M173.73 20.989s-5.13 5.344 0 9.161c5.129 3.818-10.259 3.818-5.13 9.925 5.13 6.108 3.075 9.925 3.075 9.925"/><path stroke="var(--unique-black)" stroke-linecap="round" d="M202.045 87.168v9.066"/></g><defs><clipPath id="a"><path fill="var(--unique-white)" d="M0 0h300v164H0z"/></clipPath></defs></svg>
