<svg xmlns="http://www.w3.org/2000/svg" width="300" height="164" fill="none"><g clip-path="url(#a)"><path fill="var(--unique-white)" d="m245 116-7.5 2.5-.5 2 3.5 13 7-2 8-4 6-4.5 2-.5-1-10.5-4-.5-5.5.5-8 4ZM60.5 96v11l.5.5h5.5l2.5 2 3 2 1.5-1 1-3.5 3-4.5-.5-4-3-3.5-4.5-1-6-.5-3 2.5Z"/><path fill="var(--brand-sapphire-10)" d="m267.155 121.783 18.04 2.657-3.82 25.969-18.039-2.657z"/><path fill="var(--brand-sapphire-60)" d="M278.634 98.287c-1.464 5.378-3.904 10.349-7.076 14.749-9.68-6.845-21.963-14.097-33.188-8.474-.569.244-4.167-.163-4.737 0-3.579.978-4.373.489-6.407-2.934-1.545-2.607-1.464-6.519.163-8.963.651-.978 1.545-1.711 2.684-2.119.732-.244 1.464-.489 2.115-.652 4.555-1.385 8.785-2.118 12.852-2.281 12.445-.652 23.02 3.748 33.594 10.674Z"/><path fill="var(--unique-white)" d="m261.308 110.263 24.239 5.867-6.751 28.031-24.24-5.867 3.498-14.341"/><path stroke="var(--unique-black)" stroke-linecap="round" stroke-linejoin="round" stroke-miterlimit="10" stroke-width=".8" d="m261.308 110.263 24.239 5.867-6.751 28.031-24.24-5.867 3.498-14.341"/><path fill="var(--brand-sapphire-60)" d="M217.834 107.492c1.627 10.023 7.021 17.216 7.021 17.216l25.144-11.186 4.881-1.63-1.464-4.4c1.708-2.852-.488-6.845-3.742-11.164l-31.84 11.164Z"/><path fill="var(--brand-sapphire-60)" d="M241.461 133.815c-9.924 2.445-20.742 1.711-28.632-5.215-7.077-6.193-7.484-16.379-3.335-24.364 3.416-6.356 9.679-10.186 16.349-12.63 1.627-.571 3.335-1.141 4.962-1.549a5.102 5.102 0 0 1 1.546-.244c2.928-.245 5.287 1.059 6.751 3.015 2.847 3.748 2.603 10.022-2.359 12.385-.488.245-.976.408-1.545.571-3.986 1.059-9.111 2.444-11.307 6.274-1.464 2.526-1.301 4.238 1.546 5.541 3.985 1.793 8.297 1.793 12.608.815-.163 5.215 1.382 10.186 3.416 15.401Z"/><path stroke="var(--unique-black)" stroke-linecap="round" stroke-linejoin="round" stroke-miterlimit="10" stroke-width=".8" d="M248.54 114.093c-6.833 3.993-15.781 6.927-23.264 3.423-2.847-1.304-3.01-2.934-1.546-5.541 2.196-3.83 7.402-5.215 11.307-6.275m-4.311-15.727c-8.297 2.2-17.082 6.193-21.312 14.179-4.23 7.904-3.742 18.171 3.335 24.364 13.34 11.653 36.604 5.541 48.561-5.459"/><path fill="var(--unique-white)" d="M259.275 111.324c5.694-1.223 11.144.163 10.818 4.807Z"/><path stroke="var(--unique-black)" stroke-linecap="round" stroke-linejoin="round" stroke-miterlimit="10" stroke-width=".8" d="M259.275 111.324c5.694-1.223 11.144.163 10.818 4.807"/><path fill="var(--unique-white)" stroke="var(--unique-black)" stroke-linecap="round" stroke-linejoin="round" stroke-miterlimit="10" stroke-width=".8" d="m272.456 119.878.488 2.689-2.521-1.222-10.493-14.423 2.033-1.385 10.493 14.341Z"/><path fill="var(--unique-white)" d="M248.541 114.095s8.378-5.378 16.268-1.141c7.89 4.237 7.239 7.334 2.684 5.378-2.603-1.141-4.148-1.956-4.148-1.956"/><path stroke="var(--unique-black)" stroke-linecap="round" stroke-linejoin="round" stroke-miterlimit="10" stroke-width=".8" d="M248.541 114.095s8.378-5.378 16.268-1.141c7.89 4.237 7.239 7.334 2.684 5.378-2.603-1.141-4.148-1.956-4.148-1.956"/><path fill="var(--unique-white)" d="M267.494 118.331c.162.652-1.465 3.422-3.661 2.2Z"/><path stroke="var(--unique-black)" stroke-linecap="round" stroke-linejoin="round" stroke-miterlimit="10" stroke-width=".8" d="M267.494 118.331c.162.652-1.465 3.422-3.661 2.2"/><path fill="var(--unique-white)" stroke="var(--unique-black)" stroke-linecap="round" stroke-linejoin="round" stroke-miterlimit="10" stroke-width=".8" d="m237.719 88.424-3.091-7.904c1.139-1.06 1.79-2.69 1.953-5.134.244-5.46-6.345-6.6-9.192-4.074-2.847 2.607-3.579 4.807-3.579 4.807l1.22.897s-.407 3.83 3.172 4.726l3.254 8.23c-.163 0-.407.081-.569.163-1.627.407-3.335.978-4.962 1.548.569.408 1.057.733 1.627.978 4.311 2.363 8.296 1.956 11.631.244 2.441-1.303 4.556-3.259 6.101-5.296-2.521 0-4.962.326-7.565.815Z"/><path fill="var(--unique-white)" d="M264.807 121.104s-.895 2.852-4.149 1.304Z"/><path stroke="var(--unique-black)" stroke-linecap="round" stroke-linejoin="round" stroke-miterlimit="10" stroke-width=".8" d="M264.807 121.104s-.895 2.852-4.149 1.304"/><path fill="var(--unique-black)" d="M256.998 64.633c-4.474 3.34-6.426-.734-10.818 3.096-3.335 2.852-10.575-.978-12.039.897-.407.57-1.139.733-1.708.244-.082 0-.082-.082-.163-.082-2.196-1.71-4.311-2.77-5.287.245-.488 2.363 3.904 5.785 5.694 6.356 1.301.407.813 2.118-.326 2.363-.244.081-.325.244-.244.57-.65 6.112 5.694 9.208 13.829 9.941 8.134.734 6.67-6.681 6.426-10.837-.244-4.156 7.646-4.726 10.818-9.37 3.172-4.727-1.708-6.764-6.182-3.423Z"/><path stroke="var(--unique-black)" stroke-linecap="round" stroke-linejoin="round" stroke-miterlimit="10" stroke-width=".8" d="m272.943 123.137 6.263 1.467M262.777 125.746l15.374 3.341M259.434 137.968l-.894 3.341M261.715 138.296l-.976 3.341M273.838 141.473l-.895 3.341M271.799 140.738l-.894 3.341M211.405 127.251c-15.055-7.815-24.684-23.529-24.684-41.595 0-25.912 20.987-46.854 46.772-46.854 25.867 0 46.528 16.786 46.772 46.854 0 4.4-.57 8.638-1.627 12.63-1.435 5.27-3.807 10.149-6.886 14.483M57.993 101.522c-6.507-.571-12.608-2.364-17.895-5.216-9.843-5.215-17.326-13.77-21.312-24.12a49.057 49.057 0 0 1-3.172-17.356c0-3.178.325-6.355.895-9.37 3.01-14.912 13.096-27.217 26.517-33.328 5.938-2.69 12.445-4.156 19.36-4.156 25.866 0 46.527 16.786 46.771 46.854.163 20.698-13.34 38.299-32.049 44.492"/><path fill="var(--unique-black)" d="M62.384 7.977c-6.914 0-13.421 1.466-19.36 4.155 6.266-1.143 21.854-1.322 34.083 7.11 15.287 10.54 34.082 48.906 0 80.08 18.709-6.193 32.211-23.794 32.049-44.491-.244-30.068-20.905-46.854-46.772-46.854Z"/><path fill="var(--unique-white)" d="m77.192 102.909 5.206-2.038 8.948 23.224-20.01 7.659-8.948-23.141 6.914-2.69"/><path stroke="var(--unique-black)" stroke-linecap="round" stroke-linejoin="round" stroke-miterlimit="10" stroke-width=".8" d="m77.192 102.909 5.206-2.038 8.948 23.224-20.01 7.659-8.948-23.141 6.914-2.69"/><path fill="var(--brand-sapphire-60)" d="M40.912 76.508c-2.766 2.77-8.297 3.26-10.981 0-7.321-8.882-12.202-19.638-13.422-31.046 3.01-14.912 13.096-27.217 26.518-33.328-13.422 14.667-15.537 37.239-2.115 53.373 2.684 3.178 3.172 7.741 0 11Z"/><path fill="var(--brand-sapphire-60)" stroke="var(--unique-black)" stroke-linecap="round" stroke-linejoin="round" stroke-miterlimit="10" stroke-width=".8" d="M46.445 87.1c-2.522 4.237-4.637 7.17-6.345 9.126-9.842-5.215-17.326-13.771-21.311-24.12 14.153-17.926 16.187-18.252 21.88-10.919l.163.163c1.953 2.445 3.986 4.645 5.613 6.926 3.416 4.971 5.124 10.186 0 18.824Z"/><path fill="var(--brand-sapphire-60)" d="M61.812 97.446c.732-1.63 1.22-2.444 2.603-3.83-7.646-.488-17-3.096-17.244-11.326-.244-9.534-15.048-9.534-14.804 0 .244 8.393 4.961 15.482 11.957 19.964 4.962 3.178 10.737 4.482 16.594 5.052-.407-3.259-.489-6.682.894-9.86Z"/><path stroke="var(--unique-black)" stroke-linecap="round" stroke-linejoin="round" stroke-miterlimit="10" stroke-width=".8" d="M70.272 94.104c-7.077-.163-22.857-1.303-23.101-11.734-.244-9.534-15.048-9.534-14.804 0 .244 8.393 4.961 15.483 11.957 19.964 7.646 4.889 17.163 5.297 25.948 5.541 9.517.163 9.517-13.608 0-13.77Z"/><path stroke="var(--unique-black)" stroke-linecap="round" stroke-linejoin="round" stroke-miterlimit="10" stroke-width=".8" d="M75.401 100.543c1.302 3.26-.65 7.253-2.928 7.741"/><path fill="var(--unique-black)" d="m71.576 112.114-.651 2.444-1.383-2.118-2.115-14.912 2.034-.326 2.115 14.912Z"/><path fill="var(--unique-white)" d="M64.172 98.67c1.058 7.578 3.66 12.223 5.694 10.43 1.058-.978-1.626-5.134-1.708-6.193"/><path stroke="var(--unique-black)" stroke-linecap="round" stroke-linejoin="round" stroke-miterlimit="10" stroke-width=".8" d="M64.172 98.67c1.058 7.578 3.66 12.223 5.694 10.43 1.058-.978-1.626-5.134-1.708-6.193"/><path fill="var(--unique-white)" d="M73.445 102.008c2.197 7.741-.976 10.267-2.033 9.126-.488-.489-.163-2.526-.325-4.319a21.01 21.01 0 0 0-.733-3.911"/><path stroke="var(--unique-black)" stroke-linecap="round" stroke-linejoin="round" stroke-miterlimit="10" stroke-width=".8" d="M73.445 102.008c2.197 7.741-.976 10.267-2.033 9.126-.488-.489-.163-2.526-.325-4.319a21.01 21.01 0 0 0-.733-3.911M70.923 114.558h10.33M72.553 117.167h10.412"/><path fill="var(--unique-white)" stroke="var(--unique-black)" stroke-linecap="round" stroke-linejoin="round" stroke-miterlimit="10" stroke-width=".8" d="M58.888 53.934c-.976-3.748-7.077-6.437-9.924-1.792-1.301 2.118-1.627 3.911-1.22 5.378L41.4 62.246c-.244-.245-.406-.489-.65-.815-.326 3.015-.732 10.92-.732 10.92l6.344-3.994c-.244-.407-.57-.733-.813-1.14l6.914-5.134c3.416 1.304 5.287-2.119 5.287-2.119l1.546-.081c-.082.081.57-2.2-.407-5.949Z"/><path fill="var(--unique-black)" d="M60.51 52.222c-.895 2.2-6.507 2.608-8.215 2.119-1.302-.407-1.871 1.304-1.058 2.119.65.733-2.033 1.466-2.684 1.385-.244-.082-.488-.082-.732-.245-.407-1.548-.081-3.34 1.22-5.54s4.474-2.853 7.24-3.016c2.765-.162 5.043.163 4.23 3.178Z"/><path stroke="var(--steel-90)" stroke-linecap="round" stroke-width=".8" d="m106.368 103.488 2.047-7.331 6.761 1.891"/><path stroke="var(--steel-90)" stroke-linecap="round" stroke-width=".8" d="M200.492 104.735c-35.681 27.728-77.614 12.956-91.847-7.994M70.989 70.93c22.276-9.572 97.494-29.01 135.835 3.85"/><path stroke="var(--steel-90)" stroke-linecap="round" stroke-width=".8" d="m206.362 67.18.462 7.598-7.007.428"/><path stroke="var(--steel-90)" stroke-linecap="round" stroke-linejoin="round" stroke-miterlimit="10" d="m174.744 82.234 2.196 1.467M181.658 68.38l-1.22 2.77M193.204 84.923l1.952-2.445M195.651 37.09l1.789 3.177"/><path fill="var(--brand-sapphire-10)" d="M185.727 2.839v30.55h-40.7V2.839z"/><path fill="var(--unique-black)" stroke="var(--unique-black)" stroke-linecap="round" stroke-linejoin="round" stroke-miterlimit="10" d="M129.898 9.627h6.68l-3.065 4.016-3.615-4.016ZM152.184 151.459l-5.083 2.41.886-4.161 4.197 1.751Z"/><path stroke="var(--steel-90)" stroke-linecap="round" stroke-linejoin="round" stroke-miterlimit="10" d="M174.459 11.492h-32.93M158.593 18.231h-16.958M114.856 16.669l2.358 2.361"/><path stroke="var(--unique-black)" stroke-linecap="round" stroke-linejoin="round" stroke-miterlimit="10" d="m188.214 24.846-8.191.815 4.869-6.646 28.405-16.981 3.323 5.83-28.406 16.982Z"/><path fill="var(--unique-black)" d="m184.884 24.967-1.838-3.12-2.664 3.827 4.502-.707ZM188.214 24.846l-3.322-5.83 28.405-16.982 3.323 5.83-28.406 16.982Z"/><path fill="var(--brand-sapphire-10)" d="m128.032 134.588 6.807 17.621-27.022 10.456-6.807-17.621z"/><path stroke="var(--steel-90)" stroke-linecap="round" stroke-linejoin="round" stroke-miterlimit="10" d="m127.789 132.271-5.706-7.003-28.194 23.042 5.706 7.003 28.194-23.042ZM133.884 143.208l-3.413 2.257M176.129 147.872l-3.85 1.949M155.723 132.983l.825 4.239"/></g><defs><clipPath id="a"><path fill="var(--unique-white)" d="M0 0h300v164H0z"/></clipPath></defs></svg>
