<svg xmlns="http://www.w3.org/2000/svg" width="300" height="164" fill="none"><g clip-path="url(#a)"><path fill="var(--brand-sapphire-10, #d5e8fd)" d="m141.539 35.67 30.43-14.763 9.856 20.353-30.43 14.761z"/><path fill="var(--unique-white, #ffffff)" stroke="var(--unique-black, #111111)" stroke-linecap="round" stroke-linejoin="round" stroke-miterlimit="10" stroke-width=".8" d="m157.247 10.561-25.659 20.256 15.365 19.468 25.659-20.256-15.365-19.468Z"/><path stroke="var(--unique-black, #111111)" stroke-linecap="round" stroke-linejoin="round" stroke-miterlimit="10" stroke-width=".8" d="m148.878 23.274 8.755 11.147M143.747 26.698l5.672 6.74M151.606 21.018l8.755 11.147"/><path fill="var(--unique-white, #ffffff)" stroke="var(--unique-black, #111111)" stroke-linecap="round" stroke-linejoin="round" stroke-width=".8" d="m148.161 34.503-4.892-26.227-19.853 3.709 4.883 26.232 19.862-3.714Z"/><path stroke="var(--unique-black, #111111)" stroke-linecap="round" stroke-linejoin="round" stroke-width=".8" d="m140.351 14.904-11.377 2.107M141.124 19.011l-11.342 2.088"/><path fill="var(--brand-sapphire-10, #d5e8fd)" d="M130.446 34.236H12.836v162.051h117.61V34.236Z"/><path fill="var(--unique-white, #ffffff)" stroke="var(--unique-black, #111111)" stroke-linecap="round" stroke-linejoin="round" stroke-miterlimit="10" d="M148.417 24.72H30.806V186.77h117.611V24.72Z"/><path stroke="var(--unique-black, #111111)" stroke-linecap="round" stroke-linejoin="round" stroke-miterlimit="10" stroke-width=".8" d="m124.235 98.974-4.314 1.516M115.68 91.134l-4.565.26M123.094 84.397l4.247 4.31"/><path stroke="var(--unique-black, #111111)" stroke-linecap="round" stroke-linejoin="round" stroke-width=".8" d="m124.237 52.861 6.21 1.309"/><path stroke="var(--unique-black, #111111)" stroke-linecap="round" stroke-linejoin="round" stroke-miterlimit="10" stroke-width=".8" d="m131.889 43.804 1.976 4.012"/><path fill="var(--unique-white, #ffffff)" stroke="var(--unique-black, #111111)" stroke-linecap="round" stroke-linejoin="round" stroke-miterlimit="10" stroke-width=".8" d="M89.612 39.242H43.837v34.035h45.775V39.242Z"/><path fill="var(--brand-sapphire-10, #d5e8fd)" d="M69.142 67.524 48.2 67.332l10.793-16.38 10.15 16.572Z"/><path fill="var(--unique-white, #ffffff)" stroke="var(--unique-black, #111111)" stroke-linecap="round" stroke-linejoin="round" stroke-miterlimit="10" stroke-width=".8" d="m71.64 67.029-14.223-.118 7.328-11.146 6.896 11.264Z"/><path fill="var(--unique-black, #111111)" d="M45.302 157.12a.5.5 0 1 0 .766.643l-.766-.643Zm15.391-17.563.227-.446a.5.5 0 0 0-.61.124l.383.322Zm12.623 6.417-.226.446a.5.5 0 0 0 .617-.134l-.39-.312Zm23.528-28.866a.5.5 0 0 0-.552-.442l-4.473.499a.5.5 0 0 0 .111.994l3.976-.443.443 3.975a.501.501 0 0 0 .994-.111l-.499-4.472Zm-50.776 40.655 15.008-17.885-.766-.643-15.008 17.885.766.643Zm14.399-17.76 12.623 6.417.453-.892-12.623-6.417-.453.892Zm13.24 6.283 23.03-28.81-.78-.625-23.031 28.811.78.624Z"/><path stroke="var(--unique-black, #111111)" stroke-linecap="round" d="M43.6 82.506h37.003M43.6 91.134h50.032M43.6 103.792h10.842M58.301 103.792h35.332"/><path fill="var(--unique-white, #ffffff)" stroke="var(--unique-black, #111111)" stroke-linecap="round" stroke-linejoin="round" stroke-miterlimit="10" stroke-width=".8" d="M285.157 230.416c-21.393-36.113-40.219-73.654-56.049-112.622-2.425-6.138-8.13-10.42-14.975-8.422-4.707 1.285-9.128 6.423-9.128 11.562-43.641 18.128-94.699 57.667-93.986 109.197h24.245c0-40.539 43.357-72.513 77.87-86.501.143 0 .286-.143.571-.286 14.404 33.402 30.663 65.804 49.204 97.064 7.416-3.426 14.832-6.709 22.248-9.992Z"/><mask id="b" fill="#fff"><path d="M210.139 96.81c-4.706 14.274-23.247 10.135-33.372 5.853-4.707-1.999-10.126 2.141-11.41 6.423-1.569 5.281 1.854 9.421 6.418 11.419 20.965 8.85 48.205 5.567 56.192-18.841 3.851-11.277-14.119-16.13-17.828-4.854Z"/></mask><path fill="var(--brand-sapphire-60, #1952b6)" stroke="var(--unique-black, #111111)" stroke-width="1.6" d="M210.139 96.81c-4.706 14.274-23.247 10.135-33.372 5.853-4.707-1.999-10.126 2.141-11.41 6.423-1.569 5.281 1.854 9.421 6.418 11.419 20.965 8.85 48.205 5.567 56.192-18.841 3.851-11.277-14.119-16.13-17.828-4.854Z" mask="url(#b)"/><path fill="var(--unique-white, #ffffff)" d="m203 66.5-3 5.5 1 .5.5 1L203 77l3 1.5v.5l5 10.5 7.5-2-4.5-10-2-3-.5-4L204 66l-1 .5Z"/><path fill="var(--unique-black, #111111)" d="M211.281 63.835c-2.425-.571-5.134 0-7.559 1.855 1.426 2.284 4.992 4.282 6.703 4.568 1.569.428 1.141 2.57-.142 2.855-1.141.428 1.283 2.712 1.996 2.997.286.143.571.143.856.143 1.284-1.285 2.139-3.426 1.997-6.566v-1.856c-.999-1.427-2.425-2.712-3.851-3.996Z"/><path stroke="var(--unique-black, #111111)" stroke-linecap="round" stroke-linejoin="round" stroke-miterlimit="10" stroke-width=".8" d="M215.275 69.832c0 2.997-.57 4.996-1.854 6.423l2.567 5.71 2.853 6.28-7.274 2.998-2.71-6.138-2.995-6.709c-4.421-.713-4.278-5.424-4.278-5.424l-1.569-1s.713-2.854 3.851-6.137c3.137-3.426 11.266-2.57 11.409 3.997Z"/><path fill="var(--unique-black, #111111)" d="M213.563 65.55c2.568-3.569 1.997-11.42 8.272-6.281 6.276 5.139 5.705 13.56 17.543 10.848 11.837-2.712 14.119 4.14 21.392 3.997 7.274-.143 12.123 2.284 2.568 4.996-9.556 2.712-15.403-1.142-26.242 2.712s-20.68-2.998-16.972-9.135c3.708-6.138 1.854-9.992-.856-8.28-2.71 1.714-4.706 3.712-4.706 3.712l-.999-2.57Z"/><mask id="c" fill="#fff"><path d="M215.99 87.104c-10.981.856-15.288 17.338-15.857 23.535-.569 6.196 1.596 16.86 1.596 16.86l33.515-6.137s-.143-4.854-2.567-15.416c-2.71-12.419-3.851-19.841-16.687-18.842Z"/></mask><path fill="var(--brand-sapphire-60, #1952b6)" stroke="var(--unique-black, #111111)" stroke-width="1.6" d="M215.99 87.104c-10.981.856-15.288 17.338-15.857 23.535-.569 6.196 1.596 16.86 1.596 16.86l33.515-6.137s-.143-4.854-2.567-15.416c-2.71-12.419-3.851-19.841-16.687-18.842Z" mask="url(#c)"/><mask id="d" fill="#fff"><path d="M134.882 62.652c.011-3.04 3.273-4.96 5.933-3.49l57.145 31.582c2.708 1.497 2.764 5.373.099 6.948l-57.383 33.93c-2.671 1.579-6.043-.354-6.032-3.458l.238-65.512Z"/></mask><path fill="var(--unique-white, #ffffff)" stroke="var(--unique-black, #111111)" stroke-width="1.6" d="M134.882 62.652c.011-3.04 3.273-4.96 5.933-3.49l57.145 31.582c2.708 1.497 2.764 5.373.099 6.948l-57.383 33.93c-2.671 1.579-6.043-.354-6.032-3.458l.238-65.512Z" mask="url(#d)"/><path stroke="var(--unique-black, #111111)" stroke-linecap="round" stroke-width=".8" d="m168.74 102.599 14.943-8.417"/><path fill="var(--unique-white, #ffffff)" d="m146.531 96.243-5.705 3.14 4.706 12.847 14.12-3.283-1.284-8.421-4.136 2.283-7.701-6.566Z"/><path fill="var(--brand-sapphire-60, #1952b6)" stroke="var(--unique-black, #111111)" stroke-linecap="round" stroke-linejoin="round" stroke-miterlimit="10" stroke-width=".8" d="M227.823 98.955c-.856-11.847-19.396-11.99-18.541 0 1.141 14.417-8.414 27.549-23.389 27.978-12.265.285-21.393-8.708-25.386-19.699-5.848 1.856-10.84 3.283-16.83 4.996 4.707 18.985 21.536 33.687 42.216 33.259 24.53-.571 43.926-21.982 41.93-46.534Z"/><path fill="var(--brand-sapphire-60, #1952b6)" d="m229.86 102.594-3.268 18.757-4.872.987-14.112 2.556-12.96-1.756 5.015-11.899.874-3.637s.986-.095 1.57-.414c.584-.318 5.501-12.946 5.501-12.946l3.302-3.26 4.373-2.191 6.027.358 4.609 2.484 2.659 4.967 1.282 5.994Z"/><path stroke="var(--unique-white, #ffffff)" stroke-linecap="round" stroke-linejoin="round" stroke-miterlimit="10" d="M199.672 121.279c5.499-4.608 8.696-11.391 11.893-18.431M225.887 107.965c-.64 5.12-4.86 14.975-4.86 14.975"/><path fill="var(--unique-white, #ffffff)" d="M143.82 95.099c-2.281 1.284.571 8.992.571 8.992s-1.997-7.85-3.708-6.851c-1.712 1 .998 7.565 3.137 14.988"/><path stroke="var(--unique-black, #111111)" stroke-linecap="round" stroke-linejoin="round" stroke-miterlimit="10" stroke-width=".8" d="M143.82 95.099c-2.281 1.284.571 8.992.571 8.992s-1.997-7.85-3.708-6.851c-1.712 1 .998 7.565 3.137 14.988"/><path fill="var(--unique-white, #ffffff)" d="M160.507 107.23c-.57-5.852-.428-12.561-2.71-11.276-2.282 1.284-1.283 9.135-6.703 3.996-4.564-4.567-4.136-6.423-6.418-5.567-2.282.857 3.566 8.137 3.566 8.137"/><path stroke="var(--unique-black, #111111)" stroke-linecap="round" stroke-linejoin="round" stroke-miterlimit="10" stroke-width=".8" d="M160.507 107.23c-.57-5.852-.428-12.561-2.71-11.276-2.282 1.284-1.283 9.135-6.703 3.996-4.564-4.567-4.136-6.423-6.418-5.567-2.282.857 3.566 8.137 3.566 8.137"/><path stroke="var(--unique-black, #111111)" stroke-width=".8" d="M80.972 50.037a3.732 3.732 0 0 1-3.73 3.733 3.732 3.732 0 0 1-3.73-3.733 3.732 3.732 0 0 1 3.73-3.733c2.06 0 3.73 1.671 3.73 3.733ZM45.671 123.576l7.056 4.177a.6.6 0 0 1-.038 1.054l-7.965 3.977a.6.6 0 0 1-.864-.603l.91-8.154a.6.6 0 0 1 .901-.451Z"/><path fill="var(--unique-black, #111111)" stroke="var(--unique-black, #111111)" stroke-width=".8" d="m111.288 62.642.105 7.633a.1.1 0 0 1-.153.086l-7.016-4.403a.1.1 0 0 1 .01-.175l6.911-3.23a.1.1 0 0 1 .143.09Z"/><path stroke="var(--unique-black, #111111)" stroke-width=".8" d="m115.851 134.66 1.294 15.546a.599.599 0 0 1-.88.578l-14.927-7.984a.6.6 0 0 1-.009-1.054l13.633-7.562a.6.6 0 0 1 .889.476Z"/><path stroke="var(--steel-90, #001729)" stroke-linecap="round" stroke-linejoin="round" stroke-miterlimit="10" stroke-width=".8" d="m163.247 8.711 1.04-1.798M152.057 6.517l-.366-3.57M17.681 3.256l2.887 5.307M5 15.119l10.661 3.246M256.416 111.169l5.108 3.936M261.15 103.296l5.548.001M211.589 39.142l9.805-21.26M216.492 42.413l6.536-6.541"/><ellipse cx="13.072" cy="12.266" stroke="var(--steel-90, #001729)" stroke-linecap="round" stroke-linejoin="round" stroke-miterlimit="10" stroke-width=".8" rx="13.072" ry="12.266" transform="matrix(-1 0 0 1 276.95 11.34)"/><path stroke="var(--steel-90, #001729)" stroke-linecap="round" stroke-linejoin="round" stroke-miterlimit="10" stroke-width=".8" d="M250.807 42.413c-5.415 0-9.804-4.027-9.804-8.995 0-4.968 4.389-8.995 9.804-8.995 5.414 0 9.804 4.027 9.804 8.995 0 2.304-.944 4.405-2.497 5.997"/><ellipse cx="4.902" cy="4.906" stroke="var(--steel-90, #001729)" stroke-linecap="round" stroke-linejoin="round" stroke-miterlimit="10" stroke-width=".8" rx="4.902" ry="4.906" transform="matrix(-1 0 0 1 263.481 51.941)"/></g><defs><clipPath id="a"><path fill="var(--unique-white, #ffffff)" d="M0 0h300v164H0z"/></clipPath></defs></svg>
