<svg xmlns="http://www.w3.org/2000/svg" width="300" height="164" fill="none"><g clip-path="url(#a)"><path fill="var(--unique-white, #ffffff)" d="M292 123.562 279.782 85 264 92.416 279.782 129 292 123.562Z"/><path fill="var(--brand-sapphire-10, #d5e8fd)" d="m148.417 4.727 13.963 27.128 20.534 6.576-9.856 24.32 14.784 28.292-29.568-3.831-3.784 24.786-19.571-24.786-27.567 15.387 8.21-29.052L84.728 62.75l29.808-11.44-10.473-39.243 33.676 15.676 10.678-23.017Z"/><path stroke="var(--unique-black, #111111)" stroke-linecap="round" stroke-linejoin="round" stroke-miterlimit="10" d="m96.887 93.185-22.972 53.078"/><path fill="var(--unique-white, #ffffff)" stroke="var(--unique-black, #111111)" stroke-linecap="round" stroke-linejoin="round" stroke-miterlimit="10" d="M76.613 148.555c4.02 2.519 9.699 9.109 8.873 11.764-7.015.692-17.237-3.522-24.873-8.3-3.35-2.095-7.067-5.869-2.808-6.833 4.064-.925 10.066-2.106 18.808 3.369Z"/><path fill="var(--unique-white, #ffffff)" d="M141.591 55.614c-8.082 9.4-28.211 45.187-43.253 39.586-19.994-7.445-6.117-40.654-.855-59.889.739-10.086 46.294 7.346 46.203 16.145-3.241 16.565-41.948-6.173-46.203-16.145"/><path stroke="var(--unique-black, #111111)" stroke-linecap="round" stroke-linejoin="round" stroke-miterlimit="10" d="M141.591 55.614c-8.082 9.4-28.211 45.187-43.253 39.586-19.994-7.445-6.117-40.654-.855-59.889m0 0c.739-10.086 46.294 7.346 46.203 16.145-3.241 16.565-41.948-6.173-46.203-16.145Z"/><path fill="var(--brand-sapphire-60, #1952b6)" d="M92.222 72.387c.752-.67 2.449-2.139 4.418-1.522 1.507.472 2.952 1.219 4.4 1.838 1.69.724 4.515.957 6.324.783 1.752-.17 2.151-1.294 3.678-2.104 3.401-1.805 6.374-.309 10.237-4.686 3.864-4.377 10.329-2.847 6.35 2.793-.438.62-1.011 1.36-1.569 2.151-.975 1.383-2.218 3.004-3.117 4.191-1.691 2.235-5.969 7.572-9.95 11.121-2.003 1.786-3.992 3.222-5.29 3.925-1.1.597-2.394 1.206-3.649 1.46-.733.149-1.563.271-2.263.23-.521-.031-.955-.108-1.448-.197-1.67-.488-2.87-1.312-3.963-2.03-.562-.37-1.611-1.408-2.454-2.737-.8-1.259-1.397-2.781-1.775-4.104-.775-2.716-.763-9.075-.401-10.225.054-.33.176-.624.472-.887ZM106.963 65.903a2.459 2.459 0 0 0 2.116-1.74 2.468 2.468 0 0 0-2.117-3.17 2.463 2.463 0 0 0-2.693 2.697 2.467 2.467 0 0 0 2.694 2.213Z"/><path fill="var(--unique-white, #ffffff)" d="M91.492 123.726c-1.673 9.431-9.795 15.887-31.229 15.886-19.884.859-47.141-22.306-47.141-22.306"/><path stroke="var(--unique-black, #111111)" stroke-linecap="round" stroke-linejoin="round" stroke-miterlimit="10" d="M91.492 123.726c-1.673 9.431-9.795 15.887-31.229 15.886-19.884.859-47.141-22.306-47.141-22.306"/><path fill="var(--unique-white, #ffffff)" d="M61.615 103.346C46.893 97.702 30.16 85.192 27.627 89.587c-2.532 4.395-13.277 26.255-13.277 26.255s37.719 26.575 55.167 19.932c17.449-6.644 20.186-10.483 22.307-12.443 2.065-2.007 5.875-6.097 6.573-10.018.698-3.921-15.35 3.226-21.162.554-5.754-2.624-10.822-8.699-15.62-10.521Z"/><path fill="var(--unique-white, #ffffff)" d="M98.098 114.693c0 7.527-7.854 15.227-24.59 17.912Z"/><path stroke="var(--unique-black, #111111)" stroke-linecap="round" stroke-linejoin="round" stroke-miterlimit="10" d="M98.098 114.693c0 7.527-7.854 15.227-24.59 17.912"/><path fill="var(--unique-white, #ffffff)" d="M29.64 85.81c13.384 9.987 25.364 11.7 34.71 7.75 9.347-3.951 22.974-7.09 21.825 0-1.102 7.034-7.432 6.038-10.242 12.022-2.81 5.984 11.78 5.381 19.995-.191 8.214-5.572 13.123-2.375 7.533 5.076-7.532 10.042-24.606 14.157-24.606 14.157"/><path stroke="var(--unique-black, #111111)" stroke-linecap="round" stroke-linejoin="round" stroke-miterlimit="10" d="M29.64 85.81c13.384 9.987 25.364 11.7 34.71 7.75 9.347-3.951 22.974-7.09 21.825 0-1.102 7.034-7.432 6.038-10.242 12.022-2.81 5.984 11.78 5.381 19.995-.191 8.214-5.572 13.123-2.375 7.533 5.076-7.532 10.042-24.606 14.157-24.606 14.157M71.345 124.161l-2.473.321M69.468 129.152l-2.305.463"/><path stroke="var(--steel-90, #001729)" stroke-linecap="round" stroke-linejoin="round" stroke-miterlimit="10" stroke-width=".8" d="m89.708 14.857-1.67-1.794M83.192 26.108l-5.01-.244M203.032 30.433l5.243-4.398M208.181 39.706l4.69.42"/><path fill="var(--brand-sapphire-60, #1952b6)" d="M72.635 45.576V34.067L63.56 38.77l-5.524-13.123-3.69 16.749-12.891-2.8L52.899 50.55l-6.86 12.29 13.811-5.987 6.475 14.207 3.533-14.207 9.035-3.056-6.258-8.22Z"/><path stroke="var(--steel-90, #001729)" stroke-linecap="round" stroke-linejoin="round" stroke-miterlimit="10" stroke-width=".8" d="m145.455 104.882 1.721 8.22M137.32 108.17l-.949 5.611M230.569 69.112l3.343-15.364 15.35 3.346-3.343 15.363-15.35-3.345ZM107.012 131.72l5.928-2.453 2.452 5.934-5.929 2.453-2.451-5.934Z"/><path fill="var(--unique-black, #111111)" stroke="var(--unique-black, #111111)" stroke-linecap="round" stroke-linejoin="round" stroke-miterlimit="10" stroke-width=".8" d="m135.475 129.544 10.007 1.662-1.661 10.015-10.007-1.662 1.661-10.015ZM30.852 19.537 28.9 16.409l3.125-1.953 1.951 3.128-3.125 1.953Z"/><mask id="b" fill="#fff"><path d="M268.239 49.63a6.068 6.068 0 0 0 5.611-3.752 6.083 6.083 0 0 0-1.316-6.624 6.076 6.076 0 0 0-6.619-1.318 6.075 6.075 0 0 0-3.749 5.615 6.08 6.08 0 0 0 1.779 4.298 6.071 6.071 0 0 0 4.294 1.78Z"/></mask><path stroke="var(--steel-90, #001729)" stroke-width="1.6" d="M268.239 49.63a6.068 6.068 0 0 0 5.611-3.752 6.083 6.083 0 0 0-1.316-6.624 6.076 6.076 0 0 0-6.619-1.318 6.075 6.075 0 0 0-3.749 5.615 6.08 6.08 0 0 0 1.779 4.298 6.071 6.071 0 0 0 4.294 1.78Z" mask="url(#b)"/><mask id="c" fill="#fff"><path d="M22.33 50.626a6.567 6.567 0 0 0 6.07-4.06 6.582 6.582 0 0 0-1.424-7.166 6.569 6.569 0 0 0-11.217 4.65 6.58 6.58 0 0 0 1.924 4.65 6.568 6.568 0 0 0 4.647 1.926Z"/></mask><path stroke="var(--steel-90, #001729)" stroke-width="1.6" d="M22.33 50.626a6.567 6.567 0 0 0 6.07-4.06 6.582 6.582 0 0 0-1.424-7.166 6.569 6.569 0 0 0-11.217 4.65 6.58 6.58 0 0 0 1.924 4.65 6.568 6.568 0 0 0 4.647 1.926Z" mask="url(#c)"/><mask id="d" fill="#fff"><path d="M174.572 14.805a2.803 2.803 0 0 0 2.595-1.735 2.815 2.815 0 0 0-2.047-3.832 2.804 2.804 0 0 0-2.883 1.194 2.817 2.817 0 0 0 .349 3.55 2.808 2.808 0 0 0 1.986.823Z"/></mask><path fill="var(--brand-sapphire-60, #1952b6)" stroke="var(--brand-sapphire-60, #1952b6)" stroke-width="1.6" d="M174.572 14.805a2.803 2.803 0 0 0 2.595-1.735 2.815 2.815 0 0 0-2.047-3.832 2.804 2.804 0 0 0-2.883 1.194 2.817 2.817 0 0 0 .349 3.55 2.808 2.808 0 0 0 1.986.823Z" mask="url(#d)"/><mask id="e" fill="#fff"><path d="M247.983 24.32a4.107 4.107 0 0 0 4.028-4.911 4.104 4.104 0 0 0-7.443-1.482 4.115 4.115 0 0 0 .511 5.19 4.105 4.105 0 0 0 2.904 1.204Z"/></mask><path fill="var(--unique-black, #111111)" stroke="var(--unique-black, #111111)" stroke-width="1.6" d="M247.983 24.32a4.107 4.107 0 0 0 4.028-4.911 4.104 4.104 0 0 0-7.443-1.482 4.115 4.115 0 0 0 .511 5.19 4.105 4.105 0 0 0 2.904 1.204Z" mask="url(#e)"/><path stroke="var(--unique-black, #111111)" stroke-linecap="round" stroke-linejoin="round" stroke-miterlimit="10" d="m175.619 80.332 23.195 65.61"/><path fill="var(--unique-white, #ffffff)" stroke="var(--unique-black, #111111)" stroke-linecap="round" stroke-linejoin="round" stroke-miterlimit="10" d="M191.373 140.746c-3.953 1.653-16.934 11.995-15.895 15.694 14.26-1.329 29.838-8.003 42.391-14.703 4.058-2.165 9.482-4.16 2.874-6.143-6.305-1.897-16.892-1.938-29.37 5.152Z"/><path fill="var(--unique-white, #ffffff)" d="M125.062 31.538c8.925 11.952 30.135 56.573 48.652 51.094 24.612-7.283 10.694-48.292 5.966-71.816-.055-12.168-56.173 4.988-56.79 15.558 2.525 20.152 50.86-3.94 56.79-15.558"/><path stroke="var(--unique-black, #111111)" stroke-linecap="round" stroke-linejoin="round" stroke-miterlimit="10" d="M125.062 31.538c8.925 11.952 30.135 56.573 48.652 51.094 24.612-7.283 10.694-48.292 5.966-71.816m0 0c-.055-12.168-56.173 4.988-56.79 15.558 2.525 20.152 50.86-3.94 56.79-15.558Z"/><path fill="var(--brand-sapphire-60, #1952b6)" d="M183.733 51.63c-.927-.951-3.024-3.042-5.676-2.42-2.028.477-4.001 1.32-5.967 1.996-2.293.79-3.78-.58-6.78-.723-1.634-.077-11.918 4.693-14.1-10.958-2.182-15.65-8.881-16.963-14.973-16.753-8.407 3.05-.673 17.89-1.112 18.514 0 0 .612.88 2.007 3.185.519.857 1.204 1.883 1.864 2.975 1.155 1.909 2.577 3.931 3.649 5.576 2.018 3.095 7.359 10.758 12.269 15.798 2.47 2.536 5.012 4.592 6.656 5.64 1.393.887 3.08 1.788 4.709 2.242.952.264 2.034.505 2.96.517.688.009 1.267-.05 1.924-.121 2.246-.481 3.903-1.45 5.411-2.289.774-.43 2.254-1.695 3.489-3.36 1.17-1.576 2.1-3.519 2.721-5.22 1.276-3.493 1.856-11.844 1.488-13.39-.04-.437-.174-.835-.539-1.21Z"/><path stroke="var(--unique-black, #111111)" stroke-linecap="round" stroke-linejoin="round" stroke-miterlimit="10" d="M179.676 10.815c-.055-12.167-56.17 4.988-56.787 15.557 2.525 20.15 50.857-3.94 56.787-15.557Z"/><path fill="var(--brand-sapphire-60, #1952b6)" d="M106.704 21.174a2.463 2.463 0 0 0 2.592-2.795 2.469 2.469 0 0 0-1.814-2.052 2.46 2.46 0 0 0-2.589.893 2.47 2.47 0 0 0 .116 3.127c.433.49 1.043.787 1.695.827ZM126.461 13.98c-3.416-2.407-8.807-1.637-10.783 1.54-1.977 3.176 1.44 5.583 6.173 5.872 3.969.242 3.892 4.32 7.557 2.66 4.276-1.937.469-7.665-2.947-10.072Z"/><path fill="var(--unique-white, #ffffff)" d="M177.521 126.193c3.93 15.688 16.248 25.55 34.318 25.547 25.26-.004 79.675-27.96 79.675-27.96"/><path stroke="var(--unique-black, #111111)" stroke-linecap="round" stroke-linejoin="round" stroke-miterlimit="10" d="M177.521 126.193c3.93 15.688 16.248 25.55 34.318 25.547 25.26-.004 79.675-27.96 79.675-27.96"/><path fill="var(--unique-white, #ffffff)" d="M222.479 108.544c17.39-4.121 37.874-15.805 40.232-10.35 2.358 5.457 11.982 32.297 11.982 32.297s-45.984 24.474-65.019 14.039c-19.035-10.435-21.692-15.286-23.87-17.878-2.108-2.637-5.953-7.948-6.283-12.565-.33-4.617 17.057 6.171 23.973 4.035 6.846-2.091 13.32-8.256 18.985-9.578Z"/><path fill="var(--unique-white, #ffffff)" d="M169.727 108.672c-.441 23.964 25.571 34.589 37.738 32.855Z"/><path stroke="var(--unique-black, #111111)" stroke-linecap="round" stroke-linejoin="round" stroke-miterlimit="10" d="M169.727 108.672c-.441 23.964 25.571 34.589 37.738 32.855"/><path fill="var(--unique-white, #ffffff)" d="M279.194 85.144c-26.285 13.978-43.658 15.919-54.581 9.646-10.924-6.272-39.654-6.456-39.656 2.699-.001 9.155 21.013 2.579 23.577 10.375 2.563 7.797-10.773 8.371-21.69 2.9-3.858-3.367-8.202-7.37-12.266-14.745-4.065-7.374-16.206-2.803-7.916 10.627 10.356 23.622 35.409 24.243 35.409 24.243"/><path stroke="var(--unique-black, #111111)" stroke-linecap="round" stroke-linejoin="round" stroke-miterlimit="10" d="M279.194 85.144c-26.285 13.978-43.658 15.919-54.581 9.646-10.924-6.272-39.654-6.456-39.656 2.699-.001 9.155 21.013 2.579 23.577 10.375 2.563 7.797-10.773 8.371-21.69 2.9-3.858-3.367-8.202-7.37-12.266-14.745-4.065-7.374-16.206-2.803-7.916 10.627 10.356 23.622 35.409 24.243 35.409 24.243M207.613 128.373l2.999.768M211.052 137.015l2.617 1.017M213.267 142.431l2.77.918"/><path fill="var(--brand-sapphire-60, #1952b6)" d="m212.894 62.135 2.311 7.835h3.992l-1.681 4.272 3.362 4.484-5.673-.213-2.311 3.352-2.312-3.352-7.774 1.558 5.463-5.83-3.782-5.38 6.093 1.11 2.312-7.836Z"/><rect width="19.031" height="50.088" fill="var(--unique-black, #111111)" rx="1" transform="rotate(-23.002 358.365 -555.38) skewX(-.035)"/><ellipse cx="265.231" cy="119.68" fill="var(--unique-white, #ffffff)" stroke="var(--unique-black, #111111)" rx="16.427" ry="16.441"/><path stroke="var(--unique-black, #111111)" stroke-linecap="round" stroke-linejoin="round" d="m258.66 128.723 6.571-9.043 4.107 6.577"/><path fill="var(--unique-white, #ffffff)" d="M45.962 82.603c-5.41-3.047-23.09-13.065-32.065-18.823L4.862 120.5l17.052 11.131a1.98 1.98 0 0 0 2.85-.737c7.07-13.689 18.91-39.012 22.034-45.72a1.983 1.983 0 0 0-.836-2.572Z"/><path stroke="var(--unique-black, #111111)" stroke-linecap="round" d="M13.897 63.78c8.975 5.758 26.656 15.776 32.065 18.824a1.983 1.983 0 0 1 .836 2.571c-3.123 6.705-14.952 32.007-22.025 45.7a1.98 1.98 0 0 1-2.865.726L6.505 121.323"/><mask id="f" fill="#fff"><path d="M33.822 92.155a3.496 3.496 0 0 0 3.231-2.161 3.504 3.504 0 0 0-2.549-4.774 3.496 3.496 0 0 0-4.18 3.434 3.502 3.502 0 0 0 3.498 3.5Z"/></mask><path fill="var(--unique-black, #111111)" stroke="var(--unique-black, #111111)" stroke-width="1.6" d="M33.822 92.155a3.496 3.496 0 0 0 3.231-2.161 3.504 3.504 0 0 0-2.549-4.774 3.496 3.496 0 0 0-4.18 3.434 3.502 3.502 0 0 0 3.498 3.5Z" mask="url(#f)"/><mask id="g" fill="#fff"><path d="M23.965 85.578a3.496 3.496 0 0 0 3.232-2.16 3.504 3.504 0 0 0-2.55-4.774 3.494 3.494 0 0 0-3.59 1.488 3.503 3.503 0 0 0 2.908 5.446Z"/></mask><path fill="var(--unique-black, #111111)" stroke="var(--unique-black, #111111)" stroke-width="1.6" d="M23.965 85.578a3.496 3.496 0 0 0 3.232-2.16 3.504 3.504 0 0 0-2.55-4.774 3.494 3.494 0 0 0-3.59 1.488 3.503 3.503 0 0 0 2.908 5.446Z" mask="url(#g)"/></g><defs><clipPath id="a"><path fill="var(--unique-white, #ffffff)" d="M0 0h300v164H0z"/></clipPath></defs></svg>
