<svg xmlns="http://www.w3.org/2000/svg" width="300" height="200" fill="none"><path fill="var(--unique-white, #ffffff)" d="m199 83.5-33 32v2.5c15 4 45.2 11.9 46 11.5.8-.4 1-1.5 1-2l-11.5-43c-.333-.333-1.3-1-2.5-1Z"/><path fill="var(--unique-white, #ffffff)" stroke="var(--unique-black, #111111)" stroke-linecap="round" stroke-linejoin="round" stroke-miterlimit="10" stroke-width=".8" d="M248.198 58.384H87.167v113.235h161.031V58.384Z"/><path stroke="var(--unique-black, #111111)" stroke-linecap="round" stroke-linejoin="round" stroke-miterlimit="10" stroke-width=".8" d="M99.302 67.095a2.496 2.496 0 0 0 2.503-2.49 2.496 2.496 0 0 0-2.503-2.488 2.496 2.496 0 0 0-2.502 2.489 2.496 2.496 0 0 0 2.502 2.489ZM108.437 67.095a2.496 2.496 0 0 0 2.503-2.49 2.496 2.496 0 0 0-2.503-2.488 2.495 2.495 0 0 0-2.502 2.489 2.495 2.495 0 0 0 2.502 2.489ZM142.721 160.296h104.226"/><path stroke="var(--steel-90, #001729)" stroke-linecap="round" stroke-linejoin="round" stroke-miterlimit="10" stroke-width=".8" d="M261.311 125.205H275.7M261.311 133.667H275.7M261.311 142.13h10.51"/><path stroke="var(--unique-black, #111111)" stroke-linecap="round" stroke-linejoin="round" stroke-miterlimit="10" stroke-width=".8" d="M192.77 160.296c-4.379 0-6.381 1.991-6.381 1.991"/><path fill="var(--unique-black, #111111)" d="M128.285 120.726c2.127-1.866 5.88-7.714 6.005-12.07 1.127-8.337-9.384-3.608-10.259 1.991-.501.498-1.001.871-1.502 1.493-1.001 2.24-2.002 3.609-2.753 6.098-.125.373-.125 1.244-.25 1.991.25.746.375 1.617.626 2.364.375.498.625.995.876 1.493 2.377 4.604 5.255 6.969 8.258 7.84.375-.249.75-.623 1.126-.996.75-.871 2.377-6.346.375-5.973-2.252.249-4.629-2.488-2.502-4.231Z"/><path stroke="var(--unique-black, #111111)" stroke-linecap="round" stroke-linejoin="round" stroke-miterlimit="10" stroke-width=".8" d="M121.029 123.961c2.377 4.356 5.005 6.844 7.883 7.715l-7.633 19.412 10.26 5.351 10.135-26.754c5.881-4.604 2.002-12.319 2.002-12.319l1.376-2.613s-3.253-3.484-10.76-5.724c-7.257-2.488-18.518 5.351-13.263 14.932Z"/><path fill="var(--brand-sapphire-60, #1952b6)" stroke="var(--unique-black, #111111)" stroke-linecap="round" stroke-linejoin="round" stroke-miterlimit="10" stroke-width=".8" d="m125.036 141.382-3.879 9.706 10.26 5.351 4.129-10.95a131.633 131.633 0 0 0-10.51-4.107Z"/><mask id="a" fill="#fff"><path d="M157.365 179.991h-54.843c-.146-.248-.146-.497-.146-.746v-29.909c.876-1.119 20.183-.357 21.935-.481 12.265-.871 27.028 14.296 33.054 31.136Z"/></mask><path fill="var(--brand-sapphire-60, #1952b6)" stroke="var(--unique-black, #111111)" stroke-width="1.6" d="M157.365 179.991h-54.843c-.146-.248-.146-.497-.146-.746v-29.909c.876-1.119 20.183-.357 21.935-.481 12.265-.871 27.028 14.296 33.054 31.136Z" mask="url(#a)"/><path fill="var(--unique-black, #111111)" d="M132.918 120.105c-1.126-.872-2.127-1.743-3.253-2.614-.501-.373-1.126-.497-1.627 0-.375.374-.5 1.245 0 1.618 1.126.871 2.127 1.742 3.254 2.613.5.373 1.126.498 1.626 0 .375-.373.501-1.12 0-1.617Z"/><path fill="var(--brand-sapphire-60, #1952b6)" stroke="var(--unique-black, #111111)" stroke-linecap="round" stroke-linejoin="round" stroke-miterlimit="10" stroke-width=".8" d="M152.828 171.619h-30.547c-5.13-2.613-11.011-3.857-17.267-4.48-3.378-.373-6.757-.497-10.135-.622-17.642-.622-36.786-2.986-48.422-17.669-26.526-33.224 19.394-65.328 49.548-70.057.876 7.342 2.503 14.683 3.88 21.901-12.638 2.239-24.775 7.839-33.534 17.42-3.503 3.858-6.38 8.462-4.129 13.688 2.378 5.475 8.259 8.462 13.764 9.955 9.51 2.613 19.394 2.364 29.278 2.862 5.631.249 11.136.746 16.642 2.24a51.021 51.021 0 0 1 30.922 24.762Z"/><path fill="var(--brand-sapphire-60, #1952b6)" d="M103.733 180.042v-15.541s45.428 3 46.062 3.665l1.868 2.716.76 1.412 4.033 7.748h-52.723ZM122.125 150.386l2.177-5.377 9.322 3.613-1.854 5.089-9.645-3.325Z"/><path fill="var(--unique-white, #ffffff)" d="M98.508 78.294c5.255-4.106 10.26-3.11 12.262-1.493 2.127 1.618 1.376 3.484 1.376 3.484"/><path stroke="var(--unique-black, #111111)" stroke-linecap="round" stroke-linejoin="round" stroke-miterlimit="10" stroke-width=".8" d="M98.508 78.294c5.255-4.106 10.26-3.11 12.262-1.493 2.127 1.618 1.376 3.484 1.376 3.484"/><path fill="var(--unique-white, #ffffff)" d="M95.756 78.915c7.382-1.617 16.891 0 17.517 2.738.626 2.737.25 3.608.25 3.608s1.126 2.862.125 5.102c-1.126 2.24 1.627 5.227-1.126 6.844-1.752 1.12-12.887 3.733-12.887 3.733"/><path stroke="var(--unique-black, #111111)" stroke-linecap="round" stroke-linejoin="round" stroke-miterlimit="10" stroke-width=".8" d="M95.756 78.915c7.382-1.617 16.891 0 17.517 2.738.626 2.737.25 3.608.25 3.608s1.126 2.862.125 5.102c-1.126 2.24 1.627 5.227-1.126 6.844-1.752 1.12-12.887 3.733-12.887 3.733"/><path stroke="var(--unique-black, #111111)" stroke-linecap="round" stroke-linejoin="round" stroke-miterlimit="10" d="M174.627 171.621c2.253-5.724 5.381-11.324 13.764-11.324h16.266s1.877 3.733-3.629 3.982c-5.505.249-6.756 5.102-6.882 7.342"/><path stroke="var(--unique-black, #111111)" stroke-linecap="round" stroke-linejoin="round" stroke-miterlimit="10" d="M204.154 163.406c4.505-.373 6.632-.248 7.132-2.364"/><mask id="b" fill="#fff"><path d="M198.402 170.971h-28.277V181h28.277v-10.029Z"/></mask><path fill="var(--brand-sapphire-60, #1952b6)" stroke="var(--unique-black, #111111)" stroke-width="1.6" d="M198.402 170.971h-28.277V181h28.277v-10.029Z" mask="url(#b)"/><path fill="var(--brand-sapphire-60, #1952b6)" d="M171.484 181V174.378h25.584V181h-25.584Z"/><path stroke="var(--steel-90, #001729)" stroke-linecap="round" stroke-linejoin="round" stroke-miterlimit="10" stroke-width=".8" d="M77.64 52.717 67.586 31.053M72.612 56.05l-6.702-6.666"/><path fill="var(--steel-90, #001729)" fill-rule="evenodd" d="M65.136 68.427a4.504 4.504 0 0 1-5.862 2.47 4.482 4.482 0 0 1-2.454-5.855 4.504 4.504 0 0 1 5.862-2.47 4.483 4.483 0 0 1 2.454 5.855Zm.926.377a5.507 5.507 0 0 1-7.167 3.018 5.48 5.48 0 0 1-3.001-7.157 5.507 5.507 0 0 1 7.167-3.018 5.48 5.48 0 0 1 3.001 7.157Zm-7.578-1.476 2.226-.937.932 2.223.923-.388-.933-2.224 2.227-.937-.388-.921-2.225.937-.932-2.222-.923.387.932 2.224-2.227.938.388.92Z" clip-rule="evenodd"/><path stroke="var(--steel-90, #001729)" stroke-linecap="round" stroke-linejoin="round" stroke-miterlimit="10" stroke-width=".8" d="m263.119 95.036-1.704-5.998M278.471 85.822l-9.952-5.617"/><path fill="var(--unique-white, #ffffff)" stroke="var(--unique-black, #111111)" stroke-linecap="round" stroke-linejoin="round" stroke-miterlimit="10" stroke-width=".8" d="m274.746 51.38-33.121-24.664-19.974 26.541 33.12 24.664 19.975-26.542Z"/><path stroke="var(--unique-black, #111111)" stroke-linecap="round" stroke-linejoin="round" stroke-miterlimit="10" stroke-width=".8" d="m259.152 46.747 6.985 5.16M257.287 48.971l6.985 5.16M254.138 61.438a1.889 1.889 0 0 0 2.604.549 1.865 1.865 0 0 0 .547-2.59 1.889 1.889 0 0 0-2.604-.549 1.865 1.865 0 0 0-.547 2.59Z"/><path fill="var(--unique-black, #111111)" d="m252.825 49.457 2.264 1.378-1.192 2.127-1.072-3.505Z"/><path fill="var(--brand-sapphire-60, #1952b6)" fill-rule="evenodd" d="m210.311 124.052-.017-.06-9.622-34.728-.012-.043-.274-.99-.481-1.737a1 1 0 0 0-1.665-.446l-1.287 1.265-.732.72-.033.032-25.72 25.27-.044.044-.808.794-1.212 1.19a1 1 0 0 0 .442 1.679l1.64.439 1.094.293.06.016 35.409 9.474.06.016 1.094.293 1.64.439a1 1 0 0 0 1.223-1.233l-.453-1.636-.302-1.091Zm-1.505 7.823-40.997-10.97c-3.737-1-4.969-5.681-2.209-8.393l29.837-29.315c2.719-2.672 7.306-1.444 8.323 2.227l11.162 40.285c1.032 3.727-2.379 7.166-6.116 6.166Zm-18.123-22.052 3.865-14.403 3.864 1.034-3.865 14.403-3.864-1.034Zm3.071 7.353a2.872 2.872 0 0 0-5.548-1.485 2.872 2.872 0 0 0 5.548 1.485Z" clip-rule="evenodd"/><path fill="var(--unique-black, #111111)" d="m210.294 123.992.241-.067-.241.067Zm.017.06-.241.067.241-.067Zm-9.639-34.788.241-.066-.241.067Zm-.012-.043-.241.066.241-.067Zm-.274-.99.241-.067-.241.067Zm-.481-1.737-.241.067.241-.067Zm-1.665-.446.175.179-.175-.179Zm-1.287 1.265-.175-.178.175.178Zm-.732.72-.176-.179.176.178Zm-.033.032.175.178-.175-.178Zm-25.72 25.27-.175-.178.175.178Zm-.044.044.175.178-.175-.178Zm-.808.794-.176-.178.176.178Zm-1.212 1.19.175.178-.175-.178Zm42.662 11.416.241-.067-.241.067Zm-.453-1.636.241-.067-.241.067ZM165.6 112.512l-.175-.178.175.178Zm29.837-29.315.175.178-.175-.178Zm8.323 2.227.241-.067-.241.067Zm11.162 40.285-.241.067.241-.067Zm-20.374-30.29.064-.24-.241-.065-.065.241.242.065Zm-3.865 14.404-.242-.064-.064.241.241.065.065-.242Zm7.729-13.37.241.065.065-.241-.242-.065-.064.242Zm-3.865 14.404-.065.242.242.064.064-.241-.241-.065Zm15.506 13.202.017.06.481-.134-.016-.06-.482.134Zm-9.622-34.728 9.622 34.728.482-.134-9.622-34.727-.482.133Zm-.012-.044.012.044.482-.133-.012-.044-.482.133Zm-.274-.989.274.99.482-.134-.274-.99-.482.134Zm-.481-1.737.481 1.737.482-.134-.481-1.737-.482.134Zm-1.249-.334a.75.75 0 0 1 1.249.334l.482-.134a1.25 1.25 0 0 0-2.081-.557l.35.357Zm-1.286 1.264 1.286-1.264-.35-.357-1.287 1.264.351.357Zm-.733.72.733-.72-.351-.356-.733.72.351.356Zm-.033.032.033-.032-.351-.357-.032.032.35.357Zm-25.72 25.271 25.72-25.271-.35-.357-25.72 25.271.35.357Zm-.044.043.044-.043-.35-.357-.044.044.35.356Zm-.808.794.808-.794-.35-.356-.809.794.351.356Zm-1.212 1.19 1.212-1.19-.351-.356-1.211 1.19.35.356Zm.332 1.259a.75.75 0 0 1-.332-1.259l-.35-.356a1.249 1.249 0 0 0 .552 2.098l.13-.483Zm1.64.439-1.64-.439-.13.483 1.64.439.13-.483Zm1.094.293-1.094-.293-.13.483 1.094.293.13-.483Zm.06.016-.06-.016-.13.483.06.016.13-.483Zm35.408 9.475-35.408-9.475-.13.483 35.409 9.475.129-.483Zm.06.016-.06-.016-.129.483.06.016.129-.483Zm1.095.293-1.095-.293-.129.483 1.094.293.13-.483Zm1.64.439-1.64-.439-.13.483 1.64.439.13-.483Zm.917-.925a.75.75 0 0 1-.917.925l-.13.483c.934.25 1.787-.61 1.529-1.542l-.482.134Zm-.453-1.636.453 1.636.482-.134-.453-1.636-.482.134Zm-.302-1.091.302 1.091.482-.134-.303-1.091-.481.134Zm-42.326-2.972 40.998 10.97.129-.483-40.997-10.97-.13.483Zm-2.319-8.813c-2.898 2.847-1.604 7.763 2.319 8.813l.13-.483c-3.55-.95-4.72-5.398-2.098-7.974l-.351-.356Zm29.836-29.315-29.836 29.315.351.356 29.836-29.315-.351-.356Zm8.74 2.338c-1.068-3.854-5.885-5.143-8.74-2.338l.351.356c2.583-2.538 6.941-1.371 7.907 2.116l.482-.134Zm11.162 40.285-11.162-40.285-.482.134 11.162 40.285.482-.134Zm-6.421 6.475c3.923 1.05 7.505-2.562 6.421-6.475l-.482.134c.981 3.54-2.26 6.808-5.81 5.858l-.129.483Zm-14.436-36.762-3.865 14.404.483.129 3.865-14.404-.483-.129Zm4.17.857-3.864-1.034-.129.483 3.864 1.034.129-.483Zm-3.688 14.71 3.865-14.404-.483-.129-3.865 14.403.483.13Zm-4.17-.857 3.864 1.034.13-.483-3.864-1.034-.13.483Zm1.04 3.84a2.617 2.617 0 0 1 1.854 3.206l.483.129a3.117 3.117 0 0 0-2.207-3.818l-.13.483Zm-3.21 1.851a2.622 2.622 0 0 1 3.21-1.851l.13-.483a3.123 3.123 0 0 0-3.823 2.205l.483.129Zm1.854 3.206a2.617 2.617 0 0 1-1.854-3.206l-.483-.129a3.117 3.117 0 0 0 2.207 3.818l.13-.483Zm3.21-1.851a2.622 2.622 0 0 1-3.21 1.851l-.13.483a3.122 3.122 0 0 0 3.823-2.205l-.483-.129Z"/><circle cx="239.883" cy="49.283" r="7.5" stroke="var(--unique-black, #111111)"/><path stroke="var(--unique-black, #111111)" d="m236.887 52.283 6-6m-6 0 6 6"/><path fill="var(--steel-90, #001729)" fill-rule="evenodd" d="M44.986 36.791c0 6.889-5.592 12.475-12.493 12.475C25.592 49.266 20 43.68 20 36.792c0-6.889 5.592-12.475 12.493-12.475 6.9 0 12.493 5.586 12.493 12.474Zm1 0c0 7.442-6.041 13.475-13.493 13.475S19 44.233 19 36.792c0-7.442 6.041-13.475 13.493-13.475s13.493 6.033 13.493 13.474Zm-18.2 4.41 4.707-4.701 4.706 4.7.707-.708-4.706-4.699 4.706-4.699-.707-.707-4.706 4.7-4.707-4.7-.706.707 4.705 4.7-4.705 4.699.706.707Z" clip-rule="evenodd"/><path fill="var(--steel-90, #001729)" fill-rule="evenodd" d="M60.466 51.212c-1.321 4.923-6.39 7.846-11.322 6.526-4.933-1.32-7.858-6.382-6.537-11.305 1.321-4.923 6.39-7.847 11.322-6.527 4.932 1.32 7.858 6.383 6.537 11.306Zm.966.258c-1.464 5.458-7.082 8.697-12.547 7.234-5.465-1.462-8.708-7.072-7.244-12.53 1.464-5.457 7.082-8.696 12.547-7.234 5.465 1.463 8.708 7.073 7.244 12.53Zm-14.351-.5 4.272-2.463 2.467 4.266.866-.5-2.466-4.266 4.271-2.463-.5-.866-4.271 2.464-2.467-4.267-.866.5 2.466 4.266-4.271 2.463.499.866Z" clip-rule="evenodd"/></svg>
