<svg xmlns="http://www.w3.org/2000/svg" width="300" height="164" fill="none"><g clip-path="url(#a)"><path fill="var(--brand-sapphire-10, #d5e8fd)" d="M187.534 74.752c13.054 24.329 6.435 47.683-19.818 67.393-26.253 19.709-54.037 3.619-67.091-20.709-13.054-24.329-7.71-55.553 21.354-64.532 29.064-8.98 52.502-6.48 65.555 17.848Z"/><ellipse cx="26.162" cy="41.623" fill="var(--brand-sapphire-60, #1952b6)" rx="5.774" ry="5.777"/><path stroke="var(--steel-90, #001729)" stroke-linecap="round" stroke-linejoin="round" stroke-miterlimit="10" stroke-width=".8" d="m198.853 21.314-3.639-5.726 5.106.441-1.467 5.285Z"/><path stroke="var(--unique-black, #111111)" stroke-linecap="round" stroke-linejoin="round" stroke-miterlimit="10" d="m224.951 42.412 6.05 15.132-16.027-1.639 9.977-13.493Z"/><path stroke="var(--steel-90, #001729)" stroke-linecap="round" stroke-linejoin="round" stroke-miterlimit="10" stroke-width=".8" d="M28.998 97.777c4.754 0 8.608-3.855 8.608-8.612 0-4.756-3.854-8.612-8.608-8.612-4.753 0-8.607 3.856-8.607 8.612 0 4.757 3.854 8.612 8.608 8.612Z"/><ellipse cx="43.831" cy="43.822" fill="var(--unique-white, #ffffff)" rx="43.831" ry="43.822" transform="rotate(-20.026 126.474 -252.554) skewX(-.037)"/><path fill="var(--brand-sapphire-10, #d5e8fd)" d="M122.584 36.399c-1.87 13.175-10.661 17.629-15.809 19.505.089-2.809-.785-8.165 1.469-14.278 2.306-6.255 6.528-13.346 8.255-15.086 2.652-1.106 7.581-.681 6.085 9.859ZM154.169 51.138c-.426-6.404 4.378-7.427.9-16.987-4.815-13.237 7.765-23.882 18.847-16.865 9.993 6.328 14.522 15.256 17.022 20.45 3.41 7.086-2.639 12.206-8.857 11.14-6.218-1.065-7.464 6.718-12.702 10.877-3.877 3.08-14.373 3.99-15.21-8.615Z"/><path stroke="var(--unique-black, #111111)" stroke-linecap="round" stroke-linejoin="round" stroke-miterlimit="10" stroke-width=".8" d="M109.159 69.296 191.49 39.27M135.327 13.09l29.983 82.386M135.318 13.021s-11.582 11.89-9.44 33.014m31.782 46.717c-8.277-3.799-21.256-12.624-28.355-32.138a67.208 67.208 0 0 1-1.233-3.716M165.279 95.407s16.181-19.643 5.21-49.8c-7.321-20.122-20.535-27.896-28.519-30.842M107.043 47.48l61.756-22.5M129.588 84.253l63.961-23.303"/><ellipse cx="43.831" cy="43.822" stroke="var(--unique-black, #111111)" stroke-linecap="round" stroke-linejoin="round" stroke-miterlimit="10" stroke-width=".8" rx="43.831" ry="43.822" transform="rotate(-20.026 126.474 -252.554) skewX(-.037)"/><path fill="var(--unique-black, #111111)" d="M225.115 14.347c1.973.623 2.285 1.559 3.947 3.013.83.624 3.219 1.767 3.738 2.39.935.936.727 2.39-.311 3.014l-7.27 4.468V14.347h-.104Z"/><path fill="var(--unique-white, #ffffff)" stroke="var(--unique-black, #111111)" stroke-linecap="round" stroke-linejoin="round" stroke-miterlimit="10" stroke-width=".8" d="m272.681 112.128 10.594 3.533-8.205 17.458s-5.816-2.286-3.531-7.586l-6.335-2.598 7.477-10.807ZM212.345 119.837l5.568 9.684-17.726 7.588s-2.827-5.575 2.4-8.016l-3.008-6.153 12.766-3.103Z"/><mask id="b14" fill="#fff"><path d="M252.531 92.8c-7.582-11.118-12.671-26.809-11.321-42.396.727-7.69-7.166-8.105-11.735-4.156-1.351-.208-2.804 0-4.258.623-29.392 13.405-36.869 49.463-25.964 77.623 0 .104.103.208.103.208 4.57-1.455 9.14-3.014 13.709-4.572-7.685-20.263-4.985-44.475 12.982-57.048.623 13.197 6.439 26.186 13.917 37.096 6.958 10.288 15.994 19.016 26.795 24.732.519-.936 1.038-1.871 1.558-2.702l4.985-9.976c0-.104.104-.207.207-.207-8.412-4.573-15.474-11.223-20.978-19.224Z"/></mask><path fill="var(--unique-white, #ffffff)" stroke="var(--unique-black, #111111)" stroke-width="1.6" d="M252.531 92.8c-7.582-11.118-12.671-26.809-11.321-42.396.727-7.69-7.166-8.105-11.735-4.156-1.351-.208-2.804 0-4.258.623-29.392 13.405-36.869 49.463-25.964 77.623 0 .104.103.208.103.208 4.57-1.455 9.14-3.014 13.709-4.572-7.685-20.263-4.985-44.475 12.982-57.048.623 13.197 6.439 26.186 13.917 37.096 6.958 10.288 15.994 19.016 26.795 24.732.519-.936 1.038-1.871 1.558-2.702l4.985-9.976c0-.104.104-.207.207-.207-8.412-4.573-15.474-11.223-20.978-19.224Z" mask="url(#b14)"/><path fill="var(--brand-sapphire-60, #1952b6)" stroke="var(--unique-black, #111111)" stroke-linecap="round" stroke-linejoin="round" stroke-miterlimit="10" stroke-width=".8" d="M219.402 49.053c.623-5.3.727-6.755.312-10.08-2.389-2.286-2.389-7.793 3.738-9.976 1.143-.415 2.389-.623 3.947-.83 1.558-.105 2.804-.209 3.946-.105 5.089.208 6.44 2.39 7.27 6.443 1.039 4.884 2.597 14.651 2.597 14.651l-21.81-.103Z"/><path fill="var(--unique-white, #ffffff)" d="M187.414 52.482c-2.7-3.637-4.569-6.962-4.881-3.845-.207 2.598 1.039 3.845-1.973 1.767-2.908-2.079-3.843-2.598-4.154-1.247-.312 1.35 3.115 3.637 3.115 3.637s-4.05-2.91-4.673-1.87c-.727 1.038 3.427 4.468 3.427 4.468s-4.362-3.326-5.193-1.87c-.83 1.35 3.947 3.948 8.517 7.377"/><path stroke="var(--unique-black, #111111)" stroke-linecap="round" stroke-linejoin="round" stroke-miterlimit="10" stroke-width=".8" d="M187.414 52.482c-2.7-3.637-4.569-6.962-4.881-3.845-.207 2.598 1.039 3.845-1.973 1.767-2.908-2.079-3.843-2.598-4.154-1.247-.312 1.35 3.115 3.637 3.115 3.637s-4.05-2.91-4.673-1.87c-.727 1.038 3.427 4.468 3.427 4.468s-4.362-3.326-5.193-1.87c-.83 1.35 3.947 3.948 8.517 7.377"/><path fill="var(--brand-sapphire-60, #1952b6)" d="M235.294 42.715c-2.077 4.157-5.297 8.937-8.308 12.366-4.57 5.403-10.386 8.52-17.344 10.287-1.87.52-3.635.832-5.505.935-3.219.312-6.335.104-9.45-.52-4.57-.83-9.036-2.597-13.19-4.987a4.426 4.426 0 0 0 1.142-1.247c1.558-2.494 3.012-4.988 4.466-7.482 5.92 3.43 12.774 4.988 19.836 3.326 5.297-1.351 9.244-4.469 12.671-8.521 3.219-3.741 5.4-8.21 7.685-13.093"/><path stroke="var(--unique-black, #111111)" stroke-linecap="round" stroke-linejoin="round" stroke-miterlimit="10" stroke-width=".8" d="M235.294 42.715c-2.077 4.157-5.297 8.937-8.308 12.366-4.57 5.403-10.386 8.52-17.344 10.287-1.87.52-3.635.832-5.505.935-3.219.312-6.335.104-9.45-.52-4.57-.83-9.036-2.597-13.19-4.987a4.426 4.426 0 0 0 1.142-1.247c1.558-2.494 3.012-4.988 4.466-7.482 5.92 3.43 12.774 4.988 19.836 3.326 5.297-1.351 9.244-4.469 12.671-8.521 3.219-3.741 5.4-8.21 7.685-13.093"/><path fill="var(--unique-white, #ffffff)" stroke="var(--unique-black, #111111)" stroke-linecap="round" stroke-linejoin="round" stroke-miterlimit="10" stroke-width=".8" d="m230.305 28.687 1.039-.624h-1.35l-3.22-7.482c.416-1.039.312-2.493-.415-4.156-1.558-3.845-6.647-2.494-7.685.312-1.143 2.701-.831 4.572-.831 4.572l1.142.208s1.039 2.805 3.739 2.182l2.077 4.988c-.519.104-.935.207-1.35.415l-1.662 4.157 8.516-4.572Z"/><path fill="var(--unique-black, #111111)" d="M217.951 15.697c.416 1.767 4.362 2.39 5.712 2.183 1.974-.416 2.805 1.558 1.247 2.39-.727.311.831.727 1.246.727.208 0 .415 0 .623-.104.519-1.143.831-4.26-.415-5.819-1.35-1.663-5.92-2.286-6.024-.935-1.766-.935-2.7-.104-2.389 1.559Z"/><path fill="var(--unique-black, #111111)" d="M224.907 20.687c0 2.078-1.35 7.066 3.947 3.948 5.296-3.117-1.454-5.715-1.454-5.715l-2.493 1.767Z"/><path fill="var(--unique-white, #ffffff)" stroke="var(--unique-black, #111111)" stroke-linecap="round" stroke-linejoin="round" stroke-miterlimit="10" stroke-width=".8" d="M22.782 137.412 12.5 138.659l5.297 20.366s5.712-1.039 4.258-7.066l6.231-1.143-5.504-13.404Z"/><path stroke="var(--unique-black, #111111)" stroke-linecap="round" stroke-linejoin="round" stroke-miterlimit="10" stroke-width=".8" d="m21.322 145.834 2.908 5.715"/><path fill="var(--unique-white, #ffffff)" stroke="var(--unique-black, #111111)" stroke-linecap="round" stroke-linejoin="round" stroke-miterlimit="10" stroke-width=".8" d="m133.389 141.778-.311 10.391 20.875-2.286s-.208-5.819-6.439-5.3l-.312-6.442-13.813 3.637Z"/><path stroke="var(--unique-black, #111111)" stroke-linecap="round" stroke-linejoin="round" stroke-miterlimit="10" stroke-width=".8" d="m141.489 144.482 6.024-1.975"/><path fill="var(--brand-sapphire-60, #1952b6)" stroke="var(--unique-black, #111111)" stroke-linecap="round" stroke-linejoin="round" stroke-miterlimit="10" stroke-width=".8" d="M133.181 143.647c4.778-1.247 9.659-2.286 14.644-3.221-.104-17.042-7.166-33.876-19.94-45.306-12.151-10.91-29.599-17.665-46.112-17.042-3.739-2.597-9.659-2.078-11.009 3.533a6.632 6.632 0 0 0-.727 4.053c-.934 6.235-1.35 12.573-2.596 18.808-1.662 7.794-5.297 13.301-11.424 18.289-9.555 7.793-21.187 12.781-33.338 14.859 1.35 4.676 2.596 9.352 3.531 14.029 14.124-2.598 27.418-8.417 38.738-17.562 6.959-5.507 12.36-12.261 15.163-20.782 2.181-6.755 2.597-13.925 3.531-20.887 12.463-.311 26.484 5.923 35.104 14.132 10.177 9.664 15.059 23.069 14.435 37.097Z"/><path fill="var(--unique-white, #ffffff)" stroke="var(--unique-black, #111111)" stroke-linecap="round" stroke-linejoin="round" stroke-miterlimit="10" stroke-width=".8" d="m91.9 78.751-22.544 5.375c-1.246-15.483-2.545-22.149 6.49-24.02.52-.103 1.143-.207 1.766-.311 3.635-.416 6.128-.312 7.893.208 5.4 1.87 4.837 7.941 6.395 18.748Z"/><path stroke="var(--unique-black, #111111)" stroke-width=".8" d="M74.707 71.832V82.241M82.779 70.449v10.409"/><path fill="var(--unique-white, #ffffff)" stroke="var(--unique-black, #111111)" stroke-linecap="round" stroke-linejoin="round" stroke-miterlimit="10" stroke-width=".8" d="m82.806 59.584.52-6.13c2.492-1.455 1.35-4.157 1.35-4.157l.726-.935s-1.038-1.455-3.738-2.806c-2.7-1.247-7.27 1.143-5.816 4.988.623 1.766 1.558 2.805 2.596 3.325l-.415 5.82h-.208c-.623.103-1.142.103-1.766.31.104.52.416 1.04.831 1.352.312.208.52.415.831.623 1.558.935 3.323 1.04 4.985.416 1.039-.416 1.973-1.143 2.7-2.182.104-.104.104-.208.208-.312-.83 0-1.765-.208-2.804-.312Z"/><path fill="var(--unique-black, #111111)" d="M81.36 44.308c.831 1.559-1.557 4.78-2.804 5.507-1.661 1.04-.623 2.598.727 1.663.623-.416-.103 1.974-.519 2.286-.104.104-.311.208-.52.312-1.142-.52-2.076-1.559-2.7-3.43-.415-1.142-1.765-3.22.208-4.156.623-1.559 1.558-2.702 2.597-1.87.934-1.767 2.077-1.767 3.011-.312Z"/><path fill="var(--unique-white, #ffffff)" stroke="var(--unique-black, #111111)" stroke-linecap="round" stroke-linejoin="round" stroke-miterlimit="10" stroke-width=".8" d="M134.739 33.19c-.727-.104-2.181 2.598-2.7 3.637.415-1.351 1.35-4.676.623-4.884-.727-.208-2.181 2.494-2.7 3.533.312-1.247 1.142-4.365.312-4.468-1.974-.208-2.597 6.027-3.843 5.091-1.143-.831.935-2.078 0-3.637-.935-1.662-3.635 3.741-5.401 8.417-3.427 7.586-8.827 13.925-15.89 18.393-5.92 3.74-17.655 8.936-24.51 4.884-5.712-3.326-11.943 4.883-6.23 8.313 10.177 6.027 23.678 2.597 33.545-2.806 9.97-5.507 17.759-13.82 22.432-24.108 1.247-2.805 6.024-12.157 4.362-12.365Z"/><path stroke="var(--unique-black, #111111)" stroke-width=".8" d="M68.474 67.086c.39-.078 9.433-.551 13.905-.778"/><path fill="var(--unique-white, #ffffff)" stroke="var(--unique-black, #111111)" stroke-linecap="round" stroke-linejoin="round" stroke-miterlimit="10" stroke-width=".8" d="M86.343 65.505c-2.078 0-4.05-.52-5.713-1.455-5.712-3.325-11.943 4.884-6.23 8.313 3.634 2.183 7.788 3.118 11.942 3.222-.103-3.325-.103-6.65 0-10.08Z"/><path stroke="var(--unique-black, #111111)" d="M68.872 76.576c.391-.077 9.433-.551 13.905-.778"/><path stroke="var(--steel-90, #001729)" stroke-linecap="round" stroke-linejoin="round" stroke-width=".8" d="M102.746 15.181c-11.232 1.263-33.288 12.806-12.58 14.728"/><path stroke="var(--steel-90, #001729)" stroke-linecap="round" stroke-linejoin="round" stroke-width=".8" d="M93.938 24.055c-2.158-1.107 4.043-3.797 7.047-3.934M58.172 41.806l-9.085-4.88M55.208 48.233H47.73M278.158 98.215l10.235-7.187M272.172 94.126l1.345-6.78"/><path stroke="var(--steel-90, #001729)" stroke-linecap="round" stroke-linejoin="round" stroke-miterlimit="10" stroke-width=".8" d="M270.442 42.48a.4.4 0 0 1-.586.38l-14.447-7.616a.4.4 0 0 1-.041-.684l13.3-9.17a.4.4 0 0 1 .626.302l1.148 16.788Z"/><path fill="var(--brand-sapphire-60, #1952b6)" d="M262.831 71.373a.4.4 0 0 1-.669-.2l-1.925-8.704a.4.4 0 0 1 .495-.473l8.505 2.306a.4.4 0 0 1 .174.673l-6.58 6.398Z"/></g><defs><clipPath id="a"><path fill="var(--unique-white, #ffffff)" d="M0 0h300v164H0z"/></clipPath></defs></svg>
