<svg xmlns="http://www.w3.org/2000/svg" width="300" height="164" fill="none"><path fill="var(--unique-white)" stroke="var(--unique-black)" stroke-linecap="round" stroke-linejoin="round" stroke-miterlimit="10" stroke-width=".8" d="M245.32 40.334H84.203v114.018H245.32V40.334Z"/><path fill="var(--brand-sapphire-10)" d="M171.809 74.164h-25.413v62.397h25.413V74.164ZM201.477 2.746h-25.413v133.815h25.413V2.746ZM231.273 29.183H205.86v107.252h25.413V29.183ZM260.941 88.95h-25.413v47.612h25.413V88.95Z"/><path stroke="var(--unique-black)" stroke-linecap="round" stroke-linejoin="round" stroke-miterlimit="10" stroke-width=".8" d="M96.345 49.105a2.505 2.505 0 0 0 2.504-2.506 2.505 2.505 0 1 0-2.504 2.506ZM105.484 49.105a2.505 2.505 0 0 0 2.504-2.506 2.505 2.505 0 1 0-5.007 0 2.505 2.505 0 0 0 2.503 2.506ZM139.786 142.951h104.282"/><path stroke="var(--steel-90)" stroke-linecap="round" stroke-linejoin="round" stroke-miterlimit="10" stroke-width=".8" d="M258.439 107.617h14.397M258.439 116.138h14.397M258.439 124.659h10.516"/><path stroke="var(--unique-black)" stroke-linecap="round" stroke-linejoin="round" stroke-miterlimit="10" stroke-width=".8" d="M189.863 142.951c-4.382 0-6.385 2.005-6.385 2.005"/><path fill="var(--unique-black)" d="M125.343 103.108c2.128-1.88 5.883-7.768 6.009-12.154 1.126-8.394-9.39-3.633-10.266 2.005-.501.501-1.001.877-1.502 1.504-1.002 2.255-2.003 3.633-2.754 6.139-.125.376-.125 1.253-.251 2.005.251.751.376 1.629.626 2.38.376.501.626 1.003.877 1.504 2.378 4.636 5.257 7.016 8.262 7.893.376-.25.751-.626 1.127-1.002.751-.877 2.378-6.39.375-6.014-2.253.25-4.632-2.506-2.503-4.26Z"/><path stroke="var(--unique-black)" stroke-linecap="round" stroke-linejoin="round" stroke-miterlimit="10" stroke-width=".8" d="M118.083 106.365c2.378 4.386 5.007 6.891 7.887 7.768l-7.637 19.546 10.266 5.388 10.14-26.938c5.884-4.636 2.003-12.404 2.003-12.404l1.377-2.632s-3.255-3.508-10.766-5.763c-7.261-2.506-18.528 5.388-13.27 15.035Z"/><path fill="var(--brand-sapphire-60)" stroke="var(--unique-black)" stroke-linecap="round" stroke-linejoin="round" stroke-miterlimit="10" stroke-width=".8" d="m122.092 123.907-3.881 9.773 10.265 5.387 4.131-11.026a131.326 131.326 0 0 0-10.515-4.134Z"/><mask id="a" fill="#fff"><path d="M154.438 162.783H99.567c-.147-.251-.147-.502-.147-.752v-30.115c.877-1.128 20.194-.36 21.947-.486 12.271-.877 27.042 14.395 33.071 31.353Z"/></mask><path fill="var(--brand-sapphire-60)" stroke="var(--unique-black)" stroke-width="1.6" d="M154.438 162.783H99.567c-.147-.251-.147-.502-.147-.752v-30.115c.877-1.128 20.194-.36 21.947-.486 12.271-.877 27.042 14.395 33.071 31.353Z" mask="url(#a)"/><path fill="var(--unique-black)" d="M129.978 102.482c-1.126-.878-2.128-1.755-3.254-2.632-.501-.375-1.127-.5-1.628 0-.375.376-.501 1.253 0 1.629 1.127.877 2.128 1.754 3.255 2.631.501.376 1.127.502 1.627 0 .376-.376.501-1.127 0-1.628Z"/><path fill="var(--brand-sapphire-60)" stroke="var(--unique-black)" stroke-linecap="round" stroke-linejoin="round" stroke-miterlimit="10" stroke-width=".8" d="M149.899 154.352h-30.563c-5.133-2.631-11.017-3.884-17.276-4.51-3.38-.376-6.76-.502-10.14-.627-17.652-.626-36.806-3.007-48.449-17.792-26.54-33.453 19.405-65.78 49.575-70.54.876 7.392 2.504 14.784 3.88 22.051-12.643 2.256-24.786 7.894-33.55 17.542-3.505 3.884-6.384 8.52-4.13 13.782 2.378 5.513 8.262 8.52 13.77 10.024 9.514 2.631 19.404 2.38 29.294 2.881 5.633.251 11.142.752 16.65 2.256 13.145 3.758 24.304 12.654 30.939 24.933Z"/><path fill="var(--brand-sapphire-60)" d="M100.778 162.834v-15.648s45.452 3.02 46.086 3.689l1.87 2.735.759 1.422 4.036 7.802h-52.751ZM119.179 132.973l2.178-5.415 9.328 3.638-1.856 5.124-9.65-3.347Z"/><path fill="var(--unique-white)" d="M95.55 60.382c5.258-4.134 10.265-3.132 12.268-1.503 2.129 1.629 1.378 3.508 1.378 3.508"/><path stroke="var(--unique-black)" stroke-linecap="round" stroke-linejoin="round" stroke-miterlimit="10" stroke-width=".8" d="M95.55 60.382c5.258-4.134 10.265-3.132 12.268-1.503 2.129 1.629 1.378 3.508 1.378 3.508"/><path fill="var(--unique-white)" d="M92.796 61.008c7.386-1.63 16.901 0 17.527 2.756.626 2.756.25 3.633.25 3.633s1.127 2.882.125 5.138c-1.126 2.255 1.628 5.262-1.126 6.89-1.753 1.129-12.895 3.76-12.895 3.76"/><path stroke="var(--unique-black)" stroke-linecap="round" stroke-linejoin="round" stroke-miterlimit="10" stroke-width=".8" d="M92.796 61.008c7.386-1.63 16.901 0 17.527 2.756.626 2.756.25 3.633.25 3.633s1.127 2.882.125 5.138c-1.126 2.255 1.628 5.262-1.126 6.89-1.753 1.129-12.895 3.76-12.895 3.76"/><path stroke="var(--unique-black)" stroke-linecap="round" stroke-linejoin="round" stroke-miterlimit="10" d="M171.71 154.354c2.253-5.764 5.383-11.402 13.771-11.402h16.274s1.878 3.759-3.63 4.009c-5.509.251-6.761 5.137-6.886 7.393"/><path stroke="var(--unique-black)" stroke-linecap="round" stroke-linejoin="round" stroke-miterlimit="10" d="M201.252 146.083c4.507-.376 6.635-.251 7.136-2.381"/><mask id="b" fill="#fff"><path d="M195.497 153.699h-28.292v10.099h28.292v-10.099Z"/></mask><path fill="var(--brand-sapphire-60)" stroke="var(--unique-black)" stroke-width="1.6" d="M195.497 153.699h-28.292v10.099h28.292v-10.099Z" mask="url(#b)"/><path fill="var(--brand-sapphire-60)" d="M168.565 163.798v-6.667h25.597v6.667h-25.597Z"/><path stroke="var(--steel-90)" stroke-linecap="round" stroke-linejoin="round" stroke-miterlimit="10" stroke-width=".8" d="M74.67 34.628 64.612 12.814M69.64 37.984l-6.705-6.712"/><ellipse cx="34.413" cy="18.687" stroke="var(--steel-90)" stroke-linecap="round" stroke-linejoin="round" stroke-miterlimit="10" stroke-width=".8" rx="13.413" ry="12.585"/><path stroke="var(--steel-90)" stroke-linecap="round" stroke-linejoin="round" stroke-miterlimit="10" stroke-width=".8" d="M47.825 37.985c5.556 0 10.06-4.132 10.06-9.23 0-5.096-4.504-9.228-10.06-9.228-5.556 0-10.06 4.132-10.06 9.229 0 2.364.969 4.52 2.562 6.153"/><ellipse cx="57.905" cy="48.052" stroke="var(--steel-90)" stroke-linecap="round" stroke-linejoin="round" stroke-miterlimit="10" stroke-width=".8" rx="5.03" ry="5.034"/><path stroke="var(--steel-90)" stroke-linecap="round" stroke-linejoin="round" stroke-miterlimit="10" stroke-width=".8" d="m260.249 77.24-1.706-6.04"/><path stroke="var(--steel-90)" stroke-linecap="round" stroke-linejoin="round" stroke-width=".8" d="m275.608 67.962-9.958-5.656"/><path fill="var(--unique-white)" stroke="var(--unique-black)" stroke-linecap="round" stroke-linejoin="round" stroke-miterlimit="10" stroke-width=".8" d="M271.881 33.256 238.767 8.447l-20.009 26.75 33.114 24.81 20.009-26.75Z"/><path stroke="var(--unique-black)" stroke-linecap="round" stroke-linejoin="round" stroke-miterlimit="10" stroke-width=".8" d="m256.279 28.62 6.988 5.19M254.413 30.86l6.988 5.189M251.261 43.41a1.882 1.882 0 0 0 2.606.55 1.887 1.887 0 0 0 .55-2.607 1.882 1.882 0 0 0-2.606-.55 1.886 1.886 0 0 0-.55 2.608ZM226.191 32.938l10.596-2.139-.169 3.927 14.328-1.847"/><path fill="var(--unique-black)" d="m249.95 31.346 2.265 1.386-1.194 2.142-1.071-3.528Z"/></svg>
