<svg xmlns="http://www.w3.org/2000/svg" width="300" height="164" fill="none"><g clip-path="url(#a)"><path fill="var(--unique-white)" d="m243.5 155.5-2.5-6 18-7 3 2 3 .5h5.5l2.5 1 1 1 .5 1.5 1 1.5-.5 1.5-1 1-.5 1-1.5.5-3-.5-2-.5 1 1-.5 1.5-1 1-5.5-1.5-4.5-.5h-3l-2.5-.5-2.5-1-1 .5v1l1 1.5.5 1.5-.5 1-1.5.5-2-1.5-1.5-2Z"/><path fill="var(--brand-sapphire-10)" d="M288.81 80.355c0 41.064-33.06 74.75-73.881 74.322-43.69-.428-73.88-33.258-73.88-74.322 0-49.94 33.592-75.071 73.88-74.322 40.821.748 73.881 33.257 73.881 74.322Z"/><path fill="var(--unique-white)" d="m215.794 95.107 1.649 48.175-54.765-1.658 2.492-27.487 2.491-27.487"/><path stroke="var(--unique-black)" stroke-linecap="round" stroke-linejoin="round" stroke-miterlimit="10" stroke-width=".8" d="m215.794 95.107 1.649 48.175-54.765-1.658 2.492-27.487 2.491-27.487"/><path fill="var(--unique-white)" d="m186.565 60.79-11.915.757-4.64 10.721-2.379 11.982.753 4.667 18.181 13.117 26.704-2.018 2.759-5.045 1.128-1.387-5.517-21.316-10.406-10.72-14.668-.758Z"/><path fill="var(--unique-white)" stroke="var(--unique-black)" stroke-linecap="round" stroke-linejoin="round" stroke-miterlimit="10" stroke-width=".8" d="m197.493 60.78-1.483-7.13-1.649-8.291c1.978-1.492 3.462-3.98 4.286-7.96 1.649-8.788-8.736-12.105-14.011-8.623-5.11 3.483-6.923 7.131-6.923 7.131l1.813 1.658s-1.484 6.136 4.121 8.291l1.978 9.784.989 4.809c-1.154 0-2.473.166-3.627.166 1.319 3.15 4.121 5.638 8.572 5.638 4.286 0 7.088-2.322 8.407-5.307-.659 0-1.648-.165-2.473-.165Z"/><mask id="b15" fill="#fff"><path d="M184.472 25.959c-1.318 3.648 4.945 9.452 7.748 10.612 3.956 1.659 2.143 5.307-.989 3.814-1.484-.663.989 3.98 1.813 4.643.33.166.659.332 1.154.498 2.143-1.327 3.791-3.98 4.45-8.126.495-2.487 2.473-7.462-1.813-8.622-1.813-3.151-4.286-5.14-6.099-2.985-2.308-3.482-4.78-3.15-6.264.166Z"/></mask><path fill="var(--unique-black)" stroke="var(--unique-black)" stroke-width="1.6" d="M184.472 25.959c-1.318 3.648 4.945 9.452 7.748 10.612 3.956 1.659 2.143 5.307-.989 3.814-1.484-.663.989 3.98 1.813 4.643.33.166.659.332 1.154.498 2.143-1.327 3.791-3.98 4.45-8.126.495-2.487 2.473-7.462-1.813-8.622-1.813-3.151-4.286-5.14-6.099-2.985-2.308-3.482-4.78-3.15-6.264.166Z" mask="url(#b15)"/><path stroke="var(--unique-black)" stroke-linecap="round" stroke-linejoin="round" stroke-miterlimit="10" stroke-width=".8" d="m177.214 134.407-8.077-.497c-3.626-.166-6.429-3.151-6.264-6.467l.165-1.825c.165-3.316 3.297-5.969 6.923-5.803l8.077.497"/><path fill="var(--unique-white)" stroke="var(--unique-black)" stroke-linecap="round" stroke-linejoin="round" stroke-miterlimit="10" stroke-width=".8" d="M187.268 113.347c-4.121-.995-3.132-8.126 4.285-9.452 7.418-1.327 6.594-11.94 4.781-16.914-1.649-4.975 2.143-10.447 8.736-4.81 6.594 5.639 8.572 26.864-5.439 28.854-7.088 1.161-8.407 3.317-12.363 2.322Z"/><path fill="var(--unique-white)" d="M206.395 93.946c.989 5.97-2.473 11.607-5.44 11.773Z"/><path stroke="var(--unique-black)" stroke-linecap="round" stroke-linejoin="round" stroke-miterlimit="10" stroke-width=".8" d="M206.395 93.946c.989 5.97-2.473 11.607-5.44 11.773"/><mask id="c14" fill="#fff"><path d="m183.474 138.22-5.11-.332c-3.131-.165-5.604-2.984-5.439-6.135l.824-14.427 16.814.995-.825 14.427c-.329 3.15-2.967 5.638-6.264 5.472Z"/></mask><path fill="var(--brand-sapphire-60)" stroke="var(--unique-black)" stroke-width="1.6" d="m183.474 138.22-5.11-.332c-3.131-.165-5.604-2.984-5.439-6.135l.824-14.427 16.814.995-.825 14.427c-.329 3.15-2.967 5.638-6.264 5.472Z" mask="url(#c14)"/><mask id="d17" fill="#fff"><path d="M194.193 29.937c-.825-2.155-4.781-2.653-5.77.166-1.319 3.482-4.286 5.97-7.747 7.13-.824-.165-1.813 0-2.638.83-4.285 4.145.33 10.612 5.605 9.452 2.637-.498 4.451-2.488 5.934-4.643 1.813-2.985 3.462-6.302 5.11-9.287.659-1.492.33-2.819-.494-3.648Z"/></mask><path fill="var(--unique-black)" stroke="var(--unique-black)" stroke-width="1.6" d="M194.193 29.937c-.825-2.155-4.781-2.653-5.77.166-1.319 3.482-4.286 5.97-7.747 7.13-.824-.165-1.813 0-2.638.83-4.285 4.145.33 10.612 5.605 9.452 2.637-.498 4.451-2.488 5.934-4.643 1.813-2.985 3.462-6.302 5.11-9.287.659-1.492.33-2.819-.494-3.648Z" mask="url(#d17)"/><path fill="var(--unique-white)" stroke="var(--unique-black)" stroke-linecap="round" stroke-linejoin="round" stroke-miterlimit="10" stroke-width=".8" d="M148.863 117.328c5.11 0 19.451-2.488 20.11.331.659 2.819-9.231 1.161-8.736 3.317.494 2.156 10.879-.995 10.879 2.819s-6.264 4.145-6.264 4.145 6.264-1.326 6.759 2.488c.329 3.98-6.264 4.311-6.264 4.311s6.264-.663 6.264 2.819c.164 4.975-16.484 5.141-22.913 5.141-6.429 0 .165-25.371.165-25.371Z"/><path fill="var(--unique-white)" d="M167.653 86.65c-9.231 2.321-19.616 6.798-26.045 12.436-3.626 3.151-8.407 9.618-4.945 14.427 2.473 3.648 7.912 3.98 12.198 3.648.165 8.457.33 17.08 0 25.537h-.165c-23.572 1.658-43.023-18.241-37.089-42.119 5.935-23.713 32.144-34.326 53.573-38.306 9.231-1.658 14.011-1.326 17.968-1.658"/><path stroke="var(--unique-black)" stroke-linecap="round" stroke-linejoin="round" stroke-miterlimit="10" stroke-width=".8" d="M167.653 86.65c-9.231 2.321-19.616 6.798-26.045 12.436-3.626 3.151-8.407 9.618-4.945 14.427 2.473 3.648 7.912 3.98 12.198 3.648.165 8.457.33 17.08 0 25.537h-.165c-23.572 1.658-43.023-18.241-37.089-42.119 5.935-23.713 32.144-34.326 53.573-38.306 9.231-1.658 14.011-1.326 17.968-1.658"/><path fill="var(--unique-white)" d="M167.827 80.349c.166 1.326-.166 6.135-.166 6.135Z"/><path stroke="var(--unique-black)" stroke-linecap="round" stroke-linejoin="round" stroke-miterlimit="10" stroke-width=".8" d="M167.827 80.349c.166 1.326-.166 6.135-.166 6.135"/><path stroke="var(--unique-black)" stroke-linecap="round" stroke-width=".8" d="M12.549 142.252H288.81"/><path stroke="var(--unique-black)" stroke-width=".8" d="M240.84 149.062s3.174 9.956 6.678 9.883c3.503-.074-.847-5.296 0-5.663s2.989.394 4.6.832c1.61.439 2.769.417 2.769.417"/><path fill="var(--unique-white)" d="M215.788 95.107c3.791 3.482 13.517 27.029 21.099 55.882 8.737-2.984 22.418-7.959 22.418-8.457-7.417-14.924-12.033-46.43-28.187-65.003-8.572-9.783-19.286-14.924-30.99-16.748"/><path stroke="var(--unique-black)" stroke-linecap="round" stroke-linejoin="round" stroke-miterlimit="10" stroke-width=".8" d="M215.788 95.107c3.791 3.482 13.517 27.029 21.099 55.882 8.737-2.984 22.418-7.959 22.418-8.457-7.417-14.924-12.033-46.43-28.187-65.003-8.572-9.783-19.286-14.924-30.99-16.748"/><path fill="var(--unique-white)" d="M254.668 154.531c10.565 0 12.249 3.542 13.073.557.825-3.316-8.571-3.482-8.571-3.482"/><path fill="var(--unique-black)" d="m267.741 155.088.386.107.003-.01-.389-.097Zm-8.564-3.882a.4.4 0 1 0-.014.8l.014-.8Zm-4.509 3.725c5.23 0 8.252.875 10.083 1.384.457.127.859.236 1.203.302.341.065.665.095.961.036.315-.063.574-.223.778-.487.192-.25.326-.579.434-.971l-.771-.213c-.098.354-.197.567-.296.695a.468.468 0 0 1-.302.191c-.143.029-.346.022-.655-.037a15.145 15.145 0 0 1-1.138-.287c-1.859-.517-4.962-1.413-10.297-1.413v.8Zm13.462.254c.127-.511.058-.98-.17-1.392-.222-.401-.581-.724-.997-.986-.828-.522-1.983-.865-3.119-1.095a26.853 26.853 0 0 0-3.188-.427 31.2 31.2 0 0 0-1.369-.076l-.081-.002-.021-.001h-.008l-.007.4-.007.4h.005l.019.001.076.002.292.01c.251.011.61.03 1.039.064.859.066 1.99.189 3.091.413 1.11.225 2.15.545 2.852.988.348.219.588.453.723.696.128.232.172.494.093.812l.777.193Z"/><path stroke="var(--unique-black)" stroke-linecap="round" stroke-linejoin="round" stroke-miterlimit="10" stroke-width=".8" d="M259.971 148.668c10.55 1.161 13.847 1.161 13.847 3.814s-6.883.73-6.883.73"/><path stroke="var(--unique-black)" stroke-linecap="round" stroke-linejoin="round" stroke-miterlimit="10" stroke-width=".8" d="M259.307 142.699c3.956 4.477 13.517-.166 14.835 5.472 2.803 2.985-.329 4.311-.329 4.311"/><path stroke="var(--unique-black)" stroke-linecap="round" stroke-linejoin="round" stroke-miterlimit="10" stroke-width=".8" d="M260.792 146.679c5.275.995 12.857-.332 14.011 2.321"/><path stroke="var(--steel-90)" stroke-linecap="round" stroke-width=".8" d="M34.712 37.902H31.56M51.98 26.145v11.757h7.608M72.117 37.902h-3.153"/><ellipse cx="51.983" cy="37.902" stroke="var(--steel-90)" stroke-width=".8" rx="22.52" ry="22.654"/><path stroke="var(--steel-90)" stroke-linecap="round" stroke-width=".8" d="M51.98 17.599v3.171M51.98 55.27v3.172"/><path fill="var(--unique-white)" stroke="var(--unique-black)" stroke-linecap="round" stroke-linejoin="round" stroke-miterlimit="10" stroke-width=".8" d="m30.366 103.846 43.247.101c-.643 5.087-.624 9.734-.014 13.98l-43.247-.102.014-13.979Z"/><path fill="var(--unique-white)" stroke="var(--unique-black)" stroke-linecap="round" stroke-linejoin="round" stroke-miterlimit="10" stroke-width=".8" d="m28.547 117.437 46.74.139c-.664 4.022-.629 7.676-.072 10.964l-46.67-.175.002-10.928ZM77.48 141.944l-54.148-.17c.753-4.876.738-9.346.06-13.377l54.149.17-.061 13.377Z"/><path fill="var(--brand-sapphire-60)" d="m40.39 106.289-5.361-.018-.032 8.569 5.36.018.032-8.569Z"/><path stroke="var(--unique-black)" stroke-linecap="round" stroke-linejoin="round" stroke-miterlimit="10" stroke-width=".8" d="m37.732 120.022 29.385.163M48.805 123.67l17.39.046M30.51 125.981l8.854.073"/><path fill="var(--brand-sapphire-60)" stroke="var(--unique-black)" stroke-linecap="round" stroke-linejoin="round" stroke-miterlimit="10" stroke-width=".8" d="m66.938 130.989-21.842-.073-.03 7.857 21.843.074.029-7.858Z"/><path fill="var(--brand-sapphire-10)" d="M82.341 76.334h23.003v22.358H82.341z"/><path fill="var(--unique-white)" stroke="var(--unique-black)" stroke-width=".8" d="M75.615 71.448h22.203v21.558H75.615z"/><ellipse cx="86.758" cy="71.385" fill="var(--brand-sapphire-60)" rx="3.225" ry="3.244"/><path stroke="var(--steel-90)" stroke-linecap="round" stroke-linejoin="round" stroke-miterlimit="10" stroke-width=".8" d="m223.451 36.903 12.906-16.704M227.076 40.784l7.053-4.42"/><ellipse cx="11.754" cy="11.079" stroke="var(--steel-90)" stroke-linecap="round" stroke-linejoin="round" stroke-miterlimit="10" stroke-width=".8" rx="11.754" ry="11.079" transform="matrix(-.97375 -.22761 -.22505 .97435 286.328 25.811)"/><path stroke="var(--steel-90)" stroke-linecap="round" stroke-linejoin="round" stroke-miterlimit="10" stroke-width=".8" d="M257.124 47.807c-4.741-1.108-7.765-5.55-6.756-9.922 1.01-4.372 5.672-7.018 10.413-5.91 4.741 1.108 7.766 5.55 6.756 9.923-.468 2.027-1.722 3.683-3.405 4.766"/><ellipse cx="4.408" cy="4.432" stroke="var(--steel-90)" stroke-linecap="round" stroke-linejoin="round" stroke-miterlimit="10" stroke-width=".8" rx="4.408" ry="4.432" transform="matrix(-.97375 -.22761 -.22505 .97435 240.39 48.447)"/><path stroke="var(--steel-90)" stroke-linecap="round" stroke-linejoin="round" stroke-miterlimit="10" stroke-width=".8" d="m10.742 20.74 6.237-.091M15.206 3.362l8.218 7.93"/><path stroke="var(--unique-black)" stroke-linecap="round" stroke-linejoin="round" stroke-miterlimit="10" stroke-width=".8" d="m65.949 103.518-26.982.166c.368-4.388.339-8.352-.065-11.975l26.982-.166.065 11.975Z"/><path fill="var(--unique-white)" stroke="var(--unique-black)" stroke-linecap="round" stroke-linejoin="round" stroke-miterlimit="10" stroke-width=".8" d="m60.078 99.959-2.134.033c.013-2.45-.024-4.735 0-6.773l2.134-.033v6.773Z"/><path stroke="var(--steel-90)" stroke-linecap="round" stroke-linejoin="round" stroke-miterlimit="10" stroke-width=".8" d="m103.977 26.92 2.036-9.624-9.566-2.048-2.037 9.623 9.567 2.048Z"/><path fill="var(--unique-black)" stroke="var(--unique-black)" stroke-linecap="round" stroke-linejoin="round" stroke-miterlimit="10" stroke-width=".8" d="m114.189 45.8.779-3.68-3.659-.783-.779 3.68 3.659.784Z"/><path fill="var(--brand-sapphire-60)" d="m293.702 104.64-9.855.294-6.335 8.13-.447-8.993-8.239-2.811 6.364-3.93-1.425-9.167 7.61 3.96 9.943-7.273-3.849 11.744 6.233 8.046ZM20.505 89.9l-4.255-2.674-6.381 2.14 2.127-6.42-3.191-3.499 5.318-.316 2.127-5.35 2.66 4.28 6.913 1.07-5.318 5.42v5.35Z"/></g><defs><clipPath id="a"><path fill="var(--unique-white)" d="M0 0h300v164H0z"/></clipPath></defs></svg>
