<svg xmlns="http://www.w3.org/2000/svg" width="300" height="164" fill="none"><g clip-path="url(#a)"><path fill="var(--brand-sapphire-10)" d="m46.97 150.188 76.913-31.464-2.571-6.142L44.4 144.046l2.57 6.142ZM25.193 129.125l61.538-55.751-4.46-4.98-61.691 55.738 4.613 4.993ZM120.232 24.047 105.865 1.234l.993 29.11-19.911 2.414 13.506 9.392-14.185 12.874 18.034-3.622 5.574 14.073 11.008-18.16 21.47 1.638-12.665-14.831 2.461-16.046-11.918 5.971Z"/><path fill="var(--unique-black)" stroke="var(--unique-black)" stroke-linecap="round" stroke-linejoin="round" stroke-miterlimit="10" stroke-width=".8" d="M68.417 69.91c-.18.09-.45.18-.63.27-4.59 2.073-9.45 4.685-12.241 9.01-.54.81-.9 1.711-1.26 2.612-3.96-1.802-7.831-4.054-10.711-6.847.09-.18.09-.27.18-.45 3.51-6.666 9.36-11.17 15.841-14.504 1.26-.63 2.52-1.261 3.78-1.802.45-.18.9-.36 1.35-.45 2.251-.45 4.141.36 5.491 1.802 2.7 3.063 2.88 8.378-1.8 10.36Z"/><path fill="var(--unique-black)" stroke="var(--unique-black)" stroke-linecap="round" stroke-linejoin="round" stroke-miterlimit="10" stroke-width=".8" d="M72.902 68.73c.2-.006.48-.056.682-.063 5.022-.377 10.539-.407 15.055 2.056.861.454 1.608 1.073 2.354 1.692 2.618-3.478 4.942-7.308 6.138-11.139-.165-.115-.208-.194-.373-.309-6.267-4.176-13.557-5.333-20.841-5.16-1.409.049-2.817.098-4.181.226-.482.057-.963.114-1.401.25-2.192.681-3.465 2.297-3.963 4.21-.909 3.982 1.472 8.736 6.53 8.238ZM129.146 151.523s5.173 7.344 6.442 9.501l19.54-16.093s-5.714-5.273-10.362-1.581l-7.134-6.791-8.486 14.964Z"/><path stroke="var(--unique-white)" stroke-linecap="round" stroke-linejoin="round" stroke-miterlimit="10" stroke-width=".8" d="m144.688 143.307-2.389 2.791M143.312 141.709l-2.624 2.658"/><path fill="var(--unique-black)" stroke="var(--unique-black)" stroke-linecap="round" stroke-linejoin="round" stroke-miterlimit="10" stroke-width=".8" d="M170.261 103.162s9.721 5.405 11.611 6.937l12.061-22.252s-7.29-2.792-10.261 2.433l-9.181-3.694-4.23 16.576Z"/><path stroke="var(--unique-white)" stroke-linecap="round" stroke-linejoin="round" stroke-miterlimit="10" stroke-width=".8" d="m183.76 90.28-1.17 3.513M181.87 89.379l-1.53 3.423"/><path fill="var(--unique-white)" stroke="var(--unique-black)" stroke-linecap="round" stroke-linejoin="round" stroke-miterlimit="10" stroke-width=".8" d="M127.088 153.186c-13.502-34.233-34.654-37.386-59.751-46.972-6.841-3.423-5.04-9.188-.72-13.242.27-1.892 1.17-3.784 2.43-5.405 25.922-33.692 74.996-19.868 110.01-1.4l-9.721 18.287c-26.733-13.874-61.675-33.103-83.548-10.13 29.599 11.89 34.999 10.216 56.601 43.547-5.4 5.856-8.1 8.559-15.301 15.315Z"/><path stroke="var(--unique-black)" stroke-linecap="round" stroke-linejoin="round" stroke-miterlimit="10" stroke-width=".8" d="m125.289 148.681 14.851-13.963M174.807 84.394l-9.091 17.837"/><path fill="var(--unique-white)" stroke="var(--unique-black)" stroke-linecap="round" stroke-linejoin="round" stroke-miterlimit="10" stroke-width=".8" d="m71.746 45.226.9-.9s-.99-1.712-3.69-3.424c-2.79-1.712-8.01.36-6.93 4.774.45 1.982 1.35 3.244 2.43 3.964l-1.71 9.189c-.99.45-1.89.9-2.881 1.351.18.27.36.54.63.811 1.08 1.171 2.52 1.892 4.5 1.892 2.7 0 4.501-1.352 5.401-3.153.54-1.081.81-2.342.72-3.604-.81.18-1.62.36-2.34.631l1.17-7.117c2.7-1.351 1.8-4.414 1.8-4.414Z"/><path fill="var(--unique-black)" d="M68.416 40.63c.72 1.893-1.89 3.694-3.24 4.415-.99.54-.36 1.892.63 1.892.81 0-.36 2.072-.81 2.342l-.54.27c-1.17-.63-1.98-1.891-2.52-4.053-1.08-4.144 5.31-11.531 6.48-4.865Z"/><path fill="var(--unique-black)" d="m67.877 43.514-1.35-1.352c-.36-.36-1.08-.36-1.44 0-.36.36-.36.991.09 1.442l1.35 1.35c.36.361 1.08.361 1.44 0 .36-.45.36-1.08-.09-1.44Z"/><path stroke="var(--unique-black)" stroke-linecap="round" stroke-linejoin="round" stroke-miterlimit="10" stroke-width=".8" d="m121.369 51.453 9.019 11.874"/><path fill="var(--unique-white)" d="M109.966 46.02c2.458 1.858 9.231 9.491 12.591 7.338 4.465-2.86-.654-10.197-2.944-14.592-.711-2.412-10.86 4.221-10.375 6.354 1.66 3.853 9.904-3.267 10.413-5.913"/><path stroke="var(--unique-black)" stroke-linecap="round" stroke-linejoin="round" stroke-miterlimit="10" stroke-width=".8" d="M109.966 46.02c2.458 1.858 9.231 9.491 12.591 7.338 4.465-2.86-.654-10.197-2.944-14.592-.711-2.412-10.86 4.221-10.375 6.354 1.66 3.853 9.904-3.267 10.413-5.913"/><path stroke="var(--brand-sapphire-60)" stroke-linecap="round" stroke-linejoin="round" stroke-miterlimit="10" stroke-width=".8" d="M120.269 52.607c.241-.24.347-1.27.44-1.593.289-1.005.594-2 .816-3.017.246-1.127.19-1.407.314-2.494-.716.242-.996.786-1.503 1.369-.653.748-.807 1.235-2.067 1.918-1.517 1.007-3.491.533-2.88.73-.673 1.316 2.384 1.47 2.651 1.221.786-.732 1.423-1.628 2.094-2.464.46-.574 1.352-2.067 2.003-2.258-.151.765.588 2.11.359 2.91m-2.227 3.678c-.299.297-2.705-1.07-3.216-1.353m3.216 1.353c.151-.36.426.28.897-.15.371-.138.801-.76 1.026-1.053m.304-2.475c-.207.726.112 1.937-.304 2.475m.304-2.475.291 1.086-.595 1.39"/><path stroke="var(--brand-sapphire-60)" stroke-linecap="round" stroke-width=".8" d="m123.239 47.493-.399 2.47-1.493 1.582 2.149-.754-2.567 2.11"/><path stroke="var(--brand-sapphire-60)" stroke-linecap="round" stroke-linejoin="round" stroke-miterlimit="10" stroke-width=".8" d="M117.888 50.633c.034.444.615 1.074.927 1.364-.022-.511-.456-1.182-.749-1.574.041.518.649 1.01 1 1.34-.022-.52-.401-1.176-.718-1.545.187.682.546 1.315 1.11 1.73.108-.5-.415-1.337-.708-1.728.199.599.521 1.192.965 1.615.083-.606-.333-1.489-.659-1.956.127.602.368 1.425.884 1.79.397-.586-.232-2.07-.611-2.51-.277.564.243 1.697.849 1.777.136-.538-.181-1.71-.695-1.896-.245.643.056 1.607.529 2.01.471-.587.195-2.078-.14-2.641-.003.363.155.763.388 1.022.291-.365.103-1.008-.005-1.398-.065.373.075.819.355.988.087-.54.069-1.18-.066-1.689-.046.294.054.605.181.866.396-.33.387-1.593.591-2.114-.221.195-.197.216-.122-.108-.305 1.204-1.392 1.564-2.133 2.593-.417.58-.669 1.807-1.306 2.116.628.4 2.43-2.613 2.827-3.291-.093 1.279-.615 2.635-.513 3.904.691-1.216.267-2.788.899-4.028"/><path stroke="var(--brand-sapphire-60)" stroke-linecap="round" stroke-linejoin="round" stroke-miterlimit="10" stroke-width=".8" d="M120.973 47.266c.005 1.653-.24 3.513-1.046 5.008"/><path stroke="var(--unique-black)" stroke-linecap="round" stroke-linejoin="round" stroke-miterlimit="10" stroke-width=".8" d="M109.817 45.898c2.458 1.859 9.231 9.492 12.591 7.34 4.465-2.862-.654-10.198-2.945-14.594-.71-2.41-10.859 4.222-10.374 6.355 1.659 3.853 9.904-3.267 10.413-5.914"/><path fill="var(--unique-black)" stroke="var(--unique-black)" stroke-linecap="round" stroke-linejoin="round" stroke-miterlimit="10" stroke-width=".8" d="M101.065 75.827c9.241 2.59 19.391 1.167 26.41-5.757.39-.384.76-.895 1.13-1.405-3.193-2.652-6.313-5.25-9.401-8.049-.231.166-.516.405-.8.644-5.069 5-13.092 3.183-18.84.68-5.6-2.397-9.84-5.44-16.18-5.438-2.766-.522-5.071-.868-7.548 0l-3.05 7.254c10.068 2.523 18.296 9.275 28.279 12.07Z"/><path fill="var(--unique-white)" d="M118.351 61.333c3.754-3.952 5.338-7.365 6.773-7.658 1.436-.293-1.015 2.935-.093 4.272.921 1.336 4.156-4.662 6.076-3.936 1.973.654-2.276 5.136-2.276 5.136s3.442-4.29 4.575-3.244c1.133 1.045-2.747 5.017-2.747 5.017s3.9-3.846 4.397-3.152c.497.695.362 3.49-7.581 12.303"/><path stroke="var(--unique-black)" stroke-linecap="round" stroke-linejoin="round" stroke-miterlimit="10" stroke-width=".8" d="M118.351 61.333c3.754-3.952 5.338-7.365 6.773-7.658 1.436-.293-1.015 2.935-.093 4.272.921 1.336 4.156-4.662 6.076-3.936 1.973.654-2.276 5.136-2.276 5.136s3.442-4.29 4.575-3.244c1.133 1.045-2.747 5.017-2.747 5.017s3.9-3.846 4.397-3.152c.497.695.362 3.49-7.581 12.303"/><path fill="var(--unique-white)" stroke="var(--unique-black)" stroke-linecap="round" stroke-linejoin="round" stroke-miterlimit="10" stroke-width=".8" d="M132.403 65.793c-.689.555-2.671 3.354-2.252 4.029 2.754-1.085 5.461-3.305 7.567-5.357.681-.663 1.642-1.371.217-1.384-1.36-.014-3.587 1.453-5.532 2.712Z"/><path stroke="var(--unique-black)" stroke-linecap="round" stroke-width=".8" d="m125.984 57.694 6.955 8.558"/><path fill="var(--unique-black)" d="M125.031 57.947c1.122 2.594.595 4.55.595 4.55Z"/><path stroke="var(--unique-black)" stroke-linecap="round" stroke-linejoin="round" stroke-miterlimit="10" stroke-width=".8" d="M125.031 57.947c1.122 2.594.595 4.55.595 4.55"/><path fill="var(--unique-white)" stroke="var(--unique-black)" stroke-linecap="round" stroke-linejoin="round" stroke-miterlimit="10" stroke-width=".8" d="m95.42 86.755-30.513 11.62c-1.17.451-2.43-.18-2.88-1.26l-8.101-21.35c-.45-1.172.18-2.433 1.26-2.883L85.699 61.26c1.17-.45 2.43.18 2.88 1.262l8.101 21.35c.54 1.081-.09 2.432-1.26 2.883Z"/><path stroke="var(--unique-black)" stroke-linecap="round" stroke-linejoin="round" stroke-miterlimit="10" stroke-width=".8" d="M75.865 76.585 72.418 77.9l1.38 3.62 3.448-1.317-1.38-3.62ZM54.466 75.674l34.383-13.152"/><path fill="var(--unique-black)" d="m56.265 82.16 1.08 3.334s-1.26.72-2.16-.811c-.9-1.532 1.08-2.523 1.08-2.523Z"/><path fill="var(--unique-black)" stroke="var(--unique-black)" stroke-linecap="round" stroke-linejoin="round" stroke-miterlimit="10" stroke-width=".8" d="M85.428 91.08c-1.26-2.433-2.79-4.685-4.32-7.027-6.481 6.486-17.552 14.594-25.293 6.757-2.97-2.973-2.52-7.297-.72-10.72-3.06-2.974-6.12-6.036-9.001-9.1a24.295 24.295 0 0 0-2.25 3.604c-4.05 7.657-3.78 17.657 2.25 24.233 6.03 6.667 15.301 8.829 23.942 6.667 6.84-1.712 12.511-5.496 17.552-10.18-.72-1.441-1.44-2.883-2.16-4.234Z"/><path fill="var(--unique-white)" d="M81.107 84.052c6.12-5.945 9.45-8.468 6.75-3.693-1.62 2.973.36 1.802 3.871-.991 3.51-2.793.9 2.342-.54 4.234 0 0 3.78-3.874 4.77-2.883.99 1.081-2.88 5.045-2.88 5.045s3.87-3.784 4.32-2.162c.36 1.351-7.56 9.189-9.9 11.711"/><path stroke="var(--unique-black)" stroke-linecap="round" stroke-linejoin="round" stroke-miterlimit="10" stroke-width=".8" d="M81.107 84.052c6.12-5.945 9.45-8.468 6.75-3.693-1.62 2.973.36 1.802 3.871-.991 3.51-2.793.9 2.342-.54 4.234 0 0 3.78-3.874 4.77-2.883.99 1.081-2.88 5.045-2.88 5.045s3.87-3.784 4.32-2.162c.36 1.351-7.56 9.189-9.9 11.711"/><path stroke="var(--steel-90)" stroke-linecap="round" stroke-linejoin="round" stroke-miterlimit="10" stroke-width=".8" d="m139.288 32.53 5.402-1.008M203.057 87.986l4.488-.601M138.137 26.307l2.817-2.097M197.109 80.354l1.478-1.618M90.145 21.596l-6.642-1.603M94.532 11.951l-2.823-3.46M42.157 45.225l-2.004-9.421 9.413-2.006 2.004 9.421-9.413 2.006Z"/><path fill="var(--unique-black)" stroke="var(--unique-black)" stroke-linecap="round" stroke-linejoin="round" stroke-miterlimit="10" d="m28.45 20.762-.765-3.603 3.6-.767.766 3.603-3.6.767Z"/><path fill="var(--brand-sapphire-10)" d="m198.448 44.896 30.33-25.886 17.282 20.284-30.33 25.886z"/><path fill="var(--unique-white)" stroke="var(--unique-black)" stroke-linecap="round" stroke-linejoin="round" stroke-miterlimit="10" stroke-width=".8" d="M208.914 11.586 185.659 42.32l23.303 17.638 23.256-30.734-23.304-17.638Z"/><path stroke="var(--unique-black)" stroke-linecap="round" stroke-linejoin="round" stroke-miterlimit="10" stroke-width=".8" d="m203.14 28.572 13.294 10.112M198.303 34.007l8.47 6M205.581 25.189 218.876 35.3"/><path fill="var(--unique-white)" stroke="var(--unique-black)" stroke-linecap="round" stroke-linejoin="round" stroke-width=".8" d="m241.135 125.451 31.327-15.257-11.579-23.743-31.305 15.319 11.557 23.681Z"/><path stroke="var(--unique-black)" stroke-linecap="round" stroke-linejoin="round" stroke-width=".8" d="m263.537 107.113-6.623-13.557M257.438 105.831l-5.094-10.13"/><path fill="var(--unique-white)" stroke="var(--unique-black)" stroke-linecap="round" stroke-linejoin="round" stroke-width=".8" d="m244.952 141.449 1.235-34.834-26.367-.936-1.247 34.836 26.379.934Z"/><path stroke="var(--unique-black)" stroke-linecap="round" stroke-linejoin="round" stroke-width=".8" d="m240.581 114.232-15.105-.56M240.394 119.689l-15.054-.574"/><path fill="var(--unique-white)" stroke="var(--unique-black)" stroke-linecap="round" stroke-linejoin="round" stroke-width=".8" d="M269.756 28.774a6.22 6.22 0 0 1-6.1-7.438 6.225 6.225 0 0 1 4.886-4.891 6.217 6.217 0 0 1 6.385 2.647 6.23 6.23 0 0 1-.774 7.86 6.215 6.215 0 0 1-4.397 1.822v0Z"/><path fill="var(--unique-black)" d="m285.573 52.91-2.888-6.734-6.712 2.89 2.872 6.734 6.728-2.89Z"/><path fill="var(--brand-sapphire-60)" d="M248.951 70.1a6.205 6.205 0 0 1-4.408-5.298 6.211 6.211 0 0 1 3.202-6.106 6.196 6.196 0 0 1 6.861.62 6.208 6.208 0 0 1 2.057 6.58 6.223 6.223 0 0 1-2.988 3.698 6.213 6.213 0 0 1-4.724.507Z"/><path stroke="var(--steel-90)" stroke-linecap="round" stroke-linejoin="round" stroke-miterlimit="10" stroke-width=".8" d="m259.678 137.111 1.108 2.185M236.789 18.34l2.094-1.268M269.04 128.115l4.742 1.619M226.471 9.724l1.644-3.897"/><mask id="b" fill="#fff"><path d="M201.419 122.522a3.12 3.12 0 1 0-1.193-6.003 3.118 3.118 0 0 0-1.924 2.883 3.12 3.12 0 0 0 3.117 3.12Z"/></mask><path stroke="var(--steel-90)" stroke-width="1.6" d="M201.419 122.522a3.12 3.12 0 1 0-1.193-6.003 3.118 3.118 0 0 0-1.924 2.883 3.12 3.12 0 0 0 3.117 3.12Z" mask="url(#b)"/><path fill="var(--unique-black)" d="m191.567 148.329.479-5.347 5.331.483-.467 5.343-5.343-.479Z"/><path fill="var(--brand-sapphire-60)" d="M22.99 52.057a3.116 3.116 0 0 0 2.881-1.927 3.123 3.123 0 0 0-2.272-4.254 3.115 3.115 0 0 0-3.2 1.327 3.122 3.122 0 0 0 2.592 4.854Z"/><path stroke="var(--steel-90)" stroke-linecap="round" stroke-linejoin="round" stroke-miterlimit="10" stroke-width=".8" d="m20.125 87.572-4.946.802M24.031 95.879l-2.288 2.463"/><path fill="var(--brand-sapphire-60)" d="m48.88 147.623 10.986-3.491-11.335-3.491 3.662-7.679-9.068 5.062-4.01-6.807-.262 7.505-6.016 3.49 6.016 4.014-2.616 7.68 5.93-5.411 8.631 6.196-1.918-7.068Z"/><path fill="var(--unique-white)" stroke="var(--unique-black)" stroke-linecap="round" stroke-linejoin="round" stroke-width=".8" d="M172.005 24.11a2.434 2.434 0 0 1-1.729-2.082 2.443 2.443 0 0 1 1.261-2.396 2.431 2.431 0 0 1 2.694.248 2.44 2.44 0 0 1 .359 3.428 2.422 2.422 0 0 1-1.638.89c-.319.034-.64.004-.947-.087v0Z"/></g><defs><clipPath id="a"><path fill="var(--unique-white)" d="M0 0h300v164H0z"/></clipPath></defs></svg>
