<svg xmlns="http://www.w3.org/2000/svg" width="300" height="164" fill="none"><g clip-path="url(#a)"><path fill="var(--unique-white)" stroke="var(--unique-black)" stroke-linecap="round" stroke-linejoin="round" stroke-miterlimit="10" stroke-width=".8" d="M240.902 50.886H89.457V158.06h151.445V50.886Z"/><path fill="var(--brand-sapphire-10)" d="M195.365 73.457V59.833h-54.45v13.624h54.45Zm66.362 20.436V80.27H140.916v13.624h120.811ZM232.8 114.329v-13.624h-91.885v13.624H232.8Zm-51.047 20.436v-13.624h-40.837v13.624h40.837Z"/><path stroke="var(--unique-black)" stroke-linecap="round" stroke-linejoin="round" stroke-miterlimit="10" stroke-width=".8" d="M100.87 59.13a2.355 2.355 0 1 0-.002-4.71 2.355 2.355 0 0 0 .002 4.71Zm8.591 0a2.355 2.355 0 0 0 0-4.71 2.355 2.355 0 0 0 0 4.71Zm32.241 88.213h98.021"/><path stroke="var(--steel-90)" stroke-linecap="round" stroke-linejoin="round" stroke-miterlimit="10" stroke-width=".8" d="M248.196 114.129h13.532m-13.532 8.009h13.532m-13.532 8.01h9.884"/><path stroke="var(--unique-black)" stroke-linecap="round" stroke-linejoin="round" stroke-miterlimit="10" stroke-width=".8" d="M188.774 147.343c-4.119 0-6.002 1.884-6.002 1.884"/><mask id="b" fill="#fff"><path d="M194.063 157.356h-26.594v8.116h26.594v-8.116Z"/></mask><path fill="var(--brand-sapphire-60)" stroke="var(--unique-black)" stroke-width="2" d="M194.063 157.356h-26.594v8.116h26.594v-8.116Z" mask="url(#b)"/><path stroke="var(--unique-black)" stroke-linecap="round" stroke-linejoin="round" stroke-miterlimit="10" stroke-width=".8" d="M171.708 158.061c2.118-5.418 5.06-10.718 12.944-10.718h15.297s1.765 3.533-3.412 3.769c-5.178.236-6.355 4.829-6.472 6.949"/><path stroke="var(--unique-black)" stroke-linecap="round" stroke-linejoin="round" stroke-miterlimit="10" stroke-width=".8" d="M199.475 150.287c4.236-.353 6.237-.236 6.707-2.238"/><path stroke="var(--steel-90)" stroke-linecap="round" stroke-linejoin="round" stroke-miterlimit="10" stroke-width=".8" d="m83.062 35.99-10.21-22.14m5.106 25.546-6.807-6.812"/><ellipse cx="28.613" cy="19.811" stroke="var(--steel-90)" stroke-linecap="round" stroke-linejoin="round" stroke-miterlimit="10" stroke-width=".8" rx="13.613" ry="12.773"/><path stroke="var(--steel-90)" stroke-linecap="round" stroke-linejoin="round" stroke-miterlimit="10" stroke-width=".8" d="M42.225 39.395c5.638 0 10.21-4.194 10.21-9.367 0-5.173-4.572-9.366-10.21-9.366-5.639 0-10.21 4.193-10.21 9.366 0 2.4.984 4.587 2.6 6.245"/><ellipse cx="66.047" cy="49.614" stroke="var(--steel-90)" stroke-linecap="round" stroke-linejoin="round" stroke-miterlimit="10" stroke-width=".8" rx="5.105" ry="5.109"/><path fill="var(--unique-black)" d="M107.858 100.381c2.16-1.907 5.972-7.884 6.099-12.335 1.143-8.52-9.529-3.687-10.419 2.035-.508.508-1.016.89-1.524 1.526-1.017 2.289-2.033 3.688-2.795 6.23-.128.382-.128 1.272-.255 2.035.255.763.382 1.653.636 2.416.38.509.635 1.018.889 1.526 2.414 4.705 5.336 7.121 8.385 8.011.382-.254.763-.635 1.144-1.017.762-.89 2.414-6.485.381-6.104-2.287.255-4.701-2.543-2.541-4.323Z"/><path stroke="var(--unique-black)" stroke-linecap="round" stroke-linejoin="round" stroke-miterlimit="10" stroke-width=".8" d="M100.491 103.687c2.414 4.451 5.082 6.994 8.004 7.884l-7.75 19.837 10.418 5.468 10.292-27.34c5.971-4.705 2.032-12.589 2.032-12.589l1.398-2.67s-3.303-3.56-10.926-5.85c-7.37-2.543-18.804 5.469-13.468 15.26Z"/><path fill="var(--brand-sapphire-60)" stroke="var(--unique-black)" stroke-linecap="round" stroke-linejoin="round" stroke-miterlimit="10" stroke-width=".8" d="m104.558 121.489-3.939 9.919 10.418 5.468 4.193-11.19a133.152 133.152 0 0 0-10.672-4.197Z"/><mask id="c" fill="#fff"><path d="M137.387 160.945H81.699c-.149-.254-.149-.509-.149-.763v-30.564c.89-1.144 20.494-.365 22.273-.492 12.455-.89 27.446 14.609 33.564 31.819Z"/></mask><path fill="var(--brand-sapphire-60)" stroke="var(--unique-black)" stroke-width="1.6" d="M137.387 160.945H81.699c-.149-.254-.149-.509-.149-.763v-30.564c.89-1.144 20.494-.365 22.273-.492 12.455-.89 27.446 14.609 33.564 31.819Z" mask="url(#c)"/><path fill="var(--unique-black)" d="M112.563 99.745c-1.143-.89-2.16-1.78-3.303-2.67-.508-.382-1.144-.509-1.652 0-.381.381-.508 1.271 0 1.653 1.144.89 2.16 1.78 3.304 2.67.508.382 1.143.509 1.651 0 .381-.381.508-1.144 0-1.653Z"/><path fill="var(--brand-sapphire-60)" stroke="var(--unique-black)" stroke-linecap="round" stroke-linejoin="round" stroke-miterlimit="10" stroke-width=".8" d="M132.78 152.389h-31.018c-5.21-2.67-11.18-3.942-17.534-4.578-3.43-.381-6.86-.508-10.29-.636-17.915-.635-37.354-3.051-49.17-18.056-26.935-33.953 19.195-66.638 49.815-71.47.89 7.503 2.515 15.199 3.913 22.574-12.832 2.289-24.633 7.695-33.527 17.487-3.557 3.942-6.48 8.647-4.193 13.987 2.414 5.596 8.386 8.647 13.976 10.173 9.656 2.671 19.693 2.416 29.73 2.925 5.718.254 11.308.763 16.899 2.289 13.34 3.815 24.666 12.843 31.399 25.305Z"/><path fill="var(--brand-sapphire-60)" d="M82.928 160.996v-15.882s46.129 3.066 46.773 3.745l1.897 2.776.771 1.443 4.095 7.918H82.928Zm18.675-30.306 2.21-5.495 9.467 3.692-1.883 5.201-9.794-3.398Z"/><path fill="var(--unique-white)" d="M77.621 57.018c5.337-4.196 10.419-3.18 12.452-1.526 2.16 1.653 1.397 3.56 1.397 3.56"/><path stroke="var(--unique-black)" stroke-linecap="round" stroke-linejoin="round" stroke-miterlimit="10" stroke-width=".8" d="M77.621 57.018c5.337-4.196 10.419-3.18 12.452-1.526 2.16 1.653 1.397 3.56 1.397 3.56"/><path fill="var(--unique-white)" d="M74.827 57.653c7.496-1.653 17.152 0 17.787 2.798.635 2.797.254 3.687.254 3.687s1.144 2.925.127 5.214c-1.143 2.289 1.652 5.34-1.143 6.994-1.779 1.144-13.087 3.815-13.087 3.815"/><path stroke="var(--unique-black)" stroke-linecap="round" stroke-linejoin="round" stroke-miterlimit="10" stroke-width=".8" d="M74.827 57.653c7.496-1.653 17.152 0 17.787 2.798.635 2.797.254 3.687.254 3.687s1.144 2.925.127 5.214c-1.143 2.289 1.652 5.34-1.143 6.994-1.779 1.144-13.087 3.815-13.087 3.815"/><path stroke="var(--steel-90)" stroke-linecap="round" stroke-linejoin="round" stroke-miterlimit="10" stroke-width=".8" d="m268.587 77.5-1.731-6.13m17.323-3.286-10.106-5.74"/><path fill="var(--unique-white)" stroke="var(--unique-black)" stroke-linecap="round" stroke-linejoin="round" stroke-miterlimit="10" stroke-width=".8" d="m272.112 42.47-33.608-25.179-20.307 27.148 33.608 25.18 20.307-27.149Z"/><path stroke="var(--unique-black)" stroke-linecap="round" stroke-linejoin="round" stroke-miterlimit="10" stroke-width=".8" d="m240.162 28.43 19.45 14.623m-24.031-9.108 14.486 11.244m-18.01-5.966 14.486 11.244"/></g><defs><clipPath id="a"><path fill="var(--unique-white)" d="M0 0h300v164H0z"/></clipPath></defs></svg>
