<svg xmlns="http://www.w3.org/2000/svg" width="300" height="200" fill="none"><path fill="var(--brand-sapphire-10, #d5e8fd)" d="M102.376 71.337c0 14.251-11.575 25.949-25.87 25.791-15.308-.157-25.871-11.54-25.871-25.791 0-17.342 11.765-26.044 25.87-25.792 14.296.252 25.871 11.54 25.871 25.792Z"/><path fill="var(--unique-white, #ffffff)" stroke="var(--unique-black, #111111)" stroke-linecap="round" stroke-linejoin="round" stroke-miterlimit="10" stroke-width=".8" d="M248.198 58.384H87.167v113.235h161.031V58.384Z"/><path stroke="var(--unique-black, #111111)" stroke-linecap="round" stroke-linejoin="round" stroke-miterlimit="10" stroke-width=".8" d="M99.302 67.095a2.496 2.496 0 0 0 2.503-2.49 2.496 2.496 0 0 0-2.503-2.488 2.496 2.496 0 0 0-2.502 2.489 2.496 2.496 0 0 0 2.502 2.489ZM108.437 67.095a2.496 2.496 0 0 0 2.503-2.49 2.496 2.496 0 0 0-2.503-2.488 2.495 2.495 0 0 0-2.502 2.489 2.495 2.495 0 0 0 2.502 2.489ZM142.721 160.296h104.226"/><path stroke="var(--steel-90, #001729)" stroke-linecap="round" stroke-linejoin="round" stroke-miterlimit="10" stroke-width=".8" d="M261.311 125.205H275.7M261.311 133.667H275.7M261.311 142.13h10.51"/><path stroke="var(--unique-black, #111111)" stroke-linecap="round" stroke-linejoin="round" stroke-miterlimit="10" stroke-width=".8" d="M192.77 160.296c-4.379 0-6.381 1.991-6.381 1.991"/><path fill="var(--unique-black, #111111)" d="M128.285 120.726c2.127-1.866 5.88-7.714 6.005-12.07 1.127-8.337-9.384-3.608-10.259 1.991-.501.498-1.001.871-1.502 1.493-1.001 2.24-2.002 3.609-2.753 6.098-.125.373-.125 1.244-.25 1.991.25.746.375 1.617.626 2.364.375.498.625.995.876 1.493 2.377 4.604 5.255 6.969 8.258 7.84.375-.249.75-.623 1.126-.996.75-.871 2.377-6.346.375-5.973-2.252.249-4.629-2.488-2.502-4.231Z"/><path stroke="var(--unique-black, #111111)" stroke-linecap="round" stroke-linejoin="round" stroke-miterlimit="10" stroke-width=".8" d="M121.029 123.961c2.377 4.356 5.005 6.844 7.883 7.715l-7.633 19.412 10.26 5.351 10.135-26.754c5.881-4.604 2.002-12.319 2.002-12.319l1.376-2.613s-3.253-3.484-10.76-5.724c-7.257-2.488-18.518 5.351-13.263 14.932Z"/><path fill="var(--brand-sapphire-60, #1952b6)" stroke="var(--unique-black, #111111)" stroke-linecap="round" stroke-linejoin="round" stroke-miterlimit="10" stroke-width=".8" d="m125.036 141.382-3.879 9.706 10.26 5.351 4.129-10.95a131.633 131.633 0 0 0-10.51-4.107Z"/><path fill="var(--unique-black, #111111)" d="M132.918 120.105c-1.126-.872-2.127-1.743-3.253-2.614-.501-.373-1.126-.497-1.627 0-.375.374-.5 1.245 0 1.618 1.126.871 2.127 1.742 3.254 2.613.5.373 1.126.498 1.626 0 .375-.373.501-1.12 0-1.617Z"/><path fill="var(--brand-sapphire-60, #1952b6)" d="M157 180H102.642v-13.085c-2.588-.207-5.175-.302-7.763-.398-17.642-.622-36.786-2.986-48.422-17.669-26.526-33.224 19.394-65.328 49.548-70.057.876 7.342 2.503 14.684 3.88 21.901-12.638 2.24-24.775 7.839-33.534 17.42-3.503 3.858-6.38 8.462-4.129 13.688 2.378 5.475 8.259 8.462 13.764 9.955 9.51 2.613 19.394 2.364 29.278 2.862 5.631.249 11.136.747 16.642 2.24a51.096 51.096 0 0 1 11.401 4.793C144.87 158.262 154.375 170.5 157 180Z"/><path stroke="var(--unique-black, #111111)" stroke-linecap="round" stroke-linejoin="round" stroke-miterlimit="10" stroke-width=".8" d="M156.875 179.625c-2.625-9.5-12.005-21.363-23.568-27.975a51.096 51.096 0 0 0-11.401-4.793c-5.506-1.493-11.011-1.991-16.642-2.24-9.884-.498-19.769-.249-29.278-2.862-5.505-1.493-11.386-4.48-13.764-9.955-2.252-5.226.626-9.83 4.13-13.688 8.758-9.581 20.895-15.18 33.532-17.42-1.376-7.217-3.003-14.56-3.879-21.9-30.154 4.728-76.074 36.832-49.548 70.056 11.636 14.683 30.78 17.047 48.422 17.669 2.588.096 5.175.191 7.763.398v12.773"/><path fill="var(--brand-sapphire-60, #1952b6)" d="m122.125 150.386 2.177-5.377 9.322 3.613-1.854 5.089-9.645-3.325Z"/><path fill="var(--unique-white, #ffffff)" d="M98.508 78.294c5.255-4.106 10.26-3.11 12.262-1.493 2.127 1.618 1.376 3.484 1.376 3.484"/><path stroke="var(--unique-black, #111111)" stroke-linecap="round" stroke-linejoin="round" stroke-miterlimit="10" stroke-width=".8" d="M98.508 78.294c5.255-4.106 10.26-3.11 12.262-1.493 2.127 1.618 1.376 3.484 1.376 3.484"/><path fill="var(--unique-white, #ffffff)" d="M96.313 78.687c7.382-1.617 16.334.228 16.96 2.966.626 2.737.25 3.608.25 3.608s1.126 2.862.125 5.102c-1.126 2.24 1.627 5.226-1.126 6.844-1.752 1.12-12.21 3.48-12.21 3.48"/><path stroke="var(--unique-black, #111111)" stroke-linecap="round" stroke-linejoin="round" stroke-miterlimit="10" stroke-width=".8" d="M96.313 78.687c7.382-1.617 16.334.228 16.96 2.966.626 2.737.25 3.608.25 3.608s1.126 2.862.125 5.102c-1.126 2.24 1.627 5.226-1.126 6.844-1.752 1.12-12.21 3.48-12.21 3.48"/><path stroke="var(--unique-black, #111111)" stroke-linecap="round" stroke-linejoin="round" stroke-miterlimit="10" d="M174.627 171.621c2.252-5.724 5.38-11.324 13.764-11.324h16.265s1.877 3.733-3.628 3.982c-5.505.249-6.757 5.102-6.882 7.342"/><path stroke="var(--unique-black, #111111)" stroke-linecap="round" stroke-linejoin="round" stroke-miterlimit="10" d="M204.154 163.406c4.504-.373 6.632-.248 7.132-2.364"/><mask id="a" fill="var(--unique-white, #ffffff)"><path d="M198.402 171.25h-28.278V181h28.278v-9.75Z"/></mask><path fill="var(--brand-sapphire-60, #1952b6)" stroke="var(--unique-black, #111111)" stroke-width="1.6" d="M198.402 171.25h-28.278V181h28.278v-9.75Z" mask="url(#a)"/><path fill="var(--brand-sapphire-60, #1952b6)" d="M170.938 181v-4.875h26.656V181h-26.656Z"/><path stroke="var(--unique-black, #111111)" stroke-linecap="round" stroke-linejoin="round" stroke-miterlimit="10" stroke-width=".8" d="m130.231 98.653-2.657-17.782M124.881 100.237l-4.947-6.442M135.546 98.653l2.644-7.68"/><path fill="var(--steel-90, #001729)" fill-rule="evenodd" d="M73.75 69.897a4.504 4.504 0 0 1-4.542 4.453 4.482 4.482 0 0 1-4.436-4.542 4.504 4.504 0 0 1 4.543-4.453 4.482 4.482 0 0 1 4.435 4.542Zm1 .01a5.507 5.507 0 0 1-5.554 5.443 5.48 5.48 0 0 1-5.424-5.552 5.507 5.507 0 0 1 5.554-5.443 5.48 5.48 0 0 1 5.424 5.552Zm-7.222 2.343 1.725-1.69 1.684 1.724.716-.7-1.685-1.725 1.726-1.69-.7-.715-1.724 1.69-1.685-1.723-.716.7 1.686 1.724-1.726 1.692.699.713Z" clip-rule="evenodd"/><mask id="b" width="36.947" height="41.318" x="203.475" y="82.438" fill="#000" maskUnits="userSpaceOnUse"><path fill="var(--unique-white, #ffffff)" d="M203.475 82.438h36.947v41.318h-36.947z"/><path d="m218.097 118.216 2.363-5.768-13.11-5.37 1.595-3.893 17.221-15.65 4.942 2.023-16.81 15.278-.132.323 8.067 3.304 3.173-7.745 4.356 1.785-3.189 7.785 4.155 1.702-1.635 3.993-4.115-1.685-2.363 5.769-4.518-1.851Z"/></mask><path fill="var(--brand-sapphire-60, #1952b6)" d="m218.097 118.216 2.363-5.768-13.11-5.37 1.595-3.893 17.221-15.65 4.942 2.023-16.81 15.278-.132.323 8.067 3.304 3.173-7.745 4.356 1.785-3.189 7.785 4.155 1.702-1.635 3.993-4.115-1.685-2.363 5.769-4.518-1.851Z"/><path stroke="var(--unique-black, #111111)" stroke-width="2" d="m218.097 118.216 2.363-5.768-13.11-5.37 1.595-3.893 17.221-15.65 4.942 2.023-16.81 15.278-.132.323 8.067 3.304 3.173-7.745 4.356 1.785-3.189 7.785 4.155 1.702-1.635 3.993-4.115-1.685-2.363 5.769-4.518-1.851Z" mask="url(#b)"/><mask id="c" width="35.04" height="41.236" x="174.886" y="73.014" fill="#000" maskUnits="userSpaceOnUse"><path fill="var(--unique-white, #ffffff)" d="M174.886 73.014h35.04v41.236h-35.04z"/><path d="M188.392 104.835c1.896.653 3.672.182 5.329-1.414 1.67-1.591 3.142-4.235 4.416-7.93 1.273-3.695 1.74-6.677 1.4-8.946-.322-2.278-1.43-3.744-3.326-4.397-1.909-.658-3.699-.192-5.37 1.4-1.652 1.582-3.114 4.22-4.388 7.916-1.274 3.696-1.75 6.682-1.428 8.96.335 2.283 1.458 3.753 3.367 4.411Zm-1.434 4.162c-3.449-1.188-5.638-3.441-6.57-6.759-.926-3.332-.532-7.484 1.181-12.457 1.714-4.973 3.96-8.48 6.738-10.519 2.778-2.04 5.891-2.465 9.339-1.277 3.434 1.184 5.617 3.435 6.548 6.753s.54 7.463-1.174 12.436-3.962 8.486-6.744 10.539c-2.778 2.04-5.884 2.468-9.318 1.284Z"/></mask><path fill="var(--brand-sapphire-60, #1952b6)" d="M188.392 104.835c1.896.653 3.672.182 5.329-1.414 1.67-1.591 3.142-4.235 4.416-7.93 1.273-3.695 1.74-6.677 1.4-8.946-.322-2.278-1.43-3.744-3.326-4.397-1.909-.658-3.699-.192-5.37 1.4-1.652 1.582-3.114 4.22-4.388 7.916-1.274 3.696-1.75 6.682-1.428 8.96.335 2.283 1.458 3.753 3.367 4.411Zm-1.434 4.162c-3.449-1.188-5.638-3.441-6.57-6.759-.926-3.332-.532-7.484 1.181-12.457 1.714-4.973 3.96-8.48 6.738-10.519 2.778-2.04 5.891-2.465 9.339-1.277 3.434 1.184 5.617 3.435 6.548 6.753s.54 7.463-1.174 12.436-3.962 8.486-6.744 10.539c-2.778 2.04-5.884 2.468-9.318 1.284Z"/><path stroke="var(--unique-black, #111111)" stroke-width="2" d="M188.392 104.835c1.896.653 3.672.182 5.329-1.414 1.67-1.591 3.142-4.235 4.416-7.93 1.273-3.695 1.74-6.677 1.4-8.946-.322-2.278-1.43-3.744-3.326-4.397-1.909-.658-3.699-.192-5.37 1.4-1.652 1.582-3.114 4.22-4.388 7.916-1.274 3.696-1.75 6.682-1.428 8.96.335 2.283 1.458 3.753 3.367 4.411Zm-1.434 4.162c-3.449-1.188-5.638-3.441-6.57-6.759-.926-3.332-.532-7.484 1.181-12.457 1.714-4.973 3.96-8.48 6.738-10.519 2.778-2.04 5.891-2.465 9.339-1.277 3.434 1.184 5.617 3.435 6.548 6.753s.54 7.463-1.174 12.436-3.962 8.486-6.744 10.539c-2.778 2.04-5.884 2.468-9.318 1.284Z" mask="url(#c)"/><mask id="d" width="27.999" height="35.503" x="146.397" y="70.276" fill="#000" maskUnits="userSpaceOnUse"><path fill="var(--unique-white, #ffffff)" d="M146.397 70.276h27.999v35.503h-27.999z"/><path d="m161.63 103.581.375-6.222-14.141-.853.253-4.198 11.25-20.371 5.331.321-10.982 19.885-.021.348 8.703.525.504-8.355 4.699.284-.506 8.398 4.481.27-.259 4.308-4.439-.268-.375 6.222-4.873-.294Z"/></mask><path fill="var(--brand-sapphire-60, #1952b6)" d="m161.63 103.581.375-6.222-14.141-.853.253-4.198 11.25-20.371 5.331.321-10.982 19.885-.021.348 8.703.525.504-8.355 4.699.284-.506 8.398 4.481.27-.259 4.308-4.439-.268-.375 6.222-4.873-.294Z"/><path stroke="var(--unique-black, #111111)" stroke-width="2" d="m161.63 103.581.375-6.222-14.141-.853.253-4.198 11.25-20.371 5.331.321-10.982 19.885-.021.348 8.703.525.504-8.355 4.699.284-.506 8.398 4.481.27-.259 4.308-4.439-.268-.375 6.222-4.873-.294Z" mask="url(#d)"/><path fill="var(--unique-black, #111111)" fill-rule="evenodd" d="M190.83 134.871c-1.854 6.633-8.744 10.508-15.39 8.65-6.646-1.858-10.527-8.743-8.673-15.377 1.854-6.634 8.744-10.508 15.39-8.65 6.646 1.857 10.528 8.743 8.673 15.377Zm.963.269c-2.003 7.167-9.445 11.35-16.622 9.344-7.177-2.006-11.371-9.442-9.367-16.609 2.003-7.167 9.445-11.351 16.622-9.345 7.177 2.007 11.371 9.443 9.367 16.61Zm-18.994.346 5.798-3.259 3.268 5.794.871-.492-3.267-5.792 5.797-3.259-.49-.872-5.798 3.26-3.267-5.794-.872.491 3.267 5.793-5.797 3.259.49.871Z" clip-rule="evenodd"/><path fill="var(--steel-90, #001729)" fill-rule="evenodd" d="M62.687 51.977c-1.321 4.923-6.39 7.846-11.322 6.527-4.933-1.32-7.858-6.383-6.537-11.306 1.32-4.923 6.39-7.847 11.322-6.527 4.933 1.32 7.858 6.383 6.537 11.306Zm.966.258c-1.464 5.458-7.082 8.697-12.547 7.234-5.465-1.462-8.708-7.072-7.244-12.53 1.464-5.457 7.082-8.696 12.547-7.233 5.465 1.462 8.708 7.072 7.244 12.53Zm-14.351.498 4.272-2.463 2.467 4.266.866-.5-2.466-4.266 4.271-2.462-.5-.866-4.271 2.463-2.467-4.267-.866.501 2.466 4.265-4.271 2.463.499.866Z" clip-rule="evenodd"/><path stroke="var(--steel-90, #001729)" stroke-linecap="round" stroke-linejoin="round" stroke-miterlimit="10" d="m219.181 41.915 1.086 3.096M272.833 44.691l-4.07 1.732"/><path fill="var(--unique-black, #111111)" d="m273.375 70.036-.322.218c-1.576.908-3.631.42-4.525-1.243l-.219-.322c-.912-1.572-.424-3.62 1.242-4.511l.322-.217c1.576-.908 3.631-.42 4.525 1.243l.219.321c.912 1.573.424 3.621-1.242 4.511Z"/><path stroke="var(--steel-90, #001729)" d="M258.222 40.297c-.902 4.688-5.446 7.757-10.152 6.852-4.706-.905-7.786-5.441-6.885-10.13.902-4.687 5.446-7.757 10.152-6.851 4.706.905 7.786 5.441 6.885 10.129Z"/></svg>
