<svg xmlns="http://www.w3.org/2000/svg" width="300" height="164" fill="none"><path fill="var(--unique-white)" d="M98.192 91.177c-4.425-.85-24.01-9.458-24.049-13.38.257-2.42 4.853-.728 6.617.734 0 0-8.137-5.196-5.938-7.156 2.2-1.96 6.874 3.266 8.559 4.048 0 0-1.446-9.058 2.296-8.536 1.156.425.678 9.293 3.43 8.513 2.752-.78-2.148-3.459-1.039-5.501 1.352-2.49 6.896 5.872 14.61 9.033"/><path stroke="var(--unique-black)" stroke-linecap="round" stroke-linejoin="round" stroke-miterlimit="10" stroke-width=".8" d="M98.192 91.177c-4.425-.85-24.01-9.458-24.049-13.38.257-2.42 4.853-.728 6.617.734 0 0-8.137-5.196-5.938-7.156 2.2-1.96 6.874 3.266 8.559 4.048 0 0-1.446-9.058 2.296-8.536 1.156.425.678 9.293 3.43 8.513 2.752-.78-2.148-3.459-1.039-5.501 1.352-2.49 6.896 5.872 14.61 9.033"/><path fill="var(--unique-white)" d="M219.596 90.365c4.408-.929 23.834-9.882 23.802-13.803-.3-2.416-4.864-.642-6.601.851 0 0 8.041-5.339 5.808-7.26-2.233-1.92-6.813 3.388-8.483 4.2 0 0 1.284-9.08-2.448-8.492-1.147.445-.512 9.301-3.277 8.57-2.765-.73 2.086-3.495.941-5.517-1.395-2.465-6.789 5.993-14.444 9.29"/><path stroke="var(--unique-black)" stroke-linecap="round" stroke-linejoin="round" stroke-miterlimit="10" stroke-width=".8" d="M219.596 90.365c4.408-.929 23.834-9.882 23.802-13.803-.3-2.416-4.864-.642-6.601.851 0 0 8.041-5.339 5.808-7.26-2.233-1.92-6.813 3.388-8.483 4.2 0 0 1.284-9.08-2.448-8.492-1.147.445-.512 9.301-3.277 8.57-2.765-.73 2.086-3.495.941-5.517-1.395-2.465-6.789 5.993-14.444 9.29"/><path fill="var(--brand-sapphire-10)" d="M254.93 157.957H64.246l25.793-40.51h139.089l25.802 40.51Z"/><mask id="a" fill="var(--unique-white)"><path d="M136.736 89.008c-4.272 12.107-9.006 41.158-9.006 41.158l65.527-1.581s-6.68-23.196-9.528-41.358l-46.993 1.78Z"/></mask><path fill="var(--brand-sapphire-60)" stroke="var(--unique-black)" stroke-width="1.6" d="M136.736 89.008c-4.272 12.107-9.006 41.158-9.006 41.158l65.527-1.581s-6.68-23.196-9.528-41.358l-46.993 1.78Z" mask="url(#a)"/><g opacity=".31"><path fill="var(--unique-white)" d="M148.256 86.72c.356-1.895.84-3.775 1.467-5.605a37.166 37.166 0 0 1 2.335-5.32c1.837-3.42 4.301-6.524 7.291-9.031 3.019-2.472 6.579-4.28 10.367-5.185a23.605 23.605 0 0 1 5.781-.648c1.944.042 3.874.349 5.718.925a20.951 20.951 0 0 0-5.718-.648c-1.915.029-3.83.3-5.674.79-3.696.977-7.184 2.75-10.118 5.2-2.962 2.422-5.376 5.477-7.27 8.803a37.815 37.815 0 0 0-2.456 5.206 40.431 40.431 0 0 0-1.723 5.513ZM181.784 73.287c-.918-.456-1.829-.94-2.819-1.14-.961-.228-2.022-.114-2.813.413a2.363 2.363 0 0 0-.868 1.069c-.185.441-.285.94-.442 1.445a8.535 8.535 0 0 1-1.474 2.792 8.587 8.587 0 0 1-2.413 2.03c-.912.513-1.859.912-2.777 1.346-.919.427-1.78.962-2.449 1.71-.684.726-1.161 1.687-1.097 2.727-.192-1.026.242-2.087.883-2.906.655-.826 1.552-1.431 2.456-1.916.905-.498 1.859-.883 2.72-1.403a8.092 8.092 0 0 0 2.236-1.937 8.071 8.071 0 0 0 1.424-2.592c.157-.47.263-.983.484-1.482a2.657 2.657 0 0 1 1.082-1.239c.955-.57 2.108-.612 3.112-.32 1.011.299 1.901.84 2.755 1.403ZM167.402 32.622c.399 1.972.712 3.96.933 5.96a66 66 0 0 1 .342 6.04c.035 2.002-.029 4.103-.862 6.026-.413.954-1.103 1.83-2.022 2.378-.926.556-2.001.727-3.012.784-1.025.043-2.029-.007-3.004.064a7.43 7.43 0 0 0-1.432.25c-.455.142-.89.341-1.296.605-1.623 1.082-2.549 2.934-3.631 4.615a21.53 21.53 0 0 1-3.902 4.636 21.151 21.151 0 0 1-5.041 3.305 21.116 21.116 0 0 0 4.856-3.511 21.53 21.53 0 0 0 3.724-4.658c.513-.862.997-1.745 1.581-2.585.577-.84 1.26-1.646 2.136-2.237.441-.292.918-.52 1.424-.676a8.098 8.098 0 0 1 1.538-.278c1.025-.086 2.036-.043 3.019-.093.982-.042 1.951-.2 2.769-.684.819-.477 1.439-1.246 1.83-2.129.805-1.788.876-3.825.897-5.812a67.414 67.414 0 0 0-.185-6.01 70.28 70.28 0 0 0-.662-5.99Z" opacity=".31"/></g><path fill="var(--unique-white)" stroke="var(--unique-black)" stroke-linecap="round" stroke-linejoin="round" stroke-miterlimit="10" stroke-width=".8" d="m199.892 113.876-3.848 25.502s-12.548-2.201-18.688-2.785c-6.139-.583-.496-18.107-.496-18.107l13.173 1.27c.014-.123 3.507-6.865 9.859-5.88Z"/><path stroke="var(--unique-black)" stroke-linecap="round" stroke-width=".8" d="m195.563 138.677 3.783-24.262M183.742 122.68l.689-6.731M186.829 123.367l.689-6.73"/><mask id="b" fill="var(--unique-white)"><path d="M177.357 137.074s-83.248-1.218-83.825-22.755c-.534-19.899 35.372-10.684 38.854-10.192l44.971 6.895v26.052Z"/></mask><path fill="var(--brand-sapphire-60)" stroke="var(--unique-black)" stroke-width="1.6" d="M177.357 137.074s-83.248-1.218-83.825-22.755c-.534-19.899 35.372-10.684 38.854-10.192l44.971 6.895v26.052Z" mask="url(#b)"/><path fill="var(--unique-white)" stroke="var(--unique-black)" stroke-linecap="round" stroke-linejoin="round" stroke-miterlimit="10" stroke-width=".8" d="m133.584 147.303-1.85-26.648s13.181-.601 19.519-1.394c6.338-.792 4.578 18.194 4.578 18.194l-13.603 1.683c.013.128-2.001 7.73-8.644 8.165Z"/><path stroke="var(--unique-black)" stroke-linecap="round" stroke-width=".8" d="m132.378 121.258 1.637 25.38M147.929 134.766l.818 6.959M144.655 134.766l.819 6.959"/><mask id="c" fill="var(--unique-white)"><path d="M152.077 141.098s79.094-7.847 76.751-29.263c-1.744-15.925-27.509-9.565-39.955-5.206-12.439 4.359-38.595 10.514-38.595 10.514l1.799 23.955Z"/></mask><path fill="var(--brand-sapphire-60)" stroke="var(--unique-black)" stroke-width="1.6" d="M152.077 141.098s79.094-7.847 76.751-29.263c-1.744-15.925-27.509-9.565-39.955-5.206-12.439 4.359-38.595 10.514-38.595 10.514l1.799 23.955Z" mask="url(#c)"/><path fill="var(--unique-white)" stroke="var(--unique-black)" stroke-linecap="round" stroke-linejoin="round" stroke-miterlimit="10" stroke-width=".8" d="m179.582 65.695 7.114 30.806h-53.811l4.542-30.674c-4.895 7.345-8.508 15.856-15.385 21.568-8.974 7.345-21.562 7.928-31.47 2.215l8.859-15.04c11.772 8.162 20.047-12.357 25.525-20.285 5.012-7.112 11.073-12.591 18.182-14.806l2.798-.7c2.447-.466 12.164-.701 12.164-.701s10.526.103 12.974.57l2.797.699c7.11 2.215 13.171 7.695 18.183 14.806 5.478 7.928 13.753 28.447 25.525 20.286l8.858 15.04c-9.907 5.713-22.495 5.13-31.47-2.215-6.876-5.713-10.489-14.224-15.385-21.569Z"/><path fill="var(--unique-black)" d="M167.967 26.757c-3.382-.634-6.447.74-8.244 3.595-.106.105-.106.211-.106.317-.105-1.269-.317-2.432-.739-3.383 2.113-1.586 3.17-4.757.951-7.295-3.065-3.488-8.35-4.228-11.731-1.374-6.236-1.374-13.423.106-17.122 5.286-4.544 6.131-2.219 11.946 2.537 15.434-1.585 3.7-1.057 8.14 3.065 10.36 5.39 2.96 11.414-.634 15.324-5.497a7.616 7.616 0 0 0 2.854-1.586c2.219-2.008 3.91-5.18 4.544-8.457.317 1.163 1.057 2.22 2.114 2.855.634.317 1.268.528 2.008.528.74.635 1.585 1.163 2.642 1.48 3.699 1.163 7.927-1.374 7.821-5.497-.211-3.383-2.642-6.237-5.918-6.766Z"/><path fill="var(--unique-white)" stroke="var(--unique-black)" stroke-linecap="round" stroke-linejoin="round" stroke-miterlimit="10" stroke-width=".8" d="M163.953 14.495c-4.228 0-7.715 3.172-8.138 7.295h-.212c-3.381 0-5.39 5.18.74 5.708.212.317.317.529.529.846l-2.748 11.206 5.707 9.303 4.756-9.832 2.114-6.871c3.064-1.163 5.178-5.92 5.495-9.41.317-5.496-3.699-8.245-8.243-8.245Z"/><path fill="var(--unique-black)" d="M161.627 19.674c1.797.529 7.927 2.326 10.674.529 5.919-6.238-4.227-5.709-8.454-5.709-4.439 0-8.033 3.277-8.138 7.717 1.374 0 4.121-1.797 5.918-2.537Z"/><path stroke="var(--unique-black)" stroke-linecap="round" stroke-linejoin="round" stroke-miterlimit="10" stroke-width=".8" d="M166.697 32.041a8.63 8.63 0 0 1-3.699 0M165.855 25.277s.846 2.642.634 4.44l-2.008-.317"/><path stroke="var(--unique-white)" stroke-linecap="round" stroke-linejoin="round" stroke-miterlimit="10" stroke-width=".8" d="M153.066 39.018h2.748M165.748 37.855l-2.325.846"/><path stroke="var(--steel-90)" stroke-linecap="round" stroke-width=".8" d="M29.912 40.457h-2.69M44.648 30.48v9.976h6.492M61.83 40.457h-2.69"/><ellipse cx="44.651" cy="40.457" stroke="var(--steel-90)" stroke-width=".8" rx="19.216" ry="19.222"/><path stroke="var(--steel-90)" stroke-linecap="round" stroke-width=".8" d="M44.648 23.23v2.691M44.648 55.194v2.69"/><path stroke="var(--steel-90)" stroke-linecap="round" stroke-linejoin="round" stroke-miterlimit="10" stroke-width=".8" d="m10.246 23.53 6.311-.091M14.762 6.043l8.316 7.98M90.8 17.786l2.06-9.683-9.68-2.06-2.06 9.682 9.68 2.06Z"/><path fill="var(--unique-black)" stroke="var(--unique-black)" stroke-linecap="round" stroke-linejoin="round" stroke-miterlimit="10" stroke-width=".8" d="m101.696 42.605.788-3.703-3.702-.788-.788 3.703 3.702.788Z"/><path stroke="var(--steel-90)" stroke-linecap="round" stroke-linejoin="round" stroke-miterlimit="10" stroke-width=".8" d="m268.604 98.746 21.15-2.358M64.469 108.783l-16.256 1.068M268.368 104.099l8.163 2.015M65.755 115.769l-6.858 4.866"/><ellipse cx="11.89" cy="11.15" stroke="var(--steel-90)" stroke-linecap="round" stroke-linejoin="round" stroke-miterlimit="10" stroke-width=".8" rx="11.89" ry="11.15" transform="matrix(-.97404 -.22639 -.22627 .97406 288.106 21.554)"/><path stroke="var(--steel-90)" stroke-linecap="round" stroke-linejoin="round" stroke-miterlimit="10" stroke-width=".8" d="M258.555 43.684c-4.798-1.115-7.858-5.584-6.837-9.983 1.022-4.399 5.739-7.061 10.537-5.946 4.797 1.115 7.858 5.585 6.836 9.984-.474 2.04-1.742 3.706-3.445 4.795"/><ellipse cx="4.46" cy="4.459" stroke="var(--steel-90)" stroke-linecap="round" stroke-linejoin="round" stroke-miterlimit="10" stroke-width=".8" rx="4.46" ry="4.459" transform="matrix(-.51697 -.856 -.85588 .51718 272.237 119.132)"/><path fill="var(--brand-sapphire-60)" d="m227.143 29.643-9.972.296-6.41 8.18-.452-9.048-8.338-2.829 6.44-3.953-1.442-9.224 7.701 3.984 10.06-7.318-3.894 11.817 6.307 8.095ZM36.602 97.591l-4.305-2.69-6.458 2.152 2.152-6.46-3.228-3.52 5.381-.318 2.153-5.383 2.69 4.306 6.996 1.077-5.38 5.453v5.383ZM268.263 67.26l.149-2.743-2.707-2.497 3.621-.668.823-2.45 1.557 2.467 3.111-.387-1.336 2.4 1.319 3.596-3.989-1.124-2.548 1.406Z"/></svg>
