<svg xmlns="http://www.w3.org/2000/svg" width="300" height="164" fill="none"><g clip-path="url(#a)"><path fill="var(--brand-sapphire-10)" d="M221.351 13.06c-18.435 7.86-27.07 29.202-19.141 47.608 7.928 18.405 29.418 26.903 47.853 19.043 18.434-7.86 27.069-29.203 19.141-47.608-7.929-18.406-29.418-26.904-47.853-19.044Z"/><path fill="var(--brand-sapphire-60)" d="m250.749 126.884-9.178 16.292-17.036-19.344-37.292 5.574 32.985-27.545-8.155-14.817 22.194-.144L244.66 61.66l13.303 21.606 36.409-3.079-27.746 23.653 21.233 40.574-37.11-17.529Z"/><path stroke="var(--steel-90)" stroke-linecap="round" stroke-linejoin="round" stroke-miterlimit="10" stroke-width=".8" d="m231.399 60.584-5.319-5.954M231.4 41.4l4.655 15.215M289.917 56.614l3.325-4.63"/><path fill="var(--unique-white)" stroke="var(--unique-black)" stroke-linecap="round" stroke-linejoin="round" stroke-miterlimit="10" stroke-width=".8" d="M226.034 18.418c24.594-9.85 47.73 2.403 56.499 24.639 8.768 22.235-2.416 47.487-24.766 56.21-20.066 7.75-42.474-.304-53.141-18.092a42.098 42.098 0 0 1-3.3-6.642c-.921-2.367-1.592-4.715-2.11-7.1-4.356-20.25 6.732-41.017 26.818-49.015ZM207.12 72.28c6.158 15.746 22.005 24.946 38.081 23.38 3.339-.344 6.753-1.03 10.015-2.329 19.088-7.425 28.622-28.86 21.216-47.946-7.463-18.99-27.128-29.43-48.192-21.108-18.954 7.636-28.526 28.917-21.12 48.003Z"/><path stroke="var(--steel-90)" stroke-linecap="round" stroke-linejoin="round" stroke-miterlimit="10" stroke-width=".8" d="M213.812 47.921c-1.983 4.688-2.573 9.804-1.864 14.756M221.714 37.378c-1.119.889-2.155 1.911-3.081 2.958"/><path fill="var(--unique-white)" stroke="var(--unique-black)" stroke-linecap="round" stroke-linejoin="round" stroke-miterlimit="10" stroke-width=".8" d="m127.581 95.149 5.411 13.742 71.48-27.678a42.094 42.094 0 0 1-3.3-6.642c-.921-2.367-1.592-4.714-2.11-7.1l-71.481 27.678Z"/><path fill="var(--unique-white)" stroke="var(--unique-black)" stroke-linecap="round" stroke-linejoin="round" stroke-miterlimit="10" stroke-width=".8" d="m188.919 71.522 5.359 13.688-8.859 3.434-5.36-13.689 8.86-3.433Z"/><path fill="var(--unique-white)" stroke="var(--unique-black)" stroke-linecap="round" stroke-linejoin="round" stroke-miterlimit="10" stroke-width=".8" d="M199.138 83.548c.127 2.524-6.472 4.786-8.492 3.27-2.208-1.499-1.622-3.428.081-3.387 1.226-.013 3.43 2.52 3.43 2.52s-2.253-3.092-.326-3.728c1.926-.637 3.446 2.707 3.446 2.707s-2.51-2.788-1.161-3.562c1.262-.673 2.859.316 3.022 2.18Z"/><path fill="var(--unique-white)" d="m165.54 93.827-1.967.497L174 104.5l3.5-2 6-7V94l-1 .324V92.5l-1-.5-5.897 1.849-10.063-.022Z"/><path fill="var(--unique-black)" d="m60.925 90.878-9.91-6.097-6.13 9.86 9.911 6.098 6.13-9.86ZM165.942 152.55l3.582-17.895-17.986-3.564-3.582 17.895 17.986 3.564Z"/><path fill="var(--brand-sapphire-10)" d="M52.98 45.94c-5.37 2.29-7.885 8.506-5.576 13.868 2.31 5.361 8.57 7.837 13.94 5.547 5.37-2.29 7.886-8.507 5.576-13.868-2.31-5.362-8.57-7.837-13.94-5.548Z"/><path stroke="var(--steel-90)" stroke-linecap="round" stroke-linejoin="round" stroke-miterlimit="10" stroke-width=".8" d="M53.721 37.646c-5.382-7.767-16.088-9.713-23.88-4.368-7.793 5.345-9.773 15.992-4.39 23.759 5.381 7.766 16.087 9.712 23.88 4.367 7.792-5.345 9.772-15.991 4.39-23.758ZM166.594 18.833c-3.619-1.025-7.42 1.068-8.454 4.684-1.034 3.616 1.089 7.386 4.708 8.41 3.619 1.025 7.42-1.067 8.454-4.683 1.034-3.616-1.089-7.386-4.708-8.411Z"/><path fill="var(--unique-black)" d="m184.188 31.226 3.033-4.622-4.646-3.018-3.033 4.622 4.646 3.018Z"/><path stroke="var(--steel-90)" stroke-linecap="round" stroke-linejoin="round" stroke-miterlimit="10" stroke-width=".8" d="m174.213 63.611-15.959 7.939"/><path fill="var(--unique-white)" d="m26.599 116.205-16.395-2.49-3.232 20.754s7.159 1.604 8.821-4.185l7.481.807"/><path stroke="var(--unique-black)" stroke-linecap="round" stroke-linejoin="round" stroke-miterlimit="10" d="m26.599 116.205-16.395-2.49-3.232 20.754s7.159 1.604 8.821-4.185l7.481.807"/><path fill="var(--unique-white)" d="m37.42 130.8-14.814.733.895 18.763s6.563.133 6.98-5.236l6.7-.624"/><path stroke="var(--unique-black)" stroke-linecap="round" stroke-linejoin="round" stroke-miterlimit="10" d="m37.42 130.8-14.814.733.895 18.763s6.563.133 6.98-5.236l6.7-.624"/><path fill="var(--unique-white)" stroke="var(--unique-black)" stroke-linecap="round" stroke-linejoin="round" stroke-miterlimit="10" d="M36.303 129.096c26.373-3.638 47.47-6.639 67.598-45.969 3.308-6.465 13.299-2.48 16.624 0 .848 46.23-37.401 59.375-83.952 61.196-.377-6.66-.27-15.227-.27-15.227Z"/><path fill="var(--brand-sapphire-60)" stroke="var(--unique-black)" stroke-linecap="round" stroke-linejoin="round" stroke-miterlimit="10" d="M22.514 115.585c26.527 2.275 52.988-3.514 81.387-37.42 8.312-9.924 14.348-7.971 18.352-3.308 2.02.449 0 7.294 0 7.294-9.484 45.264-57.076 56.842-102.872 48.34 1.118-6.577 3.133-14.906 3.133-14.906Z"/><path stroke="var(--steel-90)" stroke-linecap="round" stroke-width=".8" d="m152.269 66.92 5.984-7.94M70.154 30.532l-8.644-8.6M66.497 12.008l4.156 7.443"/><path fill="var(--unique-white)" d="m140.5 50-11 8 5.5 5 7.5-5.5h3l2-1.5 1.5-1.5h1.5V52l-.5-4.5h-1l-4.5.5H141l-.5 2Z"/><path fill="var(--unique-black)" d="M132.844 68.06c-2.058 11.951 12.804 16.026 21.69 16.812 4.133.359 6.442 5.36 5.733 8.898-.885 4.356-4.913 6.009-8.944 5.703-18.391-1.638-36.664-14.296-33.101-34.71 1.53-9.492 16.255-6.141 14.622 3.297ZM144.675 42.635c2.286.598 4.302 2.274 5.508 4.893-2.211 1.27-6.087 1.356-7.648.836-1.505-.339-2.098 1.634-1.15 2.44.765.862-2.282 1.69-3.006 1.612-.303-.007-.542-.133-.781-.26-.504-1.638-.268-3.8 1.248-6.352l.825-1.546c1.472-.747 3.238-1.185 5.004-1.623Z"/><path stroke="var(--unique-black)" stroke-linecap="round" stroke-linejoin="round" stroke-miterlimit="10" stroke-width=".8" d="M138.663 45.86c-1.333 2.496-1.744 4.413-1.303 6.17l-4.691 3.618-5.183 3.967 4.761 5.718 5-3.911 5.493-4.261c4.022 1.364 5.997-2.623 5.997-2.623l1.759-.137s.673-2.693-.496-6.817c-1.105-4.243-8.297-7.13-11.337-1.725Z"/><path fill="var(--unique-black)" d="M142.001 43.05c-.563-4.108 3.407-10.394-4.136-8.894-7.544 1.5-10.811 8.767-19.523 1.266-8.711-7.502-13.67-2.806-19.7-6.146-6.031-3.34-11.173-3.467-4.374 3.023 6.8 6.491 13.413 5.871 20.78 13.882 7.367 8.01 18.659 6.662 18.282-.092-.376-6.754 2.891-9.143 4.4-6.516a28.565 28.565 0 0 1 2.292 5.175l1.979-1.698ZM132.347 58.93c7.544 4.77 7.76 21.054 1.26 22.182l-6.408 11.998-22.887-16.618s3.152-3.854 8.908-10.46c6.667-7.82 10.309-12.676 19.127-7.101Z"/><path stroke="var(--unique-white)" stroke-linecap="round" stroke-linejoin="round" stroke-miterlimit="10" stroke-width=".8" d="M138.455 75.586c-1.737 7.485-8.681 11.248-8.681 11.248"/><path fill="var(--unique-black)" stroke="var(--unique-black)" stroke-linecap="round" stroke-linejoin="round" stroke-miterlimit="10" stroke-width=".8" d="M119.357 62.884c5.121-8.115 18.462-1.193 13.287 7.024-6.302 9.838-4.451 22.813 6.118 28.791 8.681 4.85 18.644 1.902 25.687-4.415 3.485 3.537 6.519 6.445 10.16 9.934-10.596 11.742-28.25 15.84-42.907 7.7-17.362-9.699-23.116-32.3-12.345-49.034Z"/><path stroke="var(--unique-white)" stroke-linecap="round" stroke-linejoin="round" stroke-miterlimit="10" stroke-width=".8" d="M131.278 89.4c-2.661-5.179-3.239-10.936-1.685-19.668M115.974 67.749c-7.085 17.032 1.227 31.918 1.227 31.918"/><path fill="var(--unique-white)" d="M164.448 94.285c2.636-3.953 5.086-8.786 6.233-7.006 1.146 1.78-2.556 6.994 3.283 5.386 5.008-1.525 5.408-3.009 6.717-1.534.233.262.204.572 0 .903-.945 1.534-5.651 3.542-5.651 3.542"/><path stroke="var(--unique-black)" stroke-linecap="round" stroke-linejoin="round" stroke-miterlimit="10" stroke-width=".8" d="M175.03 95.576s4.706-2.008 5.651-3.542m0 0c.204-.332.233-.64 0-.903-1.309-1.475-1.709.01-6.717 1.534-5.839 1.608-2.137-3.607-3.283-5.386-1.147-1.78-3.597 3.053-6.233 7.007 2.078 2.54 6.889 8.194 9.516 10.497 3.503-1.151 10.386-9.787 9.807-10.498-.463-.568-1.354-.236-1.742 0m-1.348-2.25c.451-.183 1.47-.312 1.933.63.195.398-.064.99-.585 1.62m-4.624 3.013c1.574-.381 3.603-1.773 4.624-3.013"/><path stroke="var(--steel-90)" stroke-linecap="round" stroke-width=".8" d="m35.742 79.819-12.468 2.48"/></g><defs><clipPath id="a"><path fill="var(--unique-white)" d="M0 0h300v164H0z"/></clipPath></defs></svg>
