<svg xmlns="http://www.w3.org/2000/svg" width="300" height="164" fill="none"><g clip-path="url(#a)"><path fill="var(--brand-sapphire-10, #d5e8fd)" fill-rule="evenodd" d="M94.626 39.459c-4.713-8.67-16.214-14.794-29.655-14.794-16.182 0-29.553 8.876-31.65 20.387a29.54 29.54 0 0 0-3.251-.179c-13.649 0-24.713 9.326-24.713 20.83 0 11.503 11.064 20.828 24.713 20.828 5.66 0 10.877-1.604 15.044-4.302 4.201 6.444 12.331 10.812 21.672 10.812 8.61 0 16.193-3.712 20.617-9.341 4.6 2.39 10.05 3.774 15.892 3.774 16.462 0 29.807-10.985 29.807-24.535s-13.345-24.534-29.807-24.534c-3.015 0-5.926.369-8.67 1.054Z" clip-rule="evenodd"/><path fill="var(--unique-white, #ffffff)" stroke="var(--unique-black, #111111)" stroke-linecap="round" stroke-linejoin="round" stroke-miterlimit="10" stroke-width=".8" d="M43.68 53.724c-22.142 17.949-33.213 45.3-36.62 62.393 8.516 2.849 31.34 9.743 54.505 14.53 17.884-6.838 39.175-21.368 39.175-52.136-14.478-16.24-37.472-24.787-57.06-24.787Z"/><path stroke="var(--unique-black, #111111)" stroke-linecap="round" stroke-linejoin="round" stroke-miterlimit="10" stroke-width=".8" d="M34.312 77.921c4.826-3.418 16.863-8.718 26.4-2.564M11.319 113.553c5.961-4.273 32.362-11.966 49.394 8.547"/><path stroke="var(--unique-black, #111111)" stroke-linecap="round" stroke-linejoin="round" stroke-miterlimit="10" stroke-width=".8" d="M59.01 127.228c-1.136-1.994-4.77-6.496-10.22-8.547"/><path fill="var(--unique-white, #ffffff)" stroke="var(--unique-black, #111111)" stroke-linecap="round" stroke-linejoin="round" stroke-miterlimit="10" stroke-width=".8" d="M83.561 59.66c3.352 3.521 4.89 6.72 4.847 9.669l21.722 6.224-6.945 11.328-19.095-9.268c-5.36 8.39-13.403 1.246-13.403 1.246l-2.843.507s-2.28-4.08-2.136-11.765c-.163-7.526 10.487-15.712 17.853-7.941Z"/><path fill="var(--unique-black, #111111)" d="M78.39 65.477c-2.37 1.432-8.935 3.195-13.03 2.013-8.103-1.435-.574-9.848 4.903-8.996.613-.319 1.11-.675 1.838-.958 2.384-.267 3.957-.794 6.499-.753.385-.006 1.196.254 1.93.36.62.457 1.395.833 2.016 1.29.352.5.742.882 1.131 1.264 3.584 3.596 4.932 6.99 4.85 10.057-.343.277-.802.516-1.261.756-1.035.441-6.62.328-5.677-1.431.901-2.031-.943-5.07-3.198-3.602Z"/><path fill="var(--unique-black, #111111)" d="M76.436 69.617c-.477-1.313-.991-2.508-1.468-3.82-.2-.58-.13-1.202.483-1.52.46-.24 1.308-.097 1.507.482.477 1.312.992 2.507 1.469 3.82.199.579.129 1.2-.484 1.52-.46.24-1.192.134-1.507-.483Z"/><path fill="var(--unique-black, #111111)" stroke="var(--unique-black, #111111)" stroke-linecap="round" stroke-linejoin="round" stroke-miterlimit="10" stroke-width=".8" d="M87.526 83.156c4.59-12.99 18.084-19.772 30.505-22.887l67.557 5.15 1.783 29.205c-17.399 4.305-56.419 13.505-73.302 15.864-21.105 2.949-31.133-14.344-26.543-27.332Z"/><path fill="var(--unique-black, #111111)" stroke="var(--unique-black, #111111)" stroke-linecap="round" stroke-linejoin="round" stroke-miterlimit="10" stroke-width=".8" d="m61.934 91.08-7.182 11.363s22.718 39.437 74.944 29.059c39.997-7.949 65.898-43.694 51.816-56.12-15.915-14.045-21.631-13.734-45.814 13.41-34.057 38.227-73.764 2.288-73.764 2.288Z"/><path fill="var(--unique-white, #ffffff)" stroke="var(--unique-black, #111111)" stroke-linecap="round" stroke-linejoin="round" stroke-miterlimit="10" stroke-width=".8" d="M97.333 153.724C85.41 92.186 99.037 80.22 121.18 48.597c58.763-18.804 132.855-11.111 166.069 0 10.219 17.777 7.664 73.218 5.11 87.178-56.208 26.495-120.885 27.654-195.025 17.949Z"/><path stroke="var(--unique-black, #111111)" stroke-linecap="round" stroke-linejoin="round" stroke-miterlimit="10" stroke-width=".8" d="M282.138 52.015c2.271 3.704 6.984 13.162 7.665 21.367m.852 6.838v5.128"/><mask id="b19" width="154" height="93" x="120" y="44" maskUnits="userSpaceOnUse" style="mask-type:alpha"><path fill="#E5F0FF" stroke="#000" stroke-linecap="round" stroke-linejoin="round" stroke-miterlimit="10" stroke-width=".8" d="M121.652 133.38c-2.726-21.88 6.501-65.31 23.534-83.26 33.214-6.837 88.57-6.338 117.525 0 5.451 19.145 11.639 44.16 10.219 54.701-50.246 28.559-89.96 35.397-151.278 28.559Z"/></mask><g mask="url(#b19)"><path fill="var(--brand-sapphire-60, #1952b6)" d="m180.794 80.28 14.539-14.59 13.614 13.663-14.539 14.59z"/><path fill="var(--brand-sapphire-10, #d5e8fd)" d="m138.822 123.628 14.221-14.272 13.983 14.033-14.221 14.272z"/><path fill="var(--brand-sapphire-60, #1952b6)" d="m252.331 92.246 14.539-14.59 13.614 13.662-14.539 14.591zM126.289 52.93l14.539-14.59 13.614 13.662-14.539 14.591z"/><path fill="var(--steel-90, #001729)" fill-rule="evenodd" d="M208.965-33.593 75.017 104.509l.572.559L209.537-33.034l-.572-.56Zm14.109 13.688L89.125 118.197l.573.559L223.646-19.346l-.572-.56Zm-119.839 151.79L237.183-6.218l.573.56-133.949 138.102-.572-.559ZM251.293 7.47 117.345 145.572l.572.559L251.865 8.029l-.572-.56Zm-119.84 151.79L265.402 21.157l.572.56-133.948 138.102-.573-.559ZM279.511 34.846 145.563 172.949l.572.559L280.084 35.405l-.573-.56Zm-119.838 151.79L293.621 48.533l.572.56-133.948 138.102-.572-.559ZM307.731 62.221 173.782 200.324l.572.559L308.303 62.78l-.572-.559Z" clip-rule="evenodd"/><path fill="var(--steel-90, #001729)" fill-rule="evenodd" d="M184.369-32.664 320.16 103.615l.565-.567L184.934-33.23l-.565.566ZM305.707 118.12 169.916-18.159l.565-.567 135.79 136.279-.564.566ZM155.464-3.655l135.791 136.278.564-.566L156.028-4.222l-.564.567Zm121.337 150.783L141.011 10.85l.564-.567 135.791 136.279-.565.566ZM126.558 25.354l135.79 136.279.565-.567L127.122 24.788l-.564.566Zm121.338 150.783L112.105 39.859l.565-.567 135.791 136.279-.565.566ZM97.653 54.364l135.791 136.279.564-.567L98.218 53.798l-.565.566Zm121.338 150.783L83.2 68.869l.565-.567 135.79 136.279-.564.566Zm-14.453 14.505L68.748 83.373l.564-.566 135.791 136.278-.565.567Z" clip-rule="evenodd"/><path stroke="var(--unique-black, #111111)" stroke-linecap="round" stroke-linejoin="round" stroke-miterlimit="10" stroke-width=".8" d="M121.652 133.38c-2.726-21.88 6.501-65.31 23.534-83.26 33.214-6.837 88.57-6.338 117.525 0 5.451 19.145 11.639 44.16 10.219 54.701-50.246 28.559-89.96 35.397-151.278 28.559Z"/></g><path stroke="var(--unique-black, #111111)" stroke-linecap="round" stroke-linejoin="round" stroke-miterlimit="10" stroke-width=".8" d="M53.207 91.48c-.324-.414-2.843-2.492-4.2-4.015m0 0c-1.186-1.33-.463-3.387 2.102-1.854a82.946 82.946 0 0 1 8.25 5.643m-10.352-3.79c-.936-.58-2.119-1.657-2.891-1.048-.772.609-.67 1.716.043 2.505m4.124 3.611s-2.51-2.407-4.124-3.61m0 0c-1.699-.489-2.595 1.298-.703 3.031m3.118 3.182c-1.77-1.588-2.488-2.604-3.118-3.182m0 0c-2.523-2.31-1.505 1.925.884 4.318 2.388 2.393 3.735 4.661 9.777 6.791"/><path stroke="var(--unique-black, #111111)" stroke-linecap="round" stroke-linejoin="round" stroke-miterlimit="10" stroke-width=".8" d="M62.71 94.017c-.847-3.176-3.36-7.782-4.706-7.576-1.373.21-.937 1.993-.412 3.46"/><path stroke="var(--steel-90, #001729)" stroke-linecap="round" stroke-linejoin="round" stroke-miterlimit="10" stroke-width=".8" d="m103.295 13.554 14.478-3.418-10.22 16.239 10.22-2.564M92.224 22.956l8.516.854-8.516 6.838h5.961M87.114 46.887l5.11-1.71-3.407 7.693 4.258-.855"/><path fill="var(--unique-black, #111111)" stroke="var(--unique-black, #111111)" stroke-linecap="round" stroke-linejoin="round" stroke-miterlimit="10" stroke-width=".8" d="M79.998 141.382a6.774 6.774 0 0 0-9.439-1.742c-3.085 2.135-3.86 6.38-1.735 9.473a6.773 6.773 0 0 0 9.438 1.741c3.086-2.135 3.86-6.379 1.736-9.472Z"/><path stroke="var(--steel-90, #001729)" stroke-linecap="round" stroke-linejoin="round" stroke-miterlimit="10" stroke-width=".8" d="M52.57 19.469c-4.508-6.563-13.48-8.225-20.028-3.695-6.547 4.53-8.19 13.537-3.682 20.1 4.508 6.562 13.48 8.225 20.028 3.695 6.547-4.53 8.19-13.538 3.682-20.1Z"/><path fill="var(--brand-sapphire-60, #1952b6)" d="m174.118 26.536-7.828.233-5.031 6.443-.356-7.127-6.544-2.227 5.054-3.114-1.131-7.264 6.045 3.137 7.897-5.763-3.057 9.307 4.951 6.375ZM41.264 157.344l-6.813-4.272-10.22 3.418 3.407-10.256-5.11-5.589 8.516-.506 3.407-8.547 4.258 6.838 11.071 1.709-8.516 8.659v8.546ZM148.309 16.852l-4.033-2.53-6.05 2.024 2.016-6.07-3.024-3.31 5.041-.299 2.017-5.06 2.52 4.048 6.554 1.012-5.041 5.126v5.059Z"/><path stroke="var(--steel-90, #001729)" stroke-linecap="round" stroke-linejoin="round" stroke-miterlimit="10" stroke-width=".8" d="M78.598 29.793V5.862M72.636 27.23l-2.555-11.112M122.031 36.631l11.071-11.965M251.903 13.965c-3.07-4.47-9.181-5.602-13.64-2.517-4.46 3.085-5.578 9.22-2.508 13.69 3.07 4.469 9.181 5.601 13.64 2.516 4.459-3.085 5.578-9.22 2.508-13.69Z"/><path fill="var(--unique-white, #ffffff)" stroke="var(--unique-black, #111111)" stroke-linecap="round" stroke-linejoin="round" stroke-miterlimit="10" stroke-width=".8" d="m228.49 146.243 36.192 3.137s.865-13.975 1.841-20.709c.977-6.735-24.352-5.971-24.352-5.971l-2.497 15.351c-.141-.088-10.454-.295-11.184 8.192Z"/><path stroke="var(--unique-black, #111111)" stroke-linecap="round" stroke-width=".8" d="m245.543 135.955-6.88-.915M250.195 131.286l-11.122.286"/><path fill="var(--unique-black, #111111)" stroke="var(--unique-black, #111111)" stroke-linecap="round" stroke-linejoin="round" stroke-miterlimit="10" stroke-width=".8" d="m247.288 155.166 36.267-2.095s-1.137-13.955-1.132-20.76c.006-6.806-24.954-2.41-24.954-2.41l-.281 15.552c-.152-.067-10.388 1.209-9.9 9.713Z"/><path stroke="var(--brand-sapphire-10, #d5e8fd)" stroke-linecap="round" stroke-width=".8" d="m265.765 140.825-9.277.237M266.433 135.955l-10.034 1.616"/><path stroke="var(--unique-black, #111111)" stroke-linecap="round" stroke-linejoin="round" stroke-miterlimit="10" stroke-width=".8" d="M101.592 147.74c.851-4.273-5.11-29.914-2.555-41.88m1.703-7.692c.284-3.419 1.533-11.282 4.258-15.385M194.829 144.413l23.714-.682m-12.23 6.552 13.226-1.67"/></g><defs><clipPath id="a"><path fill="var(--unique-white, #ffffff)" d="M0 0h300v164H0z"/></clipPath></defs></svg>
