<svg xmlns="http://www.w3.org/2000/svg" width="300" height="164" fill="none"><g clip-path="url(#a)"><path fill="var(--brand-sapphire-10, #d5e8fd)" d="m214.064 77.947 10.775 19.239 19.998-22.843 43.775 6.583-38.719-32.528 9.573-17.497-26.053-.17L221.212.922l-15.615 25.515-42.739-3.636 32.57 27.932-24.925 47.913 43.561-20.7Z"/><path fill="var(--unique-white, #ffffff)" stroke="var(--unique-black, #111111)" stroke-linecap="round" stroke-linejoin="round" stroke-miterlimit="10" stroke-width=".7" d="m188.273 157.896-17.847-.086s.259-8.543 0-12.685c-.172-4.142 12.329-2.071 12.329-2.071l.518 9.751c.086 0 5 .776 5 5.091Z"/><path stroke="var(--unique-black, #111111)" stroke-linecap="round" stroke-linejoin="round" stroke-miterlimit="10" stroke-width=".7" d="m184.124 149.018-3.967.086M184.124 151.103l-3.967.086"/><path fill="var(--unique-white, #ffffff)" stroke="var(--unique-black, #111111)" stroke-linecap="round" stroke-linejoin="round" stroke-miterlimit="10" stroke-width=".7" d="m74.726 160.14-4.656-17.259s8.277-1.984 12.243-3.279c3.966-1.294 5.26 11.477 5.26 11.477l-9.312 3.02c.086 0 .517 4.919-3.535 6.041Z"/><path stroke="var(--unique-black, #111111)" stroke-linecap="round" stroke-linejoin="round" stroke-miterlimit="10" stroke-width=".7" d="m82.816 153.622-1.12-3.797M80.443 154.37l-1.12-3.797"/><mask id="b8" fill="var(--unique-white, #ffffff)"><path d="M170.164 94.384c-11.553-13.806-30.262-16.309-47.161-15.705-3.19.087-4.742-2.847-5.777-.518-.431.69-1.465 6.213-1.638 7.249-4.828 20.278-11.381 47.115-34.4 53.155 2.24 4.401 4.224 8.975 6.207 13.462 25.348-7.766 35.263-34.862 41.298-58.765 11.467.087 23.538 2.071 31.039 11.477 9.053 11.391 9.139 27.009 9.139 40.902h14.657c0-18.035-1.293-36.76-13.364-51.257Z"/></mask><path fill="var(--brand-sapphire-60, #1952b6)" stroke="var(--unique-black, #111111)" stroke-width="1.4" d="M170.164 94.384c-11.553-13.806-30.262-16.309-47.161-15.705-3.19.087-4.742-2.847-5.777-.518-.431.69-1.465 6.213-1.638 7.249-4.828 20.278-11.381 47.115-34.4 53.155 2.24 4.401 4.224 8.975 6.207 13.462 25.348-7.766 35.263-34.862 41.298-58.765 11.467.087 23.538 2.071 31.039 11.477 9.053 11.391 9.139 27.009 9.139 40.902h14.657c0-18.035-1.293-36.76-13.364-51.257Z" mask="url(#b8)"/><path fill="var(--unique-white, #ffffff)" stroke="var(--unique-black, #111111)" stroke-linecap="round" stroke-linejoin="round" stroke-miterlimit="10" stroke-width=".7" d="M78.545 109.295c-.975-.732 3.427-3.263 3.427-3.263s-4.455 2.404-5.044 1.522c-.393-.587 1.203-2.321 2.149-3.282-1.037.922-2.867 2.451-3.547 1.531-.967-1.253 3.7-5.666 2.755-5.964-.944-.299-4.167 2.736-4.522.8-.452-2.713 6.558-3.816 9.161-6.906.409-.455.726-.95 1.044-1.444 3.273 2.132 6.455 4.225 9.728 6.357-1.233 1.889-2.648 3.7-4.298 5.306-.204.228-.37.367-.628.467-5.666 5.247-9.341 5.568-10.225 4.876Z"/><path fill="var(--unique-white, #ffffff)" stroke="var(--unique-black, #111111)" stroke-linecap="round" stroke-linejoin="round" stroke-miterlimit="10" stroke-width=".7" d="M93.042 100.073s15.806-25.853 28.994-31.4c6.606-2.728 3.153-13.364-3.544-10.61-20.653 8.759-35.234 35.136-35.234 35.136l9.784 6.874Z"/><path fill="var(--unique-white, #ffffff)" stroke="var(--unique-black, #111111)" stroke-linecap="round" stroke-linejoin="round" stroke-miterlimit="10" stroke-width=".7" d="M122.248 56.72c-10.754 3-10.738 4.47-10.189 12.083.549 7.613 3.468 19.812 3.468 19.812l19.824-8.873s-3.265-13.085-3.628-17.21c-.297-4.243-1-8.176-9.475-5.811Z"/><path fill="var(--unique-white, #ffffff)" d="M120.388 64.017c.153-4.042.664-6.407 4.196-7.481 12.838-3.97 15.82-22.92 9.129-33.468 2.964-2.182 6.257-3.976 9.34-6.099 9.977 15.641 5.345 39.53-10.969 48.348"/><path stroke="var(--unique-black, #111111)" stroke-linecap="round" stroke-linejoin="round" stroke-miterlimit="10" stroke-width=".7" d="M120.388 64.017c.153-4.042.664-6.407 4.196-7.481 12.838-3.97 15.82-22.92 9.129-33.468 2.964-2.182 6.257-3.976 9.34-6.099 9.977 15.641 5.345 39.53-10.969 48.348"/><path fill="var(--unique-white, #ffffff)" stroke="var(--unique-black, #111111)" stroke-linecap="round" stroke-linejoin="round" stroke-miterlimit="10" stroke-width=".7" d="M128.817 7.94c-.912.733 3.414 3.117 3.414 3.117s-4.372-2.258-4.908-1.386c-.357.582 1.241 2.243 2.185 3.163-1.03-.88-2.846-2.336-3.468-1.424-.886 1.243 3.763 5.458 2.864 5.769-.899.31-4.108-2.589-4.381-.691-.338 2.658 6.447 3.595 9.062 6.56.409.437.733.913 1.056 1.39 3.074-2.148 6.062-4.256 9.136-6.403-1.254-1.82-2.68-3.56-4.325-5.095-.204-.219-.369-.351-.62-.444-5.64-5.01-9.188-5.25-10.015-4.556ZM109.47 51.663c-3.205-2.47-.736-6.818 2.1-7.187 2.837-.368 4.541.269 4.541.269l-.063 1.07s2.38 1.683 1.099 4.089l4.381 7.502-4.039 2.579-4.075-7.016c-1.218.197-2.467-.212-3.944-1.306Z"/><mask id="c" fill="var(--unique-white, #ffffff)"><path d="M111.167 44.585c1.555.897.792 3.602.25 4.844-.393.983.848 1.526 1.485.96.628-.432.973 1.667.816 2.06-.079.197-.087.33-.165.527-1.218.197-2.467-.213-4.007-1.377-3.15-2.265-1.035-6.299 1.621-7.014Z"/></mask><path fill="var(--unique-black, #111111)" stroke="var(--unique-black, #111111)" stroke-width="1.4" d="M111.167 44.585c1.555.897.792 3.602.25 4.844-.393.983.848 1.526 1.485.96.628-.432.973 1.667.816 2.06-.079.197-.087.33-.165.527-1.218.197-2.467-.213-4.007-1.377-3.15-2.265-1.035-6.299 1.621-7.014Z" mask="url(#c)"/><mask id="ds" fill="var(--unique-white, #ffffff)"><path d="M107.763 48.748c-.135 2.273 3.438 8.722-10.273 13.947-13.712 5.225-5.927 9.576-8.568 14.584-2.712 5.071-5.148 6.604-2.73 8.76 1.658 1.439 9.32-4.614 10.108-10 .559-3.79 1.666-3.255 7.166-4.472 10.521-2.262 21.042-4.524 11.933-20.49-4.437-7.707-7.636-2.329-7.636-2.329Z"/></mask><path fill="var(--unique-black, #111111)" stroke="var(--unique-black, #111111)" stroke-width="1.4" d="M107.763 48.748c-.135 2.273 3.438 8.722-10.273 13.947-13.712 5.225-5.927 9.576-8.568 14.584-2.712 5.071-5.148 6.604-2.73 8.76 1.658 1.439 9.32-4.614 10.108-10 .559-3.79 1.666-3.255 7.166-4.472 10.521-2.262 21.042-4.524 11.933-20.49-4.437-7.707-7.636-2.329-7.636-2.329Z" mask="url(#ds)"/><path fill="var(--unique-black, #111111)" d="m41.157 96.363-6.93-4.289-4.286 6.936 6.93 4.289 4.286-6.936Z"/><path fill="var(--brand-sapphire-10, #d5e8fd)" d="M45.209 47.906c-5.435 2.331-7.951 8.634-5.623 14.07 2.328 5.436 8.623 7.959 14.058 5.628 5.434-2.331 7.95-8.634 5.623-14.07-2.328-5.436-8.623-7.959-14.058-5.628Z"/><path stroke="var(--steel-90, #001729)" stroke-linecap="round" stroke-linejoin="round" stroke-miterlimit="10" stroke-width=".8" d="M45.956 39.493c-5.426-7.877-16.21-9.863-24.083-4.431C14 40.494 12.02 51.288 17.446 59.165c5.426 7.877 16.21 9.863 24.082 4.431 7.873-5.432 9.854-16.226 4.428-24.103Z"/><path stroke="var(--steel-90, #001729)" stroke-linecap="round" stroke-width=".8" d="m78.316 31.033-8.718-8.726M74.629 12.24l4.19 7.55M18.824 87.04 6.25 89.557"/><path stroke="var(--steel-90, #001729)" stroke-linecap="round" stroke-linejoin="round" stroke-miterlimit="10" stroke-width=".8" d="M219.195 111.015c3.623 1.182 5.602 5.083 4.422 8.707a6.9 6.9 0 0 1-8.699 4.426 6.909 6.909 0 0 1-4.422-8.706 6.902 6.902 0 0 1 8.699-4.427Z"/><path fill="var(--unique-black, #111111)" stroke="var(--unique-black, #111111)" stroke-linecap="round" stroke-linejoin="round" stroke-miterlimit="10" stroke-width=".8" d="M246.597 132.59a3.13 3.13 0 0 1-1.938 5.949 3.13 3.13 0 0 1 1.938-5.949Z"/><path fill="var(--brand-sapphire-60, #1952b6)" d="m257.184 112.333-.977-6.309-6.013-2.131 5.693-2.88.167-6.382 4.496 4.53 6.116-1.814-2.915 5.679 3.613 5.261-6.297-1.019-3.883 5.065ZM19.887 132.78l-.795-5.137-4.896-1.735 4.635-2.345.136-5.196 3.66 3.687 4.98-1.476-2.373 4.624 2.942 4.284-5.127-.83-3.162 4.124Z"/><ellipse cx="223.385" cy="49.754" fill="var(--unique-white, #ffffff)" stroke="var(--unique-black, #111111)" stroke-width=".8" rx="22.639" ry="22.658"/><path stroke="var(--unique-black, #111111)" stroke-linecap="round" stroke-width=".8" d="M206.025 49.754h-3.169M223.386 37.995v11.759h7.648M243.627 49.754h-3.169M223.383 29.447v3.171M223.383 67.126v3.171"/><path stroke="var(--steel-90, #001729)" stroke-linecap="round" stroke-linejoin="round" stroke-miterlimit="10" stroke-width=".8" d="m183.467 32.588 6.27-.091M58.842 139.628l3.297-.048M187.953 15.207l8.262 7.932M61.2 130.489l4.344 4.171M268.091 44.43l5.474-1.409M265.219 55.284l9.177 2.656"/></g><defs><clipPath id="a"><path fill="var(--unique-white, #ffffff)" d="M0 0h300v164H0z"/></clipPath></defs></svg>
